%TF.GenerationSoftware,KiCad,Pcbnew,9.0.0*%
%TF.CreationDate,2026-01-14T01:15:15+05:30*%
%TF.ProjectId,PortablePower,506f7274-6162-46c6-9550-6f7765722e6b,rev?*%
%TF.SameCoordinates,Original*%
%TF.FileFunction,Paste,Bot*%
%TF.FilePolarity,Positive*%
%FSLAX46Y46*%
G04 Gerber Fmt 4.6, Leading zero omitted, Abs format (unit mm)*
G04 Created by KiCad (PCBNEW 9.0.0) date 2026-01-14 01:15:15*
%MOMM*%
%LPD*%
G01*
G04 APERTURE LIST*
G04 Aperture macros list*
%AMRoundRect*
0 Rectangle with rounded corners*
0 $1 Rounding radius*
0 $2 $3 $4 $5 $6 $7 $8 $9 X,Y pos of 4 corners*
0 Add a 4 corners polygon primitive as box body*
4,1,4,$2,$3,$4,$5,$6,$7,$8,$9,$2,$3,0*
0 Add four circle primitives for the rounded corners*
1,1,$1+$1,$2,$3*
1,1,$1+$1,$4,$5*
1,1,$1+$1,$6,$7*
1,1,$1+$1,$8,$9*
0 Add four rect primitives between the rounded corners*
20,1,$1+$1,$2,$3,$4,$5,0*
20,1,$1+$1,$4,$5,$6,$7,0*
20,1,$1+$1,$6,$7,$8,$9,0*
20,1,$1+$1,$8,$9,$2,$3,0*%
G04 Aperture macros list end*
%ADD10R,1.900000X2.450000*%
%ADD11R,0.410000X0.500000*%
%ADD12R,0.630000X0.500000*%
%ADD13RoundRect,0.250000X0.450000X-0.350000X0.450000X0.350000X-0.450000X0.350000X-0.450000X-0.350000X0*%
%ADD14RoundRect,0.250001X-0.624999X0.462499X-0.624999X-0.462499X0.624999X-0.462499X0.624999X0.462499X0*%
%ADD15RoundRect,0.150000X-0.512500X-0.150000X0.512500X-0.150000X0.512500X0.150000X-0.512500X0.150000X0*%
%ADD16RoundRect,0.250001X0.624999X-0.462499X0.624999X0.462499X-0.624999X0.462499X-0.624999X-0.462499X0*%
%ADD17RoundRect,0.250000X0.337500X0.475000X-0.337500X0.475000X-0.337500X-0.475000X0.337500X-0.475000X0*%
%ADD18RoundRect,0.070000X0.070000X0.355000X-0.070000X0.355000X-0.070000X-0.355000X0.070000X-0.355000X0*%
%ADD19RoundRect,0.070000X0.070000X0.305000X-0.070000X0.305000X-0.070000X-0.305000X0.070000X-0.305000X0*%
%ADD20R,1.700000X0.800000*%
%ADD21RoundRect,0.237500X0.237500X-0.250000X0.237500X0.250000X-0.237500X0.250000X-0.237500X-0.250000X0*%
%ADD22RoundRect,0.250000X0.400000X0.625000X-0.400000X0.625000X-0.400000X-0.625000X0.400000X-0.625000X0*%
G04 APERTURE END LIST*
D10*
%TO.C,Q3*%
X150390000Y-99700000D03*
D11*
X151545000Y-100675000D03*
X151545000Y-100025000D03*
X151545000Y-99375000D03*
X151545000Y-98725000D03*
D12*
X148565000Y-98725000D03*
X148565000Y-99375000D03*
X148565000Y-100025000D03*
X148565000Y-100675000D03*
%TD*%
D13*
%TO.C,R4*%
X145750000Y-122500000D03*
X145750000Y-120500000D03*
%TD*%
D14*
%TO.C,D3*%
X133000000Y-126512500D03*
X133000000Y-129487500D03*
%TD*%
D15*
%TO.C,U1*%
X128862500Y-121950000D03*
X128862500Y-121000000D03*
X128862500Y-120050000D03*
X131137500Y-120050000D03*
X131137500Y-121000000D03*
X131137500Y-121950000D03*
%TD*%
D16*
%TO.C,D6*%
X148000000Y-129487500D03*
X148000000Y-126512500D03*
%TD*%
%TO.C,D2*%
X128000000Y-129487500D03*
X128000000Y-126512500D03*
%TD*%
D13*
%TO.C,R6*%
X155500000Y-92000000D03*
X155500000Y-90000000D03*
%TD*%
D17*
%TO.C,C12*%
X150000000Y-88500000D03*
X147925000Y-88500000D03*
%TD*%
D16*
%TO.C,D4*%
X138000000Y-129487500D03*
X138000000Y-126512500D03*
%TD*%
D18*
%TO.C,U3*%
X150500000Y-92025000D03*
D19*
X150000000Y-92075000D03*
X149500000Y-92075000D03*
X149500000Y-90925000D03*
X150000000Y-90925000D03*
X150500000Y-90925000D03*
%TD*%
D20*
%TO.C,S1*%
X150000000Y-119300000D03*
X150000000Y-122700000D03*
%TD*%
D15*
%TO.C,U2*%
X133862500Y-99450000D03*
X133862500Y-98500000D03*
X133862500Y-97550000D03*
X136137500Y-97550000D03*
X136137500Y-98500000D03*
X136137500Y-99450000D03*
%TD*%
D14*
%TO.C,D5*%
X143000000Y-126512500D03*
X143000000Y-129487500D03*
%TD*%
D21*
%TO.C,R7*%
X152250000Y-90925000D03*
X152250000Y-89100000D03*
%TD*%
D14*
%TO.C,D1*%
X143000000Y-119512500D03*
X143000000Y-122487500D03*
%TD*%
D22*
%TO.C,R9*%
X148550000Y-96500000D03*
X145450000Y-96500000D03*
%TD*%
M02*
