%TF.GenerationSoftware,KiCad,Pcbnew,9.0.0*%
%TF.CreationDate,2026-01-14T01:15:15+05:30*%
%TF.ProjectId,PortablePower,506f7274-6162-46c6-9550-6f7765722e6b,rev?*%
%TF.SameCoordinates,Original*%
%TF.FileFunction,Copper,L1,Top*%
%TF.FilePolarity,Positive*%
%FSLAX46Y46*%
G04 Gerber Fmt 4.6, Leading zero omitted, Abs format (unit mm)*
G04 Created by KiCad (PCBNEW 9.0.0) date 2026-01-14 01:15:15*
%MOMM*%
%LPD*%
G01*
G04 APERTURE LIST*
G04 Aperture macros list*
%AMRoundRect*
0 Rectangle with rounded corners*
0 $1 Rounding radius*
0 $2 $3 $4 $5 $6 $7 $8 $9 X,Y pos of 4 corners*
0 Add a 4 corners polygon primitive as box body*
4,1,4,$2,$3,$4,$5,$6,$7,$8,$9,$2,$3,0*
0 Add four circle primitives for the rounded corners*
1,1,$1+$1,$2,$3*
1,1,$1+$1,$4,$5*
1,1,$1+$1,$6,$7*
1,1,$1+$1,$8,$9*
0 Add four rect primitives between the rounded corners*
20,1,$1+$1,$2,$3,$4,$5,0*
20,1,$1+$1,$4,$5,$6,$7,0*
20,1,$1+$1,$6,$7,$8,$9,0*
20,1,$1+$1,$8,$9,$2,$3,0*%
G04 Aperture macros list end*
%TA.AperFunction,EtchedComponent*%
%ADD10C,0.010000*%
%TD*%
%TA.AperFunction,SMDPad,CuDef*%
%ADD11RoundRect,0.250000X0.412500X0.650000X-0.412500X0.650000X-0.412500X-0.650000X0.412500X-0.650000X0*%
%TD*%
%TA.AperFunction,SMDPad,CuDef*%
%ADD12R,0.500000X0.630000*%
%TD*%
%TA.AperFunction,SMDPad,CuDef*%
%ADD13R,0.500000X0.410000*%
%TD*%
%TA.AperFunction,SMDPad,CuDef*%
%ADD14R,2.450000X1.900000*%
%TD*%
%TA.AperFunction,ComponentPad*%
%ADD15R,1.431000X1.431000*%
%TD*%
%TA.AperFunction,ComponentPad*%
%ADD16C,1.431000*%
%TD*%
%TA.AperFunction,ComponentPad*%
%ADD17C,3.390000*%
%TD*%
%TA.AperFunction,SMDPad,CuDef*%
%ADD18RoundRect,0.050100X-0.099900X0.174900X-0.099900X-0.174900X0.099900X-0.174900X0.099900X0.174900X0*%
%TD*%
%TA.AperFunction,SMDPad,CuDef*%
%ADD19RoundRect,0.050100X-0.099900X0.324900X-0.099900X-0.324900X0.099900X-0.324900X0.099900X0.324900X0*%
%TD*%
%TA.AperFunction,SMDPad,CuDef*%
%ADD20RoundRect,0.050350X-0.424650X0.449650X-0.424650X-0.449650X0.424650X-0.449650X0.424650X0.449650X0*%
%TD*%
%TA.AperFunction,SMDPad,CuDef*%
%ADD21R,4.000000X4.000000*%
%TD*%
%TA.AperFunction,SMDPad,CuDef*%
%ADD22RoundRect,0.237500X-0.250000X-0.237500X0.250000X-0.237500X0.250000X0.237500X-0.250000X0.237500X0*%
%TD*%
%TA.AperFunction,SMDPad,CuDef*%
%ADD23RoundRect,0.250000X-1.100000X0.412500X-1.100000X-0.412500X1.100000X-0.412500X1.100000X0.412500X0*%
%TD*%
%TA.AperFunction,SMDPad,CuDef*%
%ADD24RoundRect,0.250000X0.625000X-0.400000X0.625000X0.400000X-0.625000X0.400000X-0.625000X-0.400000X0*%
%TD*%
%TA.AperFunction,SMDPad,CuDef*%
%ADD25R,3.300000X3.175000*%
%TD*%
%TA.AperFunction,SMDPad,CuDef*%
%ADD26RoundRect,0.237500X-0.300000X-0.237500X0.300000X-0.237500X0.300000X0.237500X-0.300000X0.237500X0*%
%TD*%
%TA.AperFunction,SMDPad,CuDef*%
%ADD27RoundRect,0.250000X-0.412500X-1.100000X0.412500X-1.100000X0.412500X1.100000X-0.412500X1.100000X0*%
%TD*%
%TA.AperFunction,SMDPad,CuDef*%
%ADD28C,4.000000*%
%TD*%
%TA.AperFunction,SMDPad,CuDef*%
%ADD29R,0.200000X0.850000*%
%TD*%
%TA.AperFunction,SMDPad,CuDef*%
%ADD30R,0.850000X0.200000*%
%TD*%
%TA.AperFunction,SMDPad,CuDef*%
%ADD31R,3.900000X3.900000*%
%TD*%
%TA.AperFunction,ComponentPad*%
%ADD32C,0.648000*%
%TD*%
%TA.AperFunction,ComponentPad*%
%ADD33C,1.300000*%
%TD*%
%TA.AperFunction,SMDPad,CuDef*%
%ADD34RoundRect,0.250000X-0.625000X0.400000X-0.625000X-0.400000X0.625000X-0.400000X0.625000X0.400000X0*%
%TD*%
%TA.AperFunction,SMDPad,CuDef*%
%ADD35RoundRect,0.237500X0.237500X-0.300000X0.237500X0.300000X-0.237500X0.300000X-0.237500X-0.300000X0*%
%TD*%
%TA.AperFunction,SMDPad,CuDef*%
%ADD36RoundRect,0.250000X0.475000X-0.337500X0.475000X0.337500X-0.475000X0.337500X-0.475000X-0.337500X0*%
%TD*%
%TA.AperFunction,ComponentPad*%
%ADD37R,1.350000X1.350000*%
%TD*%
%TA.AperFunction,ComponentPad*%
%ADD38O,1.350000X1.350000*%
%TD*%
%TA.AperFunction,ViaPad*%
%ADD39C,0.600000*%
%TD*%
%TA.AperFunction,Conductor*%
%ADD40C,0.200000*%
%TD*%
%TA.AperFunction,Conductor*%
%ADD41C,0.150000*%
%TD*%
%TA.AperFunction,Conductor*%
%ADD42C,0.600000*%
%TD*%
%TA.AperFunction,Conductor*%
%ADD43C,0.500000*%
%TD*%
%TA.AperFunction,Conductor*%
%ADD44C,1.000000*%
%TD*%
%TA.AperFunction,Conductor*%
%ADD45C,3.000000*%
%TD*%
G04 APERTURE END LIST*
D10*
%TO.C,J2*%
X122700320Y-117704930D02*
X122755840Y-117718770D01*
X122808070Y-117742170D01*
X122855370Y-117774390D01*
X122896250Y-117814430D01*
X122929460Y-117861040D01*
X122953950Y-117912770D01*
X122968950Y-117967990D01*
X122974010Y-118025000D01*
X122968950Y-118082010D01*
X122953950Y-118137230D01*
X122929460Y-118188960D01*
X122896250Y-118235570D01*
X122855370Y-118275610D01*
X122808070Y-118307830D01*
X122755840Y-118331230D01*
X122700320Y-118345070D01*
X122643220Y-118348930D01*
X122586330Y-118342690D01*
X122531430Y-118326530D01*
X122480230Y-118300960D01*
X122434320Y-118266790D01*
X122395150Y-118225070D01*
X122362810Y-118175000D01*
X121587190Y-118175000D01*
X121554850Y-118225070D01*
X121515680Y-118266790D01*
X121469770Y-118300960D01*
X121418570Y-118326530D01*
X121363670Y-118342690D01*
X121306780Y-118348930D01*
X121249680Y-118345070D01*
X121194160Y-118331230D01*
X121141930Y-118307830D01*
X121094630Y-118275610D01*
X121053750Y-118235570D01*
X121020540Y-118188960D01*
X120996050Y-118137230D01*
X120981050Y-118082010D01*
X120975990Y-118025000D01*
X120981050Y-117967990D01*
X120996050Y-117912770D01*
X121020540Y-117861040D01*
X121053750Y-117814430D01*
X121094630Y-117774390D01*
X121141930Y-117742170D01*
X121194160Y-117718770D01*
X121249680Y-117704930D01*
X121306780Y-117701070D01*
X121363670Y-117707310D01*
X121418570Y-117723470D01*
X121469770Y-117749040D01*
X121515680Y-117783210D01*
X121554850Y-117824930D01*
X121587190Y-117875000D01*
X122362810Y-117875000D01*
X122395150Y-117824930D01*
X122434320Y-117783210D01*
X122480230Y-117749040D01*
X122531430Y-117723470D01*
X122586330Y-117707310D01*
X122643220Y-117701070D01*
X122700320Y-117704930D01*
X122700320Y-118554930D02*
X122755840Y-118568770D01*
X122808070Y-118592170D01*
X122855370Y-118624390D01*
X122896250Y-118664430D01*
X122929460Y-118711040D01*
X122953950Y-118762770D01*
X122968950Y-118817990D01*
X122974010Y-118875000D01*
X122968950Y-118932010D01*
X122953950Y-118987230D01*
X122929460Y-119038960D01*
X122896250Y-119085570D01*
X122855370Y-119125610D01*
X122808070Y-119157830D01*
X122755840Y-119181230D01*
X122700320Y-119195070D01*
X122643220Y-119198930D01*
X122586330Y-119192690D01*
X122531430Y-119176530D01*
X122480230Y-119150960D01*
X122434320Y-119116790D01*
X122395150Y-119075070D01*
X122362810Y-119025000D01*
X121587190Y-119025000D01*
X121554850Y-119075070D01*
X121515680Y-119116790D01*
X121469770Y-119150960D01*
X121418570Y-119176530D01*
X121363670Y-119192690D01*
X121306780Y-119198930D01*
X121249680Y-119195070D01*
X121194160Y-119181230D01*
X121141930Y-119157830D01*
X121094630Y-119125610D01*
X121053750Y-119085570D01*
X121020540Y-119038960D01*
X120996050Y-118987230D01*
X120981050Y-118932010D01*
X120975990Y-118875000D01*
X120981050Y-118817990D01*
X120996050Y-118762770D01*
X121020540Y-118711040D01*
X121053750Y-118664430D01*
X121094630Y-118624390D01*
X121141930Y-118592170D01*
X121194160Y-118568770D01*
X121249680Y-118554930D01*
X121306780Y-118551070D01*
X121363670Y-118557310D01*
X121418570Y-118573470D01*
X121469770Y-118599040D01*
X121515680Y-118633210D01*
X121554850Y-118674930D01*
X121587190Y-118725000D01*
X122362810Y-118725000D01*
X122395150Y-118674930D01*
X122434320Y-118633210D01*
X122480230Y-118599040D01*
X122531430Y-118573470D01*
X122586330Y-118557310D01*
X122643220Y-118551070D01*
X122700320Y-118554930D01*
X122700320Y-123654930D02*
X122755840Y-123668770D01*
X122808070Y-123692170D01*
X122855370Y-123724390D01*
X122896250Y-123764430D01*
X122929460Y-123811040D01*
X122953950Y-123862770D01*
X122968950Y-123917990D01*
X122974010Y-123975000D01*
X122968950Y-124032010D01*
X122953950Y-124087230D01*
X122929460Y-124138960D01*
X122896250Y-124185570D01*
X122855370Y-124225610D01*
X122808070Y-124257830D01*
X122755840Y-124281230D01*
X122700320Y-124295070D01*
X122643220Y-124298930D01*
X122586330Y-124292690D01*
X122531430Y-124276530D01*
X122480230Y-124250960D01*
X122434320Y-124216790D01*
X122395150Y-124175070D01*
X122362810Y-124125000D01*
X121587190Y-124125000D01*
X121554850Y-124175070D01*
X121515680Y-124216790D01*
X121469770Y-124250960D01*
X121418570Y-124276530D01*
X121363670Y-124292690D01*
X121306780Y-124298930D01*
X121249680Y-124295070D01*
X121194160Y-124281230D01*
X121141930Y-124257830D01*
X121094630Y-124225610D01*
X121053750Y-124185570D01*
X121020540Y-124138960D01*
X120996050Y-124087230D01*
X120981050Y-124032010D01*
X120975990Y-123975000D01*
X120981050Y-123917990D01*
X120996050Y-123862770D01*
X121020540Y-123811040D01*
X121053750Y-123764430D01*
X121094630Y-123724390D01*
X121141930Y-123692170D01*
X121194160Y-123668770D01*
X121249680Y-123654930D01*
X121306780Y-123651070D01*
X121363670Y-123657310D01*
X121418570Y-123673470D01*
X121469770Y-123699040D01*
X121515680Y-123733210D01*
X121554850Y-123774930D01*
X121587190Y-123825000D01*
X122362810Y-123825000D01*
X122395150Y-123774930D01*
X122434320Y-123733210D01*
X122480230Y-123699040D01*
X122531430Y-123673470D01*
X122586330Y-123657310D01*
X122643220Y-123651070D01*
X122700320Y-123654930D01*
X122700320Y-122804930D02*
X122755840Y-122818770D01*
X122808070Y-122842170D01*
X122855370Y-122874390D01*
X122896250Y-122914430D01*
X122929460Y-122961040D01*
X122953950Y-123012770D01*
X122968950Y-123067990D01*
X122974010Y-123125000D01*
X122968950Y-123182010D01*
X122953950Y-123237230D01*
X122929460Y-123288960D01*
X122896250Y-123335570D01*
X122855370Y-123375610D01*
X122808070Y-123407830D01*
X122755840Y-123431230D01*
X122700320Y-123445070D01*
X122643220Y-123448930D01*
X122586330Y-123442690D01*
X122531430Y-123426530D01*
X122480230Y-123400960D01*
X122434320Y-123366790D01*
X122395150Y-123325070D01*
X122362810Y-123275000D01*
X121587190Y-123275000D01*
X121554850Y-123325070D01*
X121515680Y-123366790D01*
X121469770Y-123400960D01*
X121418570Y-123426530D01*
X121363670Y-123442690D01*
X121306780Y-123448930D01*
X121249680Y-123445070D01*
X121194160Y-123431230D01*
X121141930Y-123407830D01*
X121094630Y-123375610D01*
X121053750Y-123335570D01*
X121020540Y-123288960D01*
X120996050Y-123237230D01*
X120981050Y-123182010D01*
X120975990Y-123125000D01*
X120981050Y-123067990D01*
X120996050Y-123012770D01*
X121020540Y-122961040D01*
X121053750Y-122914430D01*
X121094630Y-122874390D01*
X121141930Y-122842170D01*
X121194160Y-122818770D01*
X121249680Y-122804930D01*
X121306780Y-122801070D01*
X121363670Y-122807310D01*
X121418570Y-122823470D01*
X121469770Y-122849040D01*
X121515680Y-122883210D01*
X121554850Y-122924930D01*
X121587190Y-122975000D01*
X122362810Y-122975000D01*
X122395150Y-122924930D01*
X122434320Y-122883210D01*
X122480230Y-122849040D01*
X122531430Y-122823470D01*
X122586330Y-122807310D01*
X122643220Y-122801070D01*
X122700320Y-122804930D01*
X118484020Y-116030890D02*
X118517940Y-116033560D01*
X118551680Y-116038000D01*
X118585140Y-116044200D01*
X118618230Y-116052150D01*
X118650860Y-116061810D01*
X118682940Y-116073170D01*
X118714380Y-116086200D01*
X118745090Y-116100850D01*
X118775000Y-116117080D01*
X118804020Y-116134860D01*
X118832060Y-116154140D01*
X118859060Y-116174860D01*
X118884930Y-116196960D01*
X118909620Y-116220380D01*
X118933040Y-116245070D01*
X118955140Y-116270940D01*
X118975860Y-116297940D01*
X118995140Y-116325980D01*
X119012920Y-116355000D01*
X119029150Y-116384910D01*
X119043800Y-116415620D01*
X119056830Y-116447060D01*
X119068190Y-116479140D01*
X119077850Y-116511770D01*
X119085800Y-116544860D01*
X119092000Y-116578320D01*
X119096440Y-116612060D01*
X119099110Y-116645980D01*
X119100000Y-116680000D01*
X119099110Y-116714020D01*
X119096440Y-116747940D01*
X119092000Y-116781680D01*
X119085800Y-116815140D01*
X119077850Y-116848230D01*
X119068190Y-116880860D01*
X119056830Y-116912940D01*
X119043800Y-116944380D01*
X119029150Y-116975090D01*
X119012920Y-117005000D01*
X118995140Y-117034020D01*
X118975860Y-117062060D01*
X118955140Y-117089060D01*
X118933040Y-117114930D01*
X118909620Y-117139620D01*
X118884930Y-117163040D01*
X118859060Y-117185140D01*
X118832060Y-117205860D01*
X118804020Y-117225140D01*
X118775000Y-117242920D01*
X118745090Y-117259150D01*
X118714380Y-117273800D01*
X118682940Y-117286830D01*
X118650860Y-117298190D01*
X118618230Y-117307850D01*
X118585140Y-117315800D01*
X118551680Y-117322000D01*
X118517940Y-117326440D01*
X118484020Y-117329110D01*
X118450000Y-117330000D01*
X117250000Y-117330000D01*
X117215980Y-117329110D01*
X117182060Y-117326440D01*
X117148320Y-117322000D01*
X117114860Y-117315800D01*
X117081770Y-117307850D01*
X117049140Y-117298190D01*
X117017060Y-117286830D01*
X116985620Y-117273800D01*
X116954910Y-117259150D01*
X116925000Y-117242920D01*
X116895980Y-117225140D01*
X116867940Y-117205860D01*
X116840940Y-117185140D01*
X116815070Y-117163040D01*
X116790380Y-117139620D01*
X116766960Y-117114930D01*
X116744860Y-117089060D01*
X116724140Y-117062060D01*
X116704860Y-117034020D01*
X116687080Y-117005000D01*
X116670850Y-116975090D01*
X116656200Y-116944380D01*
X116643170Y-116912940D01*
X116631810Y-116880860D01*
X116622150Y-116848230D01*
X116614200Y-116815140D01*
X116608000Y-116781680D01*
X116603560Y-116747940D01*
X116600890Y-116714020D01*
X116600000Y-116680000D01*
X116600890Y-116645980D01*
X116603560Y-116612060D01*
X116608000Y-116578320D01*
X116614200Y-116544860D01*
X116622150Y-116511770D01*
X116631810Y-116479140D01*
X116643170Y-116447060D01*
X116656200Y-116415620D01*
X116670850Y-116384910D01*
X116687080Y-116355000D01*
X116704860Y-116325980D01*
X116724140Y-116297940D01*
X116744860Y-116270940D01*
X116766960Y-116245070D01*
X116790380Y-116220380D01*
X116815070Y-116196960D01*
X116840940Y-116174860D01*
X116867940Y-116154140D01*
X116895980Y-116134860D01*
X116925000Y-116117080D01*
X116954910Y-116100850D01*
X116985620Y-116086200D01*
X117017060Y-116073170D01*
X117049140Y-116061810D01*
X117081770Y-116052150D01*
X117114860Y-116044200D01*
X117148320Y-116038000D01*
X117182060Y-116033560D01*
X117215980Y-116030890D01*
X117250000Y-116030000D01*
X118450000Y-116030000D01*
X118484020Y-116030890D01*
X118484020Y-124670890D02*
X118517940Y-124673560D01*
X118551680Y-124678000D01*
X118585140Y-124684200D01*
X118618230Y-124692150D01*
X118650860Y-124701810D01*
X118682940Y-124713170D01*
X118714380Y-124726200D01*
X118745090Y-124740850D01*
X118775000Y-124757080D01*
X118804020Y-124774860D01*
X118832060Y-124794140D01*
X118859060Y-124814860D01*
X118884930Y-124836960D01*
X118909620Y-124860380D01*
X118933040Y-124885070D01*
X118955140Y-124910940D01*
X118975860Y-124937940D01*
X118995140Y-124965980D01*
X119012920Y-124995000D01*
X119029150Y-125024910D01*
X119043800Y-125055620D01*
X119056830Y-125087060D01*
X119068190Y-125119140D01*
X119077850Y-125151770D01*
X119085800Y-125184860D01*
X119092000Y-125218320D01*
X119096440Y-125252060D01*
X119099110Y-125285980D01*
X119100000Y-125320000D01*
X119099110Y-125354020D01*
X119096440Y-125387940D01*
X119092000Y-125421680D01*
X119085800Y-125455140D01*
X119077850Y-125488230D01*
X119068190Y-125520860D01*
X119056830Y-125552940D01*
X119043800Y-125584380D01*
X119029150Y-125615090D01*
X119012920Y-125645000D01*
X118995140Y-125674020D01*
X118975860Y-125702060D01*
X118955140Y-125729060D01*
X118933040Y-125754930D01*
X118909620Y-125779620D01*
X118884930Y-125803040D01*
X118859060Y-125825140D01*
X118832060Y-125845860D01*
X118804020Y-125865140D01*
X118775000Y-125882920D01*
X118745090Y-125899150D01*
X118714380Y-125913800D01*
X118682940Y-125926830D01*
X118650860Y-125938190D01*
X118618230Y-125947850D01*
X118585140Y-125955800D01*
X118551680Y-125962000D01*
X118517940Y-125966440D01*
X118484020Y-125969110D01*
X118450000Y-125970000D01*
X117250000Y-125970000D01*
X117215980Y-125969110D01*
X117182060Y-125966440D01*
X117148320Y-125962000D01*
X117114860Y-125955800D01*
X117081770Y-125947850D01*
X117049140Y-125938190D01*
X117017060Y-125926830D01*
X116985620Y-125913800D01*
X116954910Y-125899150D01*
X116925000Y-125882920D01*
X116895980Y-125865140D01*
X116867940Y-125845860D01*
X116840940Y-125825140D01*
X116815070Y-125803040D01*
X116790380Y-125779620D01*
X116766960Y-125754930D01*
X116744860Y-125729060D01*
X116724140Y-125702060D01*
X116704860Y-125674020D01*
X116687080Y-125645000D01*
X116670850Y-125615090D01*
X116656200Y-125584380D01*
X116643170Y-125552940D01*
X116631810Y-125520860D01*
X116622150Y-125488230D01*
X116614200Y-125455140D01*
X116608000Y-125421680D01*
X116603560Y-125387940D01*
X116600890Y-125354020D01*
X116600000Y-125320000D01*
X116600890Y-125285980D01*
X116603560Y-125252060D01*
X116608000Y-125218320D01*
X116614200Y-125184860D01*
X116622150Y-125151770D01*
X116631810Y-125119140D01*
X116643170Y-125087060D01*
X116656200Y-125055620D01*
X116670850Y-125024910D01*
X116687080Y-124995000D01*
X116704860Y-124965980D01*
X116724140Y-124937940D01*
X116744860Y-124910940D01*
X116766960Y-124885070D01*
X116790380Y-124860380D01*
X116815070Y-124836960D01*
X116840940Y-124814860D01*
X116867940Y-124794140D01*
X116895980Y-124774860D01*
X116925000Y-124757080D01*
X116954910Y-124740850D01*
X116985620Y-124726200D01*
X117017060Y-124713170D01*
X117049140Y-124701810D01*
X117081770Y-124692150D01*
X117114860Y-124684200D01*
X117148320Y-124678000D01*
X117182060Y-124673560D01*
X117215980Y-124670890D01*
X117250000Y-124670000D01*
X118450000Y-124670000D01*
X118484020Y-124670890D01*
X123134020Y-116030890D02*
X123167940Y-116033560D01*
X123201680Y-116038000D01*
X123235140Y-116044200D01*
X123268230Y-116052150D01*
X123300860Y-116061810D01*
X123332940Y-116073170D01*
X123364380Y-116086200D01*
X123395090Y-116100850D01*
X123425000Y-116117080D01*
X123454020Y-116134860D01*
X123482060Y-116154140D01*
X123509060Y-116174860D01*
X123534930Y-116196960D01*
X123559620Y-116220380D01*
X123583040Y-116245070D01*
X123605140Y-116270940D01*
X123625860Y-116297940D01*
X123645140Y-116325980D01*
X123662920Y-116355000D01*
X123679150Y-116384910D01*
X123693800Y-116415620D01*
X123706830Y-116447060D01*
X123718190Y-116479140D01*
X123727850Y-116511770D01*
X123735800Y-116544860D01*
X123742000Y-116578320D01*
X123746440Y-116612060D01*
X123749110Y-116645980D01*
X123750000Y-116680000D01*
X123749110Y-116714020D01*
X123746440Y-116747940D01*
X123742000Y-116781680D01*
X123735800Y-116815140D01*
X123727850Y-116848230D01*
X123718190Y-116880860D01*
X123706830Y-116912940D01*
X123693800Y-116944380D01*
X123679150Y-116975090D01*
X123662920Y-117005000D01*
X123645140Y-117034020D01*
X123625860Y-117062060D01*
X123605140Y-117089060D01*
X123583040Y-117114930D01*
X123559620Y-117139620D01*
X123534930Y-117163040D01*
X123509060Y-117185140D01*
X123482060Y-117205860D01*
X123454020Y-117225140D01*
X123425000Y-117242920D01*
X123395090Y-117259150D01*
X123364380Y-117273800D01*
X123332940Y-117286830D01*
X123300860Y-117298190D01*
X123268230Y-117307850D01*
X123235140Y-117315800D01*
X123201680Y-117322000D01*
X123167940Y-117326440D01*
X123134020Y-117329110D01*
X123100000Y-117330000D01*
X121200000Y-117330000D01*
X121165980Y-117329110D01*
X121132060Y-117326440D01*
X121098320Y-117322000D01*
X121064860Y-117315800D01*
X121031770Y-117307850D01*
X120999140Y-117298190D01*
X120967060Y-117286830D01*
X120935620Y-117273800D01*
X120904910Y-117259150D01*
X120875000Y-117242920D01*
X120845980Y-117225140D01*
X120817940Y-117205860D01*
X120790940Y-117185140D01*
X120765070Y-117163040D01*
X120740380Y-117139620D01*
X120716960Y-117114930D01*
X120694860Y-117089060D01*
X120674140Y-117062060D01*
X120654860Y-117034020D01*
X120637080Y-117005000D01*
X120620850Y-116975090D01*
X120606200Y-116944380D01*
X120593170Y-116912940D01*
X120581810Y-116880860D01*
X120572150Y-116848230D01*
X120564200Y-116815140D01*
X120558000Y-116781680D01*
X120553560Y-116747940D01*
X120550890Y-116714020D01*
X120550000Y-116680000D01*
X120550890Y-116645980D01*
X120553560Y-116612060D01*
X120558000Y-116578320D01*
X120564200Y-116544860D01*
X120572150Y-116511770D01*
X120581810Y-116479140D01*
X120593170Y-116447060D01*
X120606200Y-116415620D01*
X120620850Y-116384910D01*
X120637080Y-116355000D01*
X120654860Y-116325980D01*
X120674140Y-116297940D01*
X120694860Y-116270940D01*
X120716960Y-116245070D01*
X120740380Y-116220380D01*
X120765070Y-116196960D01*
X120790940Y-116174860D01*
X120817940Y-116154140D01*
X120845980Y-116134860D01*
X120875000Y-116117080D01*
X120904910Y-116100850D01*
X120935620Y-116086200D01*
X120967060Y-116073170D01*
X120999140Y-116061810D01*
X121031770Y-116052150D01*
X121064860Y-116044200D01*
X121098320Y-116038000D01*
X121132060Y-116033560D01*
X121165980Y-116030890D01*
X121200000Y-116030000D01*
X123100000Y-116030000D01*
X123134020Y-116030890D01*
X123134020Y-124670890D02*
X123167940Y-124673560D01*
X123201680Y-124678000D01*
X123235140Y-124684200D01*
X123268230Y-124692150D01*
X123300860Y-124701810D01*
X123332940Y-124713170D01*
X123364380Y-124726200D01*
X123395090Y-124740850D01*
X123425000Y-124757080D01*
X123454020Y-124774860D01*
X123482060Y-124794140D01*
X123509060Y-124814860D01*
X123534930Y-124836960D01*
X123559620Y-124860380D01*
X123583040Y-124885070D01*
X123605140Y-124910940D01*
X123625860Y-124937940D01*
X123645140Y-124965980D01*
X123662920Y-124995000D01*
X123679150Y-125024910D01*
X123693800Y-125055620D01*
X123706830Y-125087060D01*
X123718190Y-125119140D01*
X123727850Y-125151770D01*
X123735800Y-125184860D01*
X123742000Y-125218320D01*
X123746440Y-125252060D01*
X123749110Y-125285980D01*
X123750000Y-125320000D01*
X123749110Y-125354020D01*
X123746440Y-125387940D01*
X123742000Y-125421680D01*
X123735800Y-125455140D01*
X123727850Y-125488230D01*
X123718190Y-125520860D01*
X123706830Y-125552940D01*
X123693800Y-125584380D01*
X123679150Y-125615090D01*
X123662920Y-125645000D01*
X123645140Y-125674020D01*
X123625860Y-125702060D01*
X123605140Y-125729060D01*
X123583040Y-125754930D01*
X123559620Y-125779620D01*
X123534930Y-125803040D01*
X123509060Y-125825140D01*
X123482060Y-125845860D01*
X123454020Y-125865140D01*
X123425000Y-125882920D01*
X123395090Y-125899150D01*
X123364380Y-125913800D01*
X123332940Y-125926830D01*
X123300860Y-125938190D01*
X123268230Y-125947850D01*
X123235140Y-125955800D01*
X123201680Y-125962000D01*
X123167940Y-125966440D01*
X123134020Y-125969110D01*
X123100000Y-125970000D01*
X121200000Y-125970000D01*
X121165980Y-125969110D01*
X121132060Y-125966440D01*
X121098320Y-125962000D01*
X121064860Y-125955800D01*
X121031770Y-125947850D01*
X120999140Y-125938190D01*
X120967060Y-125926830D01*
X120935620Y-125913800D01*
X120904910Y-125899150D01*
X120875000Y-125882920D01*
X120845980Y-125865140D01*
X120817940Y-125845860D01*
X120790940Y-125825140D01*
X120765070Y-125803040D01*
X120740380Y-125779620D01*
X120716960Y-125754930D01*
X120694860Y-125729060D01*
X120674140Y-125702060D01*
X120654860Y-125674020D01*
X120637080Y-125645000D01*
X120620850Y-125615090D01*
X120606200Y-125584380D01*
X120593170Y-125552940D01*
X120581810Y-125520860D01*
X120572150Y-125488230D01*
X120564200Y-125455140D01*
X120558000Y-125421680D01*
X120553560Y-125387940D01*
X120550890Y-125354020D01*
X120550000Y-125320000D01*
X120550890Y-125285980D01*
X120553560Y-125252060D01*
X120558000Y-125218320D01*
X120564200Y-125184860D01*
X120572150Y-125151770D01*
X120581810Y-125119140D01*
X120593170Y-125087060D01*
X120606200Y-125055620D01*
X120620850Y-125024910D01*
X120637080Y-124995000D01*
X120654860Y-124965980D01*
X120674140Y-124937940D01*
X120694860Y-124910940D01*
X120716960Y-124885070D01*
X120740380Y-124860380D01*
X120765070Y-124836960D01*
X120790940Y-124814860D01*
X120817940Y-124794140D01*
X120845980Y-124774860D01*
X120875000Y-124757080D01*
X120904910Y-124740850D01*
X120935620Y-124726200D01*
X120967060Y-124713170D01*
X120999140Y-124701810D01*
X121031770Y-124692150D01*
X121064860Y-124684200D01*
X121098320Y-124678000D01*
X121132060Y-124673560D01*
X121165980Y-124670890D01*
X121200000Y-124670000D01*
X123100000Y-124670000D01*
X123134020Y-124670890D01*
%TD*%
D11*
%TO.P,C2,1*%
%TO.N,+BATT*%
X151562500Y-121250000D03*
%TO.P,C2,2*%
%TO.N,GND*%
X148437500Y-121250000D03*
%TD*%
D12*
%TO.P,Q4,1,S_1*%
%TO.N,/BMS/B-*%
X155975000Y-93565000D03*
%TO.P,Q4,2,S_2*%
X155325000Y-93565000D03*
%TO.P,Q4,3,S_3*%
X154675000Y-93565000D03*
%TO.P,Q4,4,G*%
%TO.N,Net-(Q4-G)*%
X154025000Y-93565000D03*
D13*
%TO.P,Q4,5,D_1*%
%TO.N,/BMS/PowerNodeBMS*%
X154025000Y-96545000D03*
%TO.P,Q4,6,D_2*%
X154675000Y-96545000D03*
%TO.P,Q4,7,D_3*%
X155325000Y-96545000D03*
%TO.P,Q4,8,D_4*%
X155975000Y-96545000D03*
D14*
%TO.P,Q4,9*%
X155000000Y-95390000D03*
%TD*%
D15*
%TO.P,J1,1,VCC*%
%TO.N,/PD_Control/VBUSA1*%
X127000000Y-95000000D03*
D16*
%TO.P,J1,2,D-*%
%TO.N,/PD_Control/D-*%
X127000000Y-97500000D03*
%TO.P,J1,3,D+*%
%TO.N,/PD_Control/D+*%
X127000000Y-99500000D03*
%TO.P,J1,4,GND*%
%TO.N,GND*%
X127000000Y-102000000D03*
D17*
%TO.P,J1,5,MH1*%
X124290000Y-91930000D03*
%TO.P,J1,6,MH2*%
X124290000Y-105070000D03*
%TD*%
D18*
%TO.P,Q2,1,D*%
%TO.N,/PD_Control/VOUTA1*%
X134569200Y-93503200D03*
%TO.P,Q2,2,D*%
X133919200Y-93503200D03*
%TO.P,Q2,3,G*%
%TO.N,/PD_Control/GATEA1*%
X133269200Y-93503200D03*
%TO.P,Q2,4,S*%
%TO.N,/PD_Control/VBUSA1*%
X133269200Y-95453200D03*
%TO.P,Q2,5,D*%
%TO.N,/PD_Control/VOUTA1*%
X133919200Y-95453200D03*
%TO.P,Q2,6,D*%
X134569200Y-95453200D03*
D19*
%TO.P,Q2,7,S*%
%TO.N,/PD_Control/VBUSA1*%
X133269200Y-94573200D03*
D20*
%TO.P,Q2,8,D*%
%TO.N,/PD_Control/VOUTA1*%
X134244200Y-94478200D03*
%TD*%
D21*
%TO.P,TP13,1,1*%
%TO.N,+BATT*%
X150000000Y-129000000D03*
%TD*%
D22*
%TO.P,R2,1*%
%TO.N,Net-(IC1-KEY{slash}GSET{slash}IDA1)*%
X150587500Y-111000000D03*
%TO.P,R2,2*%
%TO.N,/PD_Control/VCC*%
X152412500Y-111000000D03*
%TD*%
D23*
%TO.P,C5,1*%
%TO.N,/PD_Control/VBUSA1*%
X135534400Y-98538900D03*
%TO.P,C5,2*%
%TO.N,GND*%
X135534400Y-101663900D03*
%TD*%
D24*
%TO.P,R8,1*%
%TO.N,Net-(Q4-G)*%
X151300000Y-94050000D03*
%TO.P,R8,2*%
%TO.N,/BMS/B-*%
X151300000Y-90950000D03*
%TD*%
D25*
%TO.P,L1,1,1*%
%TO.N,+BATT*%
X140000000Y-130715000D03*
%TO.P,L1,2,2*%
%TO.N,/PD_Control/SW*%
X140000000Y-119285000D03*
%TD*%
D22*
%TO.P,R5,1*%
%TO.N,Net-(IC1-LED5{slash}CSET)*%
X150587500Y-107800000D03*
%TO.P,R5,2*%
%TO.N,GND*%
X152412500Y-107800000D03*
%TD*%
D26*
%TO.P,C11,1*%
%TO.N,/PD_Control/VCC*%
X150637500Y-112600000D03*
%TO.P,C11,2*%
%TO.N,GND*%
X152362500Y-112600000D03*
%TD*%
D27*
%TO.P,C10,1*%
%TO.N,/PD_Control/VOUTSN*%
X142562500Y-93250000D03*
%TO.P,C10,2*%
%TO.N,GND*%
X145687500Y-93250000D03*
%TD*%
D28*
%TO.P,TP12,1,1*%
%TO.N,/BMS/B-*%
X154000000Y-88000000D03*
%TD*%
D29*
%TO.P,IC1,1,DPA2*%
%TO.N,unconnected-(IC1-DPA2-Pad1)*%
X140800000Y-112950000D03*
%TO.P,IC1,2,SW_1*%
%TO.N,/PD_Control/SW*%
X141200000Y-112950000D03*
%TO.P,IC1,3,SW_2*%
X141600000Y-112950000D03*
%TO.P,IC1,4,SW_3*%
X142000000Y-112950000D03*
%TO.P,IC1,5,SW_4*%
X142400000Y-112950000D03*
%TO.P,IC1,6,SW_5*%
X142800000Y-112950000D03*
%TO.P,IC1,7,BST*%
%TO.N,/PD_Control/BST*%
X143200000Y-112950000D03*
%TO.P,IC1,8,DATA*%
%TO.N,unconnected-(IC1-DATA-Pad8)*%
X143600000Y-112950000D03*
%TO.P,IC1,9,VOUTA1*%
%TO.N,/PD_Control/VOUTA1*%
X144000000Y-112950000D03*
%TO.P,IC1,10,VBUSA1*%
%TO.N,/PD_Control/VBUSA1*%
X144400000Y-112950000D03*
%TO.P,IC1,11,VBUSB*%
%TO.N,unconnected-(IC1-VBUSB-Pad11)*%
X144800000Y-112950000D03*
%TO.P,IC1,12,VBUSC*%
%TO.N,/PD_Control/VBUSC*%
X145200000Y-112950000D03*
D30*
%TO.P,IC1,13,VOUTC*%
%TO.N,/PD_Control/VOUTA1*%
X145950000Y-112200000D03*
%TO.P,IC1,14,VOUTA2*%
%TO.N,unconnected-(IC1-VOUTA2-Pad14)*%
X145950000Y-111800000D03*
%TO.P,IC1,15,VBUSA2*%
%TO.N,unconnected-(IC1-VBUSA2-Pad15)*%
X145950000Y-111400000D03*
%TO.P,IC1,16,VBUSL*%
%TO.N,unconnected-(IC1-VBUSL-Pad16)*%
X145950000Y-111000000D03*
%TO.P,IC1,17,BAT*%
%TO.N,+BATT*%
X145950000Y-110600000D03*
%TO.P,IC1,18,NTC*%
%TO.N,Net-(IC1-NTC)*%
X145950000Y-110200000D03*
%TO.P,IC1,19,VCC*%
%TO.N,/PD_Control/VCC*%
X145950000Y-109800000D03*
%TO.P,IC1,20,KEY/GSET/IDA1*%
%TO.N,Net-(IC1-KEY{slash}GSET{slash}IDA1)*%
X145950000Y-109400000D03*
%TO.P,IC1,21,FLED/BSET/IDA2*%
%TO.N,Net-(D1-K)*%
X145950000Y-109000000D03*
%TO.P,IC1,22,LED5/CSET*%
%TO.N,Net-(IC1-LED5{slash}CSET)*%
X145950000Y-108600000D03*
%TO.P,IC1,23,LED4/I2C*%
%TO.N,Net-(D6-A)*%
X145950000Y-108200000D03*
%TO.P,IC1,24,LED3/IRQ*%
%TO.N,Net-(D4-A)*%
X145950000Y-107800000D03*
D29*
%TO.P,IC1,25,LED2/SDA*%
%TO.N,Net-(D2-A)*%
X145200000Y-107050000D03*
%TO.P,IC1,26,LED1/SCK*%
%TO.N,/PD_Control/DLED1*%
X144800000Y-107050000D03*
%TO.P,IC1,27,VOUTSP*%
%TO.N,/PD_Control/VOUTA1*%
X144400000Y-107050000D03*
%TO.P,IC1,28,VOUTSN*%
%TO.N,/PD_Control/VOUTSN*%
X144000000Y-107050000D03*
%TO.P,IC1,29,VOUT_1*%
X143600000Y-107050000D03*
%TO.P,IC1,30,VOUT_2*%
X143200000Y-107050000D03*
%TO.P,IC1,31,VOUT_3*%
X142800000Y-107050000D03*
%TO.P,IC1,32,VOUT_4*%
X142400000Y-107050000D03*
%TO.P,IC1,33,VOUT_5*%
X142000000Y-107050000D03*
%TO.P,IC1,34,GATEL*%
%TO.N,unconnected-(IC1-GATEL-Pad34)*%
X141600000Y-107050000D03*
%TO.P,IC1,35,GATEA2*%
%TO.N,unconnected-(IC1-GATEA2-Pad35)*%
X141200000Y-107050000D03*
%TO.P,IC1,36,GATEA1*%
%TO.N,/PD_Control/GATEA1*%
X140800000Y-107050000D03*
D30*
%TO.P,IC1,37,GATEB*%
%TO.N,unconnected-(IC1-GATEB-Pad37)*%
X140050000Y-107800000D03*
%TO.P,IC1,38,GATEC*%
%TO.N,/PD_Control/GATEC*%
X140050000Y-108200000D03*
%TO.P,IC1,39,CCL/WLED*%
%TO.N,unconnected-(IC1-CCL{slash}WLED-Pad39)*%
X140050000Y-108600000D03*
%TO.P,IC1,40,CC2*%
%TO.N,/PD_Control/CC2*%
X140050000Y-109000000D03*
%TO.P,IC1,41,CC1*%
%TO.N,/PD_Control/CC1*%
X140050000Y-109400000D03*
%TO.P,IC1,42,DMC*%
%TO.N,/PD_Control/DC-*%
X140050000Y-109800000D03*
%TO.P,IC1,43,DPC*%
%TO.N,/PD_Control/DC+*%
X140050000Y-110200000D03*
%TO.P,IC1,44,DMB*%
%TO.N,unconnected-(IC1-DMB-Pad44)*%
X140050000Y-110600000D03*
%TO.P,IC1,45,DPB*%
%TO.N,unconnected-(IC1-DPB-Pad45)*%
X140050000Y-111000000D03*
%TO.P,IC1,46,DMA1*%
%TO.N,/PD_Control/DA-*%
X140050000Y-111400000D03*
%TO.P,IC1,47,DPA1*%
%TO.N,/PD_Control/DA+*%
X140050000Y-111800000D03*
%TO.P,IC1,48,DMA2*%
%TO.N,unconnected-(IC1-DMA2-Pad48)*%
X140050000Y-112200000D03*
D31*
%TO.P,IC1,49,EP*%
%TO.N,GND*%
X143000000Y-110000000D03*
%TD*%
D32*
%TO.P,J2,A1,GND1*%
%TO.N,GND*%
X122650000Y-118025000D03*
%TO.P,J2,A4,VBUS1*%
%TO.N,/PD_Control/VBUSC*%
X122650000Y-118875000D03*
%TO.P,J2,A5,CC1*%
%TO.N,/PD_Control/CC1*%
X122650000Y-119725000D03*
%TO.P,J2,A6,DA+*%
%TO.N,/PD_Control/D1+*%
X122650000Y-120575000D03*
%TO.P,J2,A7,DA-*%
%TO.N,/PD_Control/D1-*%
X122650000Y-121425000D03*
%TO.P,J2,A8,SBU1*%
%TO.N,unconnected-(J2-SBU1-PadA8)*%
X122650000Y-122275000D03*
%TO.P,J2,A9,VBUS2*%
%TO.N,/PD_Control/VBUSC*%
X122650000Y-123125000D03*
%TO.P,J2,A12,GND2*%
%TO.N,GND*%
X122650000Y-123975000D03*
%TO.P,J2,B1,GND3*%
X121300000Y-123975000D03*
%TO.P,J2,B4,VBUS3*%
%TO.N,/PD_Control/VBUSC*%
X121300000Y-123125000D03*
%TO.P,J2,B5,CC2*%
%TO.N,/PD_Control/CC2*%
X121300000Y-122275000D03*
%TO.P,J2,B6,DB+*%
%TO.N,/PD_Control/D1+*%
X121300000Y-121425000D03*
%TO.P,J2,B7,DB-*%
%TO.N,/PD_Control/D1-*%
X121300000Y-120575000D03*
%TO.P,J2,B8,SBU2*%
%TO.N,unconnected-(J2-SBU2-PadB8)*%
X121300000Y-119725000D03*
%TO.P,J2,B9,VBUS4*%
%TO.N,/PD_Control/VBUSC*%
X121300000Y-118875000D03*
%TO.P,J2,B12,GND4*%
%TO.N,GND*%
X121300000Y-118025000D03*
D33*
%TO.P,J2,SH1,SHIELD1*%
X118000000Y-116680000D03*
%TO.P,J2,SH2,SHIELD2*%
X118000000Y-125320000D03*
%TO.P,J2,SH3,SHIELD3*%
X122150000Y-116680000D03*
%TO.P,J2,SH4,SHIELD4*%
X122150000Y-125320000D03*
%TD*%
D27*
%TO.P,C9,1*%
%TO.N,/PD_Control/VOUTSN*%
X142562500Y-100250000D03*
%TO.P,C9,2*%
%TO.N,GND*%
X145687500Y-100250000D03*
%TD*%
%TO.P,C8,1*%
%TO.N,/PD_Control/VOUTSN*%
X142562500Y-96750000D03*
%TO.P,C8,2*%
%TO.N,GND*%
X145687500Y-96750000D03*
%TD*%
D34*
%TO.P,R1,1*%
%TO.N,/PD_Control/VOUTA1*%
X142342200Y-87281000D03*
%TO.P,R1,2*%
%TO.N,/PD_Control/VOUTSN*%
X142342200Y-90381000D03*
%TD*%
D18*
%TO.P,Q1,1,D*%
%TO.N,/PD_Control/VOUTA1*%
X130584700Y-118201800D03*
%TO.P,Q1,2,D*%
X129934700Y-118201800D03*
%TO.P,Q1,3,G*%
%TO.N,/PD_Control/GATEC*%
X129284700Y-118201800D03*
%TO.P,Q1,4,S*%
%TO.N,/PD_Control/VBUSC*%
X129284700Y-120151800D03*
%TO.P,Q1,5,D*%
%TO.N,/PD_Control/VOUTA1*%
X129934700Y-120151800D03*
%TO.P,Q1,6,D*%
X130584700Y-120151800D03*
D19*
%TO.P,Q1,7,S*%
%TO.N,/PD_Control/VBUSC*%
X129284700Y-119271800D03*
D20*
%TO.P,Q1,8,D*%
%TO.N,/PD_Control/VOUTA1*%
X130259700Y-119176800D03*
%TD*%
D23*
%TO.P,C4,1*%
%TO.N,/PD_Control/VBUSC*%
X128139464Y-123937500D03*
%TO.P,C4,2*%
%TO.N,GND*%
X128139464Y-127062500D03*
%TD*%
%TO.P,C6,1*%
%TO.N,/PD_Control/VOUTA1*%
X138750000Y-87602500D03*
%TO.P,C6,2*%
%TO.N,GND*%
X138750000Y-90727500D03*
%TD*%
D35*
%TO.P,C3,1*%
%TO.N,/PD_Control/SW*%
X143200000Y-116432500D03*
%TO.P,C3,2*%
%TO.N,/PD_Control/BST*%
X143200000Y-114707500D03*
%TD*%
D36*
%TO.P,C7,1*%
%TO.N,/PD_Control/VOUTSN*%
X146038300Y-89868500D03*
%TO.P,C7,2*%
%TO.N,/PD_Control/VOUTA1*%
X146038300Y-87793500D03*
%TD*%
D11*
%TO.P,C1,1*%
%TO.N,+BATT*%
X151562500Y-124250000D03*
%TO.P,C1,2*%
%TO.N,GND*%
X148437500Y-124250000D03*
%TD*%
D22*
%TO.P,R3,1*%
%TO.N,Net-(D1-K)*%
X150587500Y-109400000D03*
%TO.P,R3,2*%
%TO.N,/PD_Control/VCC*%
X152412500Y-109400000D03*
%TD*%
D37*
%TO.P,TP1,1,1*%
%TO.N,GND*%
X149750000Y-117300000D03*
D38*
%TO.P,TP1,2,2*%
%TO.N,Net-(IC1-NTC)*%
X149750000Y-115300000D03*
%TD*%
D39*
%TO.N,GND*%
X143000000Y-109000000D03*
X142000000Y-111000000D03*
X143000000Y-110000000D03*
X144000000Y-111000000D03*
X142000000Y-109000000D03*
X144000000Y-110000000D03*
X143000000Y-111000000D03*
X144000000Y-109000000D03*
X142000000Y-110000000D03*
%TO.N,+BATT*%
X152500000Y-95500000D03*
X152500000Y-96500000D03*
%TO.N,GND*%
X139500000Y-105500000D03*
X130000000Y-82500000D03*
X147500000Y-85000000D03*
X132500000Y-82500000D03*
X127500000Y-82500000D03*
X135000000Y-127500000D03*
X122500000Y-97500000D03*
X137500000Y-113500000D03*
X130000000Y-102500000D03*
X141000000Y-122500000D03*
X117500000Y-112500000D03*
X155000000Y-125000000D03*
X127500000Y-112500000D03*
X122500000Y-100000000D03*
X132500000Y-125000000D03*
X135500000Y-117500000D03*
X145000000Y-102500000D03*
X125000000Y-116000000D03*
X120000000Y-112500000D03*
X117500000Y-110000000D03*
X145500000Y-95000000D03*
X157500000Y-117500000D03*
X120000000Y-82500000D03*
X132500000Y-90000000D03*
X140000000Y-92500000D03*
X140000000Y-95000000D03*
X134500000Y-117500000D03*
X137500000Y-117000000D03*
X152500000Y-105000000D03*
X117500000Y-120000000D03*
X147000000Y-118500000D03*
X127500000Y-107500000D03*
X152500000Y-82500000D03*
X125000000Y-132500000D03*
X145000000Y-125000000D03*
X153500000Y-116000000D03*
X145000000Y-82500000D03*
X130000000Y-125000000D03*
X144000000Y-91000000D03*
X157500000Y-110000000D03*
X150500000Y-97500000D03*
X155000000Y-102500000D03*
X127500000Y-117500000D03*
X120000000Y-115000000D03*
X125000000Y-130000000D03*
X117500000Y-85000000D03*
X132500000Y-102500000D03*
X132500000Y-132500000D03*
X139500000Y-115000000D03*
X135000000Y-122500000D03*
X120000000Y-85000000D03*
X153500000Y-114000000D03*
X125000000Y-112500000D03*
X157500000Y-107500000D03*
X157500000Y-112500000D03*
X153500000Y-120000000D03*
X135000000Y-132500000D03*
X137500000Y-82500000D03*
X132500000Y-98500000D03*
X127500000Y-92500000D03*
X130000000Y-97500000D03*
X142500000Y-82500000D03*
X157500000Y-120000000D03*
X125000000Y-125000000D03*
X140000000Y-82500000D03*
X149000000Y-107500000D03*
X125000000Y-95000000D03*
X122500000Y-82500000D03*
X117500000Y-107500000D03*
X117500000Y-115000000D03*
X157500000Y-125000000D03*
X130000000Y-105000000D03*
X150000000Y-82500000D03*
X147500000Y-82500000D03*
X150500000Y-96500000D03*
X157500000Y-105000000D03*
X138000000Y-115500000D03*
X130000000Y-92500000D03*
X155000000Y-82500000D03*
X145500000Y-98500000D03*
X125000000Y-82500000D03*
X117500000Y-87500000D03*
X135000000Y-82500000D03*
X139500000Y-106500000D03*
X125000000Y-100000000D03*
X147000000Y-124000000D03*
X120000000Y-122500000D03*
X125000000Y-127500000D03*
X147500000Y-119500000D03*
X117500000Y-122500000D03*
X157500000Y-115000000D03*
X157500000Y-82500000D03*
X139500000Y-113000000D03*
X122500000Y-102500000D03*
X145000000Y-85000000D03*
X157500000Y-122500000D03*
X145500000Y-91500000D03*
X125000000Y-102500000D03*
X122500000Y-95000000D03*
X125000000Y-97500000D03*
X122500000Y-112500000D03*
X140000000Y-125000000D03*
X139500000Y-122500000D03*
X125000000Y-107500000D03*
X120000000Y-110000000D03*
X130000000Y-90000000D03*
X153500000Y-108000000D03*
X130000000Y-127500000D03*
X147000000Y-125000000D03*
X153500000Y-112000000D03*
X139500000Y-104500000D03*
X120000000Y-125000000D03*
X127500000Y-90000000D03*
X142500000Y-125000000D03*
X157500000Y-102500000D03*
X137500000Y-92500000D03*
X150000000Y-102500000D03*
X130000000Y-132500000D03*
X127500000Y-132500000D03*
X155000000Y-122500000D03*
X146000000Y-106500000D03*
X153500000Y-118000000D03*
X117500000Y-132500000D03*
X135000000Y-125000000D03*
X122500000Y-127500000D03*
X117500000Y-130000000D03*
X117500000Y-127500000D03*
X135500000Y-116500000D03*
X135000000Y-105000000D03*
X132500000Y-100000000D03*
X130000000Y-100000000D03*
X127500000Y-105000000D03*
X117500000Y-82500000D03*
X122500000Y-132500000D03*
%TO.N,/PD_Control/VBUSC*%
X125500000Y-120000000D03*
X125250000Y-122250000D03*
X126250000Y-122250000D03*
X124250000Y-122250000D03*
X126250000Y-123250000D03*
X127000000Y-122750000D03*
X124500000Y-120000000D03*
X127400000Y-119250000D03*
X145542000Y-113919000D03*
X125500000Y-119250000D03*
X126500000Y-119250000D03*
X126500000Y-120000000D03*
X125250000Y-123250000D03*
X124250000Y-123250000D03*
%TO.N,/PD_Control/VBUSA1*%
X144600000Y-114350800D03*
X137490200Y-106832400D03*
X137500000Y-98500000D03*
%TO.N,/PD_Control/VOUTA1*%
X144820859Y-115759931D03*
X134500000Y-112500000D03*
X134500000Y-114500000D03*
X132500000Y-116500000D03*
X136994900Y-120256300D03*
X133500000Y-115500000D03*
X130922850Y-107115892D03*
X131500000Y-115500000D03*
X133500000Y-113500000D03*
X127922850Y-110115892D03*
X129922850Y-108115892D03*
X131922850Y-108115892D03*
X130500000Y-116500000D03*
X128922850Y-111115892D03*
X130922850Y-109115892D03*
X131500000Y-117500000D03*
X129922850Y-110115892D03*
X132500000Y-114500000D03*
X128922850Y-109115892D03*
X131922850Y-106115892D03*
%TO.N,/PD_Control/VCC*%
X149501600Y-112572800D03*
%TO.N,Net-(D1-K)*%
X149019000Y-109423200D03*
%TO.N,/PD_Control/DLED1*%
X147500000Y-103500000D03*
%TO.N,Net-(D6-A)*%
X149500000Y-105500000D03*
%TO.N,/PD_Control/DC+*%
X132562600Y-120050000D03*
%TO.N,/PD_Control/DA-*%
X138999200Y-110972600D03*
%TO.N,/PD_Control/GATEC*%
X129284700Y-117250000D03*
X129284700Y-114250000D03*
X129284700Y-113500000D03*
X129284700Y-116500000D03*
%TO.N,/PD_Control/GATEA1*%
X132308600Y-92684600D03*
X140599999Y-105841800D03*
X140599999Y-105105200D03*
X132308600Y-93421200D03*
%TO.N,Net-(IC1-KEY{slash}GSET{slash}IDA1)*%
X149275800Y-110998000D03*
%TO.N,/PD_Control/DC-*%
X136791735Y-110629735D03*
%TO.N,/PD_Control/DA+*%
X138313400Y-111429800D03*
%TO.N,Net-(Q4-G)*%
X149300000Y-94500000D03*
X149300000Y-93500000D03*
%TO.N,Net-(D2-A)*%
X147500000Y-104500000D03*
%TO.N,Net-(D4-A)*%
X148500000Y-105500000D03*
%TO.N,/BMS/B-*%
X151500000Y-85500000D03*
X150500000Y-85500000D03*
%TO.N,/BMS/PowerNodeBMS*%
X154250000Y-100500000D03*
X155500000Y-98500000D03*
X158000000Y-98500000D03*
X156750000Y-98500000D03*
X156750000Y-99500000D03*
X158000000Y-95500000D03*
X155500000Y-100500000D03*
X155500000Y-99500000D03*
X154250000Y-99500000D03*
X154250000Y-97500000D03*
X156750000Y-100500000D03*
X154250000Y-98500000D03*
X158000000Y-97500000D03*
X158000000Y-100500000D03*
X156750000Y-97500000D03*
X158000000Y-96500000D03*
X155500000Y-97500000D03*
X158000000Y-99500000D03*
%TD*%
D40*
%TO.N,/PD_Control/SW*%
X142000000Y-115232500D02*
X142000000Y-112950000D01*
X143200000Y-116432500D02*
X142000000Y-115232500D01*
%TO.N,/PD_Control/BST*%
X143200000Y-112950000D02*
X143200000Y-114707500D01*
%TO.N,/PD_Control/CC1*%
X122921200Y-119725000D02*
X122650000Y-119725000D01*
X126873000Y-115773200D02*
X122921200Y-119725000D01*
D41*
X136293200Y-109401000D02*
X140049000Y-109401000D01*
X140049000Y-109401000D02*
X140050000Y-109400000D01*
X135847100Y-109847100D02*
X136293200Y-109401000D01*
D40*
X135847100Y-109847100D02*
X129921000Y-115773200D01*
X129921000Y-115773200D02*
X126873000Y-115773200D01*
%TO.N,+BATT*%
X151095000Y-121250000D02*
X151562500Y-121250000D01*
D42*
X152500000Y-101801600D02*
X154813000Y-104114600D01*
D40*
X145950000Y-110600000D02*
X146642600Y-110600000D01*
X146989800Y-110947200D02*
X146989800Y-115036600D01*
X146964400Y-115062000D02*
X146964400Y-117119400D01*
D43*
X151562500Y-127437500D02*
X150000000Y-129000000D01*
D40*
X146642600Y-110600000D02*
X146989800Y-110947200D01*
D42*
X154813000Y-120999500D02*
X151562500Y-124250000D01*
X154813000Y-104114600D02*
X154813000Y-120999500D01*
D40*
X146989800Y-115036600D02*
X146964400Y-115062000D01*
D44*
X151562500Y-124250000D02*
X151562500Y-127437500D01*
D40*
X146964400Y-117119400D02*
X151095000Y-121250000D01*
D42*
X152500000Y-95500000D02*
X152500000Y-101801600D01*
D43*
X151562500Y-121250000D02*
X151562500Y-124250000D01*
D40*
%TO.N,/PD_Control/VBUSC*%
X145542000Y-113172800D02*
X145319200Y-112950000D01*
X145542000Y-113919000D02*
X145542000Y-113172800D01*
X145319200Y-112950000D02*
X145200000Y-112950000D01*
%TO.N,/PD_Control/VBUSA1*%
X144600000Y-113967600D02*
X144400000Y-113767600D01*
X137500000Y-98500000D02*
X137500000Y-106822600D01*
X144600000Y-114350800D02*
X144600000Y-113967600D01*
D43*
X134697000Y-98500000D02*
X137500000Y-98500000D01*
D40*
X144400000Y-113767600D02*
X144400000Y-112950000D01*
D43*
X131250000Y-95053000D02*
X134697000Y-98500000D01*
D40*
X137500000Y-106822600D02*
X137490200Y-106832400D01*
%TO.N,/PD_Control/VOUTA1*%
X144820859Y-115759931D02*
X144000000Y-114939072D01*
X136600200Y-120651000D02*
X136994900Y-120256300D01*
X131083900Y-120651000D02*
X136600200Y-120651000D01*
D45*
X119329200Y-90601800D02*
X119329200Y-105816400D01*
D40*
X146202400Y-112452400D02*
X145950000Y-112200000D01*
D45*
X123818273Y-86112727D02*
X119329200Y-90601800D01*
D40*
X146038300Y-87793500D02*
X148285200Y-90040400D01*
X148285200Y-101219000D02*
X144400000Y-105104200D01*
X148285200Y-90040400D02*
X148285200Y-101219000D01*
X142850200Y-87789000D02*
X142342200Y-87281000D01*
X144400000Y-105104200D02*
X144400000Y-107050000D01*
X146202400Y-114378390D02*
X146202400Y-112452400D01*
X146038300Y-87793500D02*
X146033800Y-87789000D01*
X144000000Y-114939072D02*
X144000000Y-112950000D01*
X144820859Y-115759931D02*
X146202400Y-114378390D01*
D45*
X135026400Y-86112727D02*
X123818273Y-86112727D01*
D40*
X130584700Y-120151800D02*
X131083900Y-120651000D01*
D45*
X119329200Y-105816400D02*
X123520200Y-110007400D01*
X123520200Y-110007400D02*
X128727200Y-110007400D01*
D40*
X146033800Y-87789000D02*
X142850200Y-87789000D01*
%TO.N,/PD_Control/VOUTSN*%
X144000000Y-104619925D02*
X144000000Y-107050000D01*
X145965400Y-89795600D02*
X142927600Y-89795600D01*
X147497800Y-101122125D02*
X144000000Y-104619925D01*
X142927600Y-89795600D02*
X142342200Y-90381000D01*
X147497800Y-91328000D02*
X147497800Y-101122125D01*
X146038300Y-89868500D02*
X145965400Y-89795600D01*
X146038300Y-89868500D02*
X147497800Y-91328000D01*
%TO.N,/PD_Control/VCC*%
X152412500Y-109400000D02*
X152412500Y-111000000D01*
X150610300Y-112572800D02*
X150637500Y-112600000D01*
X152237500Y-111000000D02*
X150637500Y-112600000D01*
X149275800Y-112572800D02*
X149501600Y-112572800D01*
X149501600Y-112572800D02*
X150610300Y-112572800D01*
X147341200Y-109800000D02*
X148386800Y-110845600D01*
X152412500Y-111000000D02*
X152237500Y-111000000D01*
X148386800Y-111683800D02*
X149275800Y-112572800D01*
X145950000Y-109800000D02*
X147341200Y-109800000D01*
X149425400Y-112572800D02*
X149501600Y-112572800D01*
X148386800Y-110845600D02*
X148386800Y-111683800D01*
%TO.N,Net-(D1-K)*%
X148595800Y-109000000D02*
X149019000Y-109423200D01*
X149042200Y-109400000D02*
X150587500Y-109400000D01*
X149019000Y-109423200D02*
X149042200Y-109400000D01*
X145950000Y-109000000D02*
X148595800Y-109000000D01*
%TO.N,/PD_Control/DLED1*%
X144800000Y-107050000D02*
X144800000Y-105440800D01*
X146740800Y-103500000D02*
X147500000Y-103500000D01*
X144800000Y-105440800D02*
X146740800Y-103500000D01*
%TO.N,Net-(D6-A)*%
X145950000Y-108200000D02*
X147324000Y-108200000D01*
X149500000Y-106024000D02*
X149500000Y-105500000D01*
X147324000Y-108200000D02*
X149500000Y-106024000D01*
%TO.N,Net-(IC1-LED5{slash}CSET)*%
X145950000Y-108600000D02*
X148851600Y-108600000D01*
X149651600Y-107800000D02*
X150587500Y-107800000D01*
X148851600Y-108600000D02*
X149651600Y-107800000D01*
%TO.N,/PD_Control/CC2*%
X119583200Y-116789200D02*
X121386600Y-114985800D01*
X119583200Y-121016405D02*
X119583200Y-116789200D01*
X120841795Y-122275000D02*
X119583200Y-121016405D01*
X129565400Y-114985800D02*
X135551200Y-109000000D01*
X121300000Y-122275000D02*
X120841795Y-122275000D01*
X121386600Y-114985800D02*
X129565400Y-114985800D01*
X135551200Y-109000000D02*
X140050000Y-109000000D01*
%TO.N,/PD_Control/DC+*%
X136677400Y-118389400D02*
X136677400Y-111592600D01*
X132562600Y-120050000D02*
X135016800Y-120050000D01*
X136677400Y-111592600D02*
X138070000Y-110200000D01*
X138070000Y-110200000D02*
X140050000Y-110200000D01*
X135016800Y-120050000D02*
X136677400Y-118389400D01*
%TO.N,/PD_Control/DA-*%
X139426600Y-111400000D02*
X140050000Y-111400000D01*
X138999200Y-110972600D02*
X139426600Y-111400000D01*
D42*
%TO.N,/PD_Control/GATEC*%
X129284700Y-113500000D02*
X129284700Y-113488500D01*
X129284700Y-114250000D02*
X129284700Y-113500000D01*
X129284700Y-113488500D02*
X134573200Y-108200000D01*
X134573200Y-108200000D02*
X139141200Y-108200000D01*
D40*
X140050000Y-108200000D02*
X139141200Y-108200000D01*
D43*
X129284700Y-118201800D02*
X129284700Y-116500000D01*
D40*
%TO.N,Net-(IC1-NTC)*%
X147030000Y-110200000D02*
X147599400Y-110769400D01*
X149750000Y-114291600D02*
X149750000Y-115300000D01*
X145950000Y-110200000D02*
X147030000Y-110200000D01*
X147599400Y-112141000D02*
X149750000Y-114291600D01*
X147599400Y-110769400D02*
X147599400Y-112141000D01*
%TO.N,Net-(IC1-KEY{slash}GSET{slash}IDA1)*%
X149277800Y-111000000D02*
X150587500Y-111000000D01*
X149275800Y-110998000D02*
X149277800Y-111000000D01*
X147677800Y-109400000D02*
X149275800Y-110998000D01*
X145950000Y-109400000D02*
X147677800Y-109400000D01*
%TO.N,/PD_Control/DC-*%
X137621470Y-109800000D02*
X140050000Y-109800000D01*
X136791735Y-110629735D02*
X137621470Y-109800000D01*
%TO.N,/PD_Control/DA+*%
X138313400Y-111429800D02*
X138683600Y-111800000D01*
X138683600Y-111800000D02*
X140050000Y-111800000D01*
%TO.N,/PD_Control/D1+*%
X122376000Y-120575000D02*
X121526000Y-121425000D01*
X122650000Y-120575000D02*
X122376000Y-120575000D01*
X121526000Y-121425000D02*
X121300000Y-121425000D01*
%TO.N,Net-(D2-A)*%
X145200000Y-107050000D02*
X145200000Y-106056800D01*
X145200000Y-106056800D02*
X146756800Y-104500000D01*
X146756800Y-104500000D02*
X147500000Y-104500000D01*
%TO.N,Net-(D4-A)*%
X146758800Y-107800000D02*
X148500000Y-106058800D01*
X145950000Y-107800000D02*
X146758800Y-107800000D01*
X148500000Y-106058800D02*
X148500000Y-105500000D01*
%TD*%
%TA.AperFunction,Conductor*%
%TO.N,/BMS/PowerNodeBMS*%
G36*
X158442539Y-94358085D02*
G01*
X158488294Y-94410889D01*
X158499500Y-94462400D01*
X158499500Y-101072400D01*
X158479815Y-101139439D01*
X158427011Y-101185194D01*
X158375500Y-101196400D01*
X153794000Y-101196400D01*
X153726961Y-101176715D01*
X153681206Y-101123911D01*
X153670000Y-101072400D01*
X153670000Y-94504499D01*
X153689685Y-94437460D01*
X153742489Y-94391705D01*
X153793995Y-94380499D01*
X154322872Y-94380499D01*
X154336741Y-94379008D01*
X154363250Y-94379008D01*
X154377127Y-94380500D01*
X154972872Y-94380499D01*
X154986741Y-94379008D01*
X155013250Y-94379008D01*
X155027127Y-94380500D01*
X155622872Y-94380499D01*
X155636741Y-94379008D01*
X155663250Y-94379008D01*
X155677127Y-94380500D01*
X156272872Y-94380499D01*
X156332483Y-94374091D01*
X156407215Y-94346218D01*
X156450548Y-94338400D01*
X158375500Y-94338400D01*
X158442539Y-94358085D01*
G37*
%TD.AperFunction*%
%TD*%
%TA.AperFunction,Conductor*%
%TO.N,Net-(Q4-G)*%
G36*
X149130243Y-93083452D02*
G01*
X149147541Y-93093151D01*
X149147543Y-93093151D01*
X149147546Y-93093153D01*
X149198304Y-93108112D01*
X149214560Y-93112904D01*
X149272450Y-93121287D01*
X154100629Y-93126181D01*
X154167645Y-93145934D01*
X154213347Y-93198784D01*
X154224500Y-93250181D01*
X154224500Y-93750999D01*
X154204815Y-93818038D01*
X154152011Y-93863793D01*
X154100500Y-93874999D01*
X153793987Y-93874999D01*
X153686531Y-93886553D01*
X153686515Y-93886556D01*
X153635035Y-93897756D01*
X153635031Y-93897757D01*
X153532496Y-93931885D01*
X153532492Y-93931887D01*
X153411462Y-94009669D01*
X153411451Y-94009678D01*
X153358659Y-94055422D01*
X153264433Y-94164163D01*
X153264430Y-94164167D01*
X153204664Y-94295033D01*
X153204658Y-94295050D01*
X153203586Y-94298701D01*
X153165806Y-94357476D01*
X153154641Y-94366089D01*
X152558662Y-94773933D01*
X152492220Y-94795548D01*
X152488633Y-94795600D01*
X149069600Y-94795600D01*
X149002561Y-94775915D01*
X148956806Y-94723111D01*
X148945600Y-94671600D01*
X148945600Y-93191611D01*
X148965285Y-93124572D01*
X149018089Y-93078817D01*
X149087247Y-93068873D01*
X149130243Y-93083452D01*
G37*
%TD.AperFunction*%
%TD*%
%TA.AperFunction,Conductor*%
%TO.N,/PD_Control/VOUTA1*%
G36*
X143106625Y-84608606D02*
G01*
X143173659Y-84628303D01*
X143219404Y-84681116D01*
X143230600Y-84732606D01*
X143230600Y-88141000D01*
X143210915Y-88208039D01*
X143158111Y-88253794D01*
X143106600Y-88265000D01*
X137997469Y-88265000D01*
X141427200Y-84612727D01*
X136753600Y-84624836D01*
X136753600Y-84613169D01*
X136811184Y-84607924D01*
X136813500Y-84608380D01*
X136822457Y-84607413D01*
X143106625Y-84608606D01*
G37*
%TD.AperFunction*%
%TD*%
%TA.AperFunction,Conductor*%
%TO.N,/PD_Control/SW*%
G36*
X142818039Y-117494685D02*
G01*
X142863794Y-117547489D01*
X142875000Y-117599000D01*
X142875000Y-120957800D01*
X142855315Y-121024839D01*
X142802511Y-121070594D01*
X142751000Y-121081800D01*
X138376200Y-121081800D01*
X138309161Y-121062115D01*
X138263406Y-121009311D01*
X138252200Y-120957800D01*
X138252200Y-117531596D01*
X138268819Y-117475000D01*
X142494000Y-117475000D01*
X142751000Y-117475000D01*
X142818039Y-117494685D01*
G37*
%TD.AperFunction*%
%TD*%
%TA.AperFunction,Conductor*%
%TO.N,/PD_Control/VOUTA1*%
G36*
X132329978Y-105160226D02*
G01*
X132385399Y-105202773D01*
X132390274Y-105209969D01*
X133102681Y-106345367D01*
X133121642Y-106410418D01*
X133132227Y-107946675D01*
X133113005Y-108013848D01*
X133094086Y-108036999D01*
X129016448Y-111949936D01*
X128954448Y-111982150D01*
X128884873Y-111975730D01*
X128844866Y-111950060D01*
X128175496Y-111309589D01*
X128162461Y-111294977D01*
X127283073Y-110136716D01*
X127258213Y-110071419D01*
X127272601Y-110003047D01*
X127295218Y-109973002D01*
X132198628Y-105187135D01*
X132260352Y-105154397D01*
X132329978Y-105160226D01*
G37*
%TD.AperFunction*%
%TD*%
%TA.AperFunction,Conductor*%
%TO.N,/PD_Control/VOUTA1*%
G36*
X136702800Y-94400034D02*
G01*
X136683115Y-94467073D01*
X136664428Y-94489722D01*
X135265539Y-95825288D01*
X135239498Y-95838734D01*
X135229600Y-95845095D01*
X135229600Y-92862400D01*
X133669284Y-92887566D01*
X133674485Y-92869854D01*
X133678770Y-92864361D01*
X133680198Y-92860753D01*
X133680200Y-92860750D01*
X133680200Y-92862400D01*
X136702800Y-89643675D01*
X136702800Y-94400034D01*
G37*
%TD.AperFunction*%
%TD*%
%TA.AperFunction,Conductor*%
%TO.N,/PD_Control/GATEA1*%
G36*
X132578277Y-92399485D02*
G01*
X132598919Y-92416119D01*
X133389881Y-93207081D01*
X133423366Y-93268404D01*
X133426200Y-93294762D01*
X133426200Y-93602000D01*
X133406515Y-93669039D01*
X133353711Y-93714794D01*
X133302200Y-93726000D01*
X132051600Y-93726000D01*
X131984561Y-93706315D01*
X131938806Y-93653511D01*
X131927600Y-93602000D01*
X131927600Y-92503800D01*
X131947285Y-92436761D01*
X132000089Y-92391006D01*
X132051600Y-92379800D01*
X132511238Y-92379800D01*
X132578277Y-92399485D01*
G37*
%TD.AperFunction*%
%TD*%
%TA.AperFunction,Conductor*%
%TO.N,GND*%
G36*
X117578700Y-104547895D02*
G01*
X117578700Y-105931141D01*
X117600599Y-106097469D01*
X117601320Y-106102944D01*
X117608652Y-106158639D01*
X117641789Y-106282309D01*
X117642460Y-106284814D01*
X117642462Y-106284822D01*
X117668042Y-106380287D01*
X117755850Y-106592276D01*
X117755857Y-106592291D01*
X117870588Y-106791011D01*
X117930230Y-106868739D01*
X117930235Y-106868744D01*
X118010278Y-106973059D01*
X118010284Y-106973066D01*
X122363533Y-111326315D01*
X122363540Y-111326321D01*
X122420705Y-111370185D01*
X122454563Y-111396165D01*
X122534249Y-111457310D01*
X122545592Y-111466014D01*
X122702149Y-111556401D01*
X122702150Y-111556402D01*
X122744300Y-111580738D01*
X122744320Y-111580748D01*
X122845096Y-111622490D01*
X122956313Y-111668558D01*
X123177961Y-111727948D01*
X123204423Y-111731431D01*
X123204427Y-111731433D01*
X123204428Y-111731432D01*
X123405466Y-111757900D01*
X128224694Y-111757900D01*
X128291733Y-111777585D01*
X128310420Y-111792306D01*
X128668229Y-112134667D01*
X128668233Y-112134670D01*
X128668235Y-112134672D01*
X128668242Y-112134678D01*
X128706876Y-112165091D01*
X128706879Y-112165093D01*
X128706888Y-112165100D01*
X128746895Y-112190770D01*
X128765822Y-112201799D01*
X128765823Y-112201799D01*
X128765826Y-112201801D01*
X128861389Y-112230147D01*
X128861392Y-112230147D01*
X128861397Y-112230149D01*
X128861400Y-112230149D01*
X128861404Y-112230150D01*
X128930960Y-112236568D01*
X128930961Y-112236568D01*
X128930972Y-112236569D01*
X128976519Y-112236695D01*
X129072249Y-112208873D01*
X129110930Y-112188775D01*
X129134244Y-112176662D01*
X129134246Y-112176660D01*
X129134249Y-112176659D01*
X129193352Y-112134286D01*
X133270990Y-108221349D01*
X133291927Y-108198675D01*
X133310846Y-108175524D01*
X133313048Y-108172792D01*
X133358646Y-108084140D01*
X133377868Y-108016967D01*
X133387721Y-107944915D01*
X133377136Y-106408658D01*
X133366934Y-106338920D01*
X133347973Y-106273869D01*
X133319106Y-106209571D01*
X133319105Y-106209569D01*
X133319104Y-106209567D01*
X132828410Y-105427525D01*
X132606699Y-105074173D01*
X132601803Y-105066666D01*
X132596928Y-105059470D01*
X132596924Y-105059466D01*
X132596923Y-105059464D01*
X132540989Y-105000111D01*
X132540981Y-105000104D01*
X132490594Y-104961422D01*
X132485565Y-104957561D01*
X132447106Y-104933155D01*
X132431540Y-104928681D01*
X132351293Y-104905616D01*
X132281668Y-104899787D01*
X132236124Y-104900048D01*
X132236118Y-104900049D01*
X132140635Y-104928679D01*
X132140634Y-104928680D01*
X132101382Y-104949500D01*
X132078910Y-104961419D01*
X132078907Y-104961420D01*
X132078907Y-104961421D01*
X132078905Y-104961422D01*
X132020169Y-105004287D01*
X132020164Y-105004292D01*
X128723800Y-108221638D01*
X128662075Y-108254377D01*
X128637189Y-108256900D01*
X124296643Y-108256900D01*
X124229604Y-108237215D01*
X124208962Y-108220581D01*
X121116019Y-105127638D01*
X121082534Y-105066315D01*
X121079700Y-105039957D01*
X121079700Y-104549916D01*
X137149500Y-104559188D01*
X137149500Y-106343214D01*
X137129815Y-106410253D01*
X137113181Y-106430895D01*
X137049693Y-106494382D01*
X137049688Y-106494388D01*
X136977217Y-106619911D01*
X136977216Y-106619915D01*
X136939700Y-106759925D01*
X136939700Y-106904875D01*
X136957971Y-106973061D01*
X136977217Y-107044888D01*
X137049688Y-107170411D01*
X137049690Y-107170413D01*
X137049691Y-107170415D01*
X137152185Y-107272909D01*
X137152186Y-107272910D01*
X137152188Y-107272911D01*
X137277711Y-107345382D01*
X137277712Y-107345382D01*
X137277715Y-107345384D01*
X137417725Y-107382900D01*
X137417728Y-107382900D01*
X137562672Y-107382900D01*
X137562675Y-107382900D01*
X137702685Y-107345384D01*
X137828215Y-107272909D01*
X137930709Y-107170415D01*
X138003184Y-107044885D01*
X138040700Y-106904875D01*
X138040700Y-106759925D01*
X138003184Y-106619915D01*
X137991874Y-106600326D01*
X137930711Y-106494388D01*
X137930706Y-106494382D01*
X137886819Y-106450495D01*
X137853334Y-106389172D01*
X137850500Y-106362814D01*
X137850500Y-104559593D01*
X140306670Y-104561010D01*
X140302380Y-104561944D01*
X140302372Y-104561946D01*
X140276007Y-104569179D01*
X140275996Y-104569183D01*
X140189381Y-104618505D01*
X140189373Y-104618511D01*
X140136571Y-104664263D01*
X140104943Y-104697040D01*
X140058734Y-104785377D01*
X140058733Y-104785377D01*
X140039051Y-104852409D01*
X140039048Y-104852421D01*
X140028700Y-104924398D01*
X140028700Y-107030453D01*
X140031139Y-107065663D01*
X140035853Y-107099533D01*
X140037075Y-107107408D01*
X140037076Y-107107412D01*
X140061214Y-107170415D01*
X140072744Y-107200509D01*
X140072746Y-107200512D01*
X140109848Y-107259400D01*
X140128930Y-107326613D01*
X140108644Y-107393473D01*
X140055432Y-107438752D01*
X140004935Y-107449500D01*
X139600323Y-107449500D01*
X139527264Y-107464032D01*
X139527260Y-107464033D01*
X139444398Y-107519399D01*
X139384999Y-107608297D01*
X139331387Y-107653102D01*
X139262062Y-107661809D01*
X139249806Y-107659181D01*
X139213675Y-107649500D01*
X134500725Y-107649500D01*
X134404342Y-107675326D01*
X134360714Y-107687016D01*
X134235186Y-107759489D01*
X134235183Y-107759491D01*
X128844191Y-113150483D01*
X128844187Y-113150488D01*
X128823620Y-113186114D01*
X128823619Y-113186116D01*
X128771717Y-113276012D01*
X128771716Y-113276013D01*
X128758456Y-113325500D01*
X128734200Y-113416025D01*
X128734200Y-113427525D01*
X128734200Y-114177525D01*
X128734200Y-114322475D01*
X128768789Y-114451560D01*
X128771718Y-114462492D01*
X128772282Y-114463853D01*
X128772415Y-114465092D01*
X128773820Y-114470335D01*
X128773002Y-114470554D01*
X128779748Y-114533322D01*
X128748470Y-114595800D01*
X128688379Y-114631450D01*
X128657719Y-114635300D01*
X121340454Y-114635300D01*
X121287459Y-114649500D01*
X121287458Y-114649499D01*
X121251316Y-114659184D01*
X121251309Y-114659187D01*
X121171391Y-114705327D01*
X121171386Y-114705331D01*
X119494289Y-116382428D01*
X119468235Y-116396654D01*
X119443532Y-116413122D01*
X119437904Y-116413216D01*
X119432966Y-116415913D01*
X119403355Y-116413795D01*
X119373673Y-116414293D01*
X119368888Y-116411330D01*
X119363274Y-116410929D01*
X119339507Y-116393136D01*
X119314269Y-116377509D01*
X119309923Y-116370990D01*
X119307341Y-116369057D01*
X119294693Y-116348142D01*
X119290328Y-116338991D01*
X119285365Y-116327009D01*
X119279620Y-116310785D01*
X119271301Y-116295455D01*
X119265736Y-116283786D01*
X119259059Y-116267675D01*
X119257332Y-116264856D01*
X119250010Y-116252906D01*
X119244175Y-116242241D01*
X119244055Y-116241995D01*
X119237872Y-116229032D01*
X119237688Y-116228866D01*
X119235897Y-116225173D01*
X119226638Y-116211708D01*
X119219827Y-116200593D01*
X119212037Y-116186237D01*
X119209562Y-116182965D01*
X119209494Y-116182709D01*
X119200869Y-116171470D01*
X119200571Y-116171076D01*
X119200508Y-116170909D01*
X119193739Y-116161061D01*
X119193101Y-116160019D01*
X119186451Y-116149165D01*
X119186449Y-116149163D01*
X119184685Y-116146284D01*
X119182416Y-116143628D01*
X119182416Y-116143627D01*
X119173357Y-116133023D01*
X119165922Y-116123402D01*
X119165714Y-116123103D01*
X119157599Y-116111301D01*
X119157390Y-116111165D01*
X119155186Y-116108004D01*
X119143822Y-116096023D01*
X119135419Y-116086182D01*
X119124760Y-116072292D01*
X119112174Y-116060354D01*
X119103769Y-116051559D01*
X119103494Y-116051241D01*
X119094295Y-116040473D01*
X119094070Y-116040358D01*
X119091502Y-116037392D01*
X119086814Y-116033387D01*
X119079072Y-116026774D01*
X119069653Y-116017833D01*
X119060015Y-116007672D01*
X119060013Y-116007671D01*
X119058262Y-116005825D01*
X119055055Y-116003330D01*
X119054927Y-116003107D01*
X119043501Y-115994339D01*
X119043152Y-115994067D01*
X119043053Y-115993929D01*
X119033967Y-115986170D01*
X119021433Y-115974280D01*
X119007268Y-115964541D01*
X118996983Y-115956647D01*
X118983726Y-115945321D01*
X118979106Y-115942491D01*
X118968935Y-115936259D01*
X118958928Y-115929433D01*
X118958620Y-115929200D01*
X118947291Y-115920506D01*
X118947033Y-115920436D01*
X118943761Y-115917962D01*
X118929404Y-115910171D01*
X118918293Y-115903362D01*
X118904825Y-115894102D01*
X118901133Y-115892311D01*
X118900968Y-115892127D01*
X118888148Y-115886011D01*
X118887737Y-115885812D01*
X118887612Y-115885699D01*
X118877082Y-115879982D01*
X118862319Y-115870937D01*
X118846200Y-115864257D01*
X118835198Y-115859051D01*
X118834844Y-115858861D01*
X118822278Y-115852043D01*
X118822050Y-115852019D01*
X118818537Y-115850140D01*
X118816134Y-115849289D01*
X118802978Y-115844629D01*
X118790999Y-115839667D01*
X118775354Y-115832204D01*
X118766075Y-115829457D01*
X118758854Y-115827319D01*
X118747445Y-115823326D01*
X118747036Y-115823160D01*
X118733812Y-115817680D01*
X118733529Y-115817679D01*
X118729904Y-115816209D01*
X118713863Y-115812355D01*
X118701446Y-115808676D01*
X118685012Y-115802856D01*
X118671795Y-115800407D01*
X118667889Y-115799683D01*
X118656057Y-115796885D01*
X118655713Y-115796785D01*
X118642027Y-115792734D01*
X118641783Y-115792759D01*
X118637934Y-115791647D01*
X118621691Y-115789509D01*
X118608913Y-115787140D01*
X118592929Y-115783300D01*
X118588886Y-115782953D01*
X118588655Y-115782836D01*
X118574468Y-115781719D01*
X118573952Y-115781675D01*
X118573787Y-115781611D01*
X118561949Y-115780053D01*
X118551357Y-115778091D01*
X118548259Y-115777517D01*
X118548258Y-115777517D01*
X118544900Y-115776895D01*
X118527583Y-115776441D01*
X118514659Y-115775425D01*
X118500883Y-115773612D01*
X118493772Y-115774079D01*
X118475932Y-115773963D01*
X118453399Y-115772189D01*
X118446279Y-115773032D01*
X118433442Y-115773879D01*
X118430947Y-115773913D01*
X118405877Y-115773258D01*
X118403158Y-115774301D01*
X118389802Y-115774488D01*
X118389429Y-115774384D01*
X118388072Y-115774500D01*
X117311928Y-115774500D01*
X117296610Y-115773193D01*
X117294123Y-115773258D01*
X117290369Y-115773356D01*
X117271523Y-115773849D01*
X117253709Y-115773032D01*
X117246596Y-115772190D01*
X117246595Y-115772190D01*
X117224067Y-115773963D01*
X117220201Y-115774206D01*
X117213989Y-115774500D01*
X117202423Y-115774500D01*
X117199113Y-115773613D01*
X117180219Y-115776098D01*
X117175029Y-115776344D01*
X117174689Y-115776261D01*
X117172418Y-115776440D01*
X117155095Y-115776894D01*
X117138050Y-115780052D01*
X117126042Y-115781675D01*
X117125461Y-115781724D01*
X117111345Y-115782836D01*
X117111116Y-115782952D01*
X117107080Y-115783298D01*
X117091073Y-115787143D01*
X117078306Y-115789510D01*
X117072984Y-115790210D01*
X117064597Y-115791315D01*
X117064596Y-115791315D01*
X117062055Y-115791650D01*
X117058215Y-115792759D01*
X117057973Y-115792734D01*
X117044461Y-115796733D01*
X117043931Y-115796887D01*
X117043766Y-115796886D01*
X117032109Y-115799683D01*
X117014985Y-115802856D01*
X116998548Y-115808677D01*
X116986906Y-115812168D01*
X116986443Y-115812282D01*
X116972668Y-115815592D01*
X116972473Y-115815733D01*
X116968529Y-115816708D01*
X116953406Y-115822976D01*
X116941142Y-115827320D01*
X116925437Y-115831970D01*
X116921743Y-115833700D01*
X116921481Y-115833714D01*
X116908662Y-115839828D01*
X116908215Y-115840038D01*
X116908037Y-115840065D01*
X116897012Y-115844633D01*
X116880783Y-115850381D01*
X116865439Y-115858706D01*
X116853786Y-115864264D01*
X116837669Y-115870944D01*
X116822906Y-115879988D01*
X116812258Y-115885814D01*
X116811741Y-115886064D01*
X116799032Y-115892128D01*
X116798869Y-115892308D01*
X116795176Y-115894100D01*
X116781702Y-115903365D01*
X116770598Y-115910169D01*
X116756236Y-115917963D01*
X116752963Y-115920437D01*
X116752709Y-115920506D01*
X116741499Y-115929107D01*
X116741072Y-115929431D01*
X116740907Y-115929493D01*
X116731063Y-115936259D01*
X116716281Y-115945315D01*
X116703024Y-115956641D01*
X116693410Y-115964070D01*
X116692926Y-115964406D01*
X116681301Y-115972401D01*
X116681167Y-115972606D01*
X116678010Y-115974808D01*
X116666020Y-115986180D01*
X116656187Y-115994576D01*
X116642289Y-116005242D01*
X116630352Y-116017826D01*
X116621568Y-116026221D01*
X116621115Y-116026613D01*
X116610473Y-116035705D01*
X116610359Y-116035927D01*
X116607391Y-116038498D01*
X116596769Y-116050931D01*
X116587837Y-116060341D01*
X116575825Y-116071737D01*
X116573328Y-116074945D01*
X116573107Y-116075073D01*
X116564402Y-116086415D01*
X116564064Y-116086850D01*
X116563924Y-116086950D01*
X116556175Y-116096026D01*
X116544283Y-116108563D01*
X116534540Y-116122733D01*
X116526651Y-116133011D01*
X116515318Y-116146277D01*
X116506261Y-116161059D01*
X116499438Y-116171063D01*
X116499112Y-116171493D01*
X116490506Y-116182709D01*
X116490437Y-116182963D01*
X116487962Y-116186237D01*
X116480173Y-116200592D01*
X116473369Y-116211696D01*
X116464098Y-116225179D01*
X116462308Y-116228868D01*
X116462127Y-116229032D01*
X116456027Y-116241816D01*
X116455809Y-116242268D01*
X116455697Y-116242390D01*
X116449980Y-116252921D01*
X116440935Y-116267684D01*
X116434258Y-116283795D01*
X116429056Y-116294789D01*
X116428753Y-116295354D01*
X116422043Y-116307722D01*
X116422019Y-116307946D01*
X116420139Y-116311463D01*
X116414632Y-116327013D01*
X116409670Y-116338991D01*
X116402202Y-116354648D01*
X116397317Y-116371147D01*
X116393327Y-116382550D01*
X116393125Y-116383046D01*
X116387680Y-116396188D01*
X116387679Y-116396469D01*
X116386210Y-116400093D01*
X116384049Y-116409086D01*
X116382410Y-116415913D01*
X116382358Y-116416128D01*
X116378679Y-116428545D01*
X116373135Y-116444202D01*
X116372381Y-116448113D01*
X116372236Y-116448338D01*
X116369613Y-116462491D01*
X116369523Y-116462960D01*
X116369440Y-116463120D01*
X116366662Y-116474701D01*
X116361748Y-116491302D01*
X116359510Y-116508304D01*
X116357142Y-116521077D01*
X116353300Y-116537072D01*
X116352953Y-116541113D01*
X116352836Y-116541345D01*
X116351720Y-116555515D01*
X116351675Y-116556046D01*
X116351611Y-116556209D01*
X116350053Y-116568051D01*
X116346895Y-116585097D01*
X116346441Y-116602416D01*
X116345532Y-116614504D01*
X116345470Y-116614999D01*
X116343613Y-116629113D01*
X116343679Y-116629361D01*
X116343190Y-116633288D01*
X116343621Y-116649762D01*
X116343281Y-116662729D01*
X116341987Y-116679171D01*
X116342272Y-116683150D01*
X116342190Y-116683404D01*
X116343311Y-116697653D01*
X116343346Y-116698135D01*
X116343308Y-116698308D01*
X116343621Y-116710236D01*
X116343169Y-116727521D01*
X116345424Y-116744660D01*
X116346441Y-116757585D01*
X116346873Y-116774093D01*
X116347570Y-116778006D01*
X116347517Y-116778259D01*
X116350103Y-116792215D01*
X116350204Y-116792782D01*
X116350185Y-116792953D01*
X116351744Y-116804798D01*
X116353109Y-116822133D01*
X116357140Y-116838913D01*
X116359390Y-116850811D01*
X116359476Y-116851432D01*
X116361315Y-116865403D01*
X116361449Y-116865635D01*
X116361987Y-116869506D01*
X116366659Y-116885287D01*
X116369685Y-116897894D01*
X116372707Y-116914206D01*
X116374013Y-116917978D01*
X116374000Y-116918240D01*
X116378774Y-116931722D01*
X116378958Y-116932253D01*
X116378966Y-116932425D01*
X116382355Y-116943863D01*
X116386415Y-116960759D01*
X116387679Y-116963811D01*
X116387680Y-116963812D01*
X116392978Y-116976597D01*
X116397322Y-116988862D01*
X116401972Y-117004571D01*
X116403700Y-117008259D01*
X116403714Y-117008518D01*
X116409831Y-117021343D01*
X116410032Y-117021771D01*
X116410058Y-117021944D01*
X116414633Y-117032986D01*
X116420380Y-117049214D01*
X116428694Y-117064535D01*
X116434257Y-117076200D01*
X116440937Y-117092319D01*
X116449982Y-117107082D01*
X116455812Y-117117737D01*
X116456011Y-117118148D01*
X116462127Y-117130968D01*
X116462311Y-117131133D01*
X116464102Y-117134825D01*
X116473362Y-117148293D01*
X116480171Y-117159404D01*
X116487962Y-117173761D01*
X116490436Y-117177033D01*
X116490506Y-117177291D01*
X116499200Y-117188620D01*
X116499433Y-117188928D01*
X116499496Y-117189095D01*
X116506261Y-117198938D01*
X116512491Y-117209106D01*
X116515321Y-117213726D01*
X116526647Y-117226983D01*
X116534079Y-117236600D01*
X116534274Y-117236880D01*
X116542401Y-117248699D01*
X116542610Y-117248834D01*
X116544813Y-117251994D01*
X116556170Y-117263967D01*
X116564571Y-117273805D01*
X116571925Y-117283386D01*
X116575244Y-117287712D01*
X116577672Y-117290015D01*
X116585341Y-117297290D01*
X116587833Y-117299653D01*
X116596235Y-117308446D01*
X116596500Y-117308752D01*
X116605705Y-117319527D01*
X116605928Y-117319640D01*
X116608495Y-117322605D01*
X116610472Y-117324294D01*
X116610473Y-117324295D01*
X116620939Y-117333236D01*
X116630354Y-117342174D01*
X116641739Y-117354176D01*
X116644944Y-117356670D01*
X116645073Y-117356893D01*
X116656492Y-117365656D01*
X116656841Y-117365928D01*
X116656941Y-117366067D01*
X116666023Y-117373822D01*
X116678563Y-117385716D01*
X116681300Y-117387598D01*
X116681301Y-117387599D01*
X116688550Y-117392583D01*
X116692737Y-117395462D01*
X116703023Y-117403357D01*
X116713627Y-117412416D01*
X116713628Y-117412416D01*
X116716284Y-117414685D01*
X116719163Y-117416449D01*
X116719165Y-117416451D01*
X116731061Y-117423739D01*
X116741076Y-117430571D01*
X116741470Y-117430869D01*
X116752709Y-117439494D01*
X116752965Y-117439562D01*
X116756237Y-117442037D01*
X116770593Y-117449827D01*
X116781708Y-117456638D01*
X116795173Y-117465897D01*
X116798866Y-117467688D01*
X116799032Y-117467872D01*
X116811995Y-117474055D01*
X116812241Y-117474175D01*
X116812366Y-117474288D01*
X116822906Y-117480010D01*
X116834856Y-117487332D01*
X116837675Y-117489059D01*
X116853786Y-117495736D01*
X116864791Y-117500944D01*
X116865174Y-117501148D01*
X116877722Y-117507958D01*
X116877951Y-117507982D01*
X116881461Y-117509859D01*
X116883865Y-117510710D01*
X116883866Y-117510711D01*
X116897009Y-117515365D01*
X116909001Y-117520332D01*
X116921481Y-117526286D01*
X116921482Y-117526286D01*
X116924646Y-117527795D01*
X116927878Y-117528752D01*
X116927880Y-117528753D01*
X116941137Y-117532677D01*
X116953400Y-117537020D01*
X116966188Y-117542320D01*
X116966189Y-117542320D01*
X116968536Y-117543293D01*
X116972471Y-117544264D01*
X116972668Y-117544408D01*
X116986601Y-117547754D01*
X116986893Y-117547827D01*
X116987033Y-117547909D01*
X116998550Y-117551321D01*
X117011760Y-117556000D01*
X117014987Y-117557143D01*
X117018337Y-117557763D01*
X117018338Y-117557764D01*
X117032101Y-117560313D01*
X117043942Y-117563114D01*
X117044255Y-117563204D01*
X117057973Y-117567266D01*
X117058218Y-117567240D01*
X117062059Y-117568350D01*
X117064594Y-117568683D01*
X117064597Y-117568685D01*
X117078318Y-117570490D01*
X117091075Y-117572856D01*
X117104590Y-117576103D01*
X117104591Y-117576102D01*
X117107081Y-117576701D01*
X117111113Y-117577045D01*
X117111345Y-117577164D01*
X117125644Y-117578288D01*
X117126030Y-117578322D01*
X117126193Y-117578385D01*
X117138053Y-117579946D01*
X117151741Y-117582483D01*
X117151742Y-117582482D01*
X117155095Y-117583104D01*
X117158491Y-117583193D01*
X117158494Y-117583194D01*
X117172424Y-117583558D01*
X117185349Y-117584575D01*
X117199113Y-117586387D01*
X117199118Y-117586385D01*
X117206221Y-117585920D01*
X117224057Y-117586035D01*
X117246596Y-117587810D01*
X117246600Y-117587808D01*
X117253703Y-117586968D01*
X117266557Y-117586120D01*
X117269043Y-117586085D01*
X117294123Y-117586742D01*
X117296842Y-117585698D01*
X117310199Y-117585512D01*
X117310570Y-117585615D01*
X117311926Y-117585500D01*
X118388074Y-117585500D01*
X118403387Y-117586806D01*
X118405874Y-117586740D01*
X118405877Y-117586742D01*
X118428476Y-117586150D01*
X118446293Y-117586968D01*
X118453401Y-117587809D01*
X118453404Y-117587810D01*
X118475983Y-117586032D01*
X118479794Y-117585793D01*
X118485978Y-117585500D01*
X118497577Y-117585500D01*
X118500887Y-117586387D01*
X118519793Y-117583897D01*
X118524964Y-117583653D01*
X118525306Y-117583736D01*
X118527591Y-117583556D01*
X118541507Y-117583193D01*
X118541507Y-117583192D01*
X118544908Y-117583104D01*
X118548258Y-117582482D01*
X118548259Y-117582483D01*
X118561943Y-117579946D01*
X118573972Y-117578321D01*
X118574242Y-117578297D01*
X118588655Y-117577164D01*
X118588889Y-117577044D01*
X118592928Y-117576699D01*
X118595409Y-117576102D01*
X118595411Y-117576103D01*
X118608910Y-117572859D01*
X118621695Y-117570488D01*
X118635403Y-117568685D01*
X118635405Y-117568683D01*
X118637941Y-117568350D01*
X118641781Y-117567240D01*
X118642027Y-117567266D01*
X118655718Y-117563212D01*
X118656051Y-117563116D01*
X118656217Y-117563116D01*
X118667896Y-117560314D01*
X118681662Y-117557764D01*
X118681662Y-117557763D01*
X118685007Y-117557144D01*
X118688237Y-117555999D01*
X118688240Y-117556000D01*
X118701451Y-117551321D01*
X118713096Y-117547830D01*
X118713396Y-117547755D01*
X118727333Y-117544408D01*
X118727532Y-117544262D01*
X118731465Y-117543291D01*
X118733808Y-117542320D01*
X118733812Y-117542320D01*
X118746600Y-117537019D01*
X118758857Y-117532678D01*
X118772120Y-117528753D01*
X118772121Y-117528752D01*
X118774567Y-117528028D01*
X118778255Y-117526299D01*
X118778518Y-117526286D01*
X118791500Y-117520092D01*
X118791756Y-117519973D01*
X118791930Y-117519946D01*
X118802977Y-117515369D01*
X118816134Y-117510711D01*
X118816135Y-117510709D01*
X118819213Y-117509620D01*
X118822277Y-117507957D01*
X118822278Y-117507957D01*
X118834539Y-117501303D01*
X118846199Y-117495741D01*
X118859151Y-117490375D01*
X118859152Y-117490373D01*
X118862320Y-117489061D01*
X118865140Y-117487332D01*
X118865144Y-117487332D01*
X118877091Y-117480011D01*
X118887747Y-117474181D01*
X118887972Y-117474071D01*
X118900968Y-117467873D01*
X118901135Y-117467686D01*
X118904823Y-117465898D01*
X118906900Y-117464469D01*
X118906903Y-117464469D01*
X118918293Y-117456636D01*
X118929405Y-117449827D01*
X118941527Y-117443250D01*
X118941529Y-117443246D01*
X118943766Y-117442033D01*
X118947031Y-117439563D01*
X118947291Y-117439494D01*
X118958561Y-117430843D01*
X118958924Y-117430570D01*
X118959091Y-117430506D01*
X118968948Y-117423732D01*
X118980835Y-117416450D01*
X118980836Y-117416448D01*
X118983721Y-117414681D01*
X118986371Y-117412416D01*
X118986374Y-117412416D01*
X118996990Y-117403346D01*
X119006609Y-117395913D01*
X119006778Y-117395795D01*
X119018699Y-117387599D01*
X119018835Y-117387389D01*
X119021991Y-117385189D01*
X119023360Y-117383891D01*
X119025221Y-117382937D01*
X119028735Y-117380488D01*
X119030233Y-117379986D01*
X119033576Y-117377279D01*
X119034297Y-117376825D01*
X119034993Y-117377931D01*
X119085545Y-117352034D01*
X119155081Y-117358854D01*
X119209891Y-117402185D01*
X119232574Y-117468270D01*
X119232700Y-117473853D01*
X119232700Y-121062549D01*
X119245508Y-121110349D01*
X119245508Y-121110350D01*
X119256584Y-121151690D01*
X119256585Y-121151691D01*
X119302727Y-121231613D01*
X119302729Y-121231616D01*
X119302730Y-121231617D01*
X120626583Y-122555470D01*
X120681541Y-122587200D01*
X120704769Y-122600611D01*
X120704770Y-122600611D01*
X120704773Y-122600613D01*
X120706507Y-122601614D01*
X120744172Y-122611706D01*
X120764382Y-122624024D01*
X120786543Y-122632329D01*
X120793663Y-122641871D01*
X120803833Y-122648070D01*
X120814176Y-122669361D01*
X120828328Y-122688327D01*
X120829159Y-122700203D01*
X120834363Y-122710916D01*
X120831553Y-122734419D01*
X120833205Y-122758026D01*
X120827136Y-122771360D01*
X120826069Y-122780292D01*
X120820820Y-122791076D01*
X120814144Y-122803255D01*
X120811358Y-122805780D01*
X120802448Y-122824597D01*
X120800681Y-122827823D01*
X120799476Y-122829023D01*
X120792933Y-122840177D01*
X120782966Y-122854166D01*
X120777956Y-122865305D01*
X120777142Y-122864938D01*
X120767448Y-122885415D01*
X120768246Y-122885812D01*
X120762807Y-122896745D01*
X120758305Y-122913319D01*
X120756758Y-122918554D01*
X120754245Y-122926415D01*
X120743375Y-122949378D01*
X120742726Y-122962463D01*
X120737795Y-122977898D01*
X120734327Y-122983022D01*
X120734474Y-122983065D01*
X120731043Y-122994780D01*
X120729523Y-123011909D01*
X120725673Y-123033449D01*
X120721162Y-123050055D01*
X120720995Y-123052475D01*
X120721650Y-123068269D01*
X120720929Y-123084437D01*
X120716997Y-123096965D01*
X120719242Y-123122264D01*
X120718874Y-123130524D01*
X120718512Y-123131580D01*
X120718512Y-123135959D01*
X120716996Y-123153035D01*
X120718311Y-123165177D01*
X120717424Y-123165272D01*
X120719422Y-123187819D01*
X120720321Y-123187757D01*
X120721162Y-123199943D01*
X120725673Y-123216550D01*
X120726988Y-123221850D01*
X120728795Y-123229886D01*
X120731044Y-123255221D01*
X120737100Y-123266821D01*
X120740658Y-123282641D01*
X120740259Y-123288812D01*
X120740403Y-123288777D01*
X120743374Y-123300620D01*
X120750717Y-123316130D01*
X120758305Y-123336681D01*
X120762807Y-123353254D01*
X120763870Y-123355390D01*
X120772453Y-123368721D01*
X120780018Y-123383038D01*
X120782965Y-123395831D01*
X120797720Y-123416540D01*
X120801576Y-123423837D01*
X120801798Y-123424930D01*
X120804014Y-123428707D01*
X120811358Y-123444220D01*
X120812480Y-123445731D01*
X120813329Y-123446193D01*
X120818602Y-123453979D01*
X120818638Y-123454028D01*
X120818635Y-123454029D01*
X120819762Y-123455692D01*
X120834536Y-123474405D01*
X120837485Y-123479780D01*
X120838662Y-123482540D01*
X120839391Y-123483254D01*
X120843286Y-123490353D01*
X120849533Y-123518796D01*
X120858525Y-123546497D01*
X120856940Y-123552516D01*
X120858276Y-123558596D01*
X120848153Y-123585904D01*
X120842869Y-123605979D01*
X120843452Y-123606228D01*
X120841759Y-123610197D01*
X120840741Y-123614066D01*
X120836959Y-123619952D01*
X120831776Y-123627538D01*
X120831027Y-123627026D01*
X120817913Y-123645435D01*
X120818637Y-123645972D01*
X120811357Y-123655780D01*
X120804013Y-123671292D01*
X120792933Y-123690177D01*
X120782966Y-123704166D01*
X120777956Y-123715305D01*
X120777142Y-123714938D01*
X120767448Y-123735415D01*
X120768246Y-123735812D01*
X120762807Y-123746745D01*
X120758305Y-123763319D01*
X120756758Y-123768554D01*
X120754245Y-123776415D01*
X120743375Y-123799378D01*
X120742726Y-123812463D01*
X120737795Y-123827898D01*
X120734327Y-123833022D01*
X120734474Y-123833065D01*
X120731043Y-123844780D01*
X120729523Y-123861909D01*
X120725673Y-123883449D01*
X120721162Y-123900055D01*
X120720995Y-123902475D01*
X120721650Y-123918269D01*
X120720929Y-123934437D01*
X120716997Y-123946965D01*
X120719242Y-123972264D01*
X120718874Y-123980524D01*
X120718512Y-123981580D01*
X120718512Y-123985959D01*
X120716996Y-124003035D01*
X120718311Y-124015177D01*
X120717424Y-124015272D01*
X120719422Y-124037819D01*
X120720321Y-124037757D01*
X120721162Y-124049943D01*
X120725673Y-124066550D01*
X120726988Y-124071850D01*
X120728795Y-124079886D01*
X120731044Y-124105221D01*
X120737100Y-124116821D01*
X120740658Y-124132641D01*
X120740259Y-124138812D01*
X120740403Y-124138777D01*
X120743374Y-124150620D01*
X120750717Y-124166130D01*
X120758305Y-124186681D01*
X120762807Y-124203254D01*
X120763870Y-124205390D01*
X120772453Y-124218721D01*
X120780018Y-124233038D01*
X120782965Y-124245831D01*
X120797720Y-124266540D01*
X120801576Y-124273837D01*
X120801798Y-124274930D01*
X120804014Y-124278707D01*
X120811358Y-124294220D01*
X120812816Y-124296184D01*
X120813936Y-124296803D01*
X120821265Y-124307707D01*
X120834948Y-124325161D01*
X120837652Y-124330171D01*
X120838662Y-124332540D01*
X120839230Y-124333097D01*
X120843017Y-124340113D01*
X120848981Y-124368197D01*
X120857844Y-124395506D01*
X120856148Y-124401945D01*
X120857532Y-124408459D01*
X120847364Y-124435313D01*
X120840057Y-124463074D01*
X120835151Y-124467573D01*
X120832793Y-124473802D01*
X120809722Y-124490895D01*
X120799257Y-124500492D01*
X120800878Y-124502923D01*
X120800161Y-124503401D01*
X120795073Y-124505992D01*
X120795259Y-124506295D01*
X120772906Y-124519988D01*
X120762258Y-124525814D01*
X120761741Y-124526064D01*
X120749032Y-124532128D01*
X120748869Y-124532308D01*
X120745176Y-124534100D01*
X120731702Y-124543365D01*
X120720598Y-124550169D01*
X120706236Y-124557963D01*
X120702963Y-124560437D01*
X120702709Y-124560506D01*
X120691499Y-124569107D01*
X120691072Y-124569431D01*
X120690907Y-124569493D01*
X120681063Y-124576259D01*
X120666281Y-124585315D01*
X120653024Y-124596641D01*
X120643410Y-124604070D01*
X120642926Y-124604406D01*
X120631301Y-124612401D01*
X120631167Y-124612606D01*
X120628010Y-124614808D01*
X120616020Y-124626180D01*
X120606187Y-124634576D01*
X120592289Y-124645242D01*
X120580352Y-124657826D01*
X120571568Y-124666221D01*
X120571115Y-124666613D01*
X120560473Y-124675705D01*
X120560359Y-124675927D01*
X120557391Y-124678498D01*
X120546769Y-124690931D01*
X120537837Y-124700341D01*
X120525825Y-124711737D01*
X120523328Y-124714945D01*
X120523107Y-124715073D01*
X120514402Y-124726415D01*
X120514064Y-124726850D01*
X120513924Y-124726950D01*
X120506175Y-124736026D01*
X120494283Y-124748563D01*
X120484540Y-124762733D01*
X120476651Y-124773011D01*
X120465318Y-124786277D01*
X120456261Y-124801059D01*
X120449438Y-124811063D01*
X120449112Y-124811493D01*
X120440506Y-124822709D01*
X120440437Y-124822963D01*
X120437962Y-124826237D01*
X120430173Y-124840592D01*
X120423369Y-124851696D01*
X120414098Y-124865179D01*
X120412308Y-124868868D01*
X120412127Y-124869032D01*
X120406027Y-124881816D01*
X120405809Y-124882268D01*
X120405697Y-124882390D01*
X120399980Y-124892921D01*
X120390935Y-124907684D01*
X120384258Y-124923795D01*
X120379056Y-124934789D01*
X120378753Y-124935354D01*
X120372043Y-124947722D01*
X120372019Y-124947946D01*
X120370139Y-124951463D01*
X120364632Y-124967013D01*
X120359670Y-124978991D01*
X120352202Y-124994648D01*
X120347317Y-125011147D01*
X120343327Y-125022550D01*
X120343125Y-125023046D01*
X120337680Y-125036188D01*
X120337679Y-125036469D01*
X120336210Y-125040093D01*
X120332358Y-125056128D01*
X120328679Y-125068545D01*
X120323135Y-125084202D01*
X120322381Y-125088113D01*
X120322236Y-125088338D01*
X120319613Y-125102491D01*
X120319523Y-125102960D01*
X120319440Y-125103120D01*
X120316662Y-125114701D01*
X120311748Y-125131302D01*
X120309510Y-125148304D01*
X120307142Y-125161077D01*
X120303300Y-125177072D01*
X120302953Y-125181113D01*
X120302836Y-125181345D01*
X120301720Y-125195515D01*
X120301675Y-125196046D01*
X120301611Y-125196209D01*
X120300053Y-125208051D01*
X120296895Y-125225097D01*
X120296441Y-125242416D01*
X120295532Y-125254504D01*
X120295470Y-125254999D01*
X120293613Y-125269113D01*
X120293679Y-125269361D01*
X120293190Y-125273288D01*
X120293621Y-125289762D01*
X120293281Y-125302729D01*
X120291987Y-125319171D01*
X120292272Y-125323150D01*
X120292190Y-125323404D01*
X120293311Y-125337653D01*
X120293346Y-125338135D01*
X120293308Y-125338308D01*
X120293621Y-125350236D01*
X120293169Y-125367521D01*
X120295424Y-125384660D01*
X120296441Y-125397585D01*
X120296873Y-125414093D01*
X120297570Y-125418006D01*
X120297517Y-125418259D01*
X120300103Y-125432215D01*
X120300204Y-125432782D01*
X120300185Y-125432953D01*
X120301744Y-125444798D01*
X120303109Y-125462133D01*
X120307140Y-125478913D01*
X120309390Y-125490811D01*
X120309476Y-125491432D01*
X120311315Y-125505403D01*
X120311449Y-125505635D01*
X120311987Y-125509506D01*
X120316659Y-125525287D01*
X120319685Y-125537894D01*
X120322707Y-125554206D01*
X120324013Y-125557978D01*
X120324000Y-125558240D01*
X120328774Y-125571722D01*
X120328958Y-125572253D01*
X120328966Y-125572425D01*
X120332355Y-125583863D01*
X120336415Y-125600759D01*
X120337679Y-125603811D01*
X120337680Y-125603812D01*
X120342978Y-125616597D01*
X120347322Y-125628862D01*
X120351972Y-125644571D01*
X120353700Y-125648259D01*
X120353714Y-125648518D01*
X120359831Y-125661343D01*
X120360032Y-125661771D01*
X120360058Y-125661944D01*
X120364633Y-125672986D01*
X120370380Y-125689214D01*
X120378694Y-125704535D01*
X120384257Y-125716200D01*
X120390937Y-125732319D01*
X120399982Y-125747082D01*
X120405812Y-125757737D01*
X120406011Y-125758148D01*
X120412127Y-125770968D01*
X120412311Y-125771133D01*
X120414102Y-125774825D01*
X120423362Y-125788293D01*
X120430171Y-125799404D01*
X120437962Y-125813761D01*
X120440436Y-125817033D01*
X120440506Y-125817291D01*
X120449200Y-125828620D01*
X120449433Y-125828928D01*
X120449496Y-125829095D01*
X120456261Y-125838938D01*
X120462491Y-125849106D01*
X120465321Y-125853726D01*
X120476647Y-125866983D01*
X120484079Y-125876600D01*
X120484274Y-125876880D01*
X120492401Y-125888699D01*
X120492610Y-125888834D01*
X120494813Y-125891994D01*
X120506170Y-125903967D01*
X120514571Y-125913805D01*
X120521925Y-125923386D01*
X120525244Y-125927712D01*
X120537833Y-125939653D01*
X120546235Y-125948446D01*
X120546500Y-125948752D01*
X120555705Y-125959527D01*
X120555928Y-125959640D01*
X120558495Y-125962605D01*
X120560472Y-125964294D01*
X120560473Y-125964295D01*
X120570939Y-125973236D01*
X120580354Y-125982174D01*
X120591739Y-125994176D01*
X120594944Y-125996670D01*
X120595073Y-125996893D01*
X120606492Y-126005656D01*
X120606841Y-126005928D01*
X120606941Y-126006067D01*
X120616023Y-126013822D01*
X120628563Y-126025716D01*
X120631300Y-126027598D01*
X120631301Y-126027599D01*
X120640032Y-126033602D01*
X120642737Y-126035462D01*
X120653023Y-126043357D01*
X120663627Y-126052416D01*
X120663628Y-126052416D01*
X120666284Y-126054685D01*
X120669163Y-126056449D01*
X120669165Y-126056451D01*
X120681061Y-126063739D01*
X120691076Y-126070571D01*
X120691470Y-126070869D01*
X120702709Y-126079494D01*
X120702965Y-126079562D01*
X120706237Y-126082037D01*
X120720593Y-126089827D01*
X120731708Y-126096638D01*
X120745173Y-126105897D01*
X120748866Y-126107688D01*
X120749032Y-126107872D01*
X120761995Y-126114055D01*
X120762241Y-126114175D01*
X120762366Y-126114288D01*
X120772906Y-126120010D01*
X120784856Y-126127332D01*
X120787675Y-126129059D01*
X120803786Y-126135736D01*
X120814791Y-126140944D01*
X120815174Y-126141148D01*
X120827722Y-126147958D01*
X120827951Y-126147982D01*
X120831461Y-126149859D01*
X120833865Y-126150710D01*
X120833866Y-126150711D01*
X120847009Y-126155365D01*
X120859001Y-126160332D01*
X120871481Y-126166286D01*
X120871482Y-126166286D01*
X120874646Y-126167795D01*
X120877878Y-126168752D01*
X120877880Y-126168753D01*
X120891137Y-126172677D01*
X120903400Y-126177020D01*
X120916188Y-126182320D01*
X120916189Y-126182320D01*
X120918536Y-126183293D01*
X120922471Y-126184264D01*
X120922668Y-126184408D01*
X120936601Y-126187754D01*
X120936893Y-126187827D01*
X120937033Y-126187909D01*
X120948550Y-126191321D01*
X120961760Y-126196000D01*
X120964987Y-126197143D01*
X120968337Y-126197763D01*
X120968338Y-126197764D01*
X120982101Y-126200313D01*
X120993942Y-126203114D01*
X120994255Y-126203204D01*
X121007973Y-126207266D01*
X121008218Y-126207240D01*
X121012059Y-126208350D01*
X121014594Y-126208683D01*
X121014597Y-126208685D01*
X121028318Y-126210490D01*
X121041075Y-126212856D01*
X121054590Y-126216103D01*
X121054591Y-126216102D01*
X121057081Y-126216701D01*
X121061113Y-126217045D01*
X121061345Y-126217164D01*
X121075644Y-126218288D01*
X121076030Y-126218322D01*
X121076193Y-126218385D01*
X121088053Y-126219946D01*
X121101741Y-126222483D01*
X121101742Y-126222482D01*
X121105095Y-126223104D01*
X121108491Y-126223193D01*
X121108494Y-126223194D01*
X121122424Y-126223558D01*
X121135349Y-126224575D01*
X121149113Y-126226387D01*
X121149118Y-126226385D01*
X121156221Y-126225920D01*
X121174057Y-126226035D01*
X121196596Y-126227810D01*
X121196600Y-126227808D01*
X121203703Y-126226968D01*
X121216557Y-126226120D01*
X121219043Y-126226085D01*
X121244123Y-126226742D01*
X121246842Y-126225698D01*
X121260199Y-126225512D01*
X121260570Y-126225615D01*
X121261926Y-126225500D01*
X123038074Y-126225500D01*
X123053387Y-126226806D01*
X123055874Y-126226740D01*
X123055877Y-126226742D01*
X123078476Y-126226150D01*
X123096293Y-126226968D01*
X123103401Y-126227809D01*
X123103404Y-126227810D01*
X123125983Y-126226032D01*
X123129794Y-126225793D01*
X123135978Y-126225500D01*
X123147577Y-126225500D01*
X123150887Y-126226387D01*
X123169793Y-126223897D01*
X123174964Y-126223653D01*
X123175306Y-126223736D01*
X123177591Y-126223556D01*
X123191507Y-126223193D01*
X123191507Y-126223192D01*
X123194908Y-126223104D01*
X123198258Y-126222482D01*
X123198259Y-126222483D01*
X123211943Y-126219946D01*
X123223972Y-126218321D01*
X123224242Y-126218297D01*
X123238655Y-126217164D01*
X123238889Y-126217044D01*
X123242928Y-126216699D01*
X123245409Y-126216102D01*
X123245411Y-126216103D01*
X123258910Y-126212859D01*
X123271695Y-126210488D01*
X123285403Y-126208685D01*
X123285405Y-126208683D01*
X123287941Y-126208350D01*
X123291781Y-126207240D01*
X123292027Y-126207266D01*
X123305718Y-126203212D01*
X123306051Y-126203116D01*
X123306217Y-126203116D01*
X123317896Y-126200314D01*
X123331662Y-126197764D01*
X123331662Y-126197763D01*
X123335007Y-126197144D01*
X123338237Y-126195999D01*
X123338240Y-126196000D01*
X123351451Y-126191321D01*
X123363096Y-126187830D01*
X123363396Y-126187755D01*
X123377333Y-126184408D01*
X123377532Y-126184262D01*
X123381465Y-126183291D01*
X123383808Y-126182320D01*
X123383812Y-126182320D01*
X123396600Y-126177019D01*
X123408857Y-126172678D01*
X123422120Y-126168753D01*
X123422121Y-126168752D01*
X123424567Y-126168028D01*
X123428255Y-126166299D01*
X123428518Y-126166286D01*
X123441500Y-126160092D01*
X123441756Y-126159973D01*
X123441930Y-126159946D01*
X123452977Y-126155369D01*
X123466134Y-126150711D01*
X123466135Y-126150709D01*
X123469213Y-126149620D01*
X123472277Y-126147957D01*
X123472278Y-126147957D01*
X123484543Y-126141301D01*
X123496199Y-126135741D01*
X123509151Y-126130375D01*
X123509152Y-126130373D01*
X123512320Y-126129061D01*
X123515140Y-126127332D01*
X123515144Y-126127332D01*
X123527091Y-126120011D01*
X123537747Y-126114181D01*
X123537972Y-126114071D01*
X123550968Y-126107873D01*
X123551135Y-126107686D01*
X123554823Y-126105898D01*
X123556900Y-126104469D01*
X123556903Y-126104469D01*
X123568293Y-126096636D01*
X123579405Y-126089827D01*
X123591527Y-126083250D01*
X123591529Y-126083246D01*
X123593766Y-126082033D01*
X123597031Y-126079563D01*
X123597291Y-126079494D01*
X123608561Y-126070843D01*
X123608924Y-126070570D01*
X123609091Y-126070506D01*
X123618948Y-126063732D01*
X123630835Y-126056450D01*
X123630836Y-126056448D01*
X123633721Y-126054681D01*
X123636371Y-126052416D01*
X123636374Y-126052416D01*
X123646990Y-126043346D01*
X123656609Y-126035913D01*
X123656777Y-126035795D01*
X123668699Y-126027599D01*
X123668835Y-126027388D01*
X123671990Y-126025189D01*
X123673889Y-126023387D01*
X123673893Y-126023386D01*
X123683974Y-126013822D01*
X123693812Y-126005421D01*
X123704927Y-125996893D01*
X123704928Y-125996891D01*
X123707709Y-125994757D01*
X123710011Y-125992329D01*
X123710015Y-125992328D01*
X123719659Y-125982160D01*
X123728449Y-125973761D01*
X123728691Y-125973551D01*
X123739527Y-125964295D01*
X123739642Y-125964067D01*
X123742608Y-125961500D01*
X123744292Y-125959528D01*
X123744295Y-125959527D01*
X123753231Y-125949065D01*
X123762180Y-125939639D01*
X123772328Y-125930014D01*
X123772328Y-125930012D01*
X123774174Y-125928262D01*
X123776668Y-125925056D01*
X123776893Y-125924927D01*
X123785712Y-125913434D01*
X123785929Y-125913156D01*
X123786068Y-125913055D01*
X123793822Y-125903975D01*
X123803386Y-125893893D01*
X123803386Y-125893890D01*
X123805718Y-125891433D01*
X123807596Y-125888700D01*
X123807599Y-125888699D01*
X123815468Y-125877252D01*
X123823351Y-125866983D01*
X123832416Y-125856373D01*
X123832417Y-125856369D01*
X123834690Y-125853709D01*
X123836451Y-125850835D01*
X123843738Y-125838938D01*
X123850575Y-125828916D01*
X123850765Y-125828663D01*
X123859494Y-125817291D01*
X123859563Y-125817031D01*
X123862034Y-125813765D01*
X123863247Y-125811529D01*
X123863250Y-125811527D01*
X123869831Y-125799396D01*
X123876639Y-125788290D01*
X123885898Y-125774825D01*
X123887688Y-125771132D01*
X123887872Y-125770968D01*
X123893998Y-125758124D01*
X123894180Y-125757750D01*
X123894289Y-125757628D01*
X123900017Y-125747082D01*
X123907332Y-125735144D01*
X123907332Y-125735140D01*
X123909057Y-125732326D01*
X123910371Y-125729153D01*
X123910374Y-125729151D01*
X123915741Y-125716200D01*
X123920941Y-125705212D01*
X123921078Y-125704954D01*
X123927958Y-125692278D01*
X123927982Y-125692045D01*
X123929861Y-125688533D01*
X123935364Y-125672993D01*
X123940332Y-125660997D01*
X123946286Y-125648519D01*
X123946286Y-125648516D01*
X123947796Y-125645352D01*
X123948753Y-125642120D01*
X123952677Y-125628862D01*
X123957019Y-125616600D01*
X123962320Y-125603812D01*
X123962320Y-125603808D01*
X123963290Y-125601468D01*
X123964262Y-125597532D01*
X123964408Y-125597332D01*
X123967756Y-125583390D01*
X123967831Y-125583090D01*
X123967915Y-125582945D01*
X123971317Y-125571460D01*
X123976000Y-125558240D01*
X123975999Y-125558235D01*
X123977145Y-125555002D01*
X123980313Y-125537900D01*
X123980315Y-125537894D01*
X123980314Y-125537891D01*
X123983116Y-125526051D01*
X123983211Y-125525719D01*
X123987266Y-125512027D01*
X123987240Y-125511780D01*
X123988350Y-125507940D01*
X123988683Y-125505405D01*
X123988685Y-125505403D01*
X123990488Y-125491694D01*
X123992860Y-125478907D01*
X123996103Y-125465410D01*
X123996102Y-125465408D01*
X123996700Y-125462923D01*
X123997045Y-125458887D01*
X123997164Y-125458655D01*
X123998293Y-125444292D01*
X123998321Y-125443976D01*
X123998384Y-125443813D01*
X123999947Y-125431942D01*
X124003104Y-125414907D01*
X124003193Y-125411508D01*
X124003194Y-125411506D01*
X124003558Y-125397578D01*
X124004469Y-125385482D01*
X124004518Y-125385088D01*
X124006387Y-125370887D01*
X124006320Y-125370637D01*
X124006810Y-125366709D01*
X124006671Y-125361444D01*
X124006378Y-125350236D01*
X124006717Y-125337274D01*
X124007810Y-125323404D01*
X124007809Y-125323401D01*
X124008077Y-125319998D01*
X124007809Y-125316598D01*
X124007810Y-125316596D01*
X124006717Y-125302727D01*
X124006358Y-125290594D01*
X124006362Y-125290352D01*
X124006742Y-125275877D01*
X124006647Y-125275630D01*
X124006724Y-125271680D01*
X124006386Y-125269114D01*
X124006387Y-125269113D01*
X124004576Y-125255351D01*
X124003558Y-125242418D01*
X124003558Y-125242416D01*
X124003194Y-125228494D01*
X124003192Y-125228491D01*
X124003125Y-125225907D01*
X124002428Y-125221997D01*
X124002483Y-125221741D01*
X123999879Y-125207695D01*
X123999795Y-125207219D01*
X123999813Y-125207047D01*
X123998253Y-125195186D01*
X123996891Y-125177872D01*
X123996102Y-125174591D01*
X123996103Y-125174590D01*
X123992855Y-125161073D01*
X123990606Y-125149180D01*
X123990571Y-125148929D01*
X123988685Y-125134597D01*
X123988547Y-125134359D01*
X123988010Y-125130486D01*
X123983340Y-125114713D01*
X123980313Y-125102098D01*
X123977143Y-125084987D01*
X123971324Y-125068558D01*
X123967827Y-125056893D01*
X123967754Y-125056601D01*
X123964408Y-125042668D01*
X123964264Y-125042471D01*
X123963293Y-125038536D01*
X123962320Y-125036188D01*
X123957020Y-125023400D01*
X123952676Y-125011133D01*
X123948029Y-124995435D01*
X123946299Y-124991744D01*
X123946286Y-124991481D01*
X123940128Y-124978573D01*
X123939968Y-124978231D01*
X123939941Y-124978056D01*
X123935365Y-124967009D01*
X123929620Y-124950785D01*
X123921301Y-124935455D01*
X123915736Y-124923786D01*
X123909059Y-124907675D01*
X123907332Y-124904856D01*
X123900010Y-124892906D01*
X123894175Y-124882241D01*
X123894055Y-124881995D01*
X123887872Y-124869032D01*
X123887688Y-124868866D01*
X123885897Y-124865173D01*
X123876638Y-124851708D01*
X123869827Y-124840593D01*
X123862037Y-124826237D01*
X123859562Y-124822965D01*
X123859494Y-124822709D01*
X123850869Y-124811470D01*
X123850571Y-124811076D01*
X123850508Y-124810909D01*
X123843739Y-124801061D01*
X123843738Y-124801059D01*
X123836451Y-124789165D01*
X123836449Y-124789163D01*
X123834685Y-124786284D01*
X123832416Y-124783628D01*
X123832416Y-124783627D01*
X123823357Y-124773023D01*
X123815922Y-124763402D01*
X123815714Y-124763103D01*
X123807599Y-124751301D01*
X123807390Y-124751165D01*
X123805186Y-124748004D01*
X123793822Y-124736023D01*
X123785419Y-124726182D01*
X123774760Y-124712292D01*
X123762174Y-124700354D01*
X123753769Y-124691559D01*
X123753494Y-124691241D01*
X123744295Y-124680473D01*
X123744070Y-124680358D01*
X123741502Y-124677392D01*
X123729077Y-124666778D01*
X123719653Y-124657833D01*
X123710015Y-124647672D01*
X123710013Y-124647671D01*
X123708262Y-124645825D01*
X123705055Y-124643330D01*
X123704927Y-124643107D01*
X123693501Y-124634339D01*
X123693152Y-124634067D01*
X123693053Y-124633929D01*
X123683967Y-124626170D01*
X123671433Y-124614280D01*
X123657268Y-124604541D01*
X123646983Y-124596647D01*
X123633726Y-124585321D01*
X123629106Y-124582491D01*
X123618935Y-124576259D01*
X123608928Y-124569433D01*
X123608620Y-124569200D01*
X123597291Y-124560506D01*
X123597033Y-124560436D01*
X123593761Y-124557962D01*
X123579404Y-124550171D01*
X123568293Y-124543362D01*
X123554825Y-124534102D01*
X123551133Y-124532311D01*
X123550968Y-124532127D01*
X123538148Y-124526011D01*
X123537737Y-124525812D01*
X123537612Y-124525699D01*
X123527082Y-124519982D01*
X123512319Y-124510937D01*
X123496200Y-124504257D01*
X123485198Y-124499051D01*
X123484844Y-124498861D01*
X123472278Y-124492043D01*
X123472050Y-124492019D01*
X123468537Y-124490140D01*
X123466134Y-124489289D01*
X123452978Y-124484629D01*
X123440999Y-124479667D01*
X123425354Y-124472204D01*
X123416075Y-124469457D01*
X123408854Y-124467319D01*
X123397445Y-124463326D01*
X123397036Y-124463160D01*
X123383812Y-124457680D01*
X123383529Y-124457679D01*
X123379904Y-124456209D01*
X123363863Y-124452355D01*
X123351446Y-124448676D01*
X123335012Y-124442856D01*
X123321795Y-124440407D01*
X123317889Y-124439683D01*
X123306057Y-124436885D01*
X123305713Y-124436785D01*
X123292027Y-124432734D01*
X123291783Y-124432759D01*
X123287934Y-124431647D01*
X123271691Y-124429509D01*
X123258910Y-124427140D01*
X123247904Y-124424496D01*
X123187317Y-124389696D01*
X123155163Y-124327665D01*
X123161649Y-124258097D01*
X123163787Y-124253050D01*
X123172049Y-124234686D01*
X123172865Y-124235053D01*
X123182555Y-124214585D01*
X123181753Y-124214186D01*
X123187189Y-124203256D01*
X123187190Y-124203254D01*
X123187192Y-124203252D01*
X123191704Y-124186639D01*
X123193239Y-124181447D01*
X123195748Y-124173594D01*
X123206625Y-124150622D01*
X123207272Y-124137532D01*
X123212205Y-124122098D01*
X123215665Y-124116984D01*
X123215524Y-124116943D01*
X123218955Y-124105225D01*
X123218955Y-124105222D01*
X123218956Y-124105221D01*
X123220476Y-124088079D01*
X123222812Y-124072748D01*
X123223487Y-124069634D01*
X123228838Y-124049942D01*
X123228438Y-124046825D01*
X123231248Y-124033882D01*
X123243841Y-124010792D01*
X123252971Y-123986125D01*
X123260307Y-123980604D01*
X123264704Y-123972543D01*
X123287784Y-123959926D01*
X123308799Y-123944112D01*
X123317955Y-123943433D01*
X123326012Y-123939030D01*
X123352249Y-123940894D01*
X123378478Y-123938952D01*
X123386546Y-123943331D01*
X123395706Y-123943982D01*
X123416769Y-123959734D01*
X123439885Y-123972281D01*
X123440104Y-123972499D01*
X123444507Y-123976901D01*
X123444510Y-123976905D01*
X123527402Y-124032287D01*
X123535534Y-124035655D01*
X123633300Y-124055100D01*
X126414965Y-124055100D01*
X126482004Y-124074785D01*
X126527759Y-124127589D01*
X126538965Y-124179100D01*
X126538965Y-124397876D01*
X126545372Y-124457483D01*
X126595666Y-124592328D01*
X126595670Y-124592335D01*
X126681916Y-124707544D01*
X126681919Y-124707547D01*
X126797128Y-124793793D01*
X126797135Y-124793797D01*
X126931981Y-124844091D01*
X126931980Y-124844091D01*
X126938908Y-124844835D01*
X126991591Y-124850500D01*
X129287336Y-124850499D01*
X129346947Y-124844091D01*
X129481795Y-124793796D01*
X129597010Y-124707546D01*
X129683260Y-124592331D01*
X129733555Y-124457483D01*
X129739964Y-124397873D01*
X129739963Y-123824112D01*
X129742222Y-123800551D01*
X129742449Y-123799378D01*
X129744901Y-123786709D01*
X129729840Y-120895194D01*
X129749175Y-120828055D01*
X129801740Y-120782025D01*
X129870845Y-120771722D01*
X129871461Y-120771808D01*
X129918000Y-120778500D01*
X130664357Y-120778500D01*
X130731396Y-120798185D01*
X130752038Y-120814819D01*
X130803431Y-120866212D01*
X130868688Y-120931469D01*
X130868691Y-120931470D01*
X130868694Y-120931473D01*
X130948606Y-120977611D01*
X130948607Y-120977611D01*
X130948612Y-120977614D01*
X131037756Y-121001500D01*
X131037758Y-121001500D01*
X136646342Y-121001500D01*
X136646344Y-121001500D01*
X136735488Y-120977614D01*
X136749488Y-120969531D01*
X136815412Y-120931470D01*
X136908304Y-120838577D01*
X136913282Y-120834536D01*
X136939832Y-120823423D01*
X136965086Y-120809634D01*
X136975438Y-120808520D01*
X136977734Y-120807560D01*
X136980247Y-120808003D01*
X136991444Y-120806800D01*
X137067372Y-120806800D01*
X137067375Y-120806800D01*
X137207385Y-120769284D01*
X137332915Y-120696809D01*
X137435409Y-120594315D01*
X137507884Y-120468785D01*
X137545400Y-120328775D01*
X137545400Y-120183825D01*
X137507884Y-120043815D01*
X137491097Y-120014740D01*
X137435411Y-119918288D01*
X137435406Y-119918282D01*
X137332917Y-119815793D01*
X137332911Y-119815788D01*
X137207388Y-119743317D01*
X137207389Y-119743317D01*
X137195906Y-119740240D01*
X137067375Y-119705800D01*
X136922425Y-119705800D01*
X136793893Y-119740240D01*
X136782411Y-119743317D01*
X136656888Y-119815788D01*
X136656882Y-119815793D01*
X136554393Y-119918282D01*
X136554388Y-119918288D01*
X136481917Y-120043811D01*
X136444399Y-120183828D01*
X136443339Y-120191885D01*
X136440011Y-120191446D01*
X136424715Y-120243539D01*
X136371911Y-120289294D01*
X136320400Y-120300500D01*
X135561344Y-120300500D01*
X135494305Y-120280815D01*
X135448550Y-120228011D01*
X135438606Y-120158853D01*
X135467631Y-120095297D01*
X135473663Y-120088819D01*
X136197118Y-119365364D01*
X136957870Y-118604612D01*
X137004014Y-118524688D01*
X137004261Y-118523765D01*
X137005951Y-118517460D01*
X137020673Y-118462514D01*
X137027900Y-118435544D01*
X137027900Y-111789144D01*
X137047585Y-111722105D01*
X137064219Y-111701463D01*
X137308372Y-111457310D01*
X137565443Y-111200238D01*
X137626764Y-111166755D01*
X137696455Y-111171739D01*
X137752389Y-111213610D01*
X137776806Y-111279075D01*
X137772897Y-111320012D01*
X137762900Y-111357320D01*
X137762900Y-111357325D01*
X137762900Y-111502275D01*
X137800416Y-111642285D01*
X137800417Y-111642288D01*
X137872888Y-111767811D01*
X137872890Y-111767813D01*
X137872891Y-111767815D01*
X137975385Y-111870309D01*
X137975386Y-111870310D01*
X137975388Y-111870311D01*
X138100911Y-111942782D01*
X138100912Y-111942782D01*
X138100915Y-111942784D01*
X138240925Y-111980300D01*
X138316856Y-111980300D01*
X138338776Y-111986736D01*
X138361545Y-111988633D01*
X138374948Y-111997357D01*
X138383895Y-111999985D01*
X138392322Y-112005909D01*
X138398781Y-112010863D01*
X138468388Y-112080470D01*
X138546878Y-112125786D01*
X138548312Y-112126614D01*
X138637456Y-112150500D01*
X139250500Y-112150500D01*
X139317539Y-112170185D01*
X139363294Y-112222989D01*
X139374500Y-112274500D01*
X139374500Y-112324678D01*
X139389032Y-112397735D01*
X139389033Y-112397739D01*
X139389034Y-112397740D01*
X139444399Y-112480601D01*
X139525340Y-112534683D01*
X139527260Y-112535966D01*
X139527264Y-112535967D01*
X139600321Y-112550499D01*
X139600324Y-112550500D01*
X139600326Y-112550500D01*
X140325500Y-112550500D01*
X140392539Y-112570185D01*
X140438294Y-112622989D01*
X140449500Y-112674500D01*
X140449500Y-113399678D01*
X140464032Y-113472735D01*
X140464033Y-113472739D01*
X140464034Y-113472740D01*
X140519399Y-113555601D01*
X140599999Y-113609455D01*
X140602260Y-113610966D01*
X140602264Y-113610967D01*
X140675321Y-113625499D01*
X140675324Y-113625500D01*
X140675326Y-113625500D01*
X140742900Y-113625500D01*
X140809939Y-113645185D01*
X140855694Y-113697989D01*
X140866900Y-113749500D01*
X140866900Y-114812586D01*
X140847215Y-114879625D01*
X140824143Y-114906264D01*
X138127549Y-117244902D01*
X138101811Y-117270658D01*
X138078763Y-117297271D01*
X138072936Y-117304246D01*
X138072935Y-117304247D01*
X138026734Y-117392576D01*
X138026731Y-117392583D01*
X138023666Y-117403025D01*
X138023665Y-117403029D01*
X138019724Y-117416450D01*
X138007051Y-117459610D01*
X137998372Y-117519973D01*
X137996700Y-117531598D01*
X137996700Y-120957802D01*
X138002538Y-121012112D01*
X138013743Y-121063618D01*
X138013746Y-121063627D01*
X138020979Y-121089992D01*
X138020983Y-121090003D01*
X138070305Y-121176618D01*
X138070310Y-121176625D01*
X138070312Y-121176628D01*
X138093378Y-121203247D01*
X138116063Y-121229428D01*
X138116066Y-121229431D01*
X138116067Y-121229432D01*
X138148841Y-121261057D01*
X138237176Y-121307265D01*
X138237177Y-121307265D01*
X138237177Y-121307266D01*
X138281418Y-121320256D01*
X138304215Y-121326950D01*
X138304219Y-121326950D01*
X138304221Y-121326951D01*
X138315852Y-121328623D01*
X138376200Y-121337300D01*
X138376201Y-121337300D01*
X142751000Y-121337300D01*
X142805313Y-121331461D01*
X142856824Y-121320255D01*
X142883198Y-121313019D01*
X142969521Y-121263863D01*
X142969818Y-121263694D01*
X142969819Y-121263692D01*
X142969828Y-121263688D01*
X143022632Y-121217933D01*
X143054257Y-121185159D01*
X143100465Y-121096824D01*
X143102470Y-121089998D01*
X143111827Y-121058130D01*
X143120150Y-121029785D01*
X143130500Y-120957800D01*
X143130500Y-117599000D01*
X143124661Y-117544687D01*
X143113455Y-117493176D01*
X143106219Y-117466802D01*
X143071516Y-117405860D01*
X143055448Y-117337863D01*
X143078692Y-117271973D01*
X143133870Y-117229110D01*
X143179270Y-117220500D01*
X143484174Y-117220500D01*
X143484190Y-117220499D01*
X143542299Y-117214251D01*
X143545760Y-117212960D01*
X143673778Y-117165212D01*
X143786116Y-117081116D01*
X143870212Y-116968778D01*
X143919251Y-116837299D01*
X143920797Y-116822923D01*
X143925499Y-116779190D01*
X143925500Y-116779173D01*
X143925500Y-116085826D01*
X143925499Y-116085809D01*
X143919251Y-116027700D01*
X143904665Y-115988594D01*
X143870212Y-115896222D01*
X143868623Y-115894100D01*
X143850302Y-115869626D01*
X143786116Y-115783884D01*
X143714292Y-115730117D01*
X143673780Y-115699789D01*
X143673778Y-115699788D01*
X143637295Y-115686180D01*
X143581364Y-115644310D01*
X143556947Y-115578846D01*
X143571799Y-115510573D01*
X143614395Y-115465172D01*
X143625254Y-115458310D01*
X143673778Y-115440212D01*
X143781378Y-115359662D01*
X143785521Y-115357045D01*
X143814588Y-115348752D01*
X143842910Y-115338189D01*
X143847849Y-115339263D01*
X143852710Y-115337877D01*
X143881640Y-115346613D01*
X143911183Y-115353040D01*
X143916770Y-115357222D01*
X143919596Y-115358076D01*
X143922575Y-115361568D01*
X143939438Y-115374192D01*
X144234040Y-115668794D01*
X144267525Y-115730117D01*
X144270359Y-115756475D01*
X144270359Y-115832406D01*
X144303648Y-115956641D01*
X144307876Y-115972419D01*
X144380347Y-116097942D01*
X144380349Y-116097944D01*
X144380350Y-116097946D01*
X144482844Y-116200440D01*
X144482845Y-116200441D01*
X144482847Y-116200442D01*
X144608370Y-116272913D01*
X144608371Y-116272913D01*
X144608374Y-116272915D01*
X144748384Y-116310431D01*
X144748387Y-116310431D01*
X144893331Y-116310431D01*
X144893334Y-116310431D01*
X145033344Y-116272915D01*
X145158874Y-116200440D01*
X145261368Y-116097946D01*
X145333843Y-115972416D01*
X145371359Y-115832406D01*
X145371359Y-115756475D01*
X145391044Y-115689436D01*
X145407678Y-115668794D01*
X146427619Y-114648853D01*
X146447055Y-114638240D01*
X146463789Y-114623740D01*
X146477120Y-114621823D01*
X146488942Y-114615368D01*
X146511028Y-114616947D01*
X146532947Y-114613796D01*
X146545198Y-114619391D01*
X146558634Y-114620352D01*
X146576360Y-114633622D01*
X146596503Y-114642821D01*
X146603785Y-114654152D01*
X146614567Y-114662224D01*
X146622304Y-114682969D01*
X146634277Y-114701599D01*
X146637428Y-114723517D01*
X146638984Y-114727688D01*
X146639300Y-114736534D01*
X146639300Y-114904737D01*
X146635075Y-114936829D01*
X146613900Y-115015856D01*
X146613900Y-117165544D01*
X146631683Y-117231911D01*
X146636405Y-117249535D01*
X146637785Y-117254688D01*
X146683927Y-117334608D01*
X146683931Y-117334613D01*
X150613181Y-121263863D01*
X150646666Y-121325186D01*
X150649500Y-121351544D01*
X150649500Y-121947870D01*
X150649501Y-121947876D01*
X150655908Y-122007483D01*
X150706202Y-122142328D01*
X150706206Y-122142335D01*
X150792452Y-122257544D01*
X150792455Y-122257547D01*
X150907664Y-122343793D01*
X150907669Y-122343796D01*
X150981333Y-122371271D01*
X151037266Y-122413140D01*
X151061684Y-122478604D01*
X151062000Y-122487452D01*
X151062000Y-123012547D01*
X151042315Y-123079586D01*
X150989511Y-123125341D01*
X150981333Y-123128729D01*
X150907671Y-123156202D01*
X150907664Y-123156206D01*
X150792455Y-123242452D01*
X150792452Y-123242455D01*
X150706206Y-123357664D01*
X150706202Y-123357671D01*
X150655908Y-123492517D01*
X150649501Y-123552116D01*
X150649500Y-123552135D01*
X150649500Y-124947870D01*
X150649501Y-124947876D01*
X150655908Y-125007483D01*
X150706202Y-125142328D01*
X150706203Y-125142329D01*
X150706204Y-125142331D01*
X150768163Y-125225097D01*
X150787267Y-125250617D01*
X150811684Y-125316081D01*
X150812000Y-125324928D01*
X150812000Y-125656800D01*
X150792315Y-125723839D01*
X150739511Y-125769594D01*
X150688000Y-125780800D01*
X137439400Y-125780800D01*
X137439400Y-133375500D01*
X137419715Y-133442539D01*
X137366911Y-133488294D01*
X137315400Y-133499500D01*
X115624500Y-133499500D01*
X115557461Y-133479815D01*
X115511706Y-133427011D01*
X115500500Y-133375500D01*
X115500500Y-130202118D01*
X115520185Y-130135079D01*
X115572989Y-130089324D01*
X115624500Y-130078118D01*
X116575586Y-130078118D01*
X116575586Y-129893713D01*
X119149500Y-129893713D01*
X119149500Y-130106286D01*
X119182753Y-130316239D01*
X119248444Y-130518414D01*
X119344951Y-130707820D01*
X119469890Y-130879786D01*
X119620213Y-131030109D01*
X119792179Y-131155048D01*
X119792181Y-131155049D01*
X119792184Y-131155051D01*
X119981588Y-131251557D01*
X120183757Y-131317246D01*
X120393713Y-131350500D01*
X120393714Y-131350500D01*
X120606286Y-131350500D01*
X120606287Y-131350500D01*
X120816243Y-131317246D01*
X121018412Y-131251557D01*
X121207816Y-131155051D01*
X121229789Y-131139086D01*
X121379786Y-131030109D01*
X121379788Y-131030106D01*
X121379792Y-131030104D01*
X121530104Y-130879792D01*
X121530106Y-130879788D01*
X121530109Y-130879786D01*
X121655048Y-130707820D01*
X121655047Y-130707820D01*
X121655051Y-130707816D01*
X121751557Y-130518412D01*
X121817246Y-130316243D01*
X121850500Y-130106287D01*
X121850500Y-129893713D01*
X121817246Y-129683757D01*
X121751557Y-129481588D01*
X121655051Y-129292184D01*
X121655049Y-129292181D01*
X121655048Y-129292179D01*
X121530109Y-129120213D01*
X121379786Y-128969890D01*
X121207820Y-128844951D01*
X121018414Y-128748444D01*
X121018413Y-128748443D01*
X121018412Y-128748443D01*
X120816243Y-128682754D01*
X120816241Y-128682753D01*
X120816240Y-128682753D01*
X120654957Y-128657208D01*
X120606287Y-128649500D01*
X120393713Y-128649500D01*
X120345042Y-128657208D01*
X120183760Y-128682753D01*
X119981585Y-128748444D01*
X119792179Y-128844951D01*
X119620213Y-128969890D01*
X119469890Y-129120213D01*
X119344951Y-129292179D01*
X119248444Y-129481585D01*
X119182753Y-129683760D01*
X119149500Y-129893713D01*
X116575586Y-129893713D01*
X116575586Y-126192375D01*
X116576826Y-126188150D01*
X116575879Y-126183849D01*
X116586584Y-126154919D01*
X116595271Y-126125336D01*
X116598598Y-126122452D01*
X116600127Y-126118322D01*
X116624771Y-126099773D01*
X116648075Y-126079581D01*
X116652433Y-126078954D01*
X116655952Y-126076306D01*
X116686706Y-126074026D01*
X116717233Y-126069637D01*
X116722476Y-126071374D01*
X116725631Y-126071141D01*
X116758725Y-126083386D01*
X116770581Y-126089820D01*
X116770596Y-126089828D01*
X116781708Y-126096638D01*
X116795812Y-126106336D01*
X116799031Y-126107871D01*
X116799032Y-126107872D01*
X116811517Y-126113827D01*
X116822909Y-126120012D01*
X116837046Y-126128674D01*
X116840682Y-126130207D01*
X116840849Y-126130374D01*
X116854134Y-126135879D01*
X116854493Y-126136031D01*
X116854617Y-126136132D01*
X116865450Y-126141298D01*
X116865464Y-126141306D01*
X116880785Y-126149620D01*
X116897009Y-126155365D01*
X116908231Y-126159968D01*
X116908573Y-126160128D01*
X116921481Y-126166286D01*
X116921744Y-126166299D01*
X116925435Y-126168029D01*
X116927879Y-126168752D01*
X116927880Y-126168753D01*
X116941137Y-126172677D01*
X116953400Y-126177020D01*
X116966188Y-126182320D01*
X116966189Y-126182320D01*
X116968536Y-126183293D01*
X116972471Y-126184264D01*
X116972668Y-126184408D01*
X116986601Y-126187754D01*
X116986893Y-126187827D01*
X116987033Y-126187909D01*
X116998550Y-126191321D01*
X117011760Y-126196000D01*
X117014987Y-126197143D01*
X117018337Y-126197763D01*
X117018338Y-126197764D01*
X117032101Y-126200313D01*
X117043942Y-126203114D01*
X117044255Y-126203204D01*
X117057973Y-126207266D01*
X117058218Y-126207240D01*
X117062059Y-126208350D01*
X117064594Y-126208683D01*
X117064597Y-126208685D01*
X117078318Y-126210490D01*
X117091075Y-126212856D01*
X117104590Y-126216103D01*
X117104591Y-126216102D01*
X117107081Y-126216701D01*
X117111113Y-126217045D01*
X117111345Y-126217164D01*
X117125644Y-126218288D01*
X117126030Y-126218322D01*
X117126193Y-126218385D01*
X117138053Y-126219946D01*
X117151741Y-126222483D01*
X117151742Y-126222482D01*
X117155095Y-126223104D01*
X117158491Y-126223193D01*
X117158494Y-126223194D01*
X117172424Y-126223558D01*
X117185349Y-126224575D01*
X117199113Y-126226387D01*
X117199118Y-126226385D01*
X117206221Y-126225920D01*
X117224057Y-126226035D01*
X117246596Y-126227810D01*
X117246600Y-126227808D01*
X117253703Y-126226968D01*
X117266557Y-126226120D01*
X117269043Y-126226085D01*
X117294123Y-126226742D01*
X117296842Y-126225698D01*
X117310199Y-126225512D01*
X117310570Y-126225615D01*
X117311926Y-126225500D01*
X118388074Y-126225500D01*
X118403387Y-126226806D01*
X118405874Y-126226740D01*
X118405877Y-126226742D01*
X118428476Y-126226150D01*
X118446293Y-126226968D01*
X118453401Y-126227809D01*
X118453404Y-126227810D01*
X118475983Y-126226032D01*
X118479794Y-126225793D01*
X118485978Y-126225500D01*
X118497577Y-126225500D01*
X118500887Y-126226387D01*
X118519793Y-126223897D01*
X118524964Y-126223653D01*
X118525306Y-126223736D01*
X118527591Y-126223556D01*
X118541507Y-126223193D01*
X118541507Y-126223192D01*
X118544908Y-126223104D01*
X118548258Y-126222482D01*
X118548259Y-126222483D01*
X118561943Y-126219946D01*
X118573972Y-126218321D01*
X118574242Y-126218297D01*
X118588655Y-126217164D01*
X118588889Y-126217044D01*
X118592928Y-126216699D01*
X118595409Y-126216102D01*
X118595411Y-126216103D01*
X118608910Y-126212859D01*
X118621695Y-126210488D01*
X118635403Y-126208685D01*
X118635405Y-126208683D01*
X118637941Y-126208350D01*
X118641781Y-126207240D01*
X118642027Y-126207266D01*
X118655718Y-126203212D01*
X118656051Y-126203116D01*
X118656217Y-126203116D01*
X118667896Y-126200314D01*
X118681662Y-126197764D01*
X118681662Y-126197763D01*
X118685007Y-126197144D01*
X118688237Y-126195999D01*
X118688240Y-126196000D01*
X118701451Y-126191321D01*
X118713096Y-126187830D01*
X118713396Y-126187755D01*
X118727333Y-126184408D01*
X118727532Y-126184262D01*
X118731465Y-126183291D01*
X118733808Y-126182320D01*
X118733812Y-126182320D01*
X118746600Y-126177019D01*
X118758857Y-126172678D01*
X118772120Y-126168753D01*
X118772121Y-126168752D01*
X118774567Y-126168028D01*
X118778255Y-126166299D01*
X118778518Y-126166286D01*
X118791500Y-126160092D01*
X118791756Y-126159973D01*
X118791930Y-126159946D01*
X118802977Y-126155369D01*
X118816134Y-126150711D01*
X118816135Y-126150709D01*
X118819213Y-126149620D01*
X118822277Y-126147957D01*
X118822278Y-126147957D01*
X118834543Y-126141301D01*
X118846199Y-126135741D01*
X118859151Y-126130375D01*
X118859152Y-126130373D01*
X118862320Y-126129061D01*
X118865140Y-126127332D01*
X118865144Y-126127332D01*
X118877091Y-126120011D01*
X118887747Y-126114181D01*
X118887972Y-126114071D01*
X118900968Y-126107873D01*
X118901135Y-126107686D01*
X118904823Y-126105898D01*
X118906900Y-126104469D01*
X118906903Y-126104469D01*
X118918293Y-126096636D01*
X118929405Y-126089827D01*
X118941527Y-126083250D01*
X118941529Y-126083246D01*
X118943766Y-126082033D01*
X118947031Y-126079563D01*
X118947291Y-126079494D01*
X118958561Y-126070843D01*
X118958924Y-126070570D01*
X118959091Y-126070506D01*
X118968948Y-126063732D01*
X118980835Y-126056450D01*
X118980836Y-126056448D01*
X118983721Y-126054681D01*
X118986371Y-126052416D01*
X118986374Y-126052416D01*
X118996990Y-126043346D01*
X119006609Y-126035913D01*
X119006777Y-126035795D01*
X119018699Y-126027599D01*
X119018835Y-126027388D01*
X119021990Y-126025189D01*
X119023889Y-126023387D01*
X119023893Y-126023386D01*
X119033974Y-126013822D01*
X119043812Y-126005421D01*
X119054927Y-125996893D01*
X119054928Y-125996891D01*
X119057709Y-125994757D01*
X119060011Y-125992329D01*
X119060015Y-125992328D01*
X119069659Y-125982160D01*
X119078449Y-125973761D01*
X119078691Y-125973551D01*
X119089527Y-125964295D01*
X119089642Y-125964067D01*
X119092608Y-125961500D01*
X119094292Y-125959528D01*
X119094295Y-125959527D01*
X119103231Y-125949065D01*
X119112180Y-125939639D01*
X119122328Y-125930014D01*
X119122328Y-125930012D01*
X119124174Y-125928262D01*
X119126668Y-125925056D01*
X119126893Y-125924927D01*
X119135712Y-125913434D01*
X119135929Y-125913156D01*
X119136068Y-125913055D01*
X119143822Y-125903975D01*
X119153386Y-125893893D01*
X119153386Y-125893890D01*
X119155718Y-125891433D01*
X119157596Y-125888700D01*
X119157599Y-125888699D01*
X119165468Y-125877252D01*
X119173351Y-125866983D01*
X119182416Y-125856373D01*
X119182417Y-125856369D01*
X119184690Y-125853709D01*
X119186451Y-125850835D01*
X119193738Y-125838938D01*
X119200575Y-125828916D01*
X119200765Y-125828663D01*
X119209494Y-125817291D01*
X119209563Y-125817031D01*
X119212034Y-125813765D01*
X119213247Y-125811529D01*
X119213250Y-125811527D01*
X119219831Y-125799396D01*
X119226639Y-125788290D01*
X119235898Y-125774825D01*
X119237688Y-125771132D01*
X119237872Y-125770968D01*
X119243998Y-125758124D01*
X119244180Y-125757750D01*
X119244289Y-125757628D01*
X119250017Y-125747082D01*
X119257332Y-125735144D01*
X119257332Y-125735140D01*
X119259057Y-125732326D01*
X119260371Y-125729153D01*
X119260374Y-125729151D01*
X119265741Y-125716200D01*
X119270941Y-125705212D01*
X119271078Y-125704954D01*
X119277958Y-125692278D01*
X119277982Y-125692045D01*
X119279861Y-125688533D01*
X119285364Y-125672993D01*
X119290332Y-125660997D01*
X119296286Y-125648519D01*
X119296286Y-125648516D01*
X119297796Y-125645352D01*
X119298753Y-125642120D01*
X119302677Y-125628862D01*
X119307019Y-125616600D01*
X119312320Y-125603812D01*
X119312320Y-125603808D01*
X119313290Y-125601468D01*
X119314262Y-125597532D01*
X119314408Y-125597332D01*
X119317756Y-125583390D01*
X119317831Y-125583090D01*
X119317915Y-125582945D01*
X119321317Y-125571460D01*
X119326000Y-125558240D01*
X119325999Y-125558235D01*
X119327145Y-125555002D01*
X119330313Y-125537900D01*
X119330315Y-125537894D01*
X119330314Y-125537891D01*
X119333116Y-125526051D01*
X119333211Y-125525719D01*
X119337266Y-125512027D01*
X119337240Y-125511780D01*
X119338350Y-125507940D01*
X119338683Y-125505405D01*
X119338685Y-125505403D01*
X119340488Y-125491694D01*
X119342860Y-125478907D01*
X119346103Y-125465410D01*
X119346102Y-125465408D01*
X119346700Y-125462923D01*
X119347045Y-125458887D01*
X119347164Y-125458655D01*
X119348293Y-125444292D01*
X119348321Y-125443976D01*
X119348384Y-125443813D01*
X119349947Y-125431942D01*
X119353104Y-125414907D01*
X119353193Y-125411508D01*
X119353194Y-125411506D01*
X119353558Y-125397578D01*
X119354469Y-125385482D01*
X119354518Y-125385088D01*
X119356387Y-125370887D01*
X119356320Y-125370637D01*
X119356810Y-125366709D01*
X119356671Y-125361444D01*
X119356378Y-125350236D01*
X119356717Y-125337274D01*
X119357810Y-125323404D01*
X119357809Y-125323401D01*
X119358077Y-125319998D01*
X119357809Y-125316598D01*
X119357810Y-125316596D01*
X119356717Y-125302727D01*
X119356358Y-125290594D01*
X119356362Y-125290352D01*
X119356742Y-125275877D01*
X119356647Y-125275630D01*
X119356724Y-125271680D01*
X119356386Y-125269114D01*
X119356387Y-125269113D01*
X119354576Y-125255351D01*
X119353558Y-125242418D01*
X119353558Y-125242416D01*
X119353194Y-125228494D01*
X119353192Y-125228491D01*
X119353125Y-125225907D01*
X119352428Y-125221997D01*
X119352483Y-125221741D01*
X119349879Y-125207695D01*
X119349795Y-125207219D01*
X119349813Y-125207047D01*
X119348253Y-125195186D01*
X119346891Y-125177872D01*
X119346102Y-125174591D01*
X119346103Y-125174590D01*
X119342855Y-125161073D01*
X119340606Y-125149180D01*
X119340571Y-125148929D01*
X119338685Y-125134597D01*
X119338547Y-125134359D01*
X119338010Y-125130486D01*
X119333340Y-125114713D01*
X119330313Y-125102098D01*
X119327143Y-125084987D01*
X119321324Y-125068558D01*
X119317827Y-125056893D01*
X119317754Y-125056601D01*
X119314408Y-125042668D01*
X119314264Y-125042471D01*
X119313293Y-125038536D01*
X119312320Y-125036188D01*
X119307020Y-125023400D01*
X119302676Y-125011133D01*
X119298029Y-124995435D01*
X119296299Y-124991744D01*
X119296286Y-124991481D01*
X119290128Y-124978573D01*
X119289968Y-124978231D01*
X119289941Y-124978056D01*
X119285365Y-124967009D01*
X119279620Y-124950785D01*
X119271301Y-124935455D01*
X119265736Y-124923786D01*
X119259059Y-124907675D01*
X119257332Y-124904856D01*
X119250010Y-124892906D01*
X119244175Y-124882241D01*
X119244055Y-124881995D01*
X119237872Y-124869032D01*
X119237688Y-124868866D01*
X119235897Y-124865173D01*
X119226638Y-124851708D01*
X119219827Y-124840593D01*
X119212037Y-124826237D01*
X119209562Y-124822965D01*
X119209494Y-124822709D01*
X119200869Y-124811470D01*
X119200571Y-124811076D01*
X119200508Y-124810909D01*
X119193739Y-124801061D01*
X119193738Y-124801059D01*
X119186451Y-124789165D01*
X119186449Y-124789163D01*
X119184685Y-124786284D01*
X119182416Y-124783628D01*
X119182416Y-124783627D01*
X119173357Y-124773023D01*
X119165922Y-124763402D01*
X119165714Y-124763103D01*
X119157599Y-124751301D01*
X119157390Y-124751165D01*
X119155186Y-124748004D01*
X119143822Y-124736023D01*
X119135419Y-124726182D01*
X119124760Y-124712292D01*
X119112174Y-124700354D01*
X119103769Y-124691559D01*
X119103494Y-124691241D01*
X119094295Y-124680473D01*
X119094070Y-124680358D01*
X119091502Y-124677392D01*
X119079077Y-124666778D01*
X119069653Y-124657833D01*
X119060015Y-124647672D01*
X119060013Y-124647671D01*
X119058262Y-124645825D01*
X119055055Y-124643330D01*
X119054927Y-124643107D01*
X119043501Y-124634339D01*
X119043152Y-124634067D01*
X119043053Y-124633929D01*
X119033967Y-124626170D01*
X119021433Y-124614280D01*
X119007268Y-124604541D01*
X118996983Y-124596647D01*
X118983726Y-124585321D01*
X118979106Y-124582491D01*
X118968935Y-124576259D01*
X118958928Y-124569433D01*
X118958620Y-124569200D01*
X118947291Y-124560506D01*
X118947033Y-124560436D01*
X118943761Y-124557962D01*
X118929404Y-124550171D01*
X118918293Y-124543362D01*
X118904825Y-124534102D01*
X118901133Y-124532311D01*
X118900968Y-124532127D01*
X118888148Y-124526011D01*
X118887737Y-124525812D01*
X118887612Y-124525699D01*
X118877082Y-124519982D01*
X118862319Y-124510937D01*
X118846200Y-124504257D01*
X118835198Y-124499051D01*
X118834844Y-124498861D01*
X118822278Y-124492043D01*
X118822050Y-124492019D01*
X118818537Y-124490140D01*
X118816134Y-124489289D01*
X118802978Y-124484629D01*
X118790999Y-124479667D01*
X118775354Y-124472204D01*
X118766075Y-124469457D01*
X118758854Y-124467319D01*
X118747445Y-124463326D01*
X118747036Y-124463160D01*
X118733812Y-124457680D01*
X118733529Y-124457679D01*
X118729904Y-124456209D01*
X118713863Y-124452355D01*
X118701446Y-124448676D01*
X118685012Y-124442856D01*
X118671795Y-124440407D01*
X118667889Y-124439683D01*
X118656057Y-124436885D01*
X118655713Y-124436785D01*
X118642027Y-124432734D01*
X118641783Y-124432759D01*
X118637934Y-124431647D01*
X118621691Y-124429509D01*
X118608913Y-124427140D01*
X118592929Y-124423300D01*
X118588886Y-124422953D01*
X118588655Y-124422836D01*
X118574468Y-124421719D01*
X118573952Y-124421675D01*
X118573787Y-124421611D01*
X118561949Y-124420053D01*
X118551357Y-124418091D01*
X118548259Y-124417517D01*
X118548258Y-124417517D01*
X118544900Y-124416895D01*
X118527583Y-124416441D01*
X118514659Y-124415425D01*
X118500883Y-124413612D01*
X118493772Y-124414079D01*
X118475932Y-124413963D01*
X118453399Y-124412189D01*
X118446279Y-124413032D01*
X118433442Y-124413879D01*
X118430947Y-124413913D01*
X118405877Y-124413258D01*
X118403158Y-124414301D01*
X118389802Y-124414488D01*
X118389429Y-124414384D01*
X118388072Y-124414500D01*
X117311928Y-124414500D01*
X117296610Y-124413193D01*
X117294123Y-124413258D01*
X117290369Y-124413356D01*
X117271523Y-124413849D01*
X117253709Y-124413032D01*
X117246596Y-124412190D01*
X117246595Y-124412190D01*
X117224067Y-124413963D01*
X117220201Y-124414206D01*
X117213989Y-124414500D01*
X117202423Y-124414500D01*
X117199113Y-124413613D01*
X117180219Y-124416098D01*
X117175029Y-124416344D01*
X117174689Y-124416261D01*
X117172418Y-124416440D01*
X117155095Y-124416894D01*
X117138050Y-124420052D01*
X117126042Y-124421675D01*
X117125461Y-124421724D01*
X117111345Y-124422836D01*
X117111116Y-124422952D01*
X117107080Y-124423298D01*
X117091073Y-124427143D01*
X117078306Y-124429510D01*
X117072984Y-124430210D01*
X117064597Y-124431315D01*
X117064596Y-124431315D01*
X117062055Y-124431650D01*
X117058215Y-124432759D01*
X117057973Y-124432734D01*
X117044461Y-124436733D01*
X117043931Y-124436887D01*
X117043766Y-124436886D01*
X117032109Y-124439683D01*
X117014985Y-124442856D01*
X116998548Y-124448677D01*
X116986906Y-124452168D01*
X116986443Y-124452282D01*
X116972668Y-124455592D01*
X116972473Y-124455733D01*
X116968529Y-124456708D01*
X116953406Y-124462976D01*
X116941142Y-124467320D01*
X116925437Y-124471970D01*
X116921743Y-124473700D01*
X116921481Y-124473714D01*
X116908662Y-124479828D01*
X116908215Y-124480038D01*
X116908037Y-124480065D01*
X116897012Y-124484633D01*
X116880783Y-124490381D01*
X116865439Y-124498706D01*
X116853786Y-124504264D01*
X116837669Y-124510944D01*
X116822906Y-124519988D01*
X116812258Y-124525814D01*
X116811741Y-124526064D01*
X116799032Y-124532128D01*
X116798869Y-124532308D01*
X116795176Y-124534100D01*
X116781702Y-124543365D01*
X116770596Y-124550171D01*
X116758731Y-124556610D01*
X116690420Y-124571285D01*
X116625019Y-124546699D01*
X116583293Y-124490657D01*
X116575586Y-124447624D01*
X116575586Y-122783785D01*
X115624500Y-122783785D01*
X115557461Y-122764100D01*
X115511706Y-122711296D01*
X115500500Y-122659785D01*
X115500500Y-104546696D01*
X117578700Y-104547895D01*
G37*
%TD.AperFunction*%
%TA.AperFunction,Conductor*%
G36*
X158499500Y-104571508D02*
G01*
X158499500Y-125656800D01*
X158479815Y-125723839D01*
X158427011Y-125769594D01*
X158375500Y-125780800D01*
X152437000Y-125780800D01*
X152369961Y-125761115D01*
X152324206Y-125708311D01*
X152313000Y-125656800D01*
X152313000Y-125324928D01*
X152332685Y-125257889D01*
X152337733Y-125250617D01*
X152356737Y-125225231D01*
X152418796Y-125142331D01*
X152469091Y-125007483D01*
X152475500Y-124947873D01*
X152475499Y-124166885D01*
X152495183Y-124099847D01*
X152511813Y-124079210D01*
X155253510Y-121337515D01*
X155325984Y-121211985D01*
X155328325Y-121203247D01*
X155333173Y-121185158D01*
X155353217Y-121110350D01*
X155363500Y-121071975D01*
X155363500Y-104569698D01*
X158499500Y-104571508D01*
G37*
%TD.AperFunction*%
%TA.AperFunction,Conductor*%
G36*
X154262500Y-104569063D02*
G01*
X154262500Y-120720113D01*
X154242815Y-120787152D01*
X154226181Y-120807794D01*
X152274681Y-122759294D01*
X152213358Y-122792779D01*
X152143666Y-122787795D01*
X152087733Y-122745923D01*
X152063316Y-122680459D01*
X152063000Y-122671613D01*
X152063000Y-122487452D01*
X152082685Y-122420413D01*
X152135489Y-122374658D01*
X152143641Y-122371280D01*
X152217331Y-122343796D01*
X152332546Y-122257546D01*
X152418796Y-122142331D01*
X152469091Y-122007483D01*
X152475500Y-121947873D01*
X152475499Y-120552128D01*
X152470299Y-120503757D01*
X152469091Y-120492516D01*
X152418797Y-120357671D01*
X152418793Y-120357664D01*
X152332547Y-120242455D01*
X152332544Y-120242452D01*
X152217335Y-120156206D01*
X152217328Y-120156202D01*
X152082482Y-120105908D01*
X152082483Y-120105908D01*
X152022883Y-120099501D01*
X152022881Y-120099500D01*
X152022873Y-120099500D01*
X152022864Y-120099500D01*
X151102129Y-120099500D01*
X151102123Y-120099501D01*
X151042516Y-120105908D01*
X150907671Y-120156202D01*
X150907664Y-120156206D01*
X150792455Y-120242452D01*
X150792452Y-120242455D01*
X150788598Y-120247604D01*
X150732663Y-120289473D01*
X150662971Y-120294455D01*
X150601653Y-120260971D01*
X147351219Y-117010537D01*
X147317734Y-116949214D01*
X147314900Y-116922856D01*
X147314900Y-115193862D01*
X147319125Y-115161768D01*
X147340300Y-115082744D01*
X147340300Y-112676944D01*
X147359985Y-112609905D01*
X147412789Y-112564150D01*
X147481947Y-112554206D01*
X147545503Y-112583231D01*
X147551981Y-112589263D01*
X149283263Y-114320545D01*
X149316748Y-114381868D01*
X149311764Y-114451560D01*
X149269892Y-114507493D01*
X149264473Y-114511328D01*
X149160028Y-114581116D01*
X149160024Y-114581119D01*
X149031119Y-114710024D01*
X149031113Y-114710032D01*
X148929833Y-114861608D01*
X148929831Y-114861612D01*
X148860068Y-115030037D01*
X148860065Y-115030047D01*
X148824500Y-115208843D01*
X148824500Y-115208846D01*
X148824500Y-115391154D01*
X148824500Y-115391156D01*
X148824499Y-115391156D01*
X148860065Y-115569952D01*
X148860068Y-115569962D01*
X148929831Y-115738387D01*
X148929833Y-115738391D01*
X149031113Y-115889967D01*
X149031119Y-115889975D01*
X149160024Y-116018880D01*
X149160032Y-116018886D01*
X149311608Y-116120166D01*
X149311612Y-116120168D01*
X149470991Y-116186184D01*
X149480042Y-116189933D01*
X149480046Y-116189933D01*
X149480047Y-116189934D01*
X149658843Y-116225500D01*
X149658846Y-116225500D01*
X149841156Y-116225500D01*
X149961445Y-116201572D01*
X150019958Y-116189933D01*
X150188389Y-116120167D01*
X150188391Y-116120166D01*
X150284612Y-116055873D01*
X150339972Y-116018883D01*
X150468883Y-115889972D01*
X150536576Y-115788662D01*
X150570166Y-115738391D01*
X150570168Y-115738387D01*
X150609057Y-115644500D01*
X150639933Y-115569958D01*
X150656570Y-115486318D01*
X150675500Y-115391156D01*
X150675500Y-115208843D01*
X150639934Y-115030047D01*
X150639933Y-115030046D01*
X150639933Y-115030042D01*
X150615815Y-114971816D01*
X150570168Y-114861612D01*
X150570166Y-114861608D01*
X150468886Y-114710032D01*
X150468880Y-114710024D01*
X150339975Y-114581119D01*
X150339967Y-114581113D01*
X150188391Y-114479833D01*
X150188385Y-114479830D01*
X150177043Y-114475132D01*
X150122641Y-114431289D01*
X150100579Y-114364994D01*
X150100500Y-114360573D01*
X150100500Y-114245458D01*
X150100500Y-114245456D01*
X150076614Y-114156312D01*
X150073319Y-114150606D01*
X150066223Y-114138314D01*
X150066221Y-114138312D01*
X150030470Y-114076388D01*
X149275864Y-113321782D01*
X149242379Y-113260459D01*
X149247363Y-113190767D01*
X149289235Y-113134834D01*
X149354699Y-113110417D01*
X149395635Y-113114326D01*
X149429125Y-113123300D01*
X149429127Y-113123300D01*
X149574074Y-113123300D01*
X149574075Y-113123300D01*
X149613803Y-113112654D01*
X149635537Y-113111464D01*
X149703794Y-113093957D01*
X149718665Y-113089659D01*
X149720009Y-113089226D01*
X149734500Y-113084071D01*
X149789954Y-113062442D01*
X149795639Y-113060829D01*
X149824897Y-113061093D01*
X149854051Y-113058572D01*
X149859427Y-113061405D01*
X149865506Y-113061460D01*
X149889979Y-113077502D01*
X149915866Y-113091142D01*
X149922783Y-113099005D01*
X149923940Y-113099764D01*
X149924443Y-113100892D01*
X149928758Y-113105799D01*
X149988884Y-113186116D01*
X150101222Y-113270212D01*
X150193594Y-113304665D01*
X150232700Y-113319251D01*
X150290809Y-113325499D01*
X150290826Y-113325500D01*
X150984174Y-113325500D01*
X150984190Y-113325499D01*
X151042299Y-113319251D01*
X151173778Y-113270212D01*
X151286116Y-113186116D01*
X151370212Y-113073778D01*
X151419251Y-112942299D01*
X151422636Y-112910815D01*
X151425499Y-112884190D01*
X151425500Y-112884173D01*
X151425500Y-112359043D01*
X151445185Y-112292004D01*
X151461819Y-112271362D01*
X151717344Y-112015837D01*
X151976230Y-111756950D01*
X152037551Y-111723467D01*
X152077165Y-111721344D01*
X152115809Y-111725499D01*
X152115826Y-111725500D01*
X152709174Y-111725500D01*
X152709190Y-111725499D01*
X152767299Y-111719251D01*
X152898778Y-111670212D01*
X153011116Y-111586116D01*
X153095212Y-111473778D01*
X153144251Y-111342299D01*
X153145969Y-111326320D01*
X153150499Y-111284190D01*
X153150500Y-111284173D01*
X153150500Y-110715826D01*
X153150499Y-110715809D01*
X153144251Y-110657700D01*
X153120605Y-110594304D01*
X153095212Y-110526222D01*
X153011116Y-110413884D01*
X152898778Y-110329788D01*
X152885067Y-110324674D01*
X152862295Y-110316180D01*
X152806362Y-110274308D01*
X152781946Y-110208843D01*
X152796799Y-110140570D01*
X152846205Y-110091166D01*
X152862275Y-110083826D01*
X152898778Y-110070212D01*
X153011116Y-109986116D01*
X153095212Y-109873778D01*
X153144251Y-109742299D01*
X153145950Y-109726500D01*
X153150499Y-109684190D01*
X153150500Y-109684173D01*
X153150500Y-109115826D01*
X153150499Y-109115809D01*
X153144251Y-109057700D01*
X153129665Y-109018594D01*
X153095212Y-108926222D01*
X153011116Y-108813884D01*
X152943612Y-108763351D01*
X152898780Y-108729789D01*
X152898778Y-108729788D01*
X152862296Y-108716181D01*
X152767299Y-108680748D01*
X152709190Y-108674500D01*
X152709174Y-108674500D01*
X152115826Y-108674500D01*
X152115809Y-108674500D01*
X152057700Y-108680748D01*
X151926219Y-108729789D01*
X151813884Y-108813884D01*
X151729789Y-108926219D01*
X151680748Y-109057700D01*
X151674500Y-109115809D01*
X151674500Y-109684190D01*
X151680748Y-109742299D01*
X151701893Y-109798989D01*
X151729788Y-109873778D01*
X151813884Y-109986116D01*
X151926222Y-110070212D01*
X151962703Y-110083818D01*
X152018635Y-110125687D01*
X152043053Y-110191151D01*
X152028202Y-110259424D01*
X151978798Y-110308830D01*
X151962705Y-110316180D01*
X151926221Y-110329788D01*
X151813884Y-110413884D01*
X151729789Y-110526219D01*
X151680748Y-110657700D01*
X151674500Y-110715809D01*
X151674500Y-111015955D01*
X151665855Y-111045395D01*
X151659332Y-111075382D01*
X151655577Y-111080397D01*
X151654815Y-111082994D01*
X151638181Y-111103636D01*
X151537181Y-111204636D01*
X151475858Y-111238121D01*
X151406166Y-111233137D01*
X151350233Y-111191265D01*
X151325816Y-111125801D01*
X151325500Y-111116955D01*
X151325500Y-110715826D01*
X151325499Y-110715809D01*
X151319251Y-110657700D01*
X151295605Y-110594304D01*
X151270212Y-110526222D01*
X151186116Y-110413884D01*
X151118612Y-110363351D01*
X151073780Y-110329789D01*
X151073778Y-110329788D01*
X151037295Y-110316180D01*
X150981364Y-110274310D01*
X150956947Y-110208846D01*
X150971799Y-110140573D01*
X151021205Y-110091168D01*
X151037288Y-110083821D01*
X151073778Y-110070212D01*
X151186116Y-109986116D01*
X151270212Y-109873778D01*
X151319251Y-109742299D01*
X151320950Y-109726500D01*
X151325499Y-109684190D01*
X151325500Y-109684173D01*
X151325500Y-109115826D01*
X151325499Y-109115809D01*
X151319251Y-109057700D01*
X151304665Y-109018594D01*
X151270212Y-108926222D01*
X151186116Y-108813884D01*
X151118612Y-108763351D01*
X151073780Y-108729789D01*
X151073778Y-108729788D01*
X151037295Y-108716180D01*
X150981364Y-108674310D01*
X150956947Y-108608846D01*
X150971799Y-108540573D01*
X151021205Y-108491168D01*
X151037288Y-108483821D01*
X151073778Y-108470212D01*
X151186116Y-108386116D01*
X151270212Y-108273778D01*
X151319251Y-108142299D01*
X151325499Y-108084190D01*
X151325500Y-108084173D01*
X151325500Y-107515826D01*
X151325499Y-107515809D01*
X151319251Y-107457700D01*
X151295295Y-107393473D01*
X151270212Y-107326222D01*
X151186116Y-107213884D01*
X151118612Y-107163351D01*
X151073780Y-107129789D01*
X151073778Y-107129788D01*
X151047144Y-107119854D01*
X150942299Y-107080748D01*
X150884190Y-107074500D01*
X150884174Y-107074500D01*
X150290826Y-107074500D01*
X150290809Y-107074500D01*
X150232700Y-107080748D01*
X150101219Y-107129789D01*
X149988884Y-107213884D01*
X149904787Y-107326222D01*
X149904785Y-107326226D01*
X149888895Y-107368832D01*
X149847024Y-107424766D01*
X149781560Y-107449184D01*
X149772713Y-107449500D01*
X149605456Y-107449500D01*
X149516312Y-107473386D01*
X149516309Y-107473387D01*
X149436391Y-107519527D01*
X149436386Y-107519531D01*
X148742737Y-108213181D01*
X148681414Y-108246666D01*
X148655056Y-108249500D01*
X148069544Y-108249500D01*
X148002505Y-108229815D01*
X147956750Y-108177011D01*
X147946806Y-108107853D01*
X147975831Y-108044297D01*
X147981863Y-108037819D01*
X148849271Y-107170411D01*
X149780470Y-106239212D01*
X149826614Y-106159288D01*
X149841175Y-106104944D01*
X149850500Y-106070144D01*
X149850500Y-105974071D01*
X149850956Y-105968767D01*
X149861780Y-105940968D01*
X149870185Y-105912347D01*
X149875488Y-105905765D01*
X149876309Y-105903659D01*
X149878424Y-105902122D01*
X149886819Y-105891705D01*
X149940509Y-105838015D01*
X150012984Y-105712485D01*
X150050500Y-105572475D01*
X150050500Y-105427525D01*
X150012984Y-105287515D01*
X149940509Y-105161985D01*
X149838015Y-105059491D01*
X149838013Y-105059490D01*
X149838011Y-105059488D01*
X149712488Y-104987017D01*
X149712489Y-104987017D01*
X149701006Y-104983940D01*
X149572475Y-104949500D01*
X149427525Y-104949500D01*
X149298993Y-104983940D01*
X149287511Y-104987017D01*
X149161988Y-105059488D01*
X149161982Y-105059493D01*
X149087681Y-105133795D01*
X149026358Y-105167280D01*
X148956666Y-105162296D01*
X148912319Y-105133795D01*
X148838017Y-105059493D01*
X148838011Y-105059488D01*
X148712488Y-104987017D01*
X148712489Y-104987017D01*
X148701006Y-104983940D01*
X148572475Y-104949500D01*
X148427525Y-104949500D01*
X148298993Y-104983940D01*
X148287511Y-104987017D01*
X148161988Y-105059488D01*
X148161982Y-105059493D01*
X148059493Y-105161982D01*
X148059488Y-105161988D01*
X147987017Y-105287511D01*
X147987016Y-105287515D01*
X147949500Y-105427525D01*
X147949500Y-105572475D01*
X147987016Y-105712485D01*
X147987017Y-105712488D01*
X148059488Y-105838011D01*
X148064438Y-105844461D01*
X148061872Y-105846429D01*
X148088101Y-105894463D01*
X148083117Y-105964155D01*
X148054616Y-106008502D01*
X146649937Y-107413181D01*
X146588614Y-107446666D01*
X146562256Y-107449500D01*
X145674500Y-107449500D01*
X145607461Y-107429815D01*
X145561706Y-107377011D01*
X145550500Y-107325500D01*
X145550500Y-106253344D01*
X145570185Y-106186305D01*
X145586819Y-106165663D01*
X146865663Y-104886819D01*
X146892590Y-104872115D01*
X146918409Y-104855523D01*
X146924609Y-104854631D01*
X146926986Y-104853334D01*
X146953344Y-104850500D01*
X147020614Y-104850500D01*
X147087653Y-104870185D01*
X147108295Y-104886819D01*
X147161985Y-104940509D01*
X147161986Y-104940510D01*
X147161988Y-104940511D01*
X147287511Y-105012982D01*
X147287512Y-105012982D01*
X147287515Y-105012984D01*
X147427525Y-105050500D01*
X147427528Y-105050500D01*
X147572472Y-105050500D01*
X147572475Y-105050500D01*
X147712485Y-105012984D01*
X147838015Y-104940509D01*
X147940509Y-104838015D01*
X148012984Y-104712485D01*
X148050500Y-104572475D01*
X148050500Y-104565478D01*
X154262500Y-104569063D01*
G37*
%TD.AperFunction*%
%TA.AperFunction,Conductor*%
G36*
X136966965Y-109746185D02*
G01*
X137012720Y-109798989D01*
X137022664Y-109868147D01*
X136993639Y-109931703D01*
X136987607Y-109938181D01*
X136882872Y-110042916D01*
X136821549Y-110076401D01*
X136795191Y-110079235D01*
X136719260Y-110079235D01*
X136590728Y-110113675D01*
X136579246Y-110116752D01*
X136453723Y-110189223D01*
X136453717Y-110189228D01*
X136351228Y-110291717D01*
X136351223Y-110291723D01*
X136278752Y-110417246D01*
X136278751Y-110417250D01*
X136241235Y-110557260D01*
X136241235Y-110702210D01*
X136267438Y-110800000D01*
X136278752Y-110842223D01*
X136351223Y-110967746D01*
X136351225Y-110967748D01*
X136351226Y-110967750D01*
X136453720Y-111070244D01*
X136472487Y-111081079D01*
X136486870Y-111096163D01*
X136504382Y-111107473D01*
X136510496Y-111120940D01*
X136520702Y-111131644D01*
X136524647Y-111152110D01*
X136533265Y-111171093D01*
X136531127Y-111185727D01*
X136533927Y-111200251D01*
X136526179Y-111219603D01*
X136523167Y-111240230D01*
X136510820Y-111257969D01*
X136507960Y-111265116D01*
X136504019Y-111269878D01*
X136501193Y-111273123D01*
X136396930Y-111377388D01*
X136376307Y-111413109D01*
X136370319Y-111423478D01*
X136370318Y-111423481D01*
X136350786Y-111457310D01*
X136326900Y-111546456D01*
X136326900Y-118192856D01*
X136307215Y-118259895D01*
X136290581Y-118280537D01*
X134907937Y-119663181D01*
X134846614Y-119696666D01*
X134820256Y-119699500D01*
X133041986Y-119699500D01*
X132974947Y-119679815D01*
X132954305Y-119663181D01*
X132900617Y-119609493D01*
X132900611Y-119609488D01*
X132775088Y-119537017D01*
X132775089Y-119537017D01*
X132763606Y-119533940D01*
X132635075Y-119499500D01*
X132490125Y-119499500D01*
X132361593Y-119533940D01*
X132350111Y-119537017D01*
X132224588Y-119609488D01*
X132224582Y-119609493D01*
X132122093Y-119711982D01*
X132122088Y-119711988D01*
X132049617Y-119837511D01*
X132049616Y-119837515D01*
X132012100Y-119977525D01*
X132012100Y-119977527D01*
X132012100Y-120122474D01*
X132017977Y-120144407D01*
X132016314Y-120214257D01*
X131977151Y-120272119D01*
X131912923Y-120299623D01*
X131898202Y-120300500D01*
X131295752Y-120300500D01*
X131228713Y-120280815D01*
X131182958Y-120228011D01*
X131171763Y-120174847D01*
X131180767Y-119499502D01*
X131201344Y-119432735D01*
X131221047Y-119409679D01*
X135844368Y-115179835D01*
X135852000Y-115171888D01*
X135867222Y-115156038D01*
X135867247Y-115156010D01*
X135887817Y-115131612D01*
X135887821Y-115131606D01*
X135887854Y-115131568D01*
X135891457Y-115127197D01*
X135937665Y-115038862D01*
X135940254Y-115030047D01*
X135946266Y-115009569D01*
X135957350Y-114971823D01*
X135967700Y-114899838D01*
X135967700Y-110937230D01*
X135967583Y-110929505D01*
X135967356Y-110922001D01*
X135952317Y-110843038D01*
X135928611Y-110777313D01*
X135928606Y-110777302D01*
X135928604Y-110777296D01*
X135909404Y-110736021D01*
X135909402Y-110736017D01*
X135843593Y-110661135D01*
X135788122Y-110618664D01*
X135788123Y-110618664D01*
X135788117Y-110618660D01*
X135786241Y-110617472D01*
X135785967Y-110617161D01*
X135785849Y-110617079D01*
X135785869Y-110617049D01*
X135740119Y-110564993D01*
X135729691Y-110495905D01*
X135758270Y-110432148D01*
X135764853Y-110425027D01*
X136127570Y-110062312D01*
X136167707Y-109992790D01*
X136187407Y-109967118D01*
X136391707Y-109762819D01*
X136453030Y-109729334D01*
X136479388Y-109726500D01*
X136899926Y-109726500D01*
X136966965Y-109746185D01*
G37*
%TD.AperFunction*%
%TA.AperFunction,Conductor*%
G36*
X128721049Y-116143385D02*
G01*
X128766804Y-116196189D01*
X128776748Y-116265347D01*
X128773785Y-116279794D01*
X128771716Y-116287514D01*
X128771716Y-116287515D01*
X128734200Y-116427525D01*
X128734200Y-116572475D01*
X128771716Y-116712485D01*
X128771717Y-116712488D01*
X128774759Y-116719831D01*
X128776386Y-116728010D01*
X128779177Y-116732353D01*
X128784200Y-116767288D01*
X128784200Y-116982710D01*
X128774763Y-117030159D01*
X128771716Y-117037513D01*
X128757031Y-117092319D01*
X128734200Y-117177525D01*
X128734200Y-117322475D01*
X128770150Y-117456639D01*
X128771717Y-117462488D01*
X128774759Y-117469831D01*
X128784200Y-117517288D01*
X128784200Y-118267692D01*
X128818308Y-118394986D01*
X128838812Y-118430500D01*
X128855285Y-118498399D01*
X128832433Y-118564426D01*
X128777512Y-118607617D01*
X128731425Y-118616500D01*
X125048964Y-118616500D01*
X125016375Y-118622981D01*
X124951196Y-118635945D01*
X124951192Y-118635946D01*
X124943742Y-118639032D01*
X124943103Y-118639292D01*
X124943060Y-118639314D01*
X124860163Y-118694703D01*
X123746654Y-119808212D01*
X123724065Y-119820546D01*
X123703639Y-119836207D01*
X123690526Y-119838859D01*
X123685331Y-119841697D01*
X123669241Y-119844105D01*
X123666008Y-119844373D01*
X123625092Y-119845632D01*
X123609791Y-119849044D01*
X123601337Y-119849747D01*
X123575084Y-119844351D01*
X123548342Y-119842579D01*
X123541381Y-119837424D01*
X123532897Y-119835681D01*
X123513728Y-119816948D01*
X123492191Y-119801000D01*
X123489122Y-119792901D01*
X123482927Y-119786847D01*
X123476928Y-119760722D01*
X123467433Y-119735664D01*
X123469229Y-119727192D01*
X123467291Y-119718750D01*
X123476368Y-119693531D01*
X123481928Y-119667315D01*
X123489432Y-119657235D01*
X123490954Y-119653009D01*
X123494741Y-119650105D01*
X123503384Y-119638496D01*
X126981863Y-116160019D01*
X127043186Y-116126534D01*
X127069544Y-116123700D01*
X128654010Y-116123700D01*
X128721049Y-116143385D01*
G37*
%TD.AperFunction*%
%TA.AperFunction,Conductor*%
G36*
X126581895Y-115355985D02*
G01*
X126627650Y-115408789D01*
X126637594Y-115477947D01*
X126608569Y-115541503D01*
X126602537Y-115547981D01*
X123409637Y-118740879D01*
X123383430Y-118755188D01*
X123358526Y-118771683D01*
X123353086Y-118771757D01*
X123348314Y-118774364D01*
X123318526Y-118772233D01*
X123288663Y-118772645D01*
X123284047Y-118769768D01*
X123278622Y-118769380D01*
X123254711Y-118751480D01*
X123229370Y-118735683D01*
X123225201Y-118729388D01*
X123222689Y-118727508D01*
X123209882Y-118706258D01*
X123204411Y-118694703D01*
X123199278Y-118683861D01*
X123191688Y-118663302D01*
X123187191Y-118646744D01*
X123181753Y-118635812D01*
X123182554Y-118635413D01*
X123172861Y-118614938D01*
X123172045Y-118615306D01*
X123167036Y-118604171D01*
X123167035Y-118604169D01*
X123157062Y-118590173D01*
X123154002Y-118585671D01*
X123149516Y-118578749D01*
X123138642Y-118555779D01*
X123128927Y-118546981D01*
X123120116Y-118533385D01*
X123118352Y-118527461D01*
X123118229Y-118527546D01*
X123113044Y-118519958D01*
X123112294Y-118517649D01*
X123110111Y-118514584D01*
X123106547Y-118506226D01*
X123108338Y-118505461D01*
X123091474Y-118453502D01*
X123107126Y-118394031D01*
X123106544Y-118393783D01*
X123108237Y-118389811D01*
X123109258Y-118385933D01*
X123113051Y-118380032D01*
X123118237Y-118372444D01*
X123118988Y-118372957D01*
X123132087Y-118354570D01*
X123131361Y-118354031D01*
X123138639Y-118344224D01*
X123138639Y-118344223D01*
X123138642Y-118344221D01*
X123145988Y-118328700D01*
X123157075Y-118309808D01*
X123167035Y-118295831D01*
X123167035Y-118295828D01*
X123168013Y-118293655D01*
X123172886Y-118278564D01*
X123179165Y-118263637D01*
X123187192Y-118253252D01*
X123193855Y-118228719D01*
X123197057Y-118221109D01*
X123197762Y-118220243D01*
X123199276Y-118216143D01*
X123206625Y-118200622D01*
X123206625Y-118200618D01*
X123209597Y-118188774D01*
X123210473Y-118188993D01*
X123216395Y-118167198D01*
X123215524Y-118166943D01*
X123218955Y-118155225D01*
X123218955Y-118155222D01*
X123218956Y-118155221D01*
X123220476Y-118138083D01*
X123224327Y-118116544D01*
X123228838Y-118099942D01*
X123228838Y-118099940D01*
X123229004Y-118097526D01*
X123228349Y-118081732D01*
X123229069Y-118065562D01*
X123233003Y-118053034D01*
X123230756Y-118027728D01*
X123231124Y-118019478D01*
X123231487Y-118018418D01*
X123231487Y-118014040D01*
X123233003Y-117996966D01*
X123233001Y-117996962D01*
X123233002Y-117996961D01*
X123231689Y-117984820D01*
X123232577Y-117984723D01*
X123230580Y-117962182D01*
X123229679Y-117962245D01*
X123228837Y-117950063D01*
X123228838Y-117950058D01*
X123224326Y-117933449D01*
X123223011Y-117928149D01*
X123221203Y-117920112D01*
X123218956Y-117894779D01*
X123212898Y-117883176D01*
X123209341Y-117867358D01*
X123209738Y-117861192D01*
X123209598Y-117861228D01*
X123206625Y-117849381D01*
X123206625Y-117849378D01*
X123199278Y-117833861D01*
X123191688Y-117813302D01*
X123187191Y-117796744D01*
X123183000Y-117788320D01*
X123171196Y-117767203D01*
X123168230Y-117759358D01*
X123167035Y-117754169D01*
X123165401Y-117751875D01*
X123160883Y-117739926D01*
X123158510Y-117708721D01*
X123154235Y-117677728D01*
X123155884Y-117674169D01*
X123155587Y-117670257D01*
X123170464Y-117642719D01*
X123183621Y-117614338D01*
X123186932Y-117612236D01*
X123188797Y-117608785D01*
X123216194Y-117593665D01*
X123242613Y-117576899D01*
X123247900Y-117575505D01*
X123258908Y-117572860D01*
X123271695Y-117570488D01*
X123285403Y-117568685D01*
X123285405Y-117568683D01*
X123287941Y-117568350D01*
X123291781Y-117567240D01*
X123292027Y-117567266D01*
X123305718Y-117563212D01*
X123306051Y-117563116D01*
X123306217Y-117563116D01*
X123317896Y-117560314D01*
X123331662Y-117557764D01*
X123331662Y-117557763D01*
X123335007Y-117557144D01*
X123338237Y-117555999D01*
X123338240Y-117556000D01*
X123351451Y-117551321D01*
X123363096Y-117547830D01*
X123363396Y-117547755D01*
X123377333Y-117544408D01*
X123377532Y-117544262D01*
X123381465Y-117543291D01*
X123383808Y-117542320D01*
X123383812Y-117542320D01*
X123396600Y-117537019D01*
X123408857Y-117532678D01*
X123422120Y-117528753D01*
X123422121Y-117528752D01*
X123424567Y-117528028D01*
X123428255Y-117526299D01*
X123428518Y-117526286D01*
X123441500Y-117520092D01*
X123441756Y-117519973D01*
X123441930Y-117519946D01*
X123452977Y-117515369D01*
X123466134Y-117510711D01*
X123466135Y-117510709D01*
X123469213Y-117509620D01*
X123472277Y-117507957D01*
X123472278Y-117507957D01*
X123484539Y-117501303D01*
X123496199Y-117495741D01*
X123509151Y-117490375D01*
X123509152Y-117490373D01*
X123512320Y-117489061D01*
X123515140Y-117487332D01*
X123515144Y-117487332D01*
X123527091Y-117480011D01*
X123537747Y-117474181D01*
X123537972Y-117474071D01*
X123550968Y-117467873D01*
X123551135Y-117467686D01*
X123554823Y-117465898D01*
X123556900Y-117464469D01*
X123556903Y-117464469D01*
X123568293Y-117456636D01*
X123579405Y-117449827D01*
X123591527Y-117443250D01*
X123591529Y-117443246D01*
X123593766Y-117442033D01*
X123597031Y-117439563D01*
X123597291Y-117439494D01*
X123608561Y-117430843D01*
X123608924Y-117430570D01*
X123609091Y-117430506D01*
X123618948Y-117423732D01*
X123630835Y-117416450D01*
X123630836Y-117416448D01*
X123633721Y-117414681D01*
X123636371Y-117412416D01*
X123636374Y-117412416D01*
X123646990Y-117403346D01*
X123656609Y-117395913D01*
X123656777Y-117395795D01*
X123668699Y-117387599D01*
X123668835Y-117387388D01*
X123671990Y-117385189D01*
X123673889Y-117383387D01*
X123673893Y-117383386D01*
X123683974Y-117373822D01*
X123693812Y-117365421D01*
X123704927Y-117356893D01*
X123704928Y-117356891D01*
X123707709Y-117354757D01*
X123710011Y-117352329D01*
X123710015Y-117352328D01*
X123719659Y-117342160D01*
X123728449Y-117333761D01*
X123728691Y-117333551D01*
X123739527Y-117324295D01*
X123739642Y-117324067D01*
X123742608Y-117321500D01*
X123744292Y-117319528D01*
X123744295Y-117319527D01*
X123753231Y-117309065D01*
X123762180Y-117299639D01*
X123772328Y-117290014D01*
X123772328Y-117290012D01*
X123774174Y-117288262D01*
X123776668Y-117285056D01*
X123776893Y-117284927D01*
X123785712Y-117273434D01*
X123785929Y-117273156D01*
X123786068Y-117273055D01*
X123793822Y-117263975D01*
X123803386Y-117253893D01*
X123803386Y-117253890D01*
X123805718Y-117251433D01*
X123807596Y-117248700D01*
X123807599Y-117248699D01*
X123815468Y-117237252D01*
X123823351Y-117226983D01*
X123832416Y-117216373D01*
X123832417Y-117216369D01*
X123834690Y-117213709D01*
X123836451Y-117210835D01*
X123843738Y-117198938D01*
X123850575Y-117188916D01*
X123850765Y-117188663D01*
X123859494Y-117177291D01*
X123859563Y-117177031D01*
X123862034Y-117173765D01*
X123863247Y-117171529D01*
X123863250Y-117171527D01*
X123869831Y-117159396D01*
X123876639Y-117148290D01*
X123885898Y-117134825D01*
X123887688Y-117131132D01*
X123887872Y-117130968D01*
X123893998Y-117118124D01*
X123894180Y-117117750D01*
X123894289Y-117117628D01*
X123900017Y-117107082D01*
X123907332Y-117095144D01*
X123907332Y-117095140D01*
X123909057Y-117092326D01*
X123910371Y-117089153D01*
X123910374Y-117089151D01*
X123915741Y-117076200D01*
X123920941Y-117065212D01*
X123921078Y-117064954D01*
X123927958Y-117052278D01*
X123927982Y-117052045D01*
X123929861Y-117048533D01*
X123933764Y-117037513D01*
X123935367Y-117032986D01*
X123940332Y-117020997D01*
X123946286Y-117008519D01*
X123946286Y-117008516D01*
X123947796Y-117005352D01*
X123948753Y-117002120D01*
X123952677Y-116988862D01*
X123957019Y-116976600D01*
X123962320Y-116963812D01*
X123962320Y-116963808D01*
X123963290Y-116961468D01*
X123964262Y-116957532D01*
X123964408Y-116957332D01*
X123967756Y-116943390D01*
X123967831Y-116943090D01*
X123967915Y-116942945D01*
X123971317Y-116931460D01*
X123976000Y-116918240D01*
X123975999Y-116918235D01*
X123977145Y-116915002D01*
X123980313Y-116897900D01*
X123980315Y-116897894D01*
X123980314Y-116897891D01*
X123983116Y-116886051D01*
X123983211Y-116885719D01*
X123987266Y-116872027D01*
X123987240Y-116871780D01*
X123988350Y-116867940D01*
X123988683Y-116865405D01*
X123988685Y-116865403D01*
X123990488Y-116851694D01*
X123992860Y-116838907D01*
X123996103Y-116825410D01*
X123996102Y-116825408D01*
X123996700Y-116822923D01*
X123997045Y-116818887D01*
X123997164Y-116818655D01*
X123998293Y-116804292D01*
X123998321Y-116803976D01*
X123998384Y-116803813D01*
X123999947Y-116791942D01*
X124002313Y-116779174D01*
X124002483Y-116778259D01*
X124002482Y-116778258D01*
X124003104Y-116774907D01*
X124003193Y-116771508D01*
X124003194Y-116771506D01*
X124003558Y-116757578D01*
X124004469Y-116745482D01*
X124004518Y-116745088D01*
X124006387Y-116730887D01*
X124006320Y-116730637D01*
X124006810Y-116726709D01*
X124006671Y-116721444D01*
X124006378Y-116710236D01*
X124006717Y-116697274D01*
X124007810Y-116683404D01*
X124007809Y-116683401D01*
X124008077Y-116679998D01*
X124007809Y-116676598D01*
X124007810Y-116676596D01*
X124006717Y-116662727D01*
X124006358Y-116650594D01*
X124006362Y-116650352D01*
X124006742Y-116635877D01*
X124006647Y-116635630D01*
X124006724Y-116631680D01*
X124006386Y-116629114D01*
X124006387Y-116629113D01*
X124004576Y-116615351D01*
X124003558Y-116602418D01*
X124003558Y-116602416D01*
X124003194Y-116588494D01*
X124003192Y-116588491D01*
X124003125Y-116585907D01*
X124002428Y-116581997D01*
X124002483Y-116581741D01*
X123999879Y-116567695D01*
X123999795Y-116567219D01*
X123999813Y-116567047D01*
X123998253Y-116555186D01*
X123996891Y-116537872D01*
X123996102Y-116534591D01*
X123996103Y-116534590D01*
X123992855Y-116521073D01*
X123990606Y-116509180D01*
X123990571Y-116508929D01*
X123988685Y-116494597D01*
X123988547Y-116494359D01*
X123988010Y-116490486D01*
X123983340Y-116474713D01*
X123980313Y-116462098D01*
X123977143Y-116444987D01*
X123971324Y-116428558D01*
X123967827Y-116416893D01*
X123967754Y-116416601D01*
X123964408Y-116402668D01*
X123964264Y-116402471D01*
X123963293Y-116398536D01*
X123961055Y-116393136D01*
X123957020Y-116383400D01*
X123952676Y-116371133D01*
X123952061Y-116369057D01*
X123948753Y-116357880D01*
X123948752Y-116357879D01*
X123948029Y-116355435D01*
X123946299Y-116351744D01*
X123946286Y-116351481D01*
X123940128Y-116338573D01*
X123939968Y-116338231D01*
X123939941Y-116338056D01*
X123935365Y-116327009D01*
X123929620Y-116310785D01*
X123921301Y-116295455D01*
X123915736Y-116283786D01*
X123909059Y-116267675D01*
X123907332Y-116264856D01*
X123900010Y-116252906D01*
X123894175Y-116242241D01*
X123894055Y-116241995D01*
X123887872Y-116229032D01*
X123887688Y-116228866D01*
X123885897Y-116225173D01*
X123876638Y-116211708D01*
X123869827Y-116200593D01*
X123862037Y-116186237D01*
X123859562Y-116182965D01*
X123859494Y-116182709D01*
X123850869Y-116171470D01*
X123850571Y-116171076D01*
X123850508Y-116170909D01*
X123843739Y-116161061D01*
X123843101Y-116160019D01*
X123836451Y-116149165D01*
X123836449Y-116149163D01*
X123834685Y-116146284D01*
X123832416Y-116143628D01*
X123832416Y-116143627D01*
X123823357Y-116133023D01*
X123815922Y-116123402D01*
X123815714Y-116123103D01*
X123807599Y-116111301D01*
X123807390Y-116111165D01*
X123805186Y-116108004D01*
X123793822Y-116096023D01*
X123785419Y-116086182D01*
X123774760Y-116072292D01*
X123762174Y-116060354D01*
X123753769Y-116051559D01*
X123753494Y-116051241D01*
X123744295Y-116040473D01*
X123744070Y-116040358D01*
X123741502Y-116037392D01*
X123736814Y-116033387D01*
X123729072Y-116026774D01*
X123719653Y-116017833D01*
X123710015Y-116007672D01*
X123710013Y-116007671D01*
X123708262Y-116005825D01*
X123705055Y-116003330D01*
X123704927Y-116003107D01*
X123693501Y-115994339D01*
X123693152Y-115994067D01*
X123693053Y-115993929D01*
X123683967Y-115986170D01*
X123671433Y-115974280D01*
X123657268Y-115964541D01*
X123646983Y-115956647D01*
X123633726Y-115945321D01*
X123629106Y-115942491D01*
X123618935Y-115936259D01*
X123608928Y-115929433D01*
X123608620Y-115929200D01*
X123597291Y-115920506D01*
X123597033Y-115920436D01*
X123593761Y-115917962D01*
X123579404Y-115910171D01*
X123568293Y-115903362D01*
X123554825Y-115894102D01*
X123551133Y-115892311D01*
X123550968Y-115892127D01*
X123538148Y-115886011D01*
X123537737Y-115885812D01*
X123537612Y-115885699D01*
X123527082Y-115879982D01*
X123512319Y-115870937D01*
X123496200Y-115864257D01*
X123485198Y-115859051D01*
X123484844Y-115858861D01*
X123472278Y-115852043D01*
X123472050Y-115852019D01*
X123468537Y-115850140D01*
X123466134Y-115849289D01*
X123452978Y-115844629D01*
X123440999Y-115839667D01*
X123425354Y-115832204D01*
X123416075Y-115829457D01*
X123408854Y-115827319D01*
X123397445Y-115823326D01*
X123397036Y-115823160D01*
X123383812Y-115817680D01*
X123383529Y-115817679D01*
X123379904Y-115816209D01*
X123363863Y-115812355D01*
X123351446Y-115808676D01*
X123335012Y-115802856D01*
X123321795Y-115800407D01*
X123317889Y-115799683D01*
X123306057Y-115796885D01*
X123305713Y-115796785D01*
X123292027Y-115792734D01*
X123291783Y-115792759D01*
X123287934Y-115791647D01*
X123271691Y-115789509D01*
X123258913Y-115787140D01*
X123242929Y-115783300D01*
X123238886Y-115782953D01*
X123238655Y-115782836D01*
X123224468Y-115781719D01*
X123223952Y-115781675D01*
X123223787Y-115781611D01*
X123211949Y-115780053D01*
X123201357Y-115778091D01*
X123198259Y-115777517D01*
X123198258Y-115777517D01*
X123194900Y-115776895D01*
X123177583Y-115776441D01*
X123164659Y-115775425D01*
X123150883Y-115773612D01*
X123143772Y-115774079D01*
X123125932Y-115773963D01*
X123103399Y-115772189D01*
X123096279Y-115773032D01*
X123083442Y-115773879D01*
X123080947Y-115773913D01*
X123055877Y-115773258D01*
X123053158Y-115774301D01*
X123039802Y-115774488D01*
X123039429Y-115774384D01*
X123038072Y-115774500D01*
X121392943Y-115774500D01*
X121325904Y-115754815D01*
X121280149Y-115702011D01*
X121270205Y-115632853D01*
X121299230Y-115569297D01*
X121305262Y-115562819D01*
X121320101Y-115547981D01*
X121495463Y-115372619D01*
X121556786Y-115339134D01*
X121583144Y-115336300D01*
X126514856Y-115336300D01*
X126581895Y-115355985D01*
G37*
%TD.AperFunction*%
%TA.AperFunction,Conductor*%
G36*
X145024186Y-107715327D02*
G01*
X145075326Y-107725500D01*
X145150500Y-107725500D01*
X145217539Y-107745185D01*
X145263294Y-107797989D01*
X145274500Y-107849500D01*
X145274500Y-107924673D01*
X145284671Y-107975810D01*
X145284671Y-108024190D01*
X145274500Y-108075326D01*
X145274500Y-108324673D01*
X145284671Y-108375810D01*
X145284671Y-108424190D01*
X145275518Y-108470210D01*
X145274500Y-108475326D01*
X145274500Y-108724674D01*
X145276585Y-108735159D01*
X145284671Y-108775810D01*
X145284671Y-108824190D01*
X145274500Y-108875326D01*
X145274500Y-109124673D01*
X145284671Y-109175810D01*
X145284671Y-109224190D01*
X145274500Y-109275326D01*
X145274500Y-109524673D01*
X145284671Y-109575810D01*
X145284671Y-109624190D01*
X145274500Y-109675326D01*
X145274500Y-109924673D01*
X145284671Y-109975810D01*
X145284671Y-110024190D01*
X145277088Y-110062313D01*
X145274500Y-110075326D01*
X145274500Y-110324674D01*
X145276585Y-110335159D01*
X145284671Y-110375810D01*
X145284671Y-110424190D01*
X145274500Y-110475326D01*
X145274500Y-110724673D01*
X145284671Y-110775810D01*
X145284671Y-110824190D01*
X145280921Y-110843044D01*
X145274500Y-110875326D01*
X145274500Y-111124674D01*
X145276585Y-111135159D01*
X145284671Y-111175810D01*
X145284671Y-111224190D01*
X145274500Y-111275326D01*
X145274500Y-111524673D01*
X145284671Y-111575810D01*
X145284671Y-111624190D01*
X145274500Y-111675326D01*
X145274500Y-111924673D01*
X145284671Y-111975810D01*
X145286624Y-112010307D01*
X145286039Y-112017313D01*
X145274500Y-112075326D01*
X145274500Y-112155663D01*
X145274071Y-112160807D01*
X145263260Y-112188775D01*
X145254815Y-112217539D01*
X145250798Y-112221019D01*
X145248882Y-112225978D01*
X145224663Y-112243665D01*
X145202011Y-112263294D01*
X145195995Y-112264602D01*
X145192458Y-112267186D01*
X145180971Y-112267871D01*
X145150500Y-112274500D01*
X145075326Y-112274500D01*
X145024190Y-112284671D01*
X144975810Y-112284671D01*
X144924674Y-112274500D01*
X144675326Y-112274500D01*
X144624190Y-112284671D01*
X144575810Y-112284671D01*
X144524674Y-112274500D01*
X144275326Y-112274500D01*
X144224190Y-112284671D01*
X144175810Y-112284671D01*
X144124674Y-112274500D01*
X143875326Y-112274500D01*
X143824190Y-112284671D01*
X143775810Y-112284671D01*
X143724674Y-112274500D01*
X143475326Y-112274500D01*
X143424190Y-112284671D01*
X143375810Y-112284671D01*
X143324674Y-112274500D01*
X143075326Y-112274500D01*
X143024190Y-112284671D01*
X143018950Y-112284780D01*
X143016229Y-112285986D01*
X142994784Y-112285288D01*
X142980938Y-112285579D01*
X142978334Y-112285174D01*
X142924674Y-112274500D01*
X142909726Y-112274500D01*
X142900252Y-112273026D01*
X142896377Y-112271202D01*
X142884378Y-112269477D01*
X142822986Y-112251450D01*
X142822978Y-112251448D01*
X142751001Y-112241100D01*
X142751000Y-112241100D01*
X141246400Y-112241100D01*
X141246397Y-112241100D01*
X141192087Y-112246938D01*
X141140581Y-112258143D01*
X141140572Y-112258146D01*
X141112907Y-112265735D01*
X141089438Y-112272672D01*
X141079508Y-112274500D01*
X141075326Y-112274500D01*
X141023374Y-112284833D01*
X141022451Y-112285004D01*
X141019247Y-112284671D01*
X140975810Y-112284671D01*
X140924674Y-112274500D01*
X140849500Y-112274500D01*
X140782461Y-112254815D01*
X140736706Y-112202011D01*
X140725500Y-112150500D01*
X140725500Y-112075326D01*
X140722015Y-112057808D01*
X140715328Y-112024188D01*
X140715328Y-111975810D01*
X140725500Y-111924674D01*
X140725500Y-111675326D01*
X140715328Y-111624188D01*
X140715328Y-111575810D01*
X140725500Y-111524674D01*
X140725500Y-111275326D01*
X140715328Y-111224188D01*
X140715328Y-111175810D01*
X140725500Y-111124674D01*
X140725500Y-110875326D01*
X140715328Y-110824188D01*
X140715328Y-110775810D01*
X140725500Y-110724674D01*
X140725500Y-110475326D01*
X140715328Y-110424188D01*
X140715328Y-110375810D01*
X140725500Y-110324674D01*
X140725500Y-110075326D01*
X140715328Y-110024188D01*
X140715328Y-109975810D01*
X140725500Y-109924674D01*
X140725500Y-109675326D01*
X140715328Y-109624188D01*
X140715328Y-109575810D01*
X140725500Y-109524674D01*
X140725500Y-109275326D01*
X140715328Y-109224188D01*
X140715328Y-109175810D01*
X140725500Y-109124674D01*
X140725500Y-108875326D01*
X140715328Y-108824188D01*
X140715328Y-108775810D01*
X140725500Y-108724674D01*
X140725500Y-108475326D01*
X140715328Y-108424188D01*
X140715328Y-108375810D01*
X140725500Y-108324674D01*
X140725500Y-108075326D01*
X140715327Y-108024186D01*
X140713374Y-107989691D01*
X140713956Y-107982704D01*
X140725500Y-107924674D01*
X140725500Y-107844333D01*
X140725929Y-107839191D01*
X140736739Y-107811222D01*
X140745185Y-107782461D01*
X140749202Y-107778980D01*
X140751119Y-107774021D01*
X140775332Y-107756337D01*
X140797989Y-107736706D01*
X140804007Y-107735396D01*
X140807544Y-107732814D01*
X140819028Y-107732129D01*
X140849500Y-107725500D01*
X140924674Y-107725500D01*
X140975811Y-107715328D01*
X141024189Y-107715328D01*
X141075326Y-107725500D01*
X141324674Y-107725500D01*
X141375811Y-107715328D01*
X141424189Y-107715328D01*
X141475326Y-107725500D01*
X141724675Y-107725500D01*
X141729847Y-107724470D01*
X141744665Y-107721523D01*
X141814256Y-107727747D01*
X141826321Y-107733256D01*
X141894776Y-107769065D01*
X141961815Y-107788750D01*
X141961819Y-107788750D01*
X141961821Y-107788751D01*
X141973452Y-107790423D01*
X142033800Y-107799100D01*
X142033801Y-107799100D01*
X143589200Y-107799100D01*
X143643513Y-107793261D01*
X143695024Y-107782055D01*
X143721398Y-107774819D01*
X143785244Y-107738461D01*
X143853241Y-107722394D01*
X143870800Y-107724600D01*
X143875323Y-107725500D01*
X143875326Y-107725500D01*
X144124674Y-107725500D01*
X144175811Y-107715328D01*
X144224189Y-107715328D01*
X144275326Y-107725500D01*
X144524674Y-107725500D01*
X144575811Y-107715328D01*
X144624189Y-107715328D01*
X144675326Y-107725500D01*
X144924674Y-107725500D01*
X144975811Y-107715328D01*
X144984146Y-107715328D01*
X144988950Y-107713438D01*
X145024186Y-107715327D01*
G37*
%TD.AperFunction*%
%TA.AperFunction,Conductor*%
G36*
X141273230Y-104561568D02*
G01*
X141273230Y-104630725D01*
X141253545Y-104697764D01*
X141200741Y-104743519D01*
X141131583Y-104753463D01*
X141068027Y-104724438D01*
X141054737Y-104709776D01*
X141054277Y-104710176D01*
X141004536Y-104652771D01*
X140971759Y-104621143D01*
X140883422Y-104574934D01*
X140883424Y-104574934D01*
X140837047Y-104561316D01*
X141273230Y-104561568D01*
G37*
%TD.AperFunction*%
%TD*%
%TA.AperFunction,Conductor*%
%TO.N,/PD_Control/SW*%
G36*
X142818039Y-112516285D02*
G01*
X142863794Y-112569089D01*
X142875000Y-112620600D01*
X142875000Y-113886095D01*
X142855315Y-113953134D01*
X142802511Y-113998889D01*
X142791956Y-114003136D01*
X142755523Y-114015884D01*
X142649289Y-114094288D01*
X142649288Y-114094289D01*
X142570884Y-114200523D01*
X142527274Y-114325150D01*
X142524500Y-114354739D01*
X142524500Y-114771370D01*
X142515630Y-114817422D01*
X142494000Y-114871500D01*
X142494000Y-117475000D01*
X138268819Y-117475000D01*
X138271885Y-117464557D01*
X138294954Y-117437920D01*
X141122400Y-114985800D01*
X141122400Y-112620600D01*
X141142085Y-112553561D01*
X141194889Y-112507806D01*
X141246400Y-112496600D01*
X142751000Y-112496600D01*
X142818039Y-112516285D01*
G37*
%TD.AperFunction*%
%TD*%
%TA.AperFunction,Conductor*%
%TO.N,/PD_Control/VOUTSN*%
G36*
X143833981Y-91699031D02*
G01*
X143879736Y-91751835D01*
X143890942Y-91803345D01*
X143891001Y-103941007D01*
X143871317Y-104008047D01*
X143860320Y-104022663D01*
X143713200Y-104190799D01*
X143713200Y-107419600D01*
X143693515Y-107486639D01*
X143640711Y-107532394D01*
X143589200Y-107543600D01*
X142033800Y-107543600D01*
X141966761Y-107523915D01*
X141921006Y-107471111D01*
X141909800Y-107419600D01*
X141909800Y-106502200D01*
X141578609Y-106255257D01*
X141536631Y-106199403D01*
X141528730Y-106155848D01*
X141528730Y-91803346D01*
X141548415Y-91736307D01*
X141601219Y-91690552D01*
X141652730Y-91679346D01*
X143766942Y-91679346D01*
X143833981Y-91699031D01*
G37*
%TD.AperFunction*%
%TD*%
%TA.AperFunction,Conductor*%
%TO.N,/PD_Control/VOUTA1*%
G36*
X133708231Y-92832549D02*
G01*
X133692251Y-92814698D01*
X133680200Y-92761374D01*
X133680200Y-84756479D01*
X133699885Y-84689440D01*
X133752689Y-84643685D01*
X133803876Y-84632479D01*
X141427200Y-84612727D01*
X133708231Y-92832549D01*
G37*
%TD.AperFunction*%
%TD*%
%TA.AperFunction,Conductor*%
%TO.N,/PD_Control/VOUTA1*%
G36*
X135632791Y-110821525D02*
G01*
X135688267Y-110864001D01*
X135711973Y-110929726D01*
X135712200Y-110937230D01*
X135712200Y-114899838D01*
X135692515Y-114966877D01*
X135671902Y-114991326D01*
X130927480Y-119331966D01*
X130913231Y-120400653D01*
X130892654Y-120467424D01*
X130839245Y-120512471D01*
X130789242Y-120523000D01*
X129918000Y-120523000D01*
X129850961Y-120503315D01*
X129805206Y-120450511D01*
X129794000Y-120399000D01*
X129794000Y-116485751D01*
X129813685Y-116418712D01*
X129831271Y-116397128D01*
X135501475Y-110848602D01*
X135563158Y-110815785D01*
X135632791Y-110821525D01*
G37*
%TD.AperFunction*%
%TD*%
%TA.AperFunction,Conductor*%
%TO.N,GND*%
G36*
X153255703Y-101396590D02*
G01*
X153278816Y-101423264D01*
X153299173Y-101454941D01*
X153299179Y-101454948D01*
X153344923Y-101507740D01*
X153344926Y-101507743D01*
X153344930Y-101507747D01*
X153453664Y-101601967D01*
X153584541Y-101661738D01*
X153651580Y-101681423D01*
X153651584Y-101681424D01*
X153794000Y-101701900D01*
X153794003Y-101701900D01*
X158375500Y-101701900D01*
X158442539Y-101721585D01*
X158488294Y-101774389D01*
X158499500Y-101825900D01*
X158499500Y-104571508D01*
X155363500Y-104569698D01*
X155363500Y-104042127D01*
X155363500Y-104042125D01*
X155325984Y-103902115D01*
X155288976Y-103838015D01*
X155253510Y-103776585D01*
X153086819Y-101609894D01*
X153053334Y-101548571D01*
X153050500Y-101522213D01*
X153050500Y-101490303D01*
X153070185Y-101423264D01*
X153122989Y-101377509D01*
X153192147Y-101367565D01*
X153255703Y-101396590D01*
G37*
%TD.AperFunction*%
%TA.AperFunction,Conductor*%
G36*
X148762941Y-94946858D02*
G01*
X148777347Y-94944787D01*
X148796521Y-94953543D01*
X148817193Y-94957659D01*
X148834632Y-94970238D01*
X148835044Y-94969668D01*
X148840597Y-94973672D01*
X148840903Y-94973812D01*
X148841319Y-94974193D01*
X148842236Y-94974854D01*
X148842240Y-94974856D01*
X148842241Y-94974857D01*
X148930576Y-95021065D01*
X148930577Y-95021065D01*
X148930577Y-95021066D01*
X148980705Y-95035784D01*
X148997615Y-95040750D01*
X148997619Y-95040750D01*
X148997621Y-95040751D01*
X149009252Y-95042423D01*
X149069600Y-95051100D01*
X151908736Y-95051100D01*
X151975775Y-95070785D01*
X152021530Y-95123589D01*
X152031474Y-95192747D01*
X152016123Y-95237099D01*
X151987016Y-95287515D01*
X151949500Y-95427525D01*
X151949500Y-101729126D01*
X151949500Y-101874074D01*
X151987016Y-102014085D01*
X152059489Y-102139613D01*
X152059491Y-102139616D01*
X154226181Y-104306306D01*
X154259666Y-104367629D01*
X154262500Y-104393987D01*
X154262500Y-104569063D01*
X148050500Y-104565478D01*
X148050500Y-104427527D01*
X148050500Y-104427525D01*
X148012984Y-104287515D01*
X147947091Y-104173386D01*
X147940511Y-104161988D01*
X147940506Y-104161982D01*
X147866205Y-104087681D01*
X147832720Y-104026358D01*
X147837704Y-103956666D01*
X147866205Y-103912319D01*
X147876412Y-103902112D01*
X147940509Y-103838015D01*
X148012984Y-103712485D01*
X148050500Y-103572475D01*
X148050500Y-103427525D01*
X148012984Y-103287515D01*
X147940509Y-103161985D01*
X147838015Y-103059491D01*
X147838013Y-103059490D01*
X147838011Y-103059488D01*
X147712488Y-102987017D01*
X147712489Y-102987017D01*
X147701006Y-102983940D01*
X147572475Y-102949500D01*
X147427525Y-102949500D01*
X147359341Y-102967770D01*
X147289491Y-102966107D01*
X147231629Y-102926944D01*
X147204125Y-102862716D01*
X147215712Y-102793814D01*
X147239564Y-102760317D01*
X148565670Y-101434212D01*
X148611814Y-101354288D01*
X148635700Y-101265143D01*
X148635700Y-101172856D01*
X148635700Y-95067525D01*
X148641638Y-95047301D01*
X148642770Y-95026252D01*
X148651285Y-95014447D01*
X148655385Y-95000486D01*
X148671312Y-94986685D01*
X148683646Y-94969587D01*
X148697191Y-94964260D01*
X148708189Y-94954731D01*
X148729052Y-94951731D01*
X148748669Y-94944017D01*
X148762941Y-94946858D01*
G37*
%TD.AperFunction*%
%TA.AperFunction,Conductor*%
G36*
X145014744Y-88159185D02*
G01*
X145060499Y-88211989D01*
X145068381Y-88234980D01*
X145069209Y-88238483D01*
X145119502Y-88373328D01*
X145119506Y-88373335D01*
X145205752Y-88488544D01*
X145205755Y-88488547D01*
X145320964Y-88574793D01*
X145320971Y-88574797D01*
X145455817Y-88625091D01*
X145455816Y-88625091D01*
X145462744Y-88625835D01*
X145515427Y-88631500D01*
X146329255Y-88631499D01*
X146358701Y-88640145D01*
X146388682Y-88646667D01*
X146393695Y-88650419D01*
X146396294Y-88651183D01*
X146416936Y-88667818D01*
X146567937Y-88818819D01*
X146601422Y-88880142D01*
X146596438Y-88949834D01*
X146554566Y-89005767D01*
X146489102Y-89030184D01*
X146480256Y-89030500D01*
X145515429Y-89030500D01*
X145515423Y-89030501D01*
X145455816Y-89036908D01*
X145320971Y-89087202D01*
X145320964Y-89087206D01*
X145205755Y-89173452D01*
X145205752Y-89173455D01*
X145119506Y-89288664D01*
X145119501Y-89288673D01*
X145091246Y-89364432D01*
X145049375Y-89420366D01*
X144983911Y-89444784D01*
X144975064Y-89445100D01*
X142881456Y-89445100D01*
X142793116Y-89468769D01*
X142793117Y-89468770D01*
X142792317Y-89468984D01*
X142787296Y-89471064D01*
X142739849Y-89480500D01*
X141669329Y-89480500D01*
X141669323Y-89480501D01*
X141609716Y-89486908D01*
X141474871Y-89537202D01*
X141474864Y-89537206D01*
X141359655Y-89623452D01*
X141359652Y-89623455D01*
X141273406Y-89738664D01*
X141273403Y-89738670D01*
X141223108Y-89873517D01*
X141216701Y-89933116D01*
X141216700Y-89933135D01*
X141216700Y-90828870D01*
X141216701Y-90828876D01*
X141223108Y-90888483D01*
X141273402Y-91023328D01*
X141273406Y-91023335D01*
X141359652Y-91138544D01*
X141359655Y-91138547D01*
X141474864Y-91224793D01*
X141474872Y-91224798D01*
X141490921Y-91230783D01*
X141546856Y-91272652D01*
X141571276Y-91338115D01*
X141556426Y-91406389D01*
X141508953Y-91454720D01*
X141433904Y-91497456D01*
X141433903Y-91497457D01*
X141381101Y-91543209D01*
X141349473Y-91575986D01*
X141303264Y-91664323D01*
X141303263Y-91664323D01*
X141283581Y-91731355D01*
X141283578Y-91731367D01*
X141273230Y-91803344D01*
X141273230Y-104561568D01*
X140837047Y-104561316D01*
X140816390Y-104555251D01*
X140816378Y-104555248D01*
X140744401Y-104544900D01*
X140744400Y-104544900D01*
X140408200Y-104544900D01*
X140408197Y-104544900D01*
X140353887Y-104550738D01*
X140306667Y-104561010D01*
X137850500Y-104559593D01*
X137850500Y-98979386D01*
X137870185Y-98912347D01*
X137886819Y-98891705D01*
X137894317Y-98884207D01*
X137940509Y-98838015D01*
X138012984Y-98712485D01*
X138050500Y-98572475D01*
X138050500Y-98427525D01*
X138012984Y-98287515D01*
X137940509Y-98161985D01*
X137838015Y-98059491D01*
X137838013Y-98059490D01*
X137838011Y-98059488D01*
X137712488Y-97987017D01*
X137712489Y-97987017D01*
X137701006Y-97983940D01*
X137572475Y-97949500D01*
X137427525Y-97949500D01*
X137343519Y-97972009D01*
X137287513Y-97987016D01*
X137280162Y-97990062D01*
X137271985Y-97991688D01*
X137267646Y-97994477D01*
X137232711Y-97999500D01*
X137207344Y-97999500D01*
X137140305Y-97979815D01*
X137094550Y-97927011D01*
X137091162Y-97918832D01*
X137078198Y-97884073D01*
X137078193Y-97884064D01*
X136991947Y-97768855D01*
X136991944Y-97768852D01*
X136876735Y-97682606D01*
X136876728Y-97682602D01*
X136741882Y-97632308D01*
X136741883Y-97632308D01*
X136682283Y-97625901D01*
X136682281Y-97625900D01*
X136682273Y-97625900D01*
X136682265Y-97625900D01*
X134582076Y-97625900D01*
X134515037Y-97606215D01*
X134494395Y-97589581D01*
X133129995Y-96225181D01*
X133121740Y-96210064D01*
X133109439Y-96198005D01*
X133105342Y-96180032D01*
X133096510Y-96163858D01*
X133097738Y-96146678D01*
X133093910Y-96129883D01*
X133100179Y-96112551D01*
X133101494Y-96094166D01*
X133111817Y-96080375D01*
X133117676Y-96064179D01*
X133132320Y-96052987D01*
X133143366Y-96038233D01*
X133159740Y-96032032D01*
X133173191Y-96021754D01*
X133200045Y-96016771D01*
X133207602Y-96013910D01*
X133212632Y-96013500D01*
X133325300Y-96013500D01*
X133379613Y-96007661D01*
X133431124Y-95996455D01*
X133435089Y-95995367D01*
X133444966Y-95994562D01*
X133471418Y-96000041D01*
X133498371Y-96001969D01*
X133507015Y-96007415D01*
X133513383Y-96008735D01*
X133521073Y-96016273D01*
X133541142Y-96028919D01*
X133551441Y-96038857D01*
X133639776Y-96085065D01*
X133639777Y-96085065D01*
X133639777Y-96085066D01*
X133689905Y-96099784D01*
X133706815Y-96104750D01*
X133706819Y-96104750D01*
X133706821Y-96104751D01*
X133718452Y-96106423D01*
X133778800Y-96115100D01*
X133778801Y-96115100D01*
X135179898Y-96115100D01*
X135179911Y-96115100D01*
X135204279Y-96113935D01*
X135227825Y-96111679D01*
X135320687Y-96084362D01*
X135346830Y-96070862D01*
X135346829Y-96070862D01*
X135356718Y-96065756D01*
X135356719Y-96065757D01*
X135382760Y-96052311D01*
X135401630Y-96038856D01*
X135425613Y-96021754D01*
X135441974Y-96010088D01*
X136840863Y-94674522D01*
X136861507Y-94652326D01*
X136880194Y-94629677D01*
X136882057Y-94627393D01*
X136928265Y-94539058D01*
X136947950Y-94472019D01*
X136958300Y-94400034D01*
X136958300Y-89793929D01*
X136977985Y-89726890D01*
X136991908Y-89709045D01*
X138071300Y-88559615D01*
X138131541Y-88524221D01*
X138161692Y-88520500D01*
X143106600Y-88520500D01*
X143160913Y-88514661D01*
X143212424Y-88503455D01*
X143238798Y-88496219D01*
X143267674Y-88479775D01*
X143325418Y-88446894D01*
X143325419Y-88446892D01*
X143325428Y-88446888D01*
X143378232Y-88401133D01*
X143409857Y-88368359D01*
X143456065Y-88280024D01*
X143468263Y-88238483D01*
X143471176Y-88228564D01*
X143508951Y-88169786D01*
X143572507Y-88140762D01*
X143590153Y-88139500D01*
X144947705Y-88139500D01*
X145014744Y-88159185D01*
G37*
%TD.AperFunction*%
%TA.AperFunction,Conductor*%
G36*
X133367739Y-87882912D02*
G01*
X133413494Y-87935716D01*
X133424700Y-87987227D01*
X133424700Y-92581206D01*
X133405015Y-92648245D01*
X133352211Y-92694000D01*
X133283053Y-92703944D01*
X133219497Y-92674919D01*
X133213019Y-92668887D01*
X132779598Y-92235466D01*
X132779585Y-92235453D01*
X132759235Y-92217174D01*
X132759229Y-92217169D01*
X132759220Y-92217161D01*
X132738599Y-92200544D01*
X132738596Y-92200542D01*
X132738593Y-92200540D01*
X132650262Y-92154335D01*
X132650259Y-92154334D01*
X132583224Y-92134650D01*
X132583216Y-92134648D01*
X132511239Y-92124300D01*
X132511238Y-92124300D01*
X132051600Y-92124300D01*
X132051597Y-92124300D01*
X131997287Y-92130138D01*
X131945781Y-92141343D01*
X131945772Y-92141346D01*
X131919407Y-92148579D01*
X131919396Y-92148583D01*
X131832781Y-92197905D01*
X131832773Y-92197911D01*
X131779971Y-92243663D01*
X131748343Y-92276440D01*
X131702134Y-92364777D01*
X131702133Y-92364777D01*
X131682451Y-92431809D01*
X131682448Y-92431821D01*
X131672100Y-92503798D01*
X131672100Y-93602002D01*
X131677940Y-93656324D01*
X131678026Y-93656854D01*
X131678010Y-93656978D01*
X131678294Y-93659616D01*
X131677670Y-93659682D01*
X131669325Y-93726179D01*
X131624525Y-93779796D01*
X131557850Y-93800680D01*
X131555625Y-93800700D01*
X127044200Y-93800700D01*
X127010025Y-93802996D01*
X126977137Y-93807436D01*
X126943570Y-93814285D01*
X126943551Y-93814290D01*
X126943548Y-93814291D01*
X126443711Y-93951792D01*
X126261333Y-94001964D01*
X126241851Y-94008172D01*
X126223245Y-94014933D01*
X126223242Y-94014933D01*
X126223240Y-94014935D01*
X126223237Y-94014936D01*
X126223234Y-94014938D01*
X126143172Y-94061981D01*
X126090371Y-94107733D01*
X126058743Y-94140510D01*
X126012534Y-94228847D01*
X126012533Y-94228847D01*
X125992851Y-94295879D01*
X125992848Y-94295891D01*
X125982500Y-94367868D01*
X125982500Y-95634002D01*
X125988338Y-95688312D01*
X125999543Y-95739818D01*
X125999546Y-95739827D01*
X126006779Y-95766192D01*
X126006783Y-95766203D01*
X126056105Y-95852818D01*
X126056110Y-95852825D01*
X126056112Y-95852828D01*
X126082580Y-95883374D01*
X126101863Y-95905628D01*
X126101866Y-95905631D01*
X126101867Y-95905632D01*
X126134641Y-95937257D01*
X126222976Y-95983465D01*
X126222977Y-95983465D01*
X126222977Y-95983466D01*
X126273105Y-95998184D01*
X126290015Y-96003150D01*
X126290019Y-96003150D01*
X126290021Y-96003151D01*
X126301652Y-96004823D01*
X126362000Y-96013500D01*
X131451324Y-96013500D01*
X131518363Y-96033185D01*
X131539005Y-96049819D01*
X133897581Y-98408395D01*
X133931066Y-98469718D01*
X133933900Y-98496076D01*
X133933900Y-98999270D01*
X133933901Y-98999276D01*
X133940308Y-99058883D01*
X133990602Y-99193728D01*
X133990606Y-99193735D01*
X134076852Y-99308944D01*
X134076855Y-99308947D01*
X134192064Y-99395193D01*
X134192071Y-99395197D01*
X134326917Y-99445491D01*
X134326916Y-99445491D01*
X134333844Y-99446235D01*
X134386527Y-99451900D01*
X136682272Y-99451899D01*
X136741883Y-99445491D01*
X136876731Y-99395196D01*
X136951189Y-99339456D01*
X137016653Y-99315039D01*
X137084926Y-99329890D01*
X137134332Y-99379295D01*
X137149500Y-99438723D01*
X137149500Y-104559188D01*
X121079700Y-104549916D01*
X121079700Y-97404852D01*
X126034000Y-97404852D01*
X126034000Y-97595147D01*
X126071121Y-97781764D01*
X126071124Y-97781776D01*
X126143938Y-97957566D01*
X126143945Y-97957579D01*
X126249658Y-98115788D01*
X126249661Y-98115792D01*
X126384207Y-98250338D01*
X126384211Y-98250341D01*
X126542420Y-98356054D01*
X126542429Y-98356059D01*
X126613359Y-98385439D01*
X126667762Y-98429280D01*
X126689827Y-98495574D01*
X126672548Y-98563273D01*
X126621411Y-98610884D01*
X126613359Y-98614561D01*
X126542429Y-98643940D01*
X126542420Y-98643945D01*
X126384211Y-98749658D01*
X126384207Y-98749661D01*
X126249661Y-98884207D01*
X126249658Y-98884211D01*
X126143945Y-99042420D01*
X126143938Y-99042433D01*
X126071124Y-99218223D01*
X126071121Y-99218235D01*
X126034000Y-99404852D01*
X126034000Y-99595147D01*
X126071121Y-99781764D01*
X126071124Y-99781776D01*
X126143938Y-99957566D01*
X126143945Y-99957579D01*
X126249658Y-100115788D01*
X126249661Y-100115792D01*
X126384207Y-100250338D01*
X126384211Y-100250341D01*
X126542420Y-100356054D01*
X126542433Y-100356061D01*
X126718223Y-100428875D01*
X126718228Y-100428877D01*
X126904852Y-100465999D01*
X126904855Y-100466000D01*
X126904857Y-100466000D01*
X127095145Y-100466000D01*
X127095146Y-100465999D01*
X127281772Y-100428877D01*
X127457573Y-100356058D01*
X127615789Y-100250341D01*
X127750341Y-100115789D01*
X127856058Y-99957573D01*
X127928877Y-99781772D01*
X127966000Y-99595143D01*
X127966000Y-99404857D01*
X127966000Y-99404854D01*
X127965999Y-99404852D01*
X127946922Y-99308946D01*
X127928877Y-99218228D01*
X127918729Y-99193728D01*
X127856061Y-99042433D01*
X127856054Y-99042420D01*
X127750341Y-98884211D01*
X127750338Y-98884207D01*
X127615792Y-98749661D01*
X127615788Y-98749658D01*
X127457579Y-98643945D01*
X127457566Y-98643938D01*
X127386641Y-98614561D01*
X127332237Y-98570721D01*
X127310172Y-98504427D01*
X127327451Y-98436727D01*
X127378588Y-98389116D01*
X127386641Y-98385439D01*
X127457566Y-98356061D01*
X127457566Y-98356060D01*
X127457573Y-98356058D01*
X127615789Y-98250341D01*
X127750341Y-98115789D01*
X127856058Y-97957573D01*
X127928877Y-97781772D01*
X127966000Y-97595143D01*
X127966000Y-97404857D01*
X127966000Y-97404854D01*
X127965999Y-97404852D01*
X127928878Y-97218235D01*
X127928877Y-97218228D01*
X127928875Y-97218223D01*
X127856061Y-97042433D01*
X127856054Y-97042420D01*
X127750341Y-96884211D01*
X127750338Y-96884207D01*
X127615792Y-96749661D01*
X127615788Y-96749658D01*
X127457579Y-96643945D01*
X127457566Y-96643938D01*
X127281776Y-96571124D01*
X127281764Y-96571121D01*
X127095146Y-96534000D01*
X127095143Y-96534000D01*
X126904857Y-96534000D01*
X126904854Y-96534000D01*
X126718235Y-96571121D01*
X126718223Y-96571124D01*
X126542433Y-96643938D01*
X126542420Y-96643945D01*
X126384211Y-96749658D01*
X126384207Y-96749661D01*
X126249661Y-96884207D01*
X126249658Y-96884211D01*
X126143945Y-97042420D01*
X126143938Y-97042433D01*
X126071124Y-97218223D01*
X126071121Y-97218235D01*
X126034000Y-97404852D01*
X121079700Y-97404852D01*
X121079700Y-91378243D01*
X121099385Y-91311204D01*
X121116019Y-91290562D01*
X124507035Y-87899546D01*
X124568358Y-87866061D01*
X124594716Y-87863227D01*
X133300700Y-87863227D01*
X133367739Y-87882912D01*
G37*
%TD.AperFunction*%
%TA.AperFunction,Conductor*%
G36*
X158442539Y-81520185D02*
G01*
X158488294Y-81572989D01*
X158499500Y-81624500D01*
X158499500Y-83621100D01*
X158479815Y-83688139D01*
X158427011Y-83733894D01*
X158375500Y-83745100D01*
X149271675Y-83745100D01*
X149217361Y-83750941D01*
X149217357Y-83750941D01*
X149217355Y-83750942D01*
X149165829Y-83762154D01*
X149165821Y-83762156D01*
X149165808Y-83762159D01*
X149139436Y-83769397D01*
X149139435Y-83769397D01*
X149052813Y-83818738D01*
X149052806Y-83818743D01*
X149000027Y-83864488D01*
X148968391Y-83897282D01*
X148922195Y-83985622D01*
X148902521Y-84052658D01*
X148892179Y-84124649D01*
X148892179Y-84124653D01*
X148893283Y-92792241D01*
X148893280Y-92792248D01*
X148893283Y-92792255D01*
X148882623Y-92828561D01*
X148873607Y-92859283D01*
X148873601Y-92859289D01*
X148873600Y-92859295D01*
X148850487Y-92885969D01*
X148840904Y-92894273D01*
X148777349Y-92923299D01*
X148708190Y-92913356D01*
X148655386Y-92867602D01*
X148635700Y-92800563D01*
X148635700Y-89994258D01*
X148635700Y-89994256D01*
X148611814Y-89905112D01*
X148594566Y-89875238D01*
X148565669Y-89825187D01*
X147046581Y-88306099D01*
X147013096Y-88244776D01*
X147010973Y-88205164D01*
X147013800Y-88178873D01*
X147013799Y-87408128D01*
X147008172Y-87355785D01*
X147007391Y-87348516D01*
X146957097Y-87213671D01*
X146957093Y-87213664D01*
X146870847Y-87098455D01*
X146870844Y-87098452D01*
X146755635Y-87012206D01*
X146755628Y-87012202D01*
X146620782Y-86961908D01*
X146620783Y-86961908D01*
X146561183Y-86955501D01*
X146561181Y-86955500D01*
X146561173Y-86955500D01*
X146561164Y-86955500D01*
X145515429Y-86955500D01*
X145515423Y-86955501D01*
X145455816Y-86961908D01*
X145320971Y-87012202D01*
X145320964Y-87012206D01*
X145205755Y-87098452D01*
X145205752Y-87098455D01*
X145119506Y-87213664D01*
X145119502Y-87213671D01*
X145066498Y-87355785D01*
X145063809Y-87354782D01*
X145035932Y-87403734D01*
X144974021Y-87436118D01*
X144949832Y-87438500D01*
X143610100Y-87438500D01*
X143543061Y-87418815D01*
X143497306Y-87366011D01*
X143486100Y-87314500D01*
X143486100Y-84732611D01*
X143486099Y-84732598D01*
X143480266Y-84678319D01*
X143469070Y-84626829D01*
X143461844Y-84600476D01*
X143412530Y-84513836D01*
X143412529Y-84513834D01*
X143412528Y-84513833D01*
X143366782Y-84461019D01*
X143366780Y-84461017D01*
X143334019Y-84429393D01*
X143334011Y-84429388D01*
X143245696Y-84383169D01*
X143245691Y-84383167D01*
X143245689Y-84383166D01*
X143245685Y-84383165D01*
X143245683Y-84383164D01*
X143178666Y-84363471D01*
X143178649Y-84363468D01*
X143106680Y-84353106D01*
X136822506Y-84351913D01*
X136802276Y-84352999D01*
X136802265Y-84353000D01*
X136795033Y-84353389D01*
X136792203Y-84353694D01*
X136788008Y-84353477D01*
X136730424Y-84358722D01*
X136694674Y-84367536D01*
X136688063Y-84368430D01*
X136684855Y-84367940D01*
X136671782Y-84369546D01*
X135233490Y-84373273D01*
X135216985Y-84372212D01*
X135141136Y-84362227D01*
X135141134Y-84362227D01*
X123703539Y-84362227D01*
X123703531Y-84362227D01*
X123608670Y-84374716D01*
X123596812Y-84376278D01*
X123476031Y-84392178D01*
X123380265Y-84417838D01*
X123293054Y-84441207D01*
X123278373Y-84445140D01*
X123254389Y-84451567D01*
X123254388Y-84451568D01*
X123042391Y-84539380D01*
X123042381Y-84539384D01*
X122843661Y-84654115D01*
X122770973Y-84709891D01*
X122661613Y-84793805D01*
X122661606Y-84793811D01*
X118010284Y-89445133D01*
X118010278Y-89445140D01*
X117940435Y-89536163D01*
X117939635Y-89537206D01*
X117870587Y-89627190D01*
X117827680Y-89701508D01*
X117806226Y-89738669D01*
X117802667Y-89744834D01*
X117755856Y-89825911D01*
X117755854Y-89825915D01*
X117668045Y-90037903D01*
X117668042Y-90037913D01*
X117610179Y-90253864D01*
X117610178Y-90253867D01*
X117608652Y-90259559D01*
X117608651Y-90259564D01*
X117578700Y-90487058D01*
X117578700Y-104547895D01*
X115500500Y-104546696D01*
X115500500Y-81624500D01*
X115520185Y-81557461D01*
X115572989Y-81511706D01*
X115624500Y-81500500D01*
X158375500Y-81500500D01*
X158442539Y-81520185D01*
G37*
%TD.AperFunction*%
%TA.AperFunction,Conductor*%
G36*
X145006870Y-90165785D02*
G01*
X145052625Y-90218589D01*
X145063121Y-90256847D01*
X145069208Y-90313483D01*
X145119502Y-90448328D01*
X145119506Y-90448335D01*
X145205752Y-90563544D01*
X145205755Y-90563547D01*
X145320964Y-90649793D01*
X145320971Y-90649797D01*
X145455817Y-90700091D01*
X145455816Y-90700091D01*
X145462744Y-90700835D01*
X145515427Y-90706500D01*
X146329255Y-90706499D01*
X146396294Y-90726183D01*
X146416936Y-90742818D01*
X147110981Y-91436863D01*
X147144466Y-91498186D01*
X147147300Y-91524544D01*
X147147300Y-100925580D01*
X147127615Y-100992619D01*
X147110981Y-101013261D01*
X144358180Y-103766061D01*
X144296857Y-103799546D01*
X144227165Y-103794562D01*
X144171232Y-103752690D01*
X144146815Y-103687226D01*
X144146499Y-103678401D01*
X144146442Y-91803344D01*
X144140602Y-91749031D01*
X144129396Y-91697521D01*
X144122161Y-91671148D01*
X144122161Y-91671147D01*
X144072833Y-91584523D01*
X144072832Y-91584522D01*
X144072830Y-91584518D01*
X144037039Y-91543213D01*
X144027078Y-91531717D01*
X143994301Y-91500089D01*
X143905964Y-91453880D01*
X143905964Y-91453879D01*
X143838932Y-91434197D01*
X143838920Y-91434194D01*
X143766943Y-91423846D01*
X143766942Y-91423846D01*
X143316191Y-91423846D01*
X143249152Y-91404161D01*
X143203397Y-91351357D01*
X143193453Y-91282199D01*
X143222478Y-91218643D01*
X143241877Y-91200581D01*
X143324746Y-91138546D01*
X143410996Y-91023331D01*
X143461291Y-90888483D01*
X143467700Y-90828873D01*
X143467699Y-90270099D01*
X143487383Y-90203061D01*
X143540187Y-90157306D01*
X143591699Y-90146100D01*
X144939831Y-90146100D01*
X145006870Y-90165785D01*
G37*
%TD.AperFunction*%
%TD*%
%TA.AperFunction,Conductor*%
%TO.N,+BATT*%
G36*
X158442539Y-126460885D02*
G01*
X158488294Y-126513689D01*
X158499500Y-126565200D01*
X158499500Y-133375500D01*
X158479815Y-133442539D01*
X158427011Y-133488294D01*
X158375500Y-133499500D01*
X138049577Y-133499500D01*
X137982538Y-133479815D01*
X137936783Y-133427011D01*
X137925578Y-133375065D01*
X137949559Y-126564763D01*
X137969479Y-126497794D01*
X138022444Y-126452225D01*
X138073558Y-126441200D01*
X158375500Y-126441200D01*
X158442539Y-126460885D01*
G37*
%TD.AperFunction*%
%TD*%
%TA.AperFunction,Conductor*%
%TO.N,/PD_Control/VBUSA1*%
G36*
X133392339Y-94075885D02*
G01*
X133438094Y-94128689D01*
X133449300Y-94180200D01*
X133449300Y-95634000D01*
X133429615Y-95701039D01*
X133376811Y-95746794D01*
X133325300Y-95758000D01*
X127760905Y-95758000D01*
X126362000Y-95758000D01*
X126294961Y-95738315D01*
X126249206Y-95685511D01*
X126238000Y-95634000D01*
X126238000Y-94367870D01*
X126257685Y-94300831D01*
X126310489Y-94255076D01*
X126329106Y-94248312D01*
X127011317Y-94060640D01*
X127044207Y-94056200D01*
X133325300Y-94056200D01*
X133392339Y-94075885D01*
G37*
%TD.AperFunction*%
%TD*%
%TA.AperFunction,Conductor*%
%TO.N,/PD_Control/VOUTA1*%
G36*
X135229600Y-95843844D02*
G01*
X135203457Y-95857344D01*
X135179911Y-95859600D01*
X133778800Y-95859600D01*
X133711761Y-95839915D01*
X133666006Y-95787111D01*
X133654800Y-95735600D01*
X133654800Y-92936895D01*
X133662917Y-92909249D01*
X133666917Y-92887604D01*
X135229600Y-92862400D01*
X135229600Y-95843844D01*
G37*
%TD.AperFunction*%
%TD*%
%TA.AperFunction,Conductor*%
%TO.N,/BMS/B-*%
G36*
X158442539Y-84020285D02*
G01*
X158488294Y-84073089D01*
X158499500Y-84124600D01*
X158499500Y-93708900D01*
X158479815Y-93775939D01*
X158427011Y-93821694D01*
X158375500Y-93832900D01*
X156450544Y-93832900D01*
X156360805Y-93840930D01*
X156360803Y-93840930D01*
X156317469Y-93848748D01*
X156237884Y-93870581D01*
X156205079Y-93874999D01*
X155691079Y-93874999D01*
X155663250Y-93873508D01*
X155636741Y-93873508D01*
X155608921Y-93874999D01*
X155044391Y-93874999D01*
X155037757Y-93874821D01*
X155033166Y-93874575D01*
X155013253Y-93873508D01*
X155013250Y-93873508D01*
X154986741Y-93873508D01*
X154986739Y-93873508D01*
X154969026Y-93874457D01*
X154962241Y-93874821D01*
X154955606Y-93874999D01*
X154599500Y-93874999D01*
X154532461Y-93855314D01*
X154486706Y-93802510D01*
X154475500Y-93750999D01*
X154475500Y-93230249D01*
X154475499Y-93230247D01*
X154463868Y-93171770D01*
X154463867Y-93171768D01*
X154419552Y-93105448D01*
X154414873Y-93100769D01*
X154381388Y-93039446D01*
X154378554Y-93013088D01*
X154378554Y-92920964D01*
X149272658Y-92915787D01*
X149205639Y-92896034D01*
X149159937Y-92843184D01*
X149148784Y-92791803D01*
X149147680Y-84124616D01*
X149167356Y-84057574D01*
X149220154Y-84011812D01*
X149271680Y-84000600D01*
X158375500Y-84000600D01*
X158442539Y-84020285D01*
G37*
%TD.AperFunction*%
%TD*%
%TA.AperFunction,Conductor*%
%TO.N,/PD_Control/VBUSC*%
G36*
X129460492Y-118875368D02*
G01*
X129463859Y-118883438D01*
X129470261Y-120112506D01*
X129489404Y-123788040D01*
X129486078Y-123796189D01*
X129477964Y-123799600D01*
X123633300Y-123799600D01*
X123625168Y-123796232D01*
X123621800Y-123788100D01*
X123621800Y-120112506D01*
X123625168Y-120104374D01*
X123632945Y-120101011D01*
X123820971Y-120095229D01*
X125040832Y-118875368D01*
X125048964Y-118872000D01*
X129452360Y-118872000D01*
X129460492Y-118875368D01*
G37*
%TD.AperFunction*%
%TD*%
%TA.AperFunction,Conductor*%
%TO.N,/PD_Control/GATEA1*%
G36*
X140811439Y-104820085D02*
G01*
X140857194Y-104872889D01*
X140868400Y-104924400D01*
X140868400Y-107327089D01*
X140848715Y-107394128D01*
X140795911Y-107439883D01*
X140726753Y-107449827D01*
X140663197Y-107420802D01*
X140662359Y-107420069D01*
X140326159Y-107123422D01*
X140288914Y-107064307D01*
X140284200Y-107030442D01*
X140284200Y-104924400D01*
X140303885Y-104857361D01*
X140356689Y-104811606D01*
X140408200Y-104800400D01*
X140744400Y-104800400D01*
X140811439Y-104820085D01*
G37*
%TD.AperFunction*%
%TD*%
%TA.AperFunction,Conductor*%
%TO.N,/PD_Control/VCC*%
G36*
X149572059Y-112281656D02*
G01*
X149643489Y-112300165D01*
X149644866Y-112300616D01*
X149709095Y-112326264D01*
X149710715Y-112327061D01*
X149807984Y-112384630D01*
X149808393Y-112384883D01*
X149848290Y-112410778D01*
X149848294Y-112410780D01*
X149848293Y-112410780D01*
X149947081Y-112455136D01*
X149947082Y-112455137D01*
X149947085Y-112455137D01*
X149947086Y-112455138D01*
X150012611Y-112468092D01*
X150084798Y-112472175D01*
X150092863Y-112476063D01*
X150095836Y-112483856D01*
X150095836Y-112661906D01*
X150092409Y-112670179D01*
X150084969Y-112673576D01*
X149995026Y-112679999D01*
X149919828Y-112699334D01*
X149919826Y-112699334D01*
X149860712Y-112727418D01*
X149808387Y-112760722D01*
X149808020Y-112760947D01*
X149705669Y-112820914D01*
X149704005Y-112821719D01*
X149641660Y-112846035D01*
X149640316Y-112846468D01*
X149572059Y-112863975D01*
X149563194Y-112862711D01*
X149557819Y-112855549D01*
X149557684Y-112854962D01*
X149550959Y-112821719D01*
X149501069Y-112575118D01*
X149501069Y-112570480D01*
X149520957Y-112472175D01*
X149557678Y-112290666D01*
X149562678Y-112283238D01*
X149571466Y-112281519D01*
X149572059Y-112281656D01*
G37*
%TD.AperFunction*%
%TD*%
%TA.AperFunction,Conductor*%
%TO.N,/PD_Control/VCC*%
G36*
X149077013Y-112230895D02*
G01*
X149140293Y-112281025D01*
X149203815Y-112303721D01*
X149264545Y-112303222D01*
X149327518Y-112290257D01*
X149327747Y-112290214D01*
X149435602Y-112271089D01*
X149438368Y-112270933D01*
X149546812Y-112277729D01*
X149554853Y-112281667D01*
X149557756Y-112290138D01*
X149557560Y-112291657D01*
X149503247Y-112568711D01*
X149498293Y-112576170D01*
X149498234Y-112576209D01*
X149261515Y-112733263D01*
X149252727Y-112734982D01*
X149245572Y-112730378D01*
X149129938Y-112570742D01*
X149129936Y-112570739D01*
X149018333Y-112455193D01*
X148935838Y-112374115D01*
X148932341Y-112365874D01*
X148935695Y-112357573D01*
X149061476Y-112231792D01*
X149069748Y-112228366D01*
X149077013Y-112230895D01*
G37*
%TD.AperFunction*%
%TD*%
M02*
