M48
; DRILL file {KiCad 9.0.0} date 2026-01-14T01:15:12+0530
; FORMAT={3:3/ absolute / metric / suppress leading zeros}
; #@! TF.CreationDate,2026-01-14T01:15:12+05:30
; #@! TF.GenerationSoftware,Kicad,Pcbnew,9.0.0
; #@! TF.FileFunction,Plated,1,2,PTH
FMAT,2
METRIC,TZ
; #@! TA.AperFunction,Plated,PTH,ViaDrill
T1C0.300
; #@! TA.AperFunction,Plated,PTH,ComponentDrill
T2C0.400
; #@! TA.AperFunction,Plated,PTH,ComponentDrill
T3C0.700
; #@! TA.AperFunction,Plated,PTH,ComponentDrill
T4C0.800
; #@! TA.AperFunction,Plated,PTH,ComponentDrill
T5C0.920
; #@! TA.AperFunction,Plated,PTH,ComponentDrill
T6C2.260
%
G90
G05
T1
X117500Y-82500
X117500Y-85000
X117500Y-87500
X117500Y-107500
X117500Y-110000
X117500Y-112500
X117500Y-115000
X117500Y-120000
X117500Y-122500
X117500Y-127500
X117500Y-130000
X117500Y-132500
X120000Y-82500
X120000Y-85000
X120000Y-110000
X120000Y-112500
X120000Y-115000
X120000Y-122500
X120000Y-125000
X122500Y-82500
X122500Y-95000
X122500Y-97500
X122500Y-100000
X122500Y-102500
X122500Y-112500
X122500Y-127500
X122500Y-132500
X124250Y-122250
X124250Y-123250
X124500Y-120000
X125000Y-82500
X125000Y-95000
X125000Y-97500
X125000Y-100000
X125000Y-102500
X125000Y-107500
X125000Y-112500
X125000Y-116000
X125000Y-125000
X125000Y-127500
X125000Y-130000
X125000Y-132500
X125250Y-122250
X125250Y-123250
X125500Y-119250
X125500Y-120000
X126250Y-122250
X126250Y-123250
X126500Y-119250
X126500Y-120000
X127000Y-122750
X127400Y-119250
X127500Y-82500
X127500Y-90000
X127500Y-92500
X127500Y-105000
X127500Y-107500
X127500Y-112500
X127500Y-117500
X127500Y-132500
X127923Y-110116
X128923Y-109116
X128923Y-111116
X129285Y-113500
X129285Y-114250
X129285Y-116500
X129285Y-117250
X129923Y-108116
X129923Y-110116
X130000Y-82500
X130000Y-90000
X130000Y-92500
X130000Y-97500
X130000Y-100000
X130000Y-102500
X130000Y-105000
X130000Y-125000
X130000Y-127500
X130000Y-132500
X130500Y-116500
X130923Y-107116
X130923Y-109116
X131500Y-115500
X131500Y-117500
X131923Y-106116
X131923Y-108116
X132309Y-92685
X132309Y-93421
X132500Y-82500
X132500Y-90000
X132500Y-98500
X132500Y-100000
X132500Y-102500
X132500Y-114500
X132500Y-116500
X132500Y-125000
X132500Y-132500
X132563Y-120050
X133500Y-113500
X133500Y-115500
X134500Y-112500
X134500Y-114500
X134500Y-117500
X135000Y-82500
X135000Y-105000
X135000Y-122500
X135000Y-125000
X135000Y-127500
X135000Y-132500
X135500Y-116500
X135500Y-117500
X136792Y-110630
X136995Y-120256
X137490Y-106832
X137500Y-82500
X137500Y-92500
X137500Y-98500
X137500Y-113500
X137500Y-117000
X138000Y-115500
X138313Y-111430
X138999Y-110973
X139500Y-104500
X139500Y-105500
X139500Y-106500
X139500Y-113000
X139500Y-115000
X139500Y-122500
X140000Y-82500
X140000Y-92500
X140000Y-95000
X140000Y-125000
X140600Y-105105
X140600Y-105842
X141000Y-122500
X142000Y-109000
X142000Y-110000
X142000Y-111000
X142500Y-82500
X142500Y-125000
X143000Y-109000
X143000Y-110000
X143000Y-111000
X144000Y-91000
X144000Y-109000
X144000Y-110000
X144000Y-111000
X144600Y-114351
X144821Y-115760
X145000Y-82500
X145000Y-85000
X145000Y-102500
X145000Y-125000
X145500Y-91500
X145500Y-95000
X145500Y-98500
X145542Y-113919
X146000Y-106500
X147000Y-118500
X147000Y-124000
X147000Y-125000
X147500Y-82500
X147500Y-85000
X147500Y-103500
X147500Y-104500
X147500Y-119500
X148500Y-105500
X149000Y-107500
X149019Y-109423
X149276Y-110998
X149300Y-93500
X149300Y-94500
X149500Y-105500
X149502Y-112573
X150000Y-82500
X150000Y-102500
X150500Y-85500
X150500Y-96500
X150500Y-97500
X151500Y-85500
X152500Y-82500
X152500Y-95500
X152500Y-96500
X152500Y-105000
X153500Y-108000
X153500Y-112000
X153500Y-114000
X153500Y-116000
X153500Y-118000
X153500Y-120000
X154250Y-97500
X154250Y-98500
X154250Y-99500
X154250Y-100500
X155000Y-82500
X155000Y-102500
X155000Y-122500
X155000Y-125000
X155500Y-97500
X155500Y-98500
X155500Y-99500
X155500Y-100500
X156750Y-97500
X156750Y-98500
X156750Y-99500
X156750Y-100500
X157500Y-82500
X157500Y-102500
X157500Y-105000
X157500Y-107500
X157500Y-110000
X157500Y-112500
X157500Y-115000
X157500Y-117500
X157500Y-120000
X157500Y-122500
X157500Y-125000
X158000Y-95500
X158000Y-96500
X158000Y-97500
X158000Y-98500
X158000Y-99500
X158000Y-100500
T2
X121300Y-118025
X121300Y-118875
X121300Y-119725
X121300Y-120575
X121300Y-121425
X121300Y-122275
X121300Y-123125
X121300Y-123975
X122650Y-118025
X122650Y-118875
X122650Y-119725
X122650Y-120575
X122650Y-121425
X122650Y-122275
X122650Y-123125
X122650Y-123975
T3
X118000Y-116680
X118000Y-125320
X122150Y-116680
X122150Y-125320
T4
X149750Y-115300
X149750Y-117300
T5
X127000Y-95000
X127000Y-97500
X127000Y-99500
X127000Y-102000
T6
X124290Y-91930
X124290Y-105070
M30
