%TF.GenerationSoftware,KiCad,Pcbnew,9.0.0*%
%TF.CreationDate,2026-01-14T01:15:15+05:30*%
%TF.ProjectId,PortablePower,506f7274-6162-46c6-9550-6f7765722e6b,rev?*%
%TF.SameCoordinates,Original*%
%TF.FileFunction,Copper,L2,Bot*%
%TF.FilePolarity,Positive*%
%FSLAX46Y46*%
G04 Gerber Fmt 4.6, Leading zero omitted, Abs format (unit mm)*
G04 Created by KiCad (PCBNEW 9.0.0) date 2026-01-14 01:15:15*
%MOMM*%
%LPD*%
G01*
G04 APERTURE LIST*
G04 Aperture macros list*
%AMRoundRect*
0 Rectangle with rounded corners*
0 $1 Rounding radius*
0 $2 $3 $4 $5 $6 $7 $8 $9 X,Y pos of 4 corners*
0 Add a 4 corners polygon primitive as box body*
4,1,4,$2,$3,$4,$5,$6,$7,$8,$9,$2,$3,0*
0 Add four circle primitives for the rounded corners*
1,1,$1+$1,$2,$3*
1,1,$1+$1,$4,$5*
1,1,$1+$1,$6,$7*
1,1,$1+$1,$8,$9*
0 Add four rect primitives between the rounded corners*
20,1,$1+$1,$2,$3,$4,$5,0*
20,1,$1+$1,$4,$5,$6,$7,0*
20,1,$1+$1,$6,$7,$8,$9,0*
20,1,$1+$1,$8,$9,$2,$3,0*%
G04 Aperture macros list end*
%TA.AperFunction,EtchedComponent*%
%ADD10C,0.010000*%
%TD*%
%TA.AperFunction,SMDPad,CuDef*%
%ADD11R,1.900000X2.450000*%
%TD*%
%TA.AperFunction,SMDPad,CuDef*%
%ADD12R,0.410000X0.500000*%
%TD*%
%TA.AperFunction,SMDPad,CuDef*%
%ADD13R,0.630000X0.500000*%
%TD*%
%TA.AperFunction,ComponentPad*%
%ADD14R,1.431000X1.431000*%
%TD*%
%TA.AperFunction,ComponentPad*%
%ADD15C,1.431000*%
%TD*%
%TA.AperFunction,ComponentPad*%
%ADD16C,3.390000*%
%TD*%
%TA.AperFunction,ComponentPad*%
%ADD17C,0.648000*%
%TD*%
%TA.AperFunction,ComponentPad*%
%ADD18C,1.300000*%
%TD*%
%TA.AperFunction,SMDPad,CuDef*%
%ADD19RoundRect,0.250000X0.450000X-0.350000X0.450000X0.350000X-0.450000X0.350000X-0.450000X-0.350000X0*%
%TD*%
%TA.AperFunction,SMDPad,CuDef*%
%ADD20RoundRect,0.250001X-0.624999X0.462499X-0.624999X-0.462499X0.624999X-0.462499X0.624999X0.462499X0*%
%TD*%
%TA.AperFunction,ComponentPad*%
%ADD21R,1.350000X1.350000*%
%TD*%
%TA.AperFunction,ComponentPad*%
%ADD22O,1.350000X1.350000*%
%TD*%
%TA.AperFunction,SMDPad,CuDef*%
%ADD23RoundRect,0.150000X-0.512500X-0.150000X0.512500X-0.150000X0.512500X0.150000X-0.512500X0.150000X0*%
%TD*%
%TA.AperFunction,SMDPad,CuDef*%
%ADD24RoundRect,0.250001X0.624999X-0.462499X0.624999X0.462499X-0.624999X0.462499X-0.624999X-0.462499X0*%
%TD*%
%TA.AperFunction,SMDPad,CuDef*%
%ADD25RoundRect,0.250000X0.337500X0.475000X-0.337500X0.475000X-0.337500X-0.475000X0.337500X-0.475000X0*%
%TD*%
%TA.AperFunction,SMDPad,CuDef*%
%ADD26RoundRect,0.070000X0.070000X0.355000X-0.070000X0.355000X-0.070000X-0.355000X0.070000X-0.355000X0*%
%TD*%
%TA.AperFunction,SMDPad,CuDef*%
%ADD27RoundRect,0.070000X0.070000X0.305000X-0.070000X0.305000X-0.070000X-0.305000X0.070000X-0.305000X0*%
%TD*%
%TA.AperFunction,SMDPad,CuDef*%
%ADD28R,1.700000X0.800000*%
%TD*%
%TA.AperFunction,SMDPad,CuDef*%
%ADD29RoundRect,0.237500X0.237500X-0.250000X0.237500X0.250000X-0.237500X0.250000X-0.237500X-0.250000X0*%
%TD*%
%TA.AperFunction,SMDPad,CuDef*%
%ADD30RoundRect,0.250000X0.400000X0.625000X-0.400000X0.625000X-0.400000X-0.625000X0.400000X-0.625000X0*%
%TD*%
%TA.AperFunction,ViaPad*%
%ADD31C,0.600000*%
%TD*%
%TA.AperFunction,Conductor*%
%ADD32C,0.200000*%
%TD*%
%TA.AperFunction,Conductor*%
%ADD33C,0.600000*%
%TD*%
%TA.AperFunction,Conductor*%
%ADD34C,0.400000*%
%TD*%
%TA.AperFunction,Conductor*%
%ADD35C,0.500000*%
%TD*%
%TA.AperFunction,Conductor*%
%ADD36C,0.300000*%
%TD*%
G04 APERTURE END LIST*
D10*
%TO.C,J2*%
X118484020Y-116030890D02*
X118517940Y-116033560D01*
X118551680Y-116038000D01*
X118585140Y-116044200D01*
X118618230Y-116052150D01*
X118650860Y-116061810D01*
X118682940Y-116073170D01*
X118714380Y-116086200D01*
X118745090Y-116100850D01*
X118775000Y-116117080D01*
X118804020Y-116134860D01*
X118832060Y-116154140D01*
X118859060Y-116174860D01*
X118884930Y-116196960D01*
X118909620Y-116220380D01*
X118933040Y-116245070D01*
X118955140Y-116270940D01*
X118975860Y-116297940D01*
X118995140Y-116325980D01*
X119012920Y-116355000D01*
X119029150Y-116384910D01*
X119043800Y-116415620D01*
X119056830Y-116447060D01*
X119068190Y-116479140D01*
X119077850Y-116511770D01*
X119085800Y-116544860D01*
X119092000Y-116578320D01*
X119096440Y-116612060D01*
X119099110Y-116645980D01*
X119100000Y-116680000D01*
X119099110Y-116714020D01*
X119096440Y-116747940D01*
X119092000Y-116781680D01*
X119085800Y-116815140D01*
X119077850Y-116848230D01*
X119068190Y-116880860D01*
X119056830Y-116912940D01*
X119043800Y-116944380D01*
X119029150Y-116975090D01*
X119012920Y-117005000D01*
X118995140Y-117034020D01*
X118975860Y-117062060D01*
X118955140Y-117089060D01*
X118933040Y-117114930D01*
X118909620Y-117139620D01*
X118884930Y-117163040D01*
X118859060Y-117185140D01*
X118832060Y-117205860D01*
X118804020Y-117225140D01*
X118775000Y-117242920D01*
X118745090Y-117259150D01*
X118714380Y-117273800D01*
X118682940Y-117286830D01*
X118650860Y-117298190D01*
X118618230Y-117307850D01*
X118585140Y-117315800D01*
X118551680Y-117322000D01*
X118517940Y-117326440D01*
X118484020Y-117329110D01*
X118450000Y-117330000D01*
X117250000Y-117330000D01*
X117215980Y-117329110D01*
X117182060Y-117326440D01*
X117148320Y-117322000D01*
X117114860Y-117315800D01*
X117081770Y-117307850D01*
X117049140Y-117298190D01*
X117017060Y-117286830D01*
X116985620Y-117273800D01*
X116954910Y-117259150D01*
X116925000Y-117242920D01*
X116895980Y-117225140D01*
X116867940Y-117205860D01*
X116840940Y-117185140D01*
X116815070Y-117163040D01*
X116790380Y-117139620D01*
X116766960Y-117114930D01*
X116744860Y-117089060D01*
X116724140Y-117062060D01*
X116704860Y-117034020D01*
X116687080Y-117005000D01*
X116670850Y-116975090D01*
X116656200Y-116944380D01*
X116643170Y-116912940D01*
X116631810Y-116880860D01*
X116622150Y-116848230D01*
X116614200Y-116815140D01*
X116608000Y-116781680D01*
X116603560Y-116747940D01*
X116600890Y-116714020D01*
X116600000Y-116680000D01*
X116600890Y-116645980D01*
X116603560Y-116612060D01*
X116608000Y-116578320D01*
X116614200Y-116544860D01*
X116622150Y-116511770D01*
X116631810Y-116479140D01*
X116643170Y-116447060D01*
X116656200Y-116415620D01*
X116670850Y-116384910D01*
X116687080Y-116355000D01*
X116704860Y-116325980D01*
X116724140Y-116297940D01*
X116744860Y-116270940D01*
X116766960Y-116245070D01*
X116790380Y-116220380D01*
X116815070Y-116196960D01*
X116840940Y-116174860D01*
X116867940Y-116154140D01*
X116895980Y-116134860D01*
X116925000Y-116117080D01*
X116954910Y-116100850D01*
X116985620Y-116086200D01*
X117017060Y-116073170D01*
X117049140Y-116061810D01*
X117081770Y-116052150D01*
X117114860Y-116044200D01*
X117148320Y-116038000D01*
X117182060Y-116033560D01*
X117215980Y-116030890D01*
X117250000Y-116030000D01*
X118450000Y-116030000D01*
X118484020Y-116030890D01*
X118484020Y-124670890D02*
X118517940Y-124673560D01*
X118551680Y-124678000D01*
X118585140Y-124684200D01*
X118618230Y-124692150D01*
X118650860Y-124701810D01*
X118682940Y-124713170D01*
X118714380Y-124726200D01*
X118745090Y-124740850D01*
X118775000Y-124757080D01*
X118804020Y-124774860D01*
X118832060Y-124794140D01*
X118859060Y-124814860D01*
X118884930Y-124836960D01*
X118909620Y-124860380D01*
X118933040Y-124885070D01*
X118955140Y-124910940D01*
X118975860Y-124937940D01*
X118995140Y-124965980D01*
X119012920Y-124995000D01*
X119029150Y-125024910D01*
X119043800Y-125055620D01*
X119056830Y-125087060D01*
X119068190Y-125119140D01*
X119077850Y-125151770D01*
X119085800Y-125184860D01*
X119092000Y-125218320D01*
X119096440Y-125252060D01*
X119099110Y-125285980D01*
X119100000Y-125320000D01*
X119099110Y-125354020D01*
X119096440Y-125387940D01*
X119092000Y-125421680D01*
X119085800Y-125455140D01*
X119077850Y-125488230D01*
X119068190Y-125520860D01*
X119056830Y-125552940D01*
X119043800Y-125584380D01*
X119029150Y-125615090D01*
X119012920Y-125645000D01*
X118995140Y-125674020D01*
X118975860Y-125702060D01*
X118955140Y-125729060D01*
X118933040Y-125754930D01*
X118909620Y-125779620D01*
X118884930Y-125803040D01*
X118859060Y-125825140D01*
X118832060Y-125845860D01*
X118804020Y-125865140D01*
X118775000Y-125882920D01*
X118745090Y-125899150D01*
X118714380Y-125913800D01*
X118682940Y-125926830D01*
X118650860Y-125938190D01*
X118618230Y-125947850D01*
X118585140Y-125955800D01*
X118551680Y-125962000D01*
X118517940Y-125966440D01*
X118484020Y-125969110D01*
X118450000Y-125970000D01*
X117250000Y-125970000D01*
X117215980Y-125969110D01*
X117182060Y-125966440D01*
X117148320Y-125962000D01*
X117114860Y-125955800D01*
X117081770Y-125947850D01*
X117049140Y-125938190D01*
X117017060Y-125926830D01*
X116985620Y-125913800D01*
X116954910Y-125899150D01*
X116925000Y-125882920D01*
X116895980Y-125865140D01*
X116867940Y-125845860D01*
X116840940Y-125825140D01*
X116815070Y-125803040D01*
X116790380Y-125779620D01*
X116766960Y-125754930D01*
X116744860Y-125729060D01*
X116724140Y-125702060D01*
X116704860Y-125674020D01*
X116687080Y-125645000D01*
X116670850Y-125615090D01*
X116656200Y-125584380D01*
X116643170Y-125552940D01*
X116631810Y-125520860D01*
X116622150Y-125488230D01*
X116614200Y-125455140D01*
X116608000Y-125421680D01*
X116603560Y-125387940D01*
X116600890Y-125354020D01*
X116600000Y-125320000D01*
X116600890Y-125285980D01*
X116603560Y-125252060D01*
X116608000Y-125218320D01*
X116614200Y-125184860D01*
X116622150Y-125151770D01*
X116631810Y-125119140D01*
X116643170Y-125087060D01*
X116656200Y-125055620D01*
X116670850Y-125024910D01*
X116687080Y-124995000D01*
X116704860Y-124965980D01*
X116724140Y-124937940D01*
X116744860Y-124910940D01*
X116766960Y-124885070D01*
X116790380Y-124860380D01*
X116815070Y-124836960D01*
X116840940Y-124814860D01*
X116867940Y-124794140D01*
X116895980Y-124774860D01*
X116925000Y-124757080D01*
X116954910Y-124740850D01*
X116985620Y-124726200D01*
X117017060Y-124713170D01*
X117049140Y-124701810D01*
X117081770Y-124692150D01*
X117114860Y-124684200D01*
X117148320Y-124678000D01*
X117182060Y-124673560D01*
X117215980Y-124670890D01*
X117250000Y-124670000D01*
X118450000Y-124670000D01*
X118484020Y-124670890D01*
X123134020Y-116030890D02*
X123167940Y-116033560D01*
X123201680Y-116038000D01*
X123235140Y-116044200D01*
X123268230Y-116052150D01*
X123300860Y-116061810D01*
X123332940Y-116073170D01*
X123364380Y-116086200D01*
X123395090Y-116100850D01*
X123425000Y-116117080D01*
X123454020Y-116134860D01*
X123482060Y-116154140D01*
X123509060Y-116174860D01*
X123534930Y-116196960D01*
X123559620Y-116220380D01*
X123583040Y-116245070D01*
X123605140Y-116270940D01*
X123625860Y-116297940D01*
X123645140Y-116325980D01*
X123662920Y-116355000D01*
X123679150Y-116384910D01*
X123693800Y-116415620D01*
X123706830Y-116447060D01*
X123718190Y-116479140D01*
X123727850Y-116511770D01*
X123735800Y-116544860D01*
X123742000Y-116578320D01*
X123746440Y-116612060D01*
X123749110Y-116645980D01*
X123750000Y-116680000D01*
X123749110Y-116714020D01*
X123746440Y-116747940D01*
X123742000Y-116781680D01*
X123735800Y-116815140D01*
X123727850Y-116848230D01*
X123718190Y-116880860D01*
X123706830Y-116912940D01*
X123693800Y-116944380D01*
X123679150Y-116975090D01*
X123662920Y-117005000D01*
X123645140Y-117034020D01*
X123625860Y-117062060D01*
X123605140Y-117089060D01*
X123583040Y-117114930D01*
X123559620Y-117139620D01*
X123534930Y-117163040D01*
X123509060Y-117185140D01*
X123482060Y-117205860D01*
X123454020Y-117225140D01*
X123425000Y-117242920D01*
X123395090Y-117259150D01*
X123364380Y-117273800D01*
X123332940Y-117286830D01*
X123300860Y-117298190D01*
X123268230Y-117307850D01*
X123235140Y-117315800D01*
X123201680Y-117322000D01*
X123167940Y-117326440D01*
X123134020Y-117329110D01*
X123100000Y-117330000D01*
X121200000Y-117330000D01*
X121165980Y-117329110D01*
X121132060Y-117326440D01*
X121098320Y-117322000D01*
X121064860Y-117315800D01*
X121031770Y-117307850D01*
X120999140Y-117298190D01*
X120967060Y-117286830D01*
X120935620Y-117273800D01*
X120904910Y-117259150D01*
X120875000Y-117242920D01*
X120845980Y-117225140D01*
X120817940Y-117205860D01*
X120790940Y-117185140D01*
X120765070Y-117163040D01*
X120740380Y-117139620D01*
X120716960Y-117114930D01*
X120694860Y-117089060D01*
X120674140Y-117062060D01*
X120654860Y-117034020D01*
X120637080Y-117005000D01*
X120620850Y-116975090D01*
X120606200Y-116944380D01*
X120593170Y-116912940D01*
X120581810Y-116880860D01*
X120572150Y-116848230D01*
X120564200Y-116815140D01*
X120558000Y-116781680D01*
X120553560Y-116747940D01*
X120550890Y-116714020D01*
X120550000Y-116680000D01*
X120550890Y-116645980D01*
X120553560Y-116612060D01*
X120558000Y-116578320D01*
X120564200Y-116544860D01*
X120572150Y-116511770D01*
X120581810Y-116479140D01*
X120593170Y-116447060D01*
X120606200Y-116415620D01*
X120620850Y-116384910D01*
X120637080Y-116355000D01*
X120654860Y-116325980D01*
X120674140Y-116297940D01*
X120694860Y-116270940D01*
X120716960Y-116245070D01*
X120740380Y-116220380D01*
X120765070Y-116196960D01*
X120790940Y-116174860D01*
X120817940Y-116154140D01*
X120845980Y-116134860D01*
X120875000Y-116117080D01*
X120904910Y-116100850D01*
X120935620Y-116086200D01*
X120967060Y-116073170D01*
X120999140Y-116061810D01*
X121031770Y-116052150D01*
X121064860Y-116044200D01*
X121098320Y-116038000D01*
X121132060Y-116033560D01*
X121165980Y-116030890D01*
X121200000Y-116030000D01*
X123100000Y-116030000D01*
X123134020Y-116030890D01*
X123134020Y-124670890D02*
X123167940Y-124673560D01*
X123201680Y-124678000D01*
X123235140Y-124684200D01*
X123268230Y-124692150D01*
X123300860Y-124701810D01*
X123332940Y-124713170D01*
X123364380Y-124726200D01*
X123395090Y-124740850D01*
X123425000Y-124757080D01*
X123454020Y-124774860D01*
X123482060Y-124794140D01*
X123509060Y-124814860D01*
X123534930Y-124836960D01*
X123559620Y-124860380D01*
X123583040Y-124885070D01*
X123605140Y-124910940D01*
X123625860Y-124937940D01*
X123645140Y-124965980D01*
X123662920Y-124995000D01*
X123679150Y-125024910D01*
X123693800Y-125055620D01*
X123706830Y-125087060D01*
X123718190Y-125119140D01*
X123727850Y-125151770D01*
X123735800Y-125184860D01*
X123742000Y-125218320D01*
X123746440Y-125252060D01*
X123749110Y-125285980D01*
X123750000Y-125320000D01*
X123749110Y-125354020D01*
X123746440Y-125387940D01*
X123742000Y-125421680D01*
X123735800Y-125455140D01*
X123727850Y-125488230D01*
X123718190Y-125520860D01*
X123706830Y-125552940D01*
X123693800Y-125584380D01*
X123679150Y-125615090D01*
X123662920Y-125645000D01*
X123645140Y-125674020D01*
X123625860Y-125702060D01*
X123605140Y-125729060D01*
X123583040Y-125754930D01*
X123559620Y-125779620D01*
X123534930Y-125803040D01*
X123509060Y-125825140D01*
X123482060Y-125845860D01*
X123454020Y-125865140D01*
X123425000Y-125882920D01*
X123395090Y-125899150D01*
X123364380Y-125913800D01*
X123332940Y-125926830D01*
X123300860Y-125938190D01*
X123268230Y-125947850D01*
X123235140Y-125955800D01*
X123201680Y-125962000D01*
X123167940Y-125966440D01*
X123134020Y-125969110D01*
X123100000Y-125970000D01*
X121200000Y-125970000D01*
X121165980Y-125969110D01*
X121132060Y-125966440D01*
X121098320Y-125962000D01*
X121064860Y-125955800D01*
X121031770Y-125947850D01*
X120999140Y-125938190D01*
X120967060Y-125926830D01*
X120935620Y-125913800D01*
X120904910Y-125899150D01*
X120875000Y-125882920D01*
X120845980Y-125865140D01*
X120817940Y-125845860D01*
X120790940Y-125825140D01*
X120765070Y-125803040D01*
X120740380Y-125779620D01*
X120716960Y-125754930D01*
X120694860Y-125729060D01*
X120674140Y-125702060D01*
X120654860Y-125674020D01*
X120637080Y-125645000D01*
X120620850Y-125615090D01*
X120606200Y-125584380D01*
X120593170Y-125552940D01*
X120581810Y-125520860D01*
X120572150Y-125488230D01*
X120564200Y-125455140D01*
X120558000Y-125421680D01*
X120553560Y-125387940D01*
X120550890Y-125354020D01*
X120550000Y-125320000D01*
X120550890Y-125285980D01*
X120553560Y-125252060D01*
X120558000Y-125218320D01*
X120564200Y-125184860D01*
X120572150Y-125151770D01*
X120581810Y-125119140D01*
X120593170Y-125087060D01*
X120606200Y-125055620D01*
X120620850Y-125024910D01*
X120637080Y-124995000D01*
X120654860Y-124965980D01*
X120674140Y-124937940D01*
X120694860Y-124910940D01*
X120716960Y-124885070D01*
X120740380Y-124860380D01*
X120765070Y-124836960D01*
X120790940Y-124814860D01*
X120817940Y-124794140D01*
X120845980Y-124774860D01*
X120875000Y-124757080D01*
X120904910Y-124740850D01*
X120935620Y-124726200D01*
X120967060Y-124713170D01*
X120999140Y-124701810D01*
X121031770Y-124692150D01*
X121064860Y-124684200D01*
X121098320Y-124678000D01*
X121132060Y-124673560D01*
X121165980Y-124670890D01*
X121200000Y-124670000D01*
X123100000Y-124670000D01*
X123134020Y-124670890D01*
%TD*%
D11*
%TO.P,Q3,9*%
%TO.N,/BMS/PowerNodeBMS*%
X150390000Y-99700000D03*
D12*
%TO.P,Q3,8,D_4*%
X151545000Y-100675000D03*
%TO.P,Q3,7,D_3*%
X151545000Y-100025000D03*
%TO.P,Q3,6,D_2*%
X151545000Y-99375000D03*
%TO.P,Q3,5,D_1*%
X151545000Y-98725000D03*
D13*
%TO.P,Q3,4,G*%
%TO.N,Net-(Q3-G)*%
X148565000Y-98725000D03*
%TO.P,Q3,3,S_3*%
%TO.N,GND*%
X148565000Y-99375000D03*
%TO.P,Q3,2,S_2*%
X148565000Y-100025000D03*
%TO.P,Q3,1,S_1*%
X148565000Y-100675000D03*
%TD*%
D14*
%TO.P,J1,1,VCC*%
%TO.N,/PD_Control/VBUSA1*%
X127000000Y-95000000D03*
D15*
%TO.P,J1,2,D-*%
%TO.N,/PD_Control/D-*%
X127000000Y-97500000D03*
%TO.P,J1,3,D+*%
%TO.N,/PD_Control/D+*%
X127000000Y-99500000D03*
%TO.P,J1,4,GND*%
%TO.N,GND*%
X127000000Y-102000000D03*
D16*
%TO.P,J1,5,MH1*%
X124290000Y-91930000D03*
%TO.P,J1,6,MH2*%
X124290000Y-105070000D03*
%TD*%
D17*
%TO.P,J2,A1,GND1*%
%TO.N,GND*%
X122650000Y-118025000D03*
%TO.P,J2,A4,VBUS1*%
%TO.N,/PD_Control/VBUSC*%
X122650000Y-118875000D03*
%TO.P,J2,A5,CC1*%
%TO.N,/PD_Control/CC1*%
X122650000Y-119725000D03*
%TO.P,J2,A6,DA+*%
%TO.N,/PD_Control/D1+*%
X122650000Y-120575000D03*
%TO.P,J2,A7,DA-*%
%TO.N,/PD_Control/D1-*%
X122650000Y-121425000D03*
%TO.P,J2,A8,SBU1*%
%TO.N,unconnected-(J2-SBU1-PadA8)*%
X122650000Y-122275000D03*
%TO.P,J2,A9,VBUS2*%
%TO.N,/PD_Control/VBUSC*%
X122650000Y-123125000D03*
%TO.P,J2,A12,GND2*%
%TO.N,GND*%
X122650000Y-123975000D03*
%TO.P,J2,B1,GND3*%
X121300000Y-123975000D03*
%TO.P,J2,B4,VBUS3*%
%TO.N,/PD_Control/VBUSC*%
X121300000Y-123125000D03*
%TO.P,J2,B5,CC2*%
%TO.N,/PD_Control/CC2*%
X121300000Y-122275000D03*
%TO.P,J2,B6,DB+*%
%TO.N,/PD_Control/D1+*%
X121300000Y-121425000D03*
%TO.P,J2,B7,DB-*%
%TO.N,/PD_Control/D1-*%
X121300000Y-120575000D03*
%TO.P,J2,B8,SBU2*%
%TO.N,unconnected-(J2-SBU2-PadB8)*%
X121300000Y-119725000D03*
%TO.P,J2,B9,VBUS4*%
%TO.N,/PD_Control/VBUSC*%
X121300000Y-118875000D03*
%TO.P,J2,B12,GND4*%
%TO.N,GND*%
X121300000Y-118025000D03*
D18*
%TO.P,J2,SH1,SHIELD1*%
X118000000Y-116680000D03*
%TO.P,J2,SH2,SHIELD2*%
X118000000Y-125320000D03*
%TO.P,J2,SH3,SHIELD3*%
X122150000Y-116680000D03*
%TO.P,J2,SH4,SHIELD4*%
X122150000Y-125320000D03*
%TD*%
D19*
%TO.P,R4,1*%
%TO.N,Net-(D1-A)*%
X145750000Y-122500000D03*
%TO.P,R4,2*%
%TO.N,/PD_Control/VCC*%
X145750000Y-120500000D03*
%TD*%
D20*
%TO.P,D3,1,K*%
%TO.N,Net-(D2-A)*%
X133000000Y-126512500D03*
%TO.P,D3,2,A*%
%TO.N,/PD_Control/DLED1*%
X133000000Y-129487500D03*
%TD*%
D21*
%TO.P,TP1,1,1*%
%TO.N,GND*%
X149750000Y-117300000D03*
D22*
%TO.P,TP1,2,2*%
%TO.N,Net-(IC1-NTC)*%
X149750000Y-115300000D03*
%TD*%
D23*
%TO.P,U1,1,I/O1*%
%TO.N,/PD_Control/D1-*%
X128862500Y-121950000D03*
%TO.P,U1,2,GND*%
%TO.N,GND*%
X128862500Y-121000000D03*
%TO.P,U1,3,I/O2*%
%TO.N,/PD_Control/D1+*%
X128862500Y-120050000D03*
%TO.P,U1,4,I/O2*%
%TO.N,/PD_Control/DC+*%
X131137500Y-120050000D03*
%TO.P,U1,5,VBUS*%
%TO.N,/PD_Control/VBUSC*%
X131137500Y-121000000D03*
%TO.P,U1,6,I/O1*%
%TO.N,/PD_Control/DC-*%
X131137500Y-121950000D03*
%TD*%
D24*
%TO.P,D6,1,K*%
%TO.N,/PD_Control/DLED1*%
X148000000Y-129487500D03*
%TO.P,D6,2,A*%
%TO.N,Net-(D6-A)*%
X148000000Y-126512500D03*
%TD*%
%TO.P,D2,1,K*%
%TO.N,/PD_Control/DLED1*%
X128000000Y-129487500D03*
%TO.P,D2,2,A*%
%TO.N,Net-(D2-A)*%
X128000000Y-126512500D03*
%TD*%
D19*
%TO.P,R6,1*%
%TO.N,+BATT*%
X155500000Y-92000000D03*
%TO.P,R6,2*%
%TO.N,Net-(U3-BAT)*%
X155500000Y-90000000D03*
%TD*%
D25*
%TO.P,C12,1*%
%TO.N,Net-(U3-BAT)*%
X150000000Y-88500000D03*
%TO.P,C12,2*%
%TO.N,/BMS/B-*%
X147925000Y-88500000D03*
%TD*%
D24*
%TO.P,D4,1,K*%
%TO.N,/PD_Control/DLED1*%
X138000000Y-129487500D03*
%TO.P,D4,2,A*%
%TO.N,Net-(D4-A)*%
X138000000Y-126512500D03*
%TD*%
D26*
%TO.P,U3,1,NC*%
%TO.N,unconnected-(U3-NC-Pad1)*%
X150500000Y-92025000D03*
D27*
%TO.P,U3,2,Cout*%
%TO.N,Net-(Q3-G)*%
X150000000Y-92075000D03*
%TO.P,U3,3,Dout*%
%TO.N,Net-(Q4-G)*%
X149500000Y-92075000D03*
%TO.P,U3,4,VSS*%
%TO.N,/BMS/B-*%
X149500000Y-90925000D03*
%TO.P,U3,5,BAT*%
%TO.N,Net-(U3-BAT)*%
X150000000Y-90925000D03*
%TO.P,U3,6,V-*%
%TO.N,Net-(U3-V-)*%
X150500000Y-90925000D03*
%TD*%
D28*
%TO.P,S1,1,COM*%
%TO.N,Net-(IC1-KEY{slash}GSET{slash}IDA1)*%
X150000000Y-119300000D03*
%TO.P,S1,2,NO*%
%TO.N,GND*%
X150000000Y-122700000D03*
%TD*%
D23*
%TO.P,U2,1,I/O1*%
%TO.N,/PD_Control/D+*%
X133862500Y-99450000D03*
%TO.P,U2,2,GND*%
%TO.N,GND*%
X133862500Y-98500000D03*
%TO.P,U2,3,I/O2*%
%TO.N,/PD_Control/D-*%
X133862500Y-97550000D03*
%TO.P,U2,4,I/O2*%
%TO.N,/PD_Control/DA-*%
X136137500Y-97550000D03*
%TO.P,U2,5,VBUS*%
%TO.N,/PD_Control/VBUSA1*%
X136137500Y-98500000D03*
%TO.P,U2,6,I/O1*%
%TO.N,/PD_Control/DA+*%
X136137500Y-99450000D03*
%TD*%
D20*
%TO.P,D5,1,K*%
%TO.N,Net-(D4-A)*%
X143000000Y-126512500D03*
%TO.P,D5,2,A*%
%TO.N,/PD_Control/DLED1*%
X143000000Y-129487500D03*
%TD*%
D29*
%TO.P,R7,1*%
%TO.N,Net-(U3-V-)*%
X152250000Y-90925000D03*
%TO.P,R7,2*%
%TO.N,GND*%
X152250000Y-89100000D03*
%TD*%
D20*
%TO.P,D1,1,K*%
%TO.N,Net-(D1-K)*%
X143000000Y-119512500D03*
%TO.P,D1,2,A*%
%TO.N,Net-(D1-A)*%
X143000000Y-122487500D03*
%TD*%
D30*
%TO.P,R9,1*%
%TO.N,Net-(Q3-G)*%
X148550000Y-96500000D03*
%TO.P,R9,2*%
%TO.N,GND*%
X145450000Y-96500000D03*
%TD*%
D31*
%TO.N,GND*%
X143000000Y-109000000D03*
X142000000Y-111000000D03*
X143000000Y-110000000D03*
X144000000Y-111000000D03*
X142000000Y-109000000D03*
X144000000Y-110000000D03*
X143000000Y-111000000D03*
X144000000Y-109000000D03*
X142000000Y-110000000D03*
%TO.N,+BATT*%
X152500000Y-95500000D03*
X152500000Y-96500000D03*
%TO.N,GND*%
X139500000Y-105500000D03*
X130000000Y-82500000D03*
X147500000Y-85000000D03*
X132500000Y-82500000D03*
X127500000Y-82500000D03*
X135000000Y-127500000D03*
X122500000Y-97500000D03*
X137500000Y-113500000D03*
X130000000Y-102500000D03*
X141000000Y-122500000D03*
X117500000Y-112500000D03*
X155000000Y-125000000D03*
X127500000Y-112500000D03*
X122500000Y-100000000D03*
X132500000Y-125000000D03*
X135500000Y-117500000D03*
X145000000Y-102500000D03*
X125000000Y-116000000D03*
X120000000Y-112500000D03*
X117500000Y-110000000D03*
X145500000Y-95000000D03*
X157500000Y-117500000D03*
X120000000Y-82500000D03*
X132500000Y-90000000D03*
X140000000Y-92500000D03*
X140000000Y-95000000D03*
X134500000Y-117500000D03*
X137500000Y-117000000D03*
X152500000Y-105000000D03*
X117500000Y-120000000D03*
X147000000Y-118500000D03*
X127500000Y-107500000D03*
X152500000Y-82500000D03*
X125000000Y-132500000D03*
X145000000Y-125000000D03*
X153500000Y-116000000D03*
X145000000Y-82500000D03*
X130000000Y-125000000D03*
X144000000Y-91000000D03*
X157500000Y-110000000D03*
X150500000Y-97500000D03*
X155000000Y-102500000D03*
X127500000Y-117500000D03*
X120000000Y-115000000D03*
X125000000Y-130000000D03*
X117500000Y-85000000D03*
X132500000Y-102500000D03*
X132500000Y-132500000D03*
X139500000Y-115000000D03*
X135000000Y-122500000D03*
X120000000Y-85000000D03*
X153500000Y-114000000D03*
X125000000Y-112500000D03*
X157500000Y-107500000D03*
X157500000Y-112500000D03*
X153500000Y-120000000D03*
X135000000Y-132500000D03*
X137500000Y-82500000D03*
X132500000Y-98500000D03*
X127500000Y-92500000D03*
X130000000Y-97500000D03*
X142500000Y-82500000D03*
X157500000Y-120000000D03*
X125000000Y-125000000D03*
X140000000Y-82500000D03*
X149000000Y-107500000D03*
X125000000Y-95000000D03*
X122500000Y-82500000D03*
X117500000Y-107500000D03*
X117500000Y-115000000D03*
X157500000Y-125000000D03*
X130000000Y-105000000D03*
X150000000Y-82500000D03*
X147500000Y-82500000D03*
X150500000Y-96500000D03*
X157500000Y-105000000D03*
X138000000Y-115500000D03*
X130000000Y-92500000D03*
X155000000Y-82500000D03*
X145500000Y-98500000D03*
X125000000Y-82500000D03*
X117500000Y-87500000D03*
X135000000Y-82500000D03*
X139500000Y-106500000D03*
X125000000Y-100000000D03*
X147000000Y-124000000D03*
X120000000Y-122500000D03*
X125000000Y-127500000D03*
X147500000Y-119500000D03*
X117500000Y-122500000D03*
X157500000Y-115000000D03*
X157500000Y-82500000D03*
X139500000Y-113000000D03*
X122500000Y-102500000D03*
X145000000Y-85000000D03*
X157500000Y-122500000D03*
X145500000Y-91500000D03*
X125000000Y-102500000D03*
X122500000Y-95000000D03*
X125000000Y-97500000D03*
X122500000Y-112500000D03*
X140000000Y-125000000D03*
X139500000Y-122500000D03*
X125000000Y-107500000D03*
X120000000Y-110000000D03*
X130000000Y-90000000D03*
X153500000Y-108000000D03*
X130000000Y-127500000D03*
X147000000Y-125000000D03*
X153500000Y-112000000D03*
X139500000Y-104500000D03*
X120000000Y-125000000D03*
X127500000Y-90000000D03*
X142500000Y-125000000D03*
X157500000Y-102500000D03*
X137500000Y-92500000D03*
X150000000Y-102500000D03*
X130000000Y-132500000D03*
X127500000Y-132500000D03*
X155000000Y-122500000D03*
X146000000Y-106500000D03*
X153500000Y-118000000D03*
X117500000Y-132500000D03*
X135000000Y-125000000D03*
X122500000Y-127500000D03*
X117500000Y-130000000D03*
X117500000Y-127500000D03*
X135500000Y-116500000D03*
X135000000Y-105000000D03*
X132500000Y-100000000D03*
X130000000Y-100000000D03*
X127500000Y-105000000D03*
X117500000Y-82500000D03*
X122500000Y-132500000D03*
%TO.N,/PD_Control/VBUSC*%
X125500000Y-120000000D03*
X125250000Y-122250000D03*
X126250000Y-122250000D03*
X124250000Y-122250000D03*
X126250000Y-123250000D03*
X127000000Y-122750000D03*
X124500000Y-120000000D03*
X127400000Y-119250000D03*
X145542000Y-113919000D03*
X125500000Y-119250000D03*
X126500000Y-119250000D03*
X126500000Y-120000000D03*
X125250000Y-123250000D03*
X124250000Y-123250000D03*
%TO.N,/PD_Control/VBUSA1*%
X144600000Y-114350800D03*
X137490200Y-106832400D03*
X137500000Y-98500000D03*
%TO.N,/PD_Control/VOUTA1*%
X144820859Y-115759931D03*
X134500000Y-112500000D03*
X134500000Y-114500000D03*
X132500000Y-116500000D03*
X136994900Y-120256300D03*
X133500000Y-115500000D03*
X130922850Y-107115892D03*
X131500000Y-115500000D03*
X133500000Y-113500000D03*
X127922850Y-110115892D03*
X129922850Y-108115892D03*
X131922850Y-108115892D03*
X130500000Y-116500000D03*
X128922850Y-111115892D03*
X130922850Y-109115892D03*
X131500000Y-117500000D03*
X129922850Y-110115892D03*
X132500000Y-114500000D03*
X128922850Y-109115892D03*
X131922850Y-106115892D03*
%TO.N,/PD_Control/VCC*%
X149501600Y-112572800D03*
%TO.N,Net-(D1-K)*%
X149019000Y-109423200D03*
%TO.N,/PD_Control/DLED1*%
X147500000Y-103500000D03*
%TO.N,Net-(D6-A)*%
X149500000Y-105500000D03*
%TO.N,/PD_Control/DC+*%
X132562600Y-120050000D03*
%TO.N,/PD_Control/DA-*%
X138999200Y-110972600D03*
%TO.N,/PD_Control/GATEC*%
X129284700Y-117250000D03*
X129284700Y-114250000D03*
X129284700Y-113500000D03*
X129284700Y-116500000D03*
%TO.N,/PD_Control/GATEA1*%
X132308600Y-92684600D03*
X140599999Y-105841800D03*
X140599999Y-105105200D03*
X132308600Y-93421200D03*
%TO.N,Net-(IC1-KEY{slash}GSET{slash}IDA1)*%
X149275800Y-110998000D03*
%TO.N,/PD_Control/DC-*%
X136791735Y-110629735D03*
%TO.N,/PD_Control/DA+*%
X138313400Y-111429800D03*
%TO.N,Net-(Q4-G)*%
X149300000Y-94500000D03*
X149300000Y-93500000D03*
%TO.N,Net-(D2-A)*%
X147500000Y-104500000D03*
%TO.N,Net-(D4-A)*%
X148500000Y-105500000D03*
%TO.N,/BMS/B-*%
X151500000Y-85500000D03*
X150500000Y-85500000D03*
%TO.N,/BMS/PowerNodeBMS*%
X154250000Y-100500000D03*
X155500000Y-98500000D03*
X158000000Y-98500000D03*
X156750000Y-98500000D03*
X156750000Y-99500000D03*
X158000000Y-95500000D03*
X155500000Y-100500000D03*
X155500000Y-99500000D03*
X154250000Y-99500000D03*
X154250000Y-97500000D03*
X156750000Y-100500000D03*
X154250000Y-98500000D03*
X158000000Y-97500000D03*
X158000000Y-100500000D03*
X156750000Y-97500000D03*
X158000000Y-96500000D03*
X155500000Y-97500000D03*
X158000000Y-99500000D03*
%TD*%
D32*
%TO.N,Net-(U3-BAT)*%
X150000000Y-90925000D02*
X150000000Y-88500000D01*
%TO.N,Net-(D1-A)*%
X143012500Y-122500000D02*
X143000000Y-122487500D01*
X145750000Y-122500000D02*
X143012500Y-122500000D01*
D33*
%TO.N,+BATT*%
X152500000Y-93346600D02*
X153846600Y-92000000D01*
X152500000Y-96500000D02*
X152500000Y-93346600D01*
X153846600Y-92000000D02*
X155500000Y-92000000D01*
D34*
%TO.N,GND*%
X129997200Y-120370600D02*
X129997200Y-119507000D01*
X128862500Y-121000000D02*
X129367800Y-121000000D01*
D33*
X133862500Y-98500000D02*
X132537200Y-98500000D01*
D34*
X129367800Y-121000000D02*
X129997200Y-120370600D01*
D35*
%TO.N,/PD_Control/VBUSC*%
X129608000Y-122750000D02*
X129616200Y-122758200D01*
D34*
X129997200Y-122377200D02*
X129997200Y-121386600D01*
X129616200Y-122758200D02*
X129997200Y-122377200D01*
D32*
X144754600Y-115163600D02*
X140792200Y-115163600D01*
X145542000Y-114376200D02*
X144754600Y-115163600D01*
X145542000Y-113919000D02*
X145542000Y-114376200D01*
D34*
X130383800Y-121000000D02*
X131137500Y-121000000D01*
D32*
X133205800Y-122750000D02*
X129624400Y-122750000D01*
D35*
X127000000Y-122750000D02*
X129608000Y-122750000D01*
D32*
X129624400Y-122750000D02*
X129616200Y-122758200D01*
D34*
X129997200Y-121386600D02*
X130383800Y-121000000D01*
D35*
X122650000Y-118875000D02*
X121300000Y-118875000D01*
X121300000Y-123125000D02*
X122650000Y-123125000D01*
D32*
X140792200Y-115163600D02*
X133205800Y-122750000D01*
%TO.N,/PD_Control/VBUSA1*%
X137490200Y-112064800D02*
X137490200Y-106832400D01*
X139776200Y-114350800D02*
X137490200Y-112064800D01*
X144600000Y-114350800D02*
X139776200Y-114350800D01*
D35*
X136137500Y-98500000D02*
X137500000Y-98500000D01*
D32*
%TO.N,/PD_Control/VOUTA1*%
X144820859Y-115759931D02*
X144502790Y-116078000D01*
X141173200Y-116078000D02*
X136994900Y-120256300D01*
X144502790Y-116078000D02*
X141173200Y-116078000D01*
%TO.N,/PD_Control/VCC*%
X148457600Y-115761500D02*
X148457600Y-113616800D01*
X145750000Y-120500000D02*
X145750000Y-118469100D01*
X145750000Y-118469100D02*
X148457600Y-115761500D01*
X148457600Y-113616800D02*
X149501600Y-112572800D01*
%TO.N,Net-(D1-K)*%
X148056600Y-110385600D02*
X149019000Y-109423200D01*
X148056600Y-115595400D02*
X148056600Y-110385600D01*
X144139500Y-119512500D02*
X148056600Y-115595400D01*
X143000000Y-119512500D02*
X144139500Y-119512500D01*
%TO.N,Net-(D1-A)*%
X142512500Y-122487500D02*
X142250000Y-122750000D01*
%TO.N,/PD_Control/DLED1*%
X148000000Y-129487500D02*
X152730200Y-124757300D01*
X152730200Y-107880257D02*
X148349943Y-103500000D01*
X148349943Y-103500000D02*
X147500000Y-103500000D01*
X152730200Y-124757300D02*
X152730200Y-107880257D01*
D35*
X128000000Y-129487500D02*
X148000000Y-129487500D01*
D32*
%TO.N,Net-(D6-A)*%
X150195100Y-126512500D02*
X152171400Y-124536200D01*
X152171400Y-108171400D02*
X149500000Y-105500000D01*
X148000000Y-126512500D02*
X150195100Y-126512500D01*
X152171400Y-124536200D02*
X152171400Y-108171400D01*
%TO.N,/PD_Control/DC+*%
X131137500Y-120050000D02*
X132562600Y-120050000D01*
%TO.N,/PD_Control/DA-*%
X136137500Y-97550000D02*
X137131251Y-97550000D01*
X137131251Y-97550000D02*
X137480251Y-97899000D01*
X138562343Y-103690855D02*
X138562343Y-110535743D01*
X139645600Y-99334462D02*
X139645600Y-102607598D01*
X137480251Y-97899000D02*
X137748943Y-97899000D01*
X137748943Y-97899000D02*
X138124943Y-98275000D01*
X138562343Y-110535743D02*
X138999200Y-110972600D01*
X139645600Y-102607598D02*
X138562343Y-103690855D01*
X138124943Y-98275000D02*
X138586138Y-98275000D01*
X138586138Y-98275000D02*
X139645600Y-99334462D01*
D33*
%TO.N,/PD_Control/GATEC*%
X129284700Y-113500000D02*
X129284700Y-117250000D01*
%TO.N,/PD_Control/GATEA1*%
X132308600Y-93421200D02*
X132308600Y-93675200D01*
X133146800Y-94513400D02*
X137058400Y-94513400D01*
X140599999Y-98054999D02*
X140599999Y-105841800D01*
X132308600Y-92684600D02*
X132308600Y-93421200D01*
X140599999Y-105105200D02*
X140599999Y-105841800D01*
X132308600Y-93675200D02*
X133146800Y-94513400D01*
X137058400Y-94513400D02*
X140599999Y-98054999D01*
D32*
%TO.N,Net-(IC1-KEY{slash}GSET{slash}IDA1)*%
X150000000Y-119300000D02*
X150774400Y-118525600D01*
X150774400Y-118525600D02*
X150774400Y-112496600D01*
X150774400Y-112496600D02*
X149275800Y-110998000D01*
%TO.N,/PD_Control/DC-*%
X136791735Y-110629735D02*
X136687800Y-110733670D01*
X136687800Y-118353600D02*
X133091400Y-121950000D01*
X136687800Y-110733670D02*
X136687800Y-118353600D01*
X133091400Y-121950000D02*
X131137500Y-121950000D01*
%TO.N,/PD_Control/DA+*%
X137131251Y-99450000D02*
X137480251Y-99101000D01*
X138110200Y-111226600D02*
X138313400Y-111429800D01*
X137480251Y-99101000D02*
X137748943Y-99101000D01*
X139195600Y-102421202D02*
X138110200Y-103506602D01*
X138399742Y-98725000D02*
X139195600Y-99520858D01*
X138110200Y-103506602D02*
X138110200Y-111226600D01*
X136137500Y-99450000D02*
X137131251Y-99450000D01*
X137748943Y-99101000D02*
X138124943Y-98725000D01*
X138124943Y-98725000D02*
X138399742Y-98725000D01*
X139195600Y-99520858D02*
X139195600Y-102421202D01*
%TO.N,/PD_Control/D+*%
X132251057Y-99101000D02*
X132519749Y-99101000D01*
X131875057Y-98725000D02*
X131899000Y-98748943D01*
X132519749Y-99101000D02*
X132868749Y-99450000D01*
X131899000Y-98748943D02*
X132251057Y-99101000D01*
X132868749Y-99450000D02*
X133862500Y-99450000D01*
X127775000Y-98725000D02*
X131875057Y-98725000D01*
X127000000Y-99500000D02*
X127775000Y-98725000D01*
%TO.N,/PD_Control/D-*%
X131875057Y-98275000D02*
X131899000Y-98251057D01*
X132251057Y-97899000D02*
X132275000Y-97899000D01*
X127775000Y-98275000D02*
X131875057Y-98275000D01*
X131899000Y-98251057D02*
X132251057Y-97899000D01*
X132519749Y-97899000D02*
X132868749Y-97550000D01*
X132275000Y-97899000D02*
X132288258Y-97899000D01*
X127000000Y-97500000D02*
X127775000Y-98275000D01*
X132868749Y-97550000D02*
X133862500Y-97550000D01*
X132288258Y-97899000D02*
X132519749Y-97899000D01*
%TO.N,/PD_Control/D1-*%
X122415600Y-121425000D02*
X122650000Y-121425000D01*
X127143749Y-121225000D02*
X127868749Y-121950000D01*
X127868749Y-121950000D02*
X128862500Y-121950000D01*
X122850000Y-121225000D02*
X127143749Y-121225000D01*
X122650000Y-121425000D02*
X122850000Y-121225000D01*
X121300000Y-120575000D02*
X121565600Y-120575000D01*
X121565600Y-120575000D02*
X122415600Y-121425000D01*
%TO.N,/PD_Control/D1+*%
X127143749Y-120775000D02*
X127868749Y-120050000D01*
X127868749Y-120050000D02*
X128862500Y-120050000D01*
X122850000Y-120775000D02*
X127143749Y-120775000D01*
X122650000Y-120575000D02*
X122850000Y-120775000D01*
D36*
%TO.N,Net-(Q3-G)*%
X148550000Y-96500000D02*
X150000000Y-95050000D01*
X150000000Y-95050000D02*
X150000000Y-92075000D01*
%TO.N,Net-(Q4-G)*%
X149500000Y-92511200D02*
X149300000Y-92711200D01*
D33*
X149300000Y-94500000D02*
X149300000Y-93500000D01*
D36*
X149300000Y-92711200D02*
X149300000Y-93500000D01*
X149500000Y-92075000D02*
X149500000Y-92511200D01*
D32*
%TO.N,Net-(U3-BAT)*%
X155500000Y-90000000D02*
X151500000Y-90000000D01*
X151500000Y-90000000D02*
X150000000Y-88500000D01*
%TO.N,Net-(U3-V-)*%
X152250000Y-90925000D02*
X150500000Y-90925000D01*
%TO.N,Net-(D2-A)*%
X133000000Y-126512500D02*
X133000000Y-125902200D01*
X146812000Y-105188000D02*
X147500000Y-104500000D01*
X144246600Y-117652800D02*
X146812000Y-115087400D01*
X146812000Y-115087400D02*
X146812000Y-105188000D01*
X133000000Y-125902200D02*
X141249400Y-117652800D01*
X141249400Y-117652800D02*
X144246600Y-117652800D01*
X133000000Y-126512500D02*
X128000000Y-126512500D01*
%TO.N,Net-(D4-A)*%
X141478000Y-118059200D02*
X144449800Y-118059200D01*
X144449800Y-118059200D02*
X147218400Y-115290600D01*
X143000000Y-126512500D02*
X138000000Y-126512500D01*
X138000000Y-126512500D02*
X138000000Y-121537200D01*
X138000000Y-121537200D02*
X141478000Y-118059200D01*
X147218400Y-115290600D02*
X147218400Y-106781600D01*
X147218400Y-106781600D02*
X148500000Y-105500000D01*
%TO.N,/BMS/B-*%
X149500000Y-90597400D02*
X149500000Y-90925000D01*
X150500000Y-85500000D02*
X150288200Y-85500000D01*
X147925000Y-89022400D02*
X149500000Y-90597400D01*
D33*
X151500000Y-85500000D02*
X150500000Y-85500000D01*
D32*
X147925000Y-87863200D02*
X147925000Y-88500000D01*
X147925000Y-88500000D02*
X147925000Y-89022400D01*
X150288200Y-85500000D02*
X147925000Y-87863200D01*
%TD*%
%TA.AperFunction,Conductor*%
%TO.N,/PD_Control/VOUTA1*%
G36*
X132328475Y-105162125D02*
G01*
X132384196Y-105204278D01*
X132390326Y-105213368D01*
X134092640Y-107995508D01*
X135693971Y-110612608D01*
X135712200Y-110677325D01*
X135712200Y-114905671D01*
X135692515Y-114972710D01*
X135671765Y-114997283D01*
X132032470Y-118316911D01*
X131988507Y-118357012D01*
X131925712Y-118387648D01*
X131904942Y-118389400D01*
X129918540Y-118389400D01*
X129851501Y-118369715D01*
X129805746Y-118316911D01*
X129794541Y-118264861D01*
X129808909Y-114960400D01*
X129817919Y-112888002D01*
X129817918Y-112888001D01*
X129817918Y-112888000D01*
X127170355Y-110345292D01*
X127135638Y-110284658D01*
X127139214Y-110214880D01*
X127169007Y-110167738D01*
X132197319Y-105189962D01*
X132258809Y-105156788D01*
X132328475Y-105162125D01*
G37*
%TD.AperFunction*%
%TD*%
%TA.AperFunction,Conductor*%
%TO.N,/PD_Control/VBUSC*%
G36*
X127758632Y-118595968D02*
G01*
X127762000Y-118604100D01*
X127762000Y-119577247D01*
X127758632Y-119585379D01*
X127757141Y-119586636D01*
X127018886Y-120108816D01*
X126726191Y-120315846D01*
X126723585Y-120317689D01*
X126716944Y-120319800D01*
X123992578Y-120319800D01*
X123984446Y-120316432D01*
X123983900Y-120315846D01*
X122971338Y-119151400D01*
X121042500Y-119151400D01*
X121034368Y-119148032D01*
X121031000Y-119139900D01*
X121031000Y-118604100D01*
X121034368Y-118595968D01*
X121042500Y-118592600D01*
X127750500Y-118592600D01*
X127758632Y-118595968D01*
G37*
%TD.AperFunction*%
%TD*%
%TA.AperFunction,Conductor*%
%TO.N,Net-(Q3-G)*%
G36*
X149322479Y-95437918D02*
G01*
X149368346Y-95490625D01*
X149379662Y-95542505D01*
X149377416Y-97708495D01*
X149373270Y-97740164D01*
X149331172Y-97898840D01*
X149294954Y-97958590D01*
X149250480Y-97984695D01*
X149242994Y-97987186D01*
X149242991Y-97987188D01*
X149121960Y-98064970D01*
X149121957Y-98064972D01*
X149082622Y-98099056D01*
X149075045Y-98103925D01*
X148974931Y-98219463D01*
X148974926Y-98219471D01*
X148915160Y-98350340D01*
X148895476Y-98417379D01*
X148895473Y-98417391D01*
X148874999Y-98559799D01*
X148874999Y-98800500D01*
X148855314Y-98867539D01*
X148802510Y-98913294D01*
X148750999Y-98924500D01*
X148230251Y-98924500D01*
X148185247Y-98933451D01*
X148115656Y-98927222D01*
X148060479Y-98884358D01*
X148043183Y-98850323D01*
X147681760Y-97743465D01*
X147675635Y-97704755D01*
X147679473Y-95545247D01*
X147699277Y-95478242D01*
X147752162Y-95432581D01*
X147803208Y-95421467D01*
X149255400Y-95418376D01*
X149322479Y-95437918D01*
G37*
%TD.AperFunction*%
%TD*%
%TA.AperFunction,Conductor*%
%TO.N,GND*%
G36*
X137759700Y-104559540D02*
G01*
X137759700Y-106173093D01*
X137740015Y-106240132D01*
X137687211Y-106285887D01*
X137618053Y-106295831D01*
X137603609Y-106292868D01*
X137562675Y-106281900D01*
X137417725Y-106281900D01*
X137289193Y-106316340D01*
X137277711Y-106319417D01*
X137152188Y-106391888D01*
X137152182Y-106391893D01*
X137049693Y-106494382D01*
X137049688Y-106494388D01*
X136977217Y-106619911D01*
X136977216Y-106619915D01*
X136939700Y-106759925D01*
X136939700Y-106904875D01*
X136959333Y-106978144D01*
X136977217Y-107044888D01*
X137049688Y-107170411D01*
X137049693Y-107170417D01*
X137103381Y-107224105D01*
X137136866Y-107285428D01*
X137139700Y-107311786D01*
X137139700Y-109991453D01*
X137120015Y-110058492D01*
X137067211Y-110104247D01*
X136998053Y-110114191D01*
X136983615Y-110111229D01*
X136864210Y-110079235D01*
X136719260Y-110079235D01*
X136599862Y-110111228D01*
X136579246Y-110116752D01*
X136453723Y-110189223D01*
X136453717Y-110189228D01*
X136351228Y-110291717D01*
X136351223Y-110291723D01*
X136278752Y-110417246D01*
X136278751Y-110417250D01*
X136241235Y-110557260D01*
X136241235Y-110702210D01*
X136256750Y-110760111D01*
X136278752Y-110842224D01*
X136278753Y-110842225D01*
X136320686Y-110914853D01*
X136337300Y-110976854D01*
X136337300Y-118157056D01*
X136317615Y-118224095D01*
X136300981Y-118244737D01*
X132982537Y-121563181D01*
X132921214Y-121596666D01*
X132894856Y-121599500D01*
X132067255Y-121599500D01*
X132037874Y-121590872D01*
X132007937Y-121584392D01*
X132002842Y-121580586D01*
X132000216Y-121579815D01*
X131979661Y-121563269D01*
X131979160Y-121562769D01*
X131945614Y-121501479D01*
X131950529Y-121431783D01*
X131973017Y-121396754D01*
X131972311Y-121396241D01*
X131978042Y-121388349D01*
X131978050Y-121388342D01*
X132035646Y-121275304D01*
X132035646Y-121275302D01*
X132035647Y-121275301D01*
X132050499Y-121181524D01*
X132050500Y-121181519D01*
X132050499Y-120818482D01*
X132035646Y-120724696D01*
X131978050Y-120611658D01*
X131978045Y-120611653D01*
X131972311Y-120603759D01*
X131972902Y-120603329D01*
X131967413Y-120599211D01*
X131958226Y-120574505D01*
X131945590Y-120551368D01*
X131946239Y-120542270D01*
X131943061Y-120533722D01*
X131948690Y-120507966D01*
X131950569Y-120481676D01*
X131956428Y-120472567D01*
X131957981Y-120465464D01*
X131979160Y-120437231D01*
X131979661Y-120436731D01*
X132041018Y-120403308D01*
X132067255Y-120400500D01*
X132083214Y-120400500D01*
X132109753Y-120408293D01*
X132110705Y-120408362D01*
X132111165Y-120408707D01*
X132150253Y-120420185D01*
X132170895Y-120436819D01*
X132224585Y-120490509D01*
X132224586Y-120490510D01*
X132224588Y-120490511D01*
X132350111Y-120562982D01*
X132350112Y-120562982D01*
X132350115Y-120562984D01*
X132490125Y-120600500D01*
X132490128Y-120600500D01*
X132635072Y-120600500D01*
X132635075Y-120600500D01*
X132775085Y-120562984D01*
X132900615Y-120490509D01*
X133003109Y-120388015D01*
X133075584Y-120262485D01*
X133113100Y-120122475D01*
X133113100Y-119977525D01*
X133075584Y-119837515D01*
X133061375Y-119812905D01*
X133003111Y-119711988D01*
X133003106Y-119711982D01*
X132900617Y-119609493D01*
X132900611Y-119609488D01*
X132775088Y-119537017D01*
X132775089Y-119537017D01*
X132763606Y-119533940D01*
X132635075Y-119499500D01*
X132490125Y-119499500D01*
X132361593Y-119533940D01*
X132350111Y-119537017D01*
X132224588Y-119609488D01*
X132224582Y-119609493D01*
X132170895Y-119663181D01*
X132143967Y-119677884D01*
X132118149Y-119694477D01*
X132111948Y-119695368D01*
X132109572Y-119696666D01*
X132083214Y-119699500D01*
X132067255Y-119699500D01*
X132000216Y-119679815D01*
X131979574Y-119663181D01*
X131888347Y-119571954D01*
X131888344Y-119571952D01*
X131888342Y-119571950D01*
X131811517Y-119532805D01*
X131775301Y-119514352D01*
X131681524Y-119499500D01*
X130593482Y-119499500D01*
X130512519Y-119512323D01*
X130499696Y-119514354D01*
X130386658Y-119571950D01*
X130386657Y-119571951D01*
X130386652Y-119571954D01*
X130296954Y-119661652D01*
X130296951Y-119661657D01*
X130296950Y-119661658D01*
X130287699Y-119679815D01*
X130239352Y-119774698D01*
X130224500Y-119868475D01*
X130224500Y-120231517D01*
X130239354Y-120325304D01*
X130280574Y-120406203D01*
X130293470Y-120474872D01*
X130267193Y-120539612D01*
X130216652Y-120575240D01*
X130217419Y-120577092D01*
X130209913Y-120580200D01*
X130107186Y-120639511D01*
X130107183Y-120639513D01*
X129636713Y-121109983D01*
X129636709Y-121109989D01*
X129577401Y-121212712D01*
X129577400Y-121212717D01*
X129551330Y-121310012D01*
X129514965Y-121369673D01*
X129452118Y-121400202D01*
X129412158Y-121400393D01*
X129406519Y-121399500D01*
X128318482Y-121399500D01*
X128237519Y-121412323D01*
X128224696Y-121414354D01*
X128111658Y-121471950D01*
X128111657Y-121471951D01*
X128111652Y-121471954D01*
X128086700Y-121496907D01*
X128025377Y-121530392D01*
X127955685Y-121525408D01*
X127911338Y-121496907D01*
X127502111Y-121087680D01*
X127468626Y-121026357D01*
X127473610Y-120956665D01*
X127502107Y-120912323D01*
X127911339Y-120503090D01*
X127972660Y-120469607D01*
X128042352Y-120474591D01*
X128086699Y-120503092D01*
X128111652Y-120528045D01*
X128111654Y-120528046D01*
X128111658Y-120528050D01*
X128207908Y-120577092D01*
X128224698Y-120585647D01*
X128318475Y-120600499D01*
X128318481Y-120600500D01*
X129406518Y-120600499D01*
X129500304Y-120585646D01*
X129613342Y-120528050D01*
X129703050Y-120438342D01*
X129760646Y-120325304D01*
X129760646Y-120325302D01*
X129760647Y-120325301D01*
X129772733Y-120248989D01*
X129775500Y-120231519D01*
X129775499Y-119868482D01*
X129760646Y-119774696D01*
X129703050Y-119661658D01*
X129703046Y-119661654D01*
X129703045Y-119661652D01*
X129613347Y-119571954D01*
X129613344Y-119571952D01*
X129613342Y-119571950D01*
X129536517Y-119532805D01*
X129500301Y-119514352D01*
X129406524Y-119499500D01*
X128318482Y-119499500D01*
X128224696Y-119514354D01*
X128197793Y-119528062D01*
X128129124Y-119540957D01*
X128064384Y-119514680D01*
X128024128Y-119457573D01*
X128017500Y-119417576D01*
X128017500Y-118604100D01*
X128016407Y-118598605D01*
X127998055Y-118506334D01*
X127994687Y-118498202D01*
X127994679Y-118498183D01*
X127939290Y-118415295D01*
X127939287Y-118415293D01*
X127939287Y-118415292D01*
X127856404Y-118359917D01*
X127856403Y-118359916D01*
X127856398Y-118359913D01*
X127856395Y-118359911D01*
X127856392Y-118359910D01*
X127848265Y-118356544D01*
X127769944Y-118340967D01*
X127750500Y-118337100D01*
X127750499Y-118337100D01*
X122878551Y-118337100D01*
X122846458Y-118332875D01*
X122793306Y-118318633D01*
X122725634Y-118300500D01*
X122574366Y-118300500D01*
X122453542Y-118332875D01*
X122421449Y-118337100D01*
X121528551Y-118337100D01*
X121496458Y-118332875D01*
X121443306Y-118318633D01*
X121375634Y-118300500D01*
X121224366Y-118300500D01*
X121103542Y-118332875D01*
X121071449Y-118337100D01*
X121042500Y-118337100D01*
X121009911Y-118343581D01*
X120944732Y-118356545D01*
X120944731Y-118356545D01*
X120936588Y-118359918D01*
X120936584Y-118359920D01*
X120936583Y-118359921D01*
X120853695Y-118415310D01*
X120853694Y-118415311D01*
X120853692Y-118415312D01*
X120798317Y-118498195D01*
X120798310Y-118498207D01*
X120794944Y-118506334D01*
X120775499Y-118604101D01*
X120774903Y-118610162D01*
X120773973Y-118610070D01*
X120766061Y-118649849D01*
X120764653Y-118653246D01*
X120761331Y-118665644D01*
X120725500Y-118799366D01*
X120725500Y-118799368D01*
X120725500Y-118950631D01*
X120725499Y-118950631D01*
X120764652Y-119096751D01*
X120766271Y-119100658D01*
X120769806Y-119110308D01*
X120775500Y-119128098D01*
X120775500Y-119139900D01*
X120794945Y-119237666D01*
X120798313Y-119245798D01*
X120798321Y-119245817D01*
X120826835Y-119288488D01*
X120832150Y-119305092D01*
X120832590Y-119323296D01*
X120838032Y-119340674D01*
X120833440Y-119358445D01*
X120833839Y-119374941D01*
X120825742Y-119388234D01*
X120821439Y-119404891D01*
X120764653Y-119503247D01*
X120764652Y-119503251D01*
X120725500Y-119649366D01*
X120725500Y-119649368D01*
X120725500Y-119800631D01*
X120725499Y-119800631D01*
X120764653Y-119946752D01*
X120844350Y-120084790D01*
X120842245Y-120086005D01*
X120862996Y-120139686D01*
X120848956Y-120208130D01*
X120843852Y-120216072D01*
X120764653Y-120353247D01*
X120764652Y-120353251D01*
X120725500Y-120499366D01*
X120725500Y-120499368D01*
X120725500Y-120650631D01*
X120725499Y-120650631D01*
X120764653Y-120796752D01*
X120844350Y-120934790D01*
X120842245Y-120936005D01*
X120862996Y-120989686D01*
X120848956Y-121058130D01*
X120843852Y-121066072D01*
X120764653Y-121203247D01*
X120764652Y-121203251D01*
X120725500Y-121349366D01*
X120725500Y-121349368D01*
X120725500Y-121500631D01*
X120725499Y-121500631D01*
X120725500Y-121500634D01*
X120764651Y-121646747D01*
X120764653Y-121646752D01*
X120844350Y-121784790D01*
X120842245Y-121786005D01*
X120862996Y-121839686D01*
X120848956Y-121908130D01*
X120843852Y-121916072D01*
X120764653Y-122053247D01*
X120764652Y-122053251D01*
X120725500Y-122199366D01*
X120725500Y-122199368D01*
X120725500Y-122350631D01*
X120725499Y-122350631D01*
X120725500Y-122350634D01*
X120764652Y-122496749D01*
X120824909Y-122601118D01*
X120841382Y-122669017D01*
X120834710Y-122703650D01*
X120829492Y-122718734D01*
X120798313Y-122765402D01*
X120794945Y-122773534D01*
X120775500Y-122871300D01*
X120775500Y-122874836D01*
X120771070Y-122887644D01*
X120767421Y-122892769D01*
X120766498Y-122895221D01*
X120767762Y-122895745D01*
X120764653Y-122903248D01*
X120764652Y-122903251D01*
X120725500Y-123049366D01*
X120725500Y-123049368D01*
X120725500Y-123200631D01*
X120725499Y-123200631D01*
X120764653Y-123346754D01*
X120767476Y-123353569D01*
X120774530Y-123376826D01*
X120794944Y-123479466D01*
X120794945Y-123479468D01*
X120798313Y-123487598D01*
X120798321Y-123487617D01*
X120853710Y-123570505D01*
X120853711Y-123570506D01*
X120853712Y-123570507D01*
X120909456Y-123607750D01*
X120936602Y-123625887D01*
X120944734Y-123629255D01*
X121042500Y-123648700D01*
X121042501Y-123648700D01*
X121046181Y-123649432D01*
X121070226Y-123658478D01*
X121070741Y-123657237D01*
X121078249Y-123660347D01*
X121078251Y-123660348D01*
X121224366Y-123699500D01*
X121224369Y-123699500D01*
X121375631Y-123699500D01*
X121375634Y-123699500D01*
X121521749Y-123660348D01*
X121521752Y-123660346D01*
X121521753Y-123660346D01*
X121527085Y-123658138D01*
X121574535Y-123648700D01*
X122375465Y-123648700D01*
X122422915Y-123658138D01*
X122428246Y-123660346D01*
X122428248Y-123660346D01*
X122428251Y-123660348D01*
X122574366Y-123699500D01*
X122574369Y-123699500D01*
X122725631Y-123699500D01*
X122725634Y-123699500D01*
X122871749Y-123660348D01*
X122871752Y-123660346D01*
X122871753Y-123660346D01*
X122877085Y-123658138D01*
X122885260Y-123656511D01*
X122889600Y-123653723D01*
X122924535Y-123648700D01*
X123151339Y-123648700D01*
X123176344Y-123651247D01*
X124000934Y-123821015D01*
X124026588Y-123824951D01*
X124028907Y-123825187D01*
X124054775Y-123826500D01*
X124054786Y-123826500D01*
X126448771Y-123826500D01*
X126448774Y-123826500D01*
X126525119Y-123814827D01*
X126531679Y-123812773D01*
X126601070Y-123778806D01*
X127329934Y-123272649D01*
X127396226Y-123250579D01*
X127400663Y-123250500D01*
X129503381Y-123250500D01*
X129535472Y-123254724D01*
X129550308Y-123258700D01*
X129550310Y-123258700D01*
X129682091Y-123258700D01*
X129682093Y-123258700D01*
X129809386Y-123224592D01*
X129923515Y-123158700D01*
X129945396Y-123136819D01*
X130006719Y-123103334D01*
X130033077Y-123100500D01*
X133251942Y-123100500D01*
X133251944Y-123100500D01*
X133341088Y-123076614D01*
X133371409Y-123059108D01*
X133421012Y-123030470D01*
X136232719Y-120218763D01*
X136294042Y-120185278D01*
X136363734Y-120190262D01*
X136419667Y-120232134D01*
X136444084Y-120297598D01*
X136444400Y-120306444D01*
X136444400Y-120328775D01*
X136470050Y-120424500D01*
X136481917Y-120468788D01*
X136554388Y-120594311D01*
X136554390Y-120594313D01*
X136554391Y-120594315D01*
X136656885Y-120696809D01*
X136656886Y-120696810D01*
X136656888Y-120696811D01*
X136782411Y-120769282D01*
X136782412Y-120769282D01*
X136782415Y-120769284D01*
X136922425Y-120806800D01*
X136922428Y-120806800D01*
X137067372Y-120806800D01*
X137067375Y-120806800D01*
X137207385Y-120769284D01*
X137332915Y-120696809D01*
X137435409Y-120594315D01*
X137507884Y-120468785D01*
X137545400Y-120328775D01*
X137545400Y-120252844D01*
X137565085Y-120185805D01*
X137581719Y-120165163D01*
X141282063Y-116464819D01*
X141343386Y-116431334D01*
X141369744Y-116428500D01*
X144548932Y-116428500D01*
X144548934Y-116428500D01*
X144638078Y-116404614D01*
X144653185Y-116395892D01*
X144676589Y-116382379D01*
X144744486Y-116365906D01*
X144810514Y-116388757D01*
X144853706Y-116443677D01*
X144860349Y-116513230D01*
X144828334Y-116575334D01*
X144826270Y-116577447D01*
X144137737Y-117265981D01*
X144076414Y-117299466D01*
X144050056Y-117302300D01*
X141203256Y-117302300D01*
X141120135Y-117324572D01*
X141120133Y-117324572D01*
X141114112Y-117326185D01*
X141114110Y-117326185D01*
X141034194Y-117372326D01*
X141034185Y-117372333D01*
X132893337Y-125513181D01*
X132832014Y-125546666D01*
X132805656Y-125549500D01*
X132327128Y-125549500D01*
X132327120Y-125549500D01*
X132327117Y-125549501D01*
X132267518Y-125555908D01*
X132132672Y-125606202D01*
X132132670Y-125606204D01*
X132017454Y-125692454D01*
X131931204Y-125807670D01*
X131931202Y-125807672D01*
X131880908Y-125942518D01*
X131874501Y-126002117D01*
X131874500Y-126002136D01*
X131874500Y-126038000D01*
X131854815Y-126105039D01*
X131802011Y-126150794D01*
X131750500Y-126162000D01*
X129249500Y-126162000D01*
X129182461Y-126142315D01*
X129136706Y-126089511D01*
X129125500Y-126038000D01*
X129125500Y-126002136D01*
X129125500Y-126002128D01*
X129119091Y-125942518D01*
X129090912Y-125866967D01*
X129068797Y-125807672D01*
X129068796Y-125807671D01*
X129068796Y-125807670D01*
X128982546Y-125692454D01*
X128867330Y-125606204D01*
X128867328Y-125606203D01*
X128867327Y-125606202D01*
X128732481Y-125555908D01*
X128732482Y-125555908D01*
X128672882Y-125549501D01*
X128672880Y-125549500D01*
X128672872Y-125549500D01*
X127327128Y-125549500D01*
X127327120Y-125549500D01*
X127327117Y-125549501D01*
X127267518Y-125555908D01*
X127132672Y-125606202D01*
X127132670Y-125606204D01*
X127017454Y-125692454D01*
X126931204Y-125807670D01*
X126931202Y-125807672D01*
X126880908Y-125942518D01*
X126874501Y-126002117D01*
X126874500Y-126002136D01*
X126874500Y-127022863D01*
X126874501Y-127022882D01*
X126880908Y-127082481D01*
X126931202Y-127217327D01*
X126931203Y-127217328D01*
X126931204Y-127217330D01*
X127017454Y-127332546D01*
X127132670Y-127418796D01*
X127132671Y-127418796D01*
X127132672Y-127418797D01*
X127267518Y-127469091D01*
X127267517Y-127469091D01*
X127274445Y-127469835D01*
X127327128Y-127475500D01*
X127327137Y-127475500D01*
X128672863Y-127475500D01*
X128672872Y-127475500D01*
X128732482Y-127469091D01*
X128867330Y-127418796D01*
X128982546Y-127332546D01*
X129068796Y-127217330D01*
X129119091Y-127082482D01*
X129125500Y-127022872D01*
X129125500Y-126987000D01*
X129145185Y-126919961D01*
X129197989Y-126874206D01*
X129249500Y-126863000D01*
X131750500Y-126863000D01*
X131817539Y-126882685D01*
X131863294Y-126935489D01*
X131874500Y-126987000D01*
X131874500Y-127022863D01*
X131874501Y-127022882D01*
X131880908Y-127082481D01*
X131931202Y-127217327D01*
X131931203Y-127217328D01*
X131931204Y-127217330D01*
X132017454Y-127332546D01*
X132132670Y-127418796D01*
X132132671Y-127418796D01*
X132132672Y-127418797D01*
X132267518Y-127469091D01*
X132267517Y-127469091D01*
X132274445Y-127469835D01*
X132327128Y-127475500D01*
X132327137Y-127475500D01*
X133672863Y-127475500D01*
X133672872Y-127475500D01*
X133732482Y-127469091D01*
X133867330Y-127418796D01*
X133982546Y-127332546D01*
X134068796Y-127217330D01*
X134119091Y-127082482D01*
X134125500Y-127022872D01*
X134125500Y-126002128D01*
X134119091Y-125942518D01*
X134090912Y-125866967D01*
X134068797Y-125807672D01*
X134068796Y-125807671D01*
X134068796Y-125807670D01*
X133982546Y-125692454D01*
X133977645Y-125688785D01*
X133938623Y-125659573D01*
X133896753Y-125603639D01*
X133891769Y-125533947D01*
X133925252Y-125472628D01*
X137437819Y-121960062D01*
X137499142Y-121926577D01*
X137568834Y-121931561D01*
X137624767Y-121973433D01*
X137649184Y-122038897D01*
X137649500Y-122047743D01*
X137649500Y-125425500D01*
X137629815Y-125492539D01*
X137577011Y-125538294D01*
X137525500Y-125549500D01*
X137327128Y-125549500D01*
X137327120Y-125549500D01*
X137327117Y-125549501D01*
X137267518Y-125555908D01*
X137132672Y-125606202D01*
X137132670Y-125606204D01*
X137017454Y-125692454D01*
X136931204Y-125807670D01*
X136931202Y-125807672D01*
X136880908Y-125942518D01*
X136874501Y-126002117D01*
X136874500Y-126002136D01*
X136874500Y-127022863D01*
X136874501Y-127022882D01*
X136880908Y-127082481D01*
X136931202Y-127217327D01*
X136931203Y-127217328D01*
X136931204Y-127217330D01*
X137017454Y-127332546D01*
X137132670Y-127418796D01*
X137132671Y-127418796D01*
X137132672Y-127418797D01*
X137267518Y-127469091D01*
X137267517Y-127469091D01*
X137274445Y-127469835D01*
X137327128Y-127475500D01*
X137327137Y-127475500D01*
X138672863Y-127475500D01*
X138672872Y-127475500D01*
X138732482Y-127469091D01*
X138867330Y-127418796D01*
X138982546Y-127332546D01*
X139068796Y-127217330D01*
X139119091Y-127082482D01*
X139125500Y-127022872D01*
X139125500Y-126987000D01*
X139145185Y-126919961D01*
X139197989Y-126874206D01*
X139249500Y-126863000D01*
X141750500Y-126863000D01*
X141817539Y-126882685D01*
X141863294Y-126935489D01*
X141874500Y-126987000D01*
X141874500Y-127022863D01*
X141874501Y-127022882D01*
X141880908Y-127082481D01*
X141931202Y-127217327D01*
X141931203Y-127217328D01*
X141931204Y-127217330D01*
X142017454Y-127332546D01*
X142132670Y-127418796D01*
X142132671Y-127418796D01*
X142132672Y-127418797D01*
X142267518Y-127469091D01*
X142267517Y-127469091D01*
X142274445Y-127469835D01*
X142327128Y-127475500D01*
X142327137Y-127475500D01*
X143672863Y-127475500D01*
X143672872Y-127475500D01*
X143732482Y-127469091D01*
X143867330Y-127418796D01*
X143982546Y-127332546D01*
X144068796Y-127217330D01*
X144119091Y-127082482D01*
X144125500Y-127022872D01*
X144125500Y-126002128D01*
X144119091Y-125942518D01*
X144090912Y-125866967D01*
X144068797Y-125807672D01*
X144068796Y-125807671D01*
X144068796Y-125807670D01*
X143982546Y-125692454D01*
X143867330Y-125606204D01*
X143867328Y-125606203D01*
X143867327Y-125606202D01*
X143732481Y-125555908D01*
X143732482Y-125555908D01*
X143672882Y-125549501D01*
X143672880Y-125549500D01*
X143672872Y-125549500D01*
X142327128Y-125549500D01*
X142327120Y-125549500D01*
X142327117Y-125549501D01*
X142267518Y-125555908D01*
X142132672Y-125606202D01*
X142132670Y-125606204D01*
X142017454Y-125692454D01*
X141931204Y-125807670D01*
X141931202Y-125807672D01*
X141880908Y-125942518D01*
X141874501Y-126002117D01*
X141874500Y-126002136D01*
X141874500Y-126038000D01*
X141854815Y-126105039D01*
X141802011Y-126150794D01*
X141750500Y-126162000D01*
X139249500Y-126162000D01*
X139182461Y-126142315D01*
X139136706Y-126089511D01*
X139125500Y-126038000D01*
X139125500Y-126002136D01*
X139125500Y-126002128D01*
X139119091Y-125942518D01*
X139090912Y-125866967D01*
X139068797Y-125807672D01*
X139068796Y-125807671D01*
X139068796Y-125807670D01*
X138982546Y-125692454D01*
X138867330Y-125606204D01*
X138867328Y-125606203D01*
X138867327Y-125606202D01*
X138732481Y-125555908D01*
X138732482Y-125555908D01*
X138672882Y-125549501D01*
X138672880Y-125549500D01*
X138672872Y-125549500D01*
X138672864Y-125549500D01*
X138474500Y-125549500D01*
X138407461Y-125529815D01*
X138361706Y-125477011D01*
X138350500Y-125425500D01*
X138350500Y-121977136D01*
X141874500Y-121977136D01*
X141874500Y-122997863D01*
X141874501Y-122997882D01*
X141880908Y-123057481D01*
X141931202Y-123192327D01*
X141931203Y-123192328D01*
X141931204Y-123192330D01*
X142017454Y-123307546D01*
X142132670Y-123393796D01*
X142132671Y-123393796D01*
X142132672Y-123393797D01*
X142267518Y-123444091D01*
X142267517Y-123444091D01*
X142274445Y-123444835D01*
X142327128Y-123450500D01*
X142327137Y-123450500D01*
X143672863Y-123450500D01*
X143672872Y-123450500D01*
X143732482Y-123444091D01*
X143867330Y-123393796D01*
X143982546Y-123307546D01*
X144068796Y-123192330D01*
X144119091Y-123057482D01*
X144125500Y-122997872D01*
X144125500Y-122974500D01*
X144145185Y-122907461D01*
X144197989Y-122861706D01*
X144249500Y-122850500D01*
X144683023Y-122850500D01*
X144750062Y-122870185D01*
X144795817Y-122922989D01*
X144803266Y-122950134D01*
X144804124Y-122949932D01*
X144805907Y-122957479D01*
X144856202Y-123092328D01*
X144856206Y-123092335D01*
X144942452Y-123207544D01*
X144942455Y-123207547D01*
X145057664Y-123293793D01*
X145057671Y-123293797D01*
X145192517Y-123344091D01*
X145192516Y-123344091D01*
X145199444Y-123344835D01*
X145252127Y-123350500D01*
X146247872Y-123350499D01*
X146307483Y-123344091D01*
X146442331Y-123293796D01*
X146557546Y-123207546D01*
X146643796Y-123092331D01*
X146694091Y-122957483D01*
X146700500Y-122897873D01*
X146700499Y-122102128D01*
X146694091Y-122042517D01*
X146689103Y-122029144D01*
X146643797Y-121907671D01*
X146643793Y-121907664D01*
X146557547Y-121792455D01*
X146557544Y-121792452D01*
X146442335Y-121706206D01*
X146442328Y-121706202D01*
X146307482Y-121655908D01*
X146307483Y-121655908D01*
X146247883Y-121649501D01*
X146247881Y-121649500D01*
X146247873Y-121649500D01*
X146247864Y-121649500D01*
X145252129Y-121649500D01*
X145252123Y-121649501D01*
X145192516Y-121655908D01*
X145057671Y-121706202D01*
X145057664Y-121706206D01*
X144942455Y-121792452D01*
X144942452Y-121792455D01*
X144856206Y-121907664D01*
X144856202Y-121907671D01*
X144805908Y-122042517D01*
X144804126Y-122050062D01*
X144801853Y-122049525D01*
X144779571Y-122103312D01*
X144722177Y-122143157D01*
X144683024Y-122149500D01*
X144249500Y-122149500D01*
X144182461Y-122129815D01*
X144136706Y-122077011D01*
X144125500Y-122025500D01*
X144125500Y-121977136D01*
X144125500Y-121977128D01*
X144119091Y-121917518D01*
X144097765Y-121860339D01*
X144068797Y-121782672D01*
X144068796Y-121782671D01*
X144068796Y-121782670D01*
X143982546Y-121667454D01*
X143867330Y-121581204D01*
X143867328Y-121581203D01*
X143867327Y-121581202D01*
X143732481Y-121530908D01*
X143732482Y-121530908D01*
X143672882Y-121524501D01*
X143672880Y-121524500D01*
X143672872Y-121524500D01*
X142327128Y-121524500D01*
X142327120Y-121524500D01*
X142327117Y-121524501D01*
X142267518Y-121530908D01*
X142132672Y-121581202D01*
X142132670Y-121581204D01*
X142017454Y-121667454D01*
X141931204Y-121782670D01*
X141931202Y-121782672D01*
X141880908Y-121917518D01*
X141874501Y-121977117D01*
X141874500Y-121977136D01*
X138350500Y-121977136D01*
X138350500Y-121733744D01*
X138370185Y-121666705D01*
X138386819Y-121646063D01*
X141586863Y-118446019D01*
X141648186Y-118412534D01*
X141674544Y-118409700D01*
X142022608Y-118409700D01*
X142089647Y-118429385D01*
X142135402Y-118482189D01*
X142145346Y-118551347D01*
X142116321Y-118614903D01*
X142096919Y-118632967D01*
X142017454Y-118692454D01*
X141931204Y-118807670D01*
X141931202Y-118807672D01*
X141880908Y-118942518D01*
X141874501Y-119002117D01*
X141874500Y-119002136D01*
X141874500Y-120022863D01*
X141874501Y-120022882D01*
X141880908Y-120082481D01*
X141931202Y-120217327D01*
X141931203Y-120217328D01*
X141931204Y-120217330D01*
X142017454Y-120332546D01*
X142132670Y-120418796D01*
X142132671Y-120418796D01*
X142132672Y-120418797D01*
X142267518Y-120469091D01*
X142267517Y-120469091D01*
X142272317Y-120469607D01*
X142327128Y-120475500D01*
X142327137Y-120475500D01*
X143672863Y-120475500D01*
X143672872Y-120475500D01*
X143732482Y-120469091D01*
X143867330Y-120418796D01*
X143982546Y-120332546D01*
X144068796Y-120217330D01*
X144119091Y-120082482D01*
X144125500Y-120022872D01*
X144125500Y-119974263D01*
X144145185Y-119907224D01*
X144197989Y-119861469D01*
X144217398Y-119854491D01*
X144274788Y-119839114D01*
X144354712Y-119792970D01*
X145187819Y-118959863D01*
X145249142Y-118926378D01*
X145318834Y-118931362D01*
X145374767Y-118973234D01*
X145399184Y-119038698D01*
X145399500Y-119047544D01*
X145399500Y-119525500D01*
X145379815Y-119592539D01*
X145327011Y-119638294D01*
X145275505Y-119649500D01*
X145252132Y-119649500D01*
X145252123Y-119649501D01*
X145192516Y-119655908D01*
X145057671Y-119706202D01*
X145057664Y-119706206D01*
X144942455Y-119792452D01*
X144942452Y-119792455D01*
X144856206Y-119907664D01*
X144856202Y-119907671D01*
X144805908Y-120042517D01*
X144799501Y-120102116D01*
X144799501Y-120102123D01*
X144799500Y-120102135D01*
X144799500Y-120897870D01*
X144799501Y-120897876D01*
X144805908Y-120957483D01*
X144856202Y-121092328D01*
X144856206Y-121092335D01*
X144942452Y-121207544D01*
X144942455Y-121207547D01*
X145057664Y-121293793D01*
X145057671Y-121293797D01*
X145192517Y-121344091D01*
X145192516Y-121344091D01*
X145199444Y-121344835D01*
X145252127Y-121350500D01*
X146247872Y-121350499D01*
X146307483Y-121344091D01*
X146442331Y-121293796D01*
X146557546Y-121207546D01*
X146643796Y-121092331D01*
X146694091Y-120957483D01*
X146700500Y-120897873D01*
X146700499Y-120102128D01*
X146694091Y-120042517D01*
X146669851Y-119977527D01*
X146643797Y-119907671D01*
X146643793Y-119907664D01*
X146557547Y-119792455D01*
X146557544Y-119792452D01*
X146442335Y-119706206D01*
X146442328Y-119706202D01*
X146307482Y-119655908D01*
X146307483Y-119655908D01*
X146247883Y-119649501D01*
X146247881Y-119649500D01*
X146247873Y-119649500D01*
X146247865Y-119649500D01*
X146224500Y-119649500D01*
X146157461Y-119629815D01*
X146111706Y-119577011D01*
X146100500Y-119525500D01*
X146100500Y-118665644D01*
X146120185Y-118598605D01*
X146136819Y-118577963D01*
X147429855Y-117284927D01*
X148738070Y-115976712D01*
X148784214Y-115896788D01*
X148785354Y-115892530D01*
X148787300Y-115889337D01*
X148787325Y-115889278D01*
X148787334Y-115889281D01*
X148821713Y-115832869D01*
X148884557Y-115802334D01*
X148953933Y-115810622D01*
X149007815Y-115855103D01*
X149008233Y-115855724D01*
X149031116Y-115889972D01*
X149160024Y-116018880D01*
X149160032Y-116018886D01*
X149311608Y-116120166D01*
X149311612Y-116120168D01*
X149470991Y-116186184D01*
X149480042Y-116189933D01*
X149480046Y-116189933D01*
X149480047Y-116189934D01*
X149658843Y-116225500D01*
X149658846Y-116225500D01*
X149841156Y-116225500D01*
X149961445Y-116201572D01*
X150019958Y-116189933D01*
X150188389Y-116120167D01*
X150231010Y-116091688D01*
X150297686Y-116070811D01*
X150365066Y-116089295D01*
X150411757Y-116141274D01*
X150423900Y-116194791D01*
X150423900Y-118329056D01*
X150404215Y-118396095D01*
X150387581Y-118416737D01*
X150191137Y-118613181D01*
X150129814Y-118646666D01*
X150103456Y-118649500D01*
X149125323Y-118649500D01*
X149052264Y-118664032D01*
X149052260Y-118664033D01*
X148969399Y-118719399D01*
X148914033Y-118802260D01*
X148914032Y-118802264D01*
X148899500Y-118875321D01*
X148899500Y-119724678D01*
X148914032Y-119797735D01*
X148914033Y-119797739D01*
X148924167Y-119812905D01*
X148969399Y-119880601D01*
X149052260Y-119935966D01*
X149052264Y-119935967D01*
X149125321Y-119950499D01*
X149125324Y-119950500D01*
X149125326Y-119950500D01*
X150874676Y-119950500D01*
X150874677Y-119950499D01*
X150947740Y-119935966D01*
X151030601Y-119880601D01*
X151085966Y-119797740D01*
X151100500Y-119724674D01*
X151100500Y-118875326D01*
X151100500Y-118875323D01*
X151100499Y-118875321D01*
X151085967Y-118802262D01*
X151081557Y-118791615D01*
X151078197Y-118760366D01*
X151073003Y-118729371D01*
X151074410Y-118725146D01*
X151074088Y-118722146D01*
X151082157Y-118695285D01*
X151085051Y-118688535D01*
X151101014Y-118660888D01*
X151105540Y-118643996D01*
X151124900Y-118571744D01*
X151124900Y-112450456D01*
X151101014Y-112361312D01*
X151091835Y-112345413D01*
X151054869Y-112281387D01*
X149862619Y-111089137D01*
X149829134Y-111027814D01*
X149826300Y-111001456D01*
X149826300Y-110925527D01*
X149826300Y-110925525D01*
X149788784Y-110785515D01*
X149774119Y-110760115D01*
X149716311Y-110659988D01*
X149716306Y-110659982D01*
X149613817Y-110557493D01*
X149613811Y-110557488D01*
X149488288Y-110485017D01*
X149488289Y-110485017D01*
X149466792Y-110479257D01*
X149348275Y-110447500D01*
X149203325Y-110447500D01*
X149084808Y-110479257D01*
X149063311Y-110485017D01*
X148937788Y-110557488D01*
X148937782Y-110557493D01*
X148835293Y-110659982D01*
X148835288Y-110659988D01*
X148762817Y-110785511D01*
X148762816Y-110785515D01*
X148725300Y-110925525D01*
X148725300Y-111070475D01*
X148756010Y-111185085D01*
X148762817Y-111210488D01*
X148835288Y-111336011D01*
X148835290Y-111336013D01*
X148835291Y-111336015D01*
X148937785Y-111438509D01*
X148937786Y-111438510D01*
X148937788Y-111438511D01*
X149063311Y-111510982D01*
X149063312Y-111510982D01*
X149063315Y-111510984D01*
X149203325Y-111548500D01*
X149279256Y-111548500D01*
X149346295Y-111568185D01*
X149366937Y-111584819D01*
X149592737Y-111810619D01*
X149626222Y-111871942D01*
X149621238Y-111941634D01*
X149579366Y-111997567D01*
X149513902Y-112021984D01*
X149505056Y-112022300D01*
X149429125Y-112022300D01*
X149317415Y-112052233D01*
X149289111Y-112059817D01*
X149163588Y-112132288D01*
X149163582Y-112132293D01*
X149061093Y-112234782D01*
X149061088Y-112234788D01*
X149046966Y-112259248D01*
X149031935Y-112279989D01*
X149026003Y-112286609D01*
X149026001Y-112286612D01*
X148990121Y-112347247D01*
X148982803Y-112360491D01*
X148982156Y-112361749D01*
X148975404Y-112375934D01*
X148948492Y-112437255D01*
X148941072Y-112456175D01*
X148940480Y-112457880D01*
X148934645Y-112477101D01*
X148904664Y-112591927D01*
X148903661Y-112595901D01*
X148903587Y-112596202D01*
X148902383Y-112601370D01*
X148893995Y-112639126D01*
X148889769Y-112653808D01*
X148887923Y-112658995D01*
X148877858Y-112680498D01*
X148874389Y-112686369D01*
X148861339Y-112704500D01*
X148824759Y-112746708D01*
X148824752Y-112746717D01*
X148822118Y-112751157D01*
X148803165Y-112775551D01*
X148618781Y-112959936D01*
X148557458Y-112993421D01*
X148487767Y-112988437D01*
X148431833Y-112946566D01*
X148407416Y-112881101D01*
X148407100Y-112872255D01*
X148407100Y-110582144D01*
X148426785Y-110515105D01*
X148443419Y-110494463D01*
X148927863Y-110010019D01*
X148989186Y-109976534D01*
X149015544Y-109973700D01*
X149091472Y-109973700D01*
X149091475Y-109973700D01*
X149231485Y-109936184D01*
X149357015Y-109863709D01*
X149459509Y-109761215D01*
X149531984Y-109635685D01*
X149569500Y-109495675D01*
X149569500Y-109350725D01*
X149531984Y-109210715D01*
X149459509Y-109085185D01*
X149357015Y-108982691D01*
X149357013Y-108982690D01*
X149357011Y-108982688D01*
X149231488Y-108910217D01*
X149231489Y-108910217D01*
X149220006Y-108907140D01*
X149091475Y-108872700D01*
X148946525Y-108872700D01*
X148817993Y-108907140D01*
X148806511Y-108910217D01*
X148680988Y-108982688D01*
X148680982Y-108982693D01*
X148578493Y-109085182D01*
X148578488Y-109085188D01*
X148506017Y-109210711D01*
X148506016Y-109210715D01*
X148468500Y-109350725D01*
X148468500Y-109350727D01*
X148468500Y-109426656D01*
X148448815Y-109493695D01*
X148432181Y-109514337D01*
X147780581Y-110165937D01*
X147719258Y-110199422D01*
X147649566Y-110194438D01*
X147593633Y-110152566D01*
X147569216Y-110087102D01*
X147568900Y-110078256D01*
X147568900Y-106978144D01*
X147588585Y-106911105D01*
X147605219Y-106890463D01*
X148408863Y-106086819D01*
X148470186Y-106053334D01*
X148496544Y-106050500D01*
X148572472Y-106050500D01*
X148572475Y-106050500D01*
X148712485Y-106012984D01*
X148838015Y-105940509D01*
X148912319Y-105866205D01*
X148973642Y-105832720D01*
X149043334Y-105837704D01*
X149087681Y-105866205D01*
X149161985Y-105940509D01*
X149161986Y-105940510D01*
X149161988Y-105940511D01*
X149287511Y-106012982D01*
X149287512Y-106012982D01*
X149287515Y-106012984D01*
X149427525Y-106050500D01*
X149503456Y-106050500D01*
X149570495Y-106070185D01*
X149591137Y-106086819D01*
X151784581Y-108280263D01*
X151818066Y-108341586D01*
X151820900Y-108367944D01*
X151820900Y-124339656D01*
X151801215Y-124406695D01*
X151784581Y-124427337D01*
X150086237Y-126125681D01*
X150024914Y-126159166D01*
X149998556Y-126162000D01*
X149249500Y-126162000D01*
X149182461Y-126142315D01*
X149136706Y-126089511D01*
X149125500Y-126038000D01*
X149125500Y-126002136D01*
X149125500Y-126002128D01*
X149119091Y-125942518D01*
X149090912Y-125866967D01*
X149068797Y-125807672D01*
X149068796Y-125807671D01*
X149068796Y-125807670D01*
X148982546Y-125692454D01*
X148867330Y-125606204D01*
X148867328Y-125606203D01*
X148867327Y-125606202D01*
X148732481Y-125555908D01*
X148732482Y-125555908D01*
X148672882Y-125549501D01*
X148672880Y-125549500D01*
X148672872Y-125549500D01*
X147327128Y-125549500D01*
X147327120Y-125549500D01*
X147327117Y-125549501D01*
X147267518Y-125555908D01*
X147132672Y-125606202D01*
X147132670Y-125606204D01*
X147017454Y-125692454D01*
X146931204Y-125807670D01*
X146931202Y-125807672D01*
X146880908Y-125942518D01*
X146874501Y-126002117D01*
X146874500Y-126002136D01*
X146874500Y-127022863D01*
X146874501Y-127022882D01*
X146880908Y-127082481D01*
X146931202Y-127217327D01*
X146931203Y-127217328D01*
X146931204Y-127217330D01*
X147017454Y-127332546D01*
X147132670Y-127418796D01*
X147132671Y-127418796D01*
X147132672Y-127418797D01*
X147267518Y-127469091D01*
X147267517Y-127469091D01*
X147274445Y-127469835D01*
X147327128Y-127475500D01*
X147327137Y-127475500D01*
X148672863Y-127475500D01*
X148672872Y-127475500D01*
X148732482Y-127469091D01*
X148867330Y-127418796D01*
X148982546Y-127332546D01*
X149068796Y-127217330D01*
X149119091Y-127082482D01*
X149125500Y-127022872D01*
X149125500Y-126987000D01*
X149145185Y-126919961D01*
X149197989Y-126874206D01*
X149249500Y-126863000D01*
X149829456Y-126863000D01*
X149896495Y-126882685D01*
X149942250Y-126935489D01*
X149952194Y-127004647D01*
X149923169Y-127068203D01*
X149917137Y-127074681D01*
X148503637Y-128488181D01*
X148442314Y-128521666D01*
X148415956Y-128524500D01*
X147327128Y-128524500D01*
X147327120Y-128524500D01*
X147327117Y-128524501D01*
X147267518Y-128530908D01*
X147132672Y-128581202D01*
X147132670Y-128581204D01*
X147017454Y-128667454D01*
X146931204Y-128782670D01*
X146931202Y-128782672D01*
X146885080Y-128906333D01*
X146843209Y-128962267D01*
X146777744Y-128986684D01*
X146768898Y-128987000D01*
X144231102Y-128987000D01*
X144164063Y-128967315D01*
X144118308Y-128914511D01*
X144114920Y-128906333D01*
X144068797Y-128782672D01*
X144068796Y-128782671D01*
X144068796Y-128782670D01*
X143982546Y-128667454D01*
X143867330Y-128581204D01*
X143867328Y-128581203D01*
X143867327Y-128581202D01*
X143732481Y-128530908D01*
X143732482Y-128530908D01*
X143672882Y-128524501D01*
X143672880Y-128524500D01*
X143672872Y-128524500D01*
X142327128Y-128524500D01*
X142327120Y-128524500D01*
X142327117Y-128524501D01*
X142267518Y-128530908D01*
X142132672Y-128581202D01*
X142132670Y-128581204D01*
X142017454Y-128667454D01*
X141931204Y-128782670D01*
X141931202Y-128782672D01*
X141885080Y-128906333D01*
X141843209Y-128962267D01*
X141777744Y-128986684D01*
X141768898Y-128987000D01*
X139231102Y-128987000D01*
X139164063Y-128967315D01*
X139118308Y-128914511D01*
X139114920Y-128906333D01*
X139068797Y-128782672D01*
X139068796Y-128782671D01*
X139068796Y-128782670D01*
X138982546Y-128667454D01*
X138867330Y-128581204D01*
X138867328Y-128581203D01*
X138867327Y-128581202D01*
X138732481Y-128530908D01*
X138732482Y-128530908D01*
X138672882Y-128524501D01*
X138672880Y-128524500D01*
X138672872Y-128524500D01*
X137327128Y-128524500D01*
X137327120Y-128524500D01*
X137327117Y-128524501D01*
X137267518Y-128530908D01*
X137132672Y-128581202D01*
X137132670Y-128581204D01*
X137017454Y-128667454D01*
X136931204Y-128782670D01*
X136931202Y-128782672D01*
X136885080Y-128906333D01*
X136843209Y-128962267D01*
X136777744Y-128986684D01*
X136768898Y-128987000D01*
X134231102Y-128987000D01*
X134164063Y-128967315D01*
X134118308Y-128914511D01*
X134114920Y-128906333D01*
X134068797Y-128782672D01*
X134068796Y-128782671D01*
X134068796Y-128782670D01*
X133982546Y-128667454D01*
X133867330Y-128581204D01*
X133867328Y-128581203D01*
X133867327Y-128581202D01*
X133732481Y-128530908D01*
X133732482Y-128530908D01*
X133672882Y-128524501D01*
X133672880Y-128524500D01*
X133672872Y-128524500D01*
X132327128Y-128524500D01*
X132327120Y-128524500D01*
X132327117Y-128524501D01*
X132267518Y-128530908D01*
X132132672Y-128581202D01*
X132132670Y-128581204D01*
X132017454Y-128667454D01*
X131931204Y-128782670D01*
X131931202Y-128782672D01*
X131885080Y-128906333D01*
X131843209Y-128962267D01*
X131777744Y-128986684D01*
X131768898Y-128987000D01*
X129231102Y-128987000D01*
X129164063Y-128967315D01*
X129118308Y-128914511D01*
X129114920Y-128906333D01*
X129068797Y-128782672D01*
X129068796Y-128782671D01*
X129068796Y-128782670D01*
X128982546Y-128667454D01*
X128867330Y-128581204D01*
X128867328Y-128581203D01*
X128867327Y-128581202D01*
X128732481Y-128530908D01*
X128732482Y-128530908D01*
X128672882Y-128524501D01*
X128672880Y-128524500D01*
X128672872Y-128524500D01*
X127327128Y-128524500D01*
X127327120Y-128524500D01*
X127327117Y-128524501D01*
X127267518Y-128530908D01*
X127132672Y-128581202D01*
X127132670Y-128581204D01*
X127017454Y-128667454D01*
X126931204Y-128782670D01*
X126931202Y-128782672D01*
X126880908Y-128917518D01*
X126874501Y-128977117D01*
X126874500Y-128977136D01*
X126874500Y-129997863D01*
X126874501Y-129997882D01*
X126880908Y-130057481D01*
X126931202Y-130192327D01*
X126931203Y-130192328D01*
X126931204Y-130192330D01*
X127017454Y-130307546D01*
X127132670Y-130393796D01*
X127132671Y-130393796D01*
X127132672Y-130393797D01*
X127267518Y-130444091D01*
X127267517Y-130444091D01*
X127274445Y-130444835D01*
X127327128Y-130450500D01*
X127327137Y-130450500D01*
X128672863Y-130450500D01*
X128672872Y-130450500D01*
X128732482Y-130444091D01*
X128867330Y-130393796D01*
X128982546Y-130307546D01*
X129068796Y-130192330D01*
X129100888Y-130106287D01*
X129114920Y-130068667D01*
X129156791Y-130012733D01*
X129222256Y-129988316D01*
X129231102Y-129988000D01*
X131768898Y-129988000D01*
X131835937Y-130007685D01*
X131881692Y-130060489D01*
X131885080Y-130068667D01*
X131931202Y-130192327D01*
X131931203Y-130192328D01*
X131931204Y-130192330D01*
X132017454Y-130307546D01*
X132132670Y-130393796D01*
X132132671Y-130393796D01*
X132132672Y-130393797D01*
X132267518Y-130444091D01*
X132267517Y-130444091D01*
X132274445Y-130444835D01*
X132327128Y-130450500D01*
X132327137Y-130450500D01*
X133672863Y-130450500D01*
X133672872Y-130450500D01*
X133732482Y-130444091D01*
X133867330Y-130393796D01*
X133982546Y-130307546D01*
X134068796Y-130192330D01*
X134100888Y-130106287D01*
X134114920Y-130068667D01*
X134156791Y-130012733D01*
X134222256Y-129988316D01*
X134231102Y-129988000D01*
X136768898Y-129988000D01*
X136835937Y-130007685D01*
X136881692Y-130060489D01*
X136885080Y-130068667D01*
X136931202Y-130192327D01*
X136931203Y-130192328D01*
X136931204Y-130192330D01*
X137017454Y-130307546D01*
X137132670Y-130393796D01*
X137132671Y-130393796D01*
X137132672Y-130393797D01*
X137267518Y-130444091D01*
X137267517Y-130444091D01*
X137274445Y-130444835D01*
X137327128Y-130450500D01*
X137327137Y-130450500D01*
X138672863Y-130450500D01*
X138672872Y-130450500D01*
X138732482Y-130444091D01*
X138867330Y-130393796D01*
X138982546Y-130307546D01*
X139068796Y-130192330D01*
X139100888Y-130106287D01*
X139114920Y-130068667D01*
X139156791Y-130012733D01*
X139222256Y-129988316D01*
X139231102Y-129988000D01*
X141768898Y-129988000D01*
X141835937Y-130007685D01*
X141881692Y-130060489D01*
X141885080Y-130068667D01*
X141931202Y-130192327D01*
X141931203Y-130192328D01*
X141931204Y-130192330D01*
X142017454Y-130307546D01*
X142132670Y-130393796D01*
X142132671Y-130393796D01*
X142132672Y-130393797D01*
X142267518Y-130444091D01*
X142267517Y-130444091D01*
X142274445Y-130444835D01*
X142327128Y-130450500D01*
X142327137Y-130450500D01*
X143672863Y-130450500D01*
X143672872Y-130450500D01*
X143732482Y-130444091D01*
X143867330Y-130393796D01*
X143982546Y-130307546D01*
X144068796Y-130192330D01*
X144100888Y-130106287D01*
X144114920Y-130068667D01*
X144156791Y-130012733D01*
X144222256Y-129988316D01*
X144231102Y-129988000D01*
X146768898Y-129988000D01*
X146835937Y-130007685D01*
X146881692Y-130060489D01*
X146885080Y-130068667D01*
X146931202Y-130192327D01*
X146931203Y-130192328D01*
X146931204Y-130192330D01*
X147017454Y-130307546D01*
X147132670Y-130393796D01*
X147132671Y-130393796D01*
X147132672Y-130393797D01*
X147267518Y-130444091D01*
X147267517Y-130444091D01*
X147274445Y-130444835D01*
X147327128Y-130450500D01*
X147327137Y-130450500D01*
X148672863Y-130450500D01*
X148672872Y-130450500D01*
X148732482Y-130444091D01*
X148867330Y-130393796D01*
X148982546Y-130307546D01*
X149068796Y-130192330D01*
X149119091Y-130057482D01*
X149125500Y-129997872D01*
X149125500Y-128977128D01*
X149120246Y-128928262D01*
X149132651Y-128859503D01*
X149155851Y-128827329D01*
X153010670Y-124972512D01*
X153056814Y-124892588D01*
X153063765Y-124866647D01*
X153065279Y-124860999D01*
X153072989Y-124832222D01*
X153080700Y-124803444D01*
X153080700Y-107834113D01*
X153056814Y-107744969D01*
X153055495Y-107742685D01*
X153010670Y-107665045D01*
X149912178Y-104566553D01*
X158499500Y-104571508D01*
X158499500Y-133375500D01*
X158479815Y-133442539D01*
X158427011Y-133488294D01*
X158375500Y-133499500D01*
X115624500Y-133499500D01*
X115557461Y-133479815D01*
X115511706Y-133427011D01*
X115500500Y-133375500D01*
X115500500Y-130202118D01*
X115520185Y-130135079D01*
X115572989Y-130089324D01*
X115624500Y-130078118D01*
X116575586Y-130078118D01*
X116575586Y-129893713D01*
X119149500Y-129893713D01*
X119149500Y-130106286D01*
X119181376Y-130307546D01*
X119182754Y-130316243D01*
X119226376Y-130450498D01*
X119248444Y-130518414D01*
X119344951Y-130707820D01*
X119469890Y-130879786D01*
X119620213Y-131030109D01*
X119792179Y-131155048D01*
X119792181Y-131155049D01*
X119792184Y-131155051D01*
X119981588Y-131251557D01*
X120183757Y-131317246D01*
X120393713Y-131350500D01*
X120393714Y-131350500D01*
X120606286Y-131350500D01*
X120606287Y-131350500D01*
X120816243Y-131317246D01*
X121018412Y-131251557D01*
X121207816Y-131155051D01*
X121229789Y-131139086D01*
X121379786Y-131030109D01*
X121379788Y-131030106D01*
X121379792Y-131030104D01*
X121530104Y-130879792D01*
X121530106Y-130879788D01*
X121530109Y-130879786D01*
X121655048Y-130707820D01*
X121655047Y-130707820D01*
X121655051Y-130707816D01*
X121751557Y-130518412D01*
X121817246Y-130316243D01*
X121850500Y-130106287D01*
X121850500Y-129893713D01*
X121817246Y-129683757D01*
X121751557Y-129481588D01*
X121655051Y-129292184D01*
X121655049Y-129292181D01*
X121655048Y-129292179D01*
X121530109Y-129120213D01*
X121379786Y-128969890D01*
X121207820Y-128844951D01*
X121018414Y-128748444D01*
X121018413Y-128748443D01*
X121018412Y-128748443D01*
X120816243Y-128682754D01*
X120816241Y-128682753D01*
X120816240Y-128682753D01*
X120654957Y-128657208D01*
X120606287Y-128649500D01*
X120393713Y-128649500D01*
X120345042Y-128657208D01*
X120183760Y-128682753D01*
X119981585Y-128748444D01*
X119792179Y-128844951D01*
X119620213Y-128969890D01*
X119469890Y-129120213D01*
X119344951Y-129292179D01*
X119248444Y-129481585D01*
X119182753Y-129683760D01*
X119149500Y-129893713D01*
X116575586Y-129893713D01*
X116575586Y-126192375D01*
X116576826Y-126188150D01*
X116575879Y-126183849D01*
X116586584Y-126154919D01*
X116595271Y-126125336D01*
X116598598Y-126122452D01*
X116600127Y-126118322D01*
X116624771Y-126099773D01*
X116648075Y-126079581D01*
X116652433Y-126078954D01*
X116655952Y-126076306D01*
X116686706Y-126074026D01*
X116717233Y-126069637D01*
X116722476Y-126071374D01*
X116725631Y-126071141D01*
X116758725Y-126083386D01*
X116770581Y-126089820D01*
X116770596Y-126089828D01*
X116781708Y-126096638D01*
X116795812Y-126106336D01*
X116799031Y-126107871D01*
X116799032Y-126107872D01*
X116811517Y-126113827D01*
X116822909Y-126120012D01*
X116837046Y-126128674D01*
X116840682Y-126130207D01*
X116840849Y-126130374D01*
X116854134Y-126135879D01*
X116854493Y-126136031D01*
X116854617Y-126136132D01*
X116865450Y-126141298D01*
X116877720Y-126147957D01*
X116880785Y-126149620D01*
X116897009Y-126155365D01*
X116908231Y-126159968D01*
X116908573Y-126160128D01*
X116921481Y-126166286D01*
X116921744Y-126166299D01*
X116925435Y-126168029D01*
X116927879Y-126168752D01*
X116927880Y-126168753D01*
X116941137Y-126172677D01*
X116953400Y-126177020D01*
X116966188Y-126182320D01*
X116966189Y-126182320D01*
X116968536Y-126183293D01*
X116972471Y-126184264D01*
X116972668Y-126184408D01*
X116986601Y-126187754D01*
X116986893Y-126187827D01*
X116987033Y-126187909D01*
X116998550Y-126191321D01*
X117011760Y-126196000D01*
X117014987Y-126197143D01*
X117018337Y-126197763D01*
X117018338Y-126197764D01*
X117032101Y-126200313D01*
X117043942Y-126203114D01*
X117044255Y-126203204D01*
X117057973Y-126207266D01*
X117058218Y-126207240D01*
X117062059Y-126208350D01*
X117064594Y-126208683D01*
X117064597Y-126208685D01*
X117078318Y-126210490D01*
X117091075Y-126212856D01*
X117104590Y-126216103D01*
X117104591Y-126216102D01*
X117107081Y-126216701D01*
X117111113Y-126217045D01*
X117111345Y-126217164D01*
X117125644Y-126218288D01*
X117126030Y-126218322D01*
X117126193Y-126218385D01*
X117138053Y-126219946D01*
X117151741Y-126222483D01*
X117151742Y-126222482D01*
X117155095Y-126223104D01*
X117158491Y-126223193D01*
X117158494Y-126223194D01*
X117172424Y-126223558D01*
X117185349Y-126224575D01*
X117199113Y-126226387D01*
X117199118Y-126226385D01*
X117206221Y-126225920D01*
X117224057Y-126226035D01*
X117246596Y-126227810D01*
X117246600Y-126227808D01*
X117253703Y-126226968D01*
X117266557Y-126226120D01*
X117269043Y-126226085D01*
X117294123Y-126226742D01*
X117296842Y-126225698D01*
X117310199Y-126225512D01*
X117310570Y-126225615D01*
X117311926Y-126225500D01*
X118388074Y-126225500D01*
X118403387Y-126226806D01*
X118405874Y-126226740D01*
X118405877Y-126226742D01*
X118428476Y-126226150D01*
X118446293Y-126226968D01*
X118453401Y-126227809D01*
X118453404Y-126227810D01*
X118475983Y-126226032D01*
X118479794Y-126225793D01*
X118485978Y-126225500D01*
X118497577Y-126225500D01*
X118500887Y-126226387D01*
X118519793Y-126223897D01*
X118524964Y-126223653D01*
X118525306Y-126223736D01*
X118527591Y-126223556D01*
X118541507Y-126223193D01*
X118541507Y-126223192D01*
X118544908Y-126223104D01*
X118548258Y-126222482D01*
X118548259Y-126222483D01*
X118561943Y-126219946D01*
X118573972Y-126218321D01*
X118574242Y-126218297D01*
X118588655Y-126217164D01*
X118588889Y-126217044D01*
X118592928Y-126216699D01*
X118595409Y-126216102D01*
X118595411Y-126216103D01*
X118608910Y-126212859D01*
X118621695Y-126210488D01*
X118635403Y-126208685D01*
X118635405Y-126208683D01*
X118637941Y-126208350D01*
X118641781Y-126207240D01*
X118642027Y-126207266D01*
X118655718Y-126203212D01*
X118656051Y-126203116D01*
X118656217Y-126203116D01*
X118667896Y-126200314D01*
X118681662Y-126197764D01*
X118681662Y-126197763D01*
X118685007Y-126197144D01*
X118688237Y-126195999D01*
X118688240Y-126196000D01*
X118701451Y-126191321D01*
X118713096Y-126187830D01*
X118713396Y-126187755D01*
X118727333Y-126184408D01*
X118727532Y-126184262D01*
X118731465Y-126183291D01*
X118733808Y-126182320D01*
X118733812Y-126182320D01*
X118746600Y-126177019D01*
X118758857Y-126172678D01*
X118772120Y-126168753D01*
X118772121Y-126168752D01*
X118774567Y-126168028D01*
X118778255Y-126166299D01*
X118778518Y-126166286D01*
X118791500Y-126160092D01*
X118791756Y-126159973D01*
X118791930Y-126159946D01*
X118802977Y-126155369D01*
X118816134Y-126150711D01*
X118816135Y-126150709D01*
X118819213Y-126149620D01*
X118822277Y-126147957D01*
X118822278Y-126147957D01*
X118834543Y-126141301D01*
X118846199Y-126135741D01*
X118859151Y-126130375D01*
X118859152Y-126130373D01*
X118862320Y-126129061D01*
X118865140Y-126127332D01*
X118865144Y-126127332D01*
X118877091Y-126120011D01*
X118887747Y-126114181D01*
X118887972Y-126114071D01*
X118900968Y-126107873D01*
X118901135Y-126107686D01*
X118904823Y-126105898D01*
X118906900Y-126104469D01*
X118906903Y-126104469D01*
X118918293Y-126096636D01*
X118929405Y-126089827D01*
X118941527Y-126083250D01*
X118941529Y-126083246D01*
X118943766Y-126082033D01*
X118947031Y-126079563D01*
X118947291Y-126079494D01*
X118958561Y-126070843D01*
X118958924Y-126070570D01*
X118959091Y-126070506D01*
X118968948Y-126063732D01*
X118980835Y-126056450D01*
X118980836Y-126056448D01*
X118983721Y-126054681D01*
X118986371Y-126052416D01*
X118986374Y-126052416D01*
X118996990Y-126043346D01*
X119006609Y-126035913D01*
X119006777Y-126035795D01*
X119018699Y-126027599D01*
X119018835Y-126027388D01*
X119021990Y-126025189D01*
X119023889Y-126023387D01*
X119023893Y-126023386D01*
X119033974Y-126013822D01*
X119043812Y-126005421D01*
X119054927Y-125996893D01*
X119054928Y-125996891D01*
X119057709Y-125994757D01*
X119060011Y-125992329D01*
X119060015Y-125992328D01*
X119069659Y-125982160D01*
X119078449Y-125973761D01*
X119078691Y-125973551D01*
X119089527Y-125964295D01*
X119089642Y-125964067D01*
X119092608Y-125961500D01*
X119094292Y-125959528D01*
X119094295Y-125959527D01*
X119103231Y-125949065D01*
X119112180Y-125939639D01*
X119122328Y-125930014D01*
X119122328Y-125930012D01*
X119124174Y-125928262D01*
X119126668Y-125925056D01*
X119126893Y-125924927D01*
X119135712Y-125913434D01*
X119135929Y-125913156D01*
X119136068Y-125913055D01*
X119143822Y-125903975D01*
X119153386Y-125893893D01*
X119153386Y-125893890D01*
X119155718Y-125891433D01*
X119157596Y-125888700D01*
X119157599Y-125888699D01*
X119165468Y-125877252D01*
X119173351Y-125866983D01*
X119182416Y-125856373D01*
X119182417Y-125856369D01*
X119184690Y-125853709D01*
X119186451Y-125850835D01*
X119193738Y-125838938D01*
X119200575Y-125828916D01*
X119200765Y-125828663D01*
X119209494Y-125817291D01*
X119209563Y-125817031D01*
X119212034Y-125813765D01*
X119213247Y-125811529D01*
X119213250Y-125811527D01*
X119219831Y-125799396D01*
X119226639Y-125788290D01*
X119235898Y-125774825D01*
X119237688Y-125771132D01*
X119237872Y-125770968D01*
X119243998Y-125758124D01*
X119244180Y-125757750D01*
X119244289Y-125757628D01*
X119250017Y-125747082D01*
X119257332Y-125735144D01*
X119257332Y-125735140D01*
X119259057Y-125732326D01*
X119260371Y-125729153D01*
X119260374Y-125729151D01*
X119265741Y-125716200D01*
X119270941Y-125705212D01*
X119271078Y-125704954D01*
X119277958Y-125692278D01*
X119277982Y-125692045D01*
X119279861Y-125688533D01*
X119285364Y-125672993D01*
X119290332Y-125660997D01*
X119296286Y-125648519D01*
X119296286Y-125648516D01*
X119297796Y-125645352D01*
X119298753Y-125642120D01*
X119302677Y-125628862D01*
X119307019Y-125616600D01*
X119312320Y-125603812D01*
X119312320Y-125603808D01*
X119313290Y-125601468D01*
X119314262Y-125597532D01*
X119314408Y-125597332D01*
X119317756Y-125583390D01*
X119317831Y-125583090D01*
X119317915Y-125582945D01*
X119321317Y-125571460D01*
X119326000Y-125558240D01*
X119325999Y-125558235D01*
X119327145Y-125555002D01*
X119328164Y-125549501D01*
X119330314Y-125537891D01*
X119333116Y-125526051D01*
X119333211Y-125525719D01*
X119337266Y-125512027D01*
X119337240Y-125511780D01*
X119338350Y-125507940D01*
X119338683Y-125505405D01*
X119338685Y-125505403D01*
X119340488Y-125491694D01*
X119342860Y-125478907D01*
X119346103Y-125465410D01*
X119346102Y-125465408D01*
X119346700Y-125462923D01*
X119347045Y-125458887D01*
X119347164Y-125458655D01*
X119348293Y-125444292D01*
X119348321Y-125443976D01*
X119348384Y-125443813D01*
X119349947Y-125431942D01*
X119353104Y-125414907D01*
X119353193Y-125411508D01*
X119353194Y-125411506D01*
X119353558Y-125397578D01*
X119354469Y-125385482D01*
X119354518Y-125385088D01*
X119356387Y-125370887D01*
X119356320Y-125370637D01*
X119356810Y-125366709D01*
X119356671Y-125361444D01*
X119356378Y-125350236D01*
X119356718Y-125337270D01*
X119357810Y-125323404D01*
X119357809Y-125323400D01*
X119358077Y-125319999D01*
X120291922Y-125319999D01*
X120293281Y-125337270D01*
X120293621Y-125350236D01*
X120293190Y-125366718D01*
X120293679Y-125370640D01*
X120293613Y-125370887D01*
X120295454Y-125384878D01*
X120295531Y-125385494D01*
X120295503Y-125385665D01*
X120296441Y-125397585D01*
X120296895Y-125414900D01*
X120300053Y-125431949D01*
X120301675Y-125443952D01*
X120301719Y-125444468D01*
X120302836Y-125458655D01*
X120302953Y-125458886D01*
X120303300Y-125462929D01*
X120307140Y-125478913D01*
X120309509Y-125491691D01*
X120311647Y-125507934D01*
X120312759Y-125511783D01*
X120312734Y-125512027D01*
X120316785Y-125525713D01*
X120316885Y-125526057D01*
X120316884Y-125526225D01*
X120319685Y-125537894D01*
X120322856Y-125555012D01*
X120328676Y-125571446D01*
X120332166Y-125583089D01*
X120332299Y-125583628D01*
X120335592Y-125597333D01*
X120335733Y-125597527D01*
X120336705Y-125601461D01*
X120338670Y-125606202D01*
X120342978Y-125616597D01*
X120347322Y-125628862D01*
X120351972Y-125644571D01*
X120353700Y-125648259D01*
X120353714Y-125648518D01*
X120359831Y-125661343D01*
X120360032Y-125661771D01*
X120360058Y-125661944D01*
X120364633Y-125672986D01*
X120370380Y-125689214D01*
X120378694Y-125704535D01*
X120384257Y-125716200D01*
X120390937Y-125732319D01*
X120399982Y-125747082D01*
X120405812Y-125757737D01*
X120406011Y-125758148D01*
X120412127Y-125770968D01*
X120412311Y-125771133D01*
X120414102Y-125774825D01*
X120423362Y-125788293D01*
X120430171Y-125799404D01*
X120437962Y-125813761D01*
X120440436Y-125817033D01*
X120440506Y-125817291D01*
X120449200Y-125828620D01*
X120449433Y-125828928D01*
X120449496Y-125829095D01*
X120456261Y-125838938D01*
X120462491Y-125849106D01*
X120465321Y-125853726D01*
X120476647Y-125866983D01*
X120484079Y-125876600D01*
X120484274Y-125876880D01*
X120492401Y-125888699D01*
X120492610Y-125888834D01*
X120494813Y-125891994D01*
X120506170Y-125903967D01*
X120514571Y-125913805D01*
X120521925Y-125923386D01*
X120525244Y-125927712D01*
X120537833Y-125939653D01*
X120546235Y-125948446D01*
X120546500Y-125948752D01*
X120555705Y-125959527D01*
X120555928Y-125959640D01*
X120558495Y-125962605D01*
X120560472Y-125964294D01*
X120560473Y-125964295D01*
X120570939Y-125973236D01*
X120580354Y-125982174D01*
X120591739Y-125994176D01*
X120594944Y-125996670D01*
X120595073Y-125996893D01*
X120606492Y-126005656D01*
X120606841Y-126005928D01*
X120606941Y-126006067D01*
X120616023Y-126013822D01*
X120628563Y-126025716D01*
X120631300Y-126027598D01*
X120631301Y-126027599D01*
X120640032Y-126033602D01*
X120642737Y-126035462D01*
X120653023Y-126043357D01*
X120663627Y-126052416D01*
X120663628Y-126052416D01*
X120666284Y-126054685D01*
X120669163Y-126056449D01*
X120669165Y-126056451D01*
X120681061Y-126063739D01*
X120691076Y-126070571D01*
X120691470Y-126070869D01*
X120702709Y-126079494D01*
X120702965Y-126079562D01*
X120706237Y-126082037D01*
X120720593Y-126089827D01*
X120731708Y-126096638D01*
X120745173Y-126105897D01*
X120748866Y-126107688D01*
X120749032Y-126107872D01*
X120761995Y-126114055D01*
X120762241Y-126114175D01*
X120762366Y-126114288D01*
X120772906Y-126120010D01*
X120784856Y-126127332D01*
X120787675Y-126129059D01*
X120803786Y-126135736D01*
X120814791Y-126140944D01*
X120815174Y-126141148D01*
X120827722Y-126147958D01*
X120827951Y-126147982D01*
X120831461Y-126149859D01*
X120833865Y-126150710D01*
X120833866Y-126150711D01*
X120847009Y-126155365D01*
X120859001Y-126160332D01*
X120871481Y-126166286D01*
X120871482Y-126166286D01*
X120874646Y-126167795D01*
X120877878Y-126168752D01*
X120877880Y-126168753D01*
X120891137Y-126172677D01*
X120903400Y-126177020D01*
X120916188Y-126182320D01*
X120916189Y-126182320D01*
X120918536Y-126183293D01*
X120922471Y-126184264D01*
X120922668Y-126184408D01*
X120936601Y-126187754D01*
X120936893Y-126187827D01*
X120937033Y-126187909D01*
X120948550Y-126191321D01*
X120961760Y-126196000D01*
X120964987Y-126197143D01*
X120968337Y-126197763D01*
X120968338Y-126197764D01*
X120982101Y-126200313D01*
X120993942Y-126203114D01*
X120994255Y-126203204D01*
X121007973Y-126207266D01*
X121008218Y-126207240D01*
X121012059Y-126208350D01*
X121014594Y-126208683D01*
X121014597Y-126208685D01*
X121028318Y-126210490D01*
X121041075Y-126212856D01*
X121054590Y-126216103D01*
X121054591Y-126216102D01*
X121057081Y-126216701D01*
X121061113Y-126217045D01*
X121061345Y-126217164D01*
X121075644Y-126218288D01*
X121076030Y-126218322D01*
X121076193Y-126218385D01*
X121088053Y-126219946D01*
X121101741Y-126222483D01*
X121101742Y-126222482D01*
X121105095Y-126223104D01*
X121108491Y-126223193D01*
X121108494Y-126223194D01*
X121122424Y-126223558D01*
X121135349Y-126224575D01*
X121149113Y-126226387D01*
X121149118Y-126226385D01*
X121156221Y-126225920D01*
X121174057Y-126226035D01*
X121196596Y-126227810D01*
X121196600Y-126227808D01*
X121203703Y-126226968D01*
X121216557Y-126226120D01*
X121219043Y-126226085D01*
X121244123Y-126226742D01*
X121246842Y-126225698D01*
X121260199Y-126225512D01*
X121260570Y-126225615D01*
X121261926Y-126225500D01*
X123038074Y-126225500D01*
X123053387Y-126226806D01*
X123055874Y-126226740D01*
X123055877Y-126226742D01*
X123078476Y-126226150D01*
X123096293Y-126226968D01*
X123103401Y-126227809D01*
X123103404Y-126227810D01*
X123125983Y-126226032D01*
X123129794Y-126225793D01*
X123135978Y-126225500D01*
X123147577Y-126225500D01*
X123150887Y-126226387D01*
X123169793Y-126223897D01*
X123174964Y-126223653D01*
X123175306Y-126223736D01*
X123177591Y-126223556D01*
X123191507Y-126223193D01*
X123191507Y-126223192D01*
X123194908Y-126223104D01*
X123198258Y-126222482D01*
X123198259Y-126222483D01*
X123211943Y-126219946D01*
X123223972Y-126218321D01*
X123224242Y-126218297D01*
X123238655Y-126217164D01*
X123238889Y-126217044D01*
X123242928Y-126216699D01*
X123245409Y-126216102D01*
X123245411Y-126216103D01*
X123258910Y-126212859D01*
X123271695Y-126210488D01*
X123285403Y-126208685D01*
X123285405Y-126208683D01*
X123287941Y-126208350D01*
X123291781Y-126207240D01*
X123292027Y-126207266D01*
X123305718Y-126203212D01*
X123306051Y-126203116D01*
X123306217Y-126203116D01*
X123317896Y-126200314D01*
X123331662Y-126197764D01*
X123331662Y-126197763D01*
X123335007Y-126197144D01*
X123338237Y-126195999D01*
X123338240Y-126196000D01*
X123351451Y-126191321D01*
X123363096Y-126187830D01*
X123363396Y-126187755D01*
X123377333Y-126184408D01*
X123377532Y-126184262D01*
X123381465Y-126183291D01*
X123383808Y-126182320D01*
X123383812Y-126182320D01*
X123396600Y-126177019D01*
X123408857Y-126172678D01*
X123422120Y-126168753D01*
X123422121Y-126168752D01*
X123424567Y-126168028D01*
X123428255Y-126166299D01*
X123428518Y-126166286D01*
X123441500Y-126160092D01*
X123441756Y-126159973D01*
X123441930Y-126159946D01*
X123452977Y-126155369D01*
X123466134Y-126150711D01*
X123466135Y-126150709D01*
X123469213Y-126149620D01*
X123472277Y-126147957D01*
X123472278Y-126147957D01*
X123484543Y-126141301D01*
X123496199Y-126135741D01*
X123509151Y-126130375D01*
X123509152Y-126130373D01*
X123512320Y-126129061D01*
X123515140Y-126127332D01*
X123515144Y-126127332D01*
X123527091Y-126120011D01*
X123537747Y-126114181D01*
X123537972Y-126114071D01*
X123550968Y-126107873D01*
X123551135Y-126107686D01*
X123554823Y-126105898D01*
X123556900Y-126104469D01*
X123556903Y-126104469D01*
X123568293Y-126096636D01*
X123579405Y-126089827D01*
X123591527Y-126083250D01*
X123591529Y-126083246D01*
X123593766Y-126082033D01*
X123597031Y-126079563D01*
X123597291Y-126079494D01*
X123608561Y-126070843D01*
X123608924Y-126070570D01*
X123609091Y-126070506D01*
X123618948Y-126063732D01*
X123630835Y-126056450D01*
X123630836Y-126056448D01*
X123633721Y-126054681D01*
X123636371Y-126052416D01*
X123636374Y-126052416D01*
X123646990Y-126043346D01*
X123656609Y-126035913D01*
X123656777Y-126035795D01*
X123668699Y-126027599D01*
X123668835Y-126027388D01*
X123671990Y-126025189D01*
X123673889Y-126023387D01*
X123673893Y-126023386D01*
X123683974Y-126013822D01*
X123693812Y-126005421D01*
X123704927Y-125996893D01*
X123704928Y-125996891D01*
X123707709Y-125994757D01*
X123710011Y-125992329D01*
X123710015Y-125992328D01*
X123719659Y-125982160D01*
X123728449Y-125973761D01*
X123728691Y-125973551D01*
X123739527Y-125964295D01*
X123739642Y-125964067D01*
X123742608Y-125961500D01*
X123744292Y-125959528D01*
X123744295Y-125959527D01*
X123753231Y-125949065D01*
X123762180Y-125939639D01*
X123772328Y-125930014D01*
X123772328Y-125930012D01*
X123774174Y-125928262D01*
X123776668Y-125925056D01*
X123776893Y-125924927D01*
X123785712Y-125913434D01*
X123785929Y-125913156D01*
X123786068Y-125913055D01*
X123793822Y-125903975D01*
X123803386Y-125893893D01*
X123803386Y-125893890D01*
X123805718Y-125891433D01*
X123807596Y-125888700D01*
X123807599Y-125888699D01*
X123815468Y-125877252D01*
X123823351Y-125866983D01*
X123832416Y-125856373D01*
X123832417Y-125856369D01*
X123834690Y-125853709D01*
X123836451Y-125850835D01*
X123843738Y-125838938D01*
X123850575Y-125828916D01*
X123850765Y-125828663D01*
X123859494Y-125817291D01*
X123859563Y-125817031D01*
X123862034Y-125813765D01*
X123863247Y-125811529D01*
X123863250Y-125811527D01*
X123869831Y-125799396D01*
X123876639Y-125788290D01*
X123885898Y-125774825D01*
X123887688Y-125771132D01*
X123887872Y-125770968D01*
X123893998Y-125758124D01*
X123894180Y-125757750D01*
X123894289Y-125757628D01*
X123900017Y-125747082D01*
X123907332Y-125735144D01*
X123907332Y-125735140D01*
X123909057Y-125732326D01*
X123910371Y-125729153D01*
X123910374Y-125729151D01*
X123915741Y-125716200D01*
X123920941Y-125705212D01*
X123921078Y-125704954D01*
X123927958Y-125692278D01*
X123927982Y-125692045D01*
X123929861Y-125688533D01*
X123935364Y-125672993D01*
X123940332Y-125660997D01*
X123946286Y-125648519D01*
X123946286Y-125648516D01*
X123947796Y-125645352D01*
X123948753Y-125642120D01*
X123952677Y-125628862D01*
X123957019Y-125616600D01*
X123962320Y-125603812D01*
X123962320Y-125603808D01*
X123963290Y-125601468D01*
X123964262Y-125597532D01*
X123964408Y-125597332D01*
X123967756Y-125583390D01*
X123967831Y-125583090D01*
X123967915Y-125582945D01*
X123971317Y-125571460D01*
X123976000Y-125558240D01*
X123975999Y-125558235D01*
X123977145Y-125555002D01*
X123978164Y-125549501D01*
X123980314Y-125537891D01*
X123983116Y-125526051D01*
X123983211Y-125525719D01*
X123987266Y-125512027D01*
X123987240Y-125511780D01*
X123988350Y-125507940D01*
X123988683Y-125505405D01*
X123988685Y-125505403D01*
X123990488Y-125491694D01*
X123992860Y-125478907D01*
X123996103Y-125465410D01*
X123996102Y-125465408D01*
X123996700Y-125462923D01*
X123997045Y-125458887D01*
X123997164Y-125458655D01*
X123998293Y-125444292D01*
X123998321Y-125443976D01*
X123998384Y-125443813D01*
X123999947Y-125431942D01*
X124003104Y-125414907D01*
X124003193Y-125411508D01*
X124003194Y-125411506D01*
X124003558Y-125397578D01*
X124004469Y-125385482D01*
X124004518Y-125385088D01*
X124006387Y-125370887D01*
X124006320Y-125370637D01*
X124006810Y-125366709D01*
X124006671Y-125361444D01*
X124006378Y-125350236D01*
X124006718Y-125337270D01*
X124007810Y-125323404D01*
X124007809Y-125323401D01*
X124008077Y-125319998D01*
X124007809Y-125316598D01*
X124007810Y-125316596D01*
X124006717Y-125302727D01*
X124006358Y-125290594D01*
X124006362Y-125290352D01*
X124006742Y-125275877D01*
X124006647Y-125275630D01*
X124006724Y-125271680D01*
X124006386Y-125269114D01*
X124006387Y-125269113D01*
X124004576Y-125255351D01*
X124003558Y-125242418D01*
X124003558Y-125242416D01*
X124003194Y-125228494D01*
X124003192Y-125228491D01*
X124003125Y-125225907D01*
X124002428Y-125221997D01*
X124002483Y-125221741D01*
X123999879Y-125207695D01*
X123999795Y-125207219D01*
X123999813Y-125207047D01*
X123998253Y-125195186D01*
X123996891Y-125177872D01*
X123996102Y-125174591D01*
X123996103Y-125174590D01*
X123992855Y-125161073D01*
X123990606Y-125149180D01*
X123990571Y-125148929D01*
X123988685Y-125134597D01*
X123988547Y-125134359D01*
X123988010Y-125130486D01*
X123983340Y-125114713D01*
X123980313Y-125102098D01*
X123977143Y-125084987D01*
X123971324Y-125068558D01*
X123967827Y-125056893D01*
X123967754Y-125056601D01*
X123964408Y-125042668D01*
X123964264Y-125042471D01*
X123963293Y-125038536D01*
X123962320Y-125036188D01*
X123957020Y-125023400D01*
X123952676Y-125011133D01*
X123948029Y-124995435D01*
X123946299Y-124991744D01*
X123946286Y-124991481D01*
X123940128Y-124978573D01*
X123939968Y-124978231D01*
X123939941Y-124978056D01*
X123935365Y-124967009D01*
X123929620Y-124950785D01*
X123921301Y-124935455D01*
X123915736Y-124923786D01*
X123909059Y-124907675D01*
X123907332Y-124904856D01*
X123900010Y-124892906D01*
X123894175Y-124882241D01*
X123894055Y-124881995D01*
X123887872Y-124869032D01*
X123887688Y-124868866D01*
X123885897Y-124865173D01*
X123876638Y-124851708D01*
X123869827Y-124840593D01*
X123862037Y-124826237D01*
X123859562Y-124822965D01*
X123859494Y-124822709D01*
X123850869Y-124811470D01*
X123850571Y-124811076D01*
X123850508Y-124810909D01*
X123843739Y-124801061D01*
X123843738Y-124801059D01*
X123836451Y-124789165D01*
X123836449Y-124789163D01*
X123834685Y-124786284D01*
X123832416Y-124783628D01*
X123832416Y-124783627D01*
X123823357Y-124773023D01*
X123815922Y-124763402D01*
X123815714Y-124763103D01*
X123807599Y-124751301D01*
X123807390Y-124751165D01*
X123805186Y-124748004D01*
X123793822Y-124736023D01*
X123785419Y-124726182D01*
X123774760Y-124712292D01*
X123762174Y-124700354D01*
X123753769Y-124691559D01*
X123753494Y-124691241D01*
X123744295Y-124680473D01*
X123744070Y-124680358D01*
X123741502Y-124677392D01*
X123729077Y-124666778D01*
X123719653Y-124657833D01*
X123710015Y-124647672D01*
X123710013Y-124647671D01*
X123708262Y-124645825D01*
X123705055Y-124643330D01*
X123704927Y-124643107D01*
X123693501Y-124634339D01*
X123693152Y-124634067D01*
X123693053Y-124633929D01*
X123683967Y-124626170D01*
X123671433Y-124614280D01*
X123657268Y-124604541D01*
X123646983Y-124596647D01*
X123633726Y-124585321D01*
X123629106Y-124582491D01*
X123618935Y-124576259D01*
X123608928Y-124569433D01*
X123608620Y-124569200D01*
X123597291Y-124560506D01*
X123597033Y-124560436D01*
X123593761Y-124557962D01*
X123579404Y-124550171D01*
X123568293Y-124543362D01*
X123554825Y-124534102D01*
X123551133Y-124532311D01*
X123550968Y-124532127D01*
X123538148Y-124526011D01*
X123537737Y-124525812D01*
X123537612Y-124525699D01*
X123527082Y-124519982D01*
X123512319Y-124510937D01*
X123496200Y-124504257D01*
X123485198Y-124499051D01*
X123484844Y-124498861D01*
X123472278Y-124492043D01*
X123472050Y-124492019D01*
X123468537Y-124490140D01*
X123466134Y-124489289D01*
X123452978Y-124484629D01*
X123440999Y-124479667D01*
X123425354Y-124472204D01*
X123416075Y-124469457D01*
X123408854Y-124467319D01*
X123397445Y-124463326D01*
X123397036Y-124463160D01*
X123383812Y-124457680D01*
X123383529Y-124457679D01*
X123379904Y-124456209D01*
X123363863Y-124452355D01*
X123351446Y-124448676D01*
X123335012Y-124442856D01*
X123321795Y-124440407D01*
X123317889Y-124439683D01*
X123306057Y-124436885D01*
X123305713Y-124436785D01*
X123292027Y-124432734D01*
X123291783Y-124432759D01*
X123287934Y-124431647D01*
X123271691Y-124429509D01*
X123258913Y-124427140D01*
X123242929Y-124423300D01*
X123238886Y-124422953D01*
X123238655Y-124422836D01*
X123224468Y-124421719D01*
X123223952Y-124421675D01*
X123223787Y-124421611D01*
X123211949Y-124420053D01*
X123201357Y-124418091D01*
X123198259Y-124417517D01*
X123198258Y-124417517D01*
X123194900Y-124416895D01*
X123177583Y-124416441D01*
X123164659Y-124415425D01*
X123150883Y-124413612D01*
X123143772Y-124414079D01*
X123125932Y-124413963D01*
X123103399Y-124412189D01*
X123096279Y-124413032D01*
X123083442Y-124413879D01*
X123080947Y-124413913D01*
X123055877Y-124413258D01*
X123053158Y-124414301D01*
X123039802Y-124414488D01*
X123039429Y-124414384D01*
X123038072Y-124414500D01*
X121261928Y-124414500D01*
X121246610Y-124413193D01*
X121244123Y-124413258D01*
X121240369Y-124413356D01*
X121221523Y-124413849D01*
X121203709Y-124413032D01*
X121196596Y-124412190D01*
X121196595Y-124412190D01*
X121174067Y-124413963D01*
X121170201Y-124414206D01*
X121163989Y-124414500D01*
X121152423Y-124414500D01*
X121149113Y-124413613D01*
X121130219Y-124416098D01*
X121125029Y-124416344D01*
X121124689Y-124416261D01*
X121122418Y-124416440D01*
X121105095Y-124416894D01*
X121088050Y-124420052D01*
X121076042Y-124421675D01*
X121075461Y-124421724D01*
X121061345Y-124422836D01*
X121061116Y-124422952D01*
X121057080Y-124423298D01*
X121041073Y-124427143D01*
X121028306Y-124429510D01*
X121022984Y-124430210D01*
X121014597Y-124431315D01*
X121014596Y-124431315D01*
X121012055Y-124431650D01*
X121008215Y-124432759D01*
X121007973Y-124432734D01*
X120994461Y-124436733D01*
X120993931Y-124436887D01*
X120993766Y-124436886D01*
X120982109Y-124439683D01*
X120964985Y-124442856D01*
X120948548Y-124448677D01*
X120936906Y-124452168D01*
X120936443Y-124452282D01*
X120922668Y-124455592D01*
X120922473Y-124455733D01*
X120918529Y-124456708D01*
X120903406Y-124462976D01*
X120891142Y-124467320D01*
X120875437Y-124471970D01*
X120871743Y-124473700D01*
X120871481Y-124473714D01*
X120858662Y-124479828D01*
X120858215Y-124480038D01*
X120858037Y-124480065D01*
X120847012Y-124484633D01*
X120830783Y-124490381D01*
X120815439Y-124498706D01*
X120803786Y-124504264D01*
X120787669Y-124510944D01*
X120772906Y-124519988D01*
X120762258Y-124525814D01*
X120761741Y-124526064D01*
X120749032Y-124532128D01*
X120748869Y-124532308D01*
X120745176Y-124534100D01*
X120731702Y-124543365D01*
X120720598Y-124550169D01*
X120706236Y-124557963D01*
X120702963Y-124560437D01*
X120702709Y-124560506D01*
X120691499Y-124569107D01*
X120691072Y-124569431D01*
X120690907Y-124569493D01*
X120681063Y-124576259D01*
X120666281Y-124585315D01*
X120653024Y-124596641D01*
X120643410Y-124604070D01*
X120642926Y-124604406D01*
X120631301Y-124612401D01*
X120631167Y-124612606D01*
X120628010Y-124614808D01*
X120616020Y-124626180D01*
X120606187Y-124634576D01*
X120592289Y-124645242D01*
X120580352Y-124657826D01*
X120571568Y-124666221D01*
X120571115Y-124666613D01*
X120560473Y-124675705D01*
X120560359Y-124675927D01*
X120557391Y-124678498D01*
X120546769Y-124690931D01*
X120537837Y-124700341D01*
X120525825Y-124711737D01*
X120523328Y-124714945D01*
X120523107Y-124715073D01*
X120514402Y-124726415D01*
X120514064Y-124726850D01*
X120513924Y-124726950D01*
X120506175Y-124736026D01*
X120494283Y-124748563D01*
X120484540Y-124762733D01*
X120476651Y-124773011D01*
X120465318Y-124786277D01*
X120456261Y-124801059D01*
X120449438Y-124811063D01*
X120449112Y-124811493D01*
X120440506Y-124822709D01*
X120440437Y-124822963D01*
X120437962Y-124826237D01*
X120430173Y-124840592D01*
X120423369Y-124851696D01*
X120414098Y-124865179D01*
X120412308Y-124868868D01*
X120412127Y-124869032D01*
X120406027Y-124881816D01*
X120405809Y-124882268D01*
X120405697Y-124882390D01*
X120399980Y-124892921D01*
X120390935Y-124907684D01*
X120384258Y-124923795D01*
X120379056Y-124934789D01*
X120378753Y-124935354D01*
X120372043Y-124947722D01*
X120372019Y-124947946D01*
X120370139Y-124951463D01*
X120364632Y-124967013D01*
X120359670Y-124978991D01*
X120352202Y-124994648D01*
X120347317Y-125011147D01*
X120343327Y-125022550D01*
X120343125Y-125023046D01*
X120337680Y-125036188D01*
X120337679Y-125036469D01*
X120336210Y-125040093D01*
X120332358Y-125056128D01*
X120328679Y-125068545D01*
X120323135Y-125084202D01*
X120322381Y-125088113D01*
X120322236Y-125088338D01*
X120319613Y-125102491D01*
X120319523Y-125102960D01*
X120319440Y-125103120D01*
X120316662Y-125114701D01*
X120311748Y-125131302D01*
X120309510Y-125148304D01*
X120307142Y-125161077D01*
X120303300Y-125177072D01*
X120302953Y-125181113D01*
X120302836Y-125181345D01*
X120301720Y-125195515D01*
X120301675Y-125196046D01*
X120301611Y-125196209D01*
X120300053Y-125208051D01*
X120296895Y-125225097D01*
X120296441Y-125242416D01*
X120295532Y-125254504D01*
X120295470Y-125254999D01*
X120293613Y-125269113D01*
X120293679Y-125269361D01*
X120293190Y-125273288D01*
X120293621Y-125289762D01*
X120293281Y-125302729D01*
X120291922Y-125319999D01*
X119358077Y-125319999D01*
X119358077Y-125319997D01*
X119357809Y-125316597D01*
X119357810Y-125316596D01*
X119356717Y-125302727D01*
X119356378Y-125289749D01*
X119356742Y-125275877D01*
X119356741Y-125275874D01*
X119356830Y-125272484D01*
X119354576Y-125255351D01*
X119353558Y-125242418D01*
X119353558Y-125242416D01*
X119353194Y-125228494D01*
X119353192Y-125228491D01*
X119353125Y-125225907D01*
X119352428Y-125221997D01*
X119352483Y-125221741D01*
X119349879Y-125207695D01*
X119349795Y-125207219D01*
X119349813Y-125207047D01*
X119348253Y-125195186D01*
X119346891Y-125177872D01*
X119346102Y-125174591D01*
X119346103Y-125174590D01*
X119342855Y-125161073D01*
X119340606Y-125149180D01*
X119340571Y-125148929D01*
X119338685Y-125134597D01*
X119338547Y-125134359D01*
X119338010Y-125130486D01*
X119333340Y-125114713D01*
X119330313Y-125102098D01*
X119327143Y-125084987D01*
X119321324Y-125068558D01*
X119317827Y-125056893D01*
X119317754Y-125056601D01*
X119314408Y-125042668D01*
X119314264Y-125042471D01*
X119313293Y-125038536D01*
X119312320Y-125036188D01*
X119307020Y-125023400D01*
X119302676Y-125011133D01*
X119298029Y-124995435D01*
X119296299Y-124991744D01*
X119296286Y-124991481D01*
X119290128Y-124978573D01*
X119289968Y-124978231D01*
X119289941Y-124978056D01*
X119285365Y-124967009D01*
X119279620Y-124950785D01*
X119271301Y-124935455D01*
X119265736Y-124923786D01*
X119259059Y-124907675D01*
X119257332Y-124904856D01*
X119250010Y-124892906D01*
X119244175Y-124882241D01*
X119244055Y-124881995D01*
X119237872Y-124869032D01*
X119237688Y-124868866D01*
X119235897Y-124865173D01*
X119226638Y-124851708D01*
X119219827Y-124840593D01*
X119212037Y-124826237D01*
X119209562Y-124822965D01*
X119209494Y-124822709D01*
X119200869Y-124811470D01*
X119200571Y-124811076D01*
X119200508Y-124810909D01*
X119193739Y-124801061D01*
X119193738Y-124801059D01*
X119186451Y-124789165D01*
X119186449Y-124789163D01*
X119184685Y-124786284D01*
X119182416Y-124783628D01*
X119182416Y-124783627D01*
X119173357Y-124773023D01*
X119165922Y-124763402D01*
X119165714Y-124763103D01*
X119157599Y-124751301D01*
X119157390Y-124751165D01*
X119155186Y-124748004D01*
X119143822Y-124736023D01*
X119135419Y-124726182D01*
X119124760Y-124712292D01*
X119112174Y-124700354D01*
X119103769Y-124691559D01*
X119103494Y-124691241D01*
X119094295Y-124680473D01*
X119094070Y-124680358D01*
X119091502Y-124677392D01*
X119079077Y-124666778D01*
X119069653Y-124657833D01*
X119060015Y-124647672D01*
X119060013Y-124647671D01*
X119058262Y-124645825D01*
X119055055Y-124643330D01*
X119054927Y-124643107D01*
X119043501Y-124634339D01*
X119043152Y-124634067D01*
X119043053Y-124633929D01*
X119033967Y-124626170D01*
X119021433Y-124614280D01*
X119007268Y-124604541D01*
X118996983Y-124596647D01*
X118983726Y-124585321D01*
X118979106Y-124582491D01*
X118968935Y-124576259D01*
X118958928Y-124569433D01*
X118958620Y-124569200D01*
X118947291Y-124560506D01*
X118947033Y-124560436D01*
X118943761Y-124557962D01*
X118929404Y-124550171D01*
X118918293Y-124543362D01*
X118904825Y-124534102D01*
X118901133Y-124532311D01*
X118900968Y-124532127D01*
X118888148Y-124526011D01*
X118887737Y-124525812D01*
X118887612Y-124525699D01*
X118877082Y-124519982D01*
X118862319Y-124510937D01*
X118846200Y-124504257D01*
X118835198Y-124499051D01*
X118834844Y-124498861D01*
X118822278Y-124492043D01*
X118822050Y-124492019D01*
X118818537Y-124490140D01*
X118816134Y-124489289D01*
X118802978Y-124484629D01*
X118790999Y-124479667D01*
X118775354Y-124472204D01*
X118766075Y-124469457D01*
X118758854Y-124467319D01*
X118747445Y-124463326D01*
X118747036Y-124463160D01*
X118733812Y-124457680D01*
X118733529Y-124457679D01*
X118729904Y-124456209D01*
X118713863Y-124452355D01*
X118701446Y-124448676D01*
X118685012Y-124442856D01*
X118671795Y-124440407D01*
X118667889Y-124439683D01*
X118656057Y-124436885D01*
X118655713Y-124436785D01*
X118642027Y-124432734D01*
X118641783Y-124432759D01*
X118637934Y-124431647D01*
X118621691Y-124429509D01*
X118608913Y-124427140D01*
X118592929Y-124423300D01*
X118588886Y-124422953D01*
X118588655Y-124422836D01*
X118574468Y-124421719D01*
X118573952Y-124421675D01*
X118573787Y-124421611D01*
X118561949Y-124420053D01*
X118551357Y-124418091D01*
X118548259Y-124417517D01*
X118548258Y-124417517D01*
X118544900Y-124416895D01*
X118527583Y-124416441D01*
X118514659Y-124415425D01*
X118500883Y-124413612D01*
X118493772Y-124414079D01*
X118475932Y-124413963D01*
X118453399Y-124412189D01*
X118446279Y-124413032D01*
X118433442Y-124413879D01*
X118430947Y-124413913D01*
X118405877Y-124413258D01*
X118403158Y-124414301D01*
X118389802Y-124414488D01*
X118389429Y-124414384D01*
X118388072Y-124414500D01*
X117311928Y-124414500D01*
X117296610Y-124413193D01*
X117294123Y-124413258D01*
X117290369Y-124413356D01*
X117271523Y-124413849D01*
X117253709Y-124413032D01*
X117246596Y-124412190D01*
X117246595Y-124412190D01*
X117224067Y-124413963D01*
X117220201Y-124414206D01*
X117213989Y-124414500D01*
X117202423Y-124414500D01*
X117199113Y-124413613D01*
X117180219Y-124416098D01*
X117175029Y-124416344D01*
X117174689Y-124416261D01*
X117172418Y-124416440D01*
X117155095Y-124416894D01*
X117138050Y-124420052D01*
X117126042Y-124421675D01*
X117125461Y-124421724D01*
X117111345Y-124422836D01*
X117111116Y-124422952D01*
X117107080Y-124423298D01*
X117091073Y-124427143D01*
X117078306Y-124429510D01*
X117072984Y-124430210D01*
X117064597Y-124431315D01*
X117064596Y-124431315D01*
X117062055Y-124431650D01*
X117058215Y-124432759D01*
X117057973Y-124432734D01*
X117044461Y-124436733D01*
X117043931Y-124436887D01*
X117043766Y-124436886D01*
X117032109Y-124439683D01*
X117014985Y-124442856D01*
X116998548Y-124448677D01*
X116986906Y-124452168D01*
X116986443Y-124452282D01*
X116972668Y-124455592D01*
X116972473Y-124455733D01*
X116968529Y-124456708D01*
X116953406Y-124462976D01*
X116941142Y-124467320D01*
X116925437Y-124471970D01*
X116921743Y-124473700D01*
X116921481Y-124473714D01*
X116908662Y-124479828D01*
X116908215Y-124480038D01*
X116908037Y-124480065D01*
X116897012Y-124484633D01*
X116880783Y-124490381D01*
X116865439Y-124498706D01*
X116853786Y-124504264D01*
X116837669Y-124510944D01*
X116822906Y-124519988D01*
X116812258Y-124525814D01*
X116811741Y-124526064D01*
X116799032Y-124532128D01*
X116798869Y-124532308D01*
X116795176Y-124534100D01*
X116781702Y-124543365D01*
X116770596Y-124550171D01*
X116758731Y-124556610D01*
X116690420Y-124571285D01*
X116625019Y-124546699D01*
X116583293Y-124490657D01*
X116575586Y-124447624D01*
X116575586Y-122783785D01*
X115624500Y-122783785D01*
X115557461Y-122764100D01*
X115511706Y-122711296D01*
X115500500Y-122659785D01*
X115500500Y-116679999D01*
X116341922Y-116679999D01*
X116343281Y-116697270D01*
X116343621Y-116710236D01*
X116343190Y-116726718D01*
X116343679Y-116730640D01*
X116343613Y-116730887D01*
X116345454Y-116744878D01*
X116345531Y-116745494D01*
X116345503Y-116745665D01*
X116346441Y-116757585D01*
X116346895Y-116774900D01*
X116350053Y-116791949D01*
X116351675Y-116803952D01*
X116351719Y-116804468D01*
X116352836Y-116818655D01*
X116352953Y-116818886D01*
X116353300Y-116822929D01*
X116357140Y-116838913D01*
X116359509Y-116851691D01*
X116361647Y-116867934D01*
X116362759Y-116871783D01*
X116362734Y-116872027D01*
X116366785Y-116885713D01*
X116366885Y-116886057D01*
X116366884Y-116886225D01*
X116369685Y-116897894D01*
X116372856Y-116915012D01*
X116378676Y-116931446D01*
X116382166Y-116943089D01*
X116382299Y-116943628D01*
X116385592Y-116957333D01*
X116385733Y-116957527D01*
X116386705Y-116961461D01*
X116390168Y-116969816D01*
X116392978Y-116976597D01*
X116397322Y-116988862D01*
X116401972Y-117004571D01*
X116403700Y-117008259D01*
X116403714Y-117008518D01*
X116409831Y-117021343D01*
X116410032Y-117021771D01*
X116410058Y-117021944D01*
X116414633Y-117032986D01*
X116420380Y-117049214D01*
X116428694Y-117064535D01*
X116434257Y-117076200D01*
X116440937Y-117092319D01*
X116449982Y-117107082D01*
X116455812Y-117117737D01*
X116456011Y-117118148D01*
X116462127Y-117130968D01*
X116462311Y-117131133D01*
X116464102Y-117134825D01*
X116473362Y-117148293D01*
X116480171Y-117159404D01*
X116487962Y-117173761D01*
X116490436Y-117177033D01*
X116490506Y-117177291D01*
X116499200Y-117188620D01*
X116499433Y-117188928D01*
X116499496Y-117189095D01*
X116506261Y-117198938D01*
X116512491Y-117209106D01*
X116515321Y-117213726D01*
X116526647Y-117226983D01*
X116534079Y-117236600D01*
X116534274Y-117236880D01*
X116542401Y-117248699D01*
X116542610Y-117248834D01*
X116544813Y-117251994D01*
X116556170Y-117263967D01*
X116564571Y-117273805D01*
X116571925Y-117283386D01*
X116575244Y-117287712D01*
X116577672Y-117290015D01*
X116587635Y-117299466D01*
X116587833Y-117299653D01*
X116596235Y-117308446D01*
X116596500Y-117308752D01*
X116605705Y-117319527D01*
X116605928Y-117319640D01*
X116608495Y-117322605D01*
X116610472Y-117324294D01*
X116610473Y-117324295D01*
X116620939Y-117333236D01*
X116630354Y-117342174D01*
X116641739Y-117354176D01*
X116644944Y-117356670D01*
X116645073Y-117356893D01*
X116656492Y-117365656D01*
X116656841Y-117365928D01*
X116656941Y-117366067D01*
X116666023Y-117373822D01*
X116678563Y-117385716D01*
X116681300Y-117387598D01*
X116681301Y-117387599D01*
X116690032Y-117393602D01*
X116692737Y-117395462D01*
X116703023Y-117403357D01*
X116713627Y-117412416D01*
X116713628Y-117412416D01*
X116716284Y-117414685D01*
X116719163Y-117416449D01*
X116719165Y-117416451D01*
X116731061Y-117423739D01*
X116741076Y-117430571D01*
X116741470Y-117430869D01*
X116752709Y-117439494D01*
X116752965Y-117439562D01*
X116756237Y-117442037D01*
X116770593Y-117449827D01*
X116781708Y-117456638D01*
X116795173Y-117465897D01*
X116798866Y-117467688D01*
X116799032Y-117467872D01*
X116811995Y-117474055D01*
X116812241Y-117474175D01*
X116812366Y-117474288D01*
X116822909Y-117480012D01*
X116837675Y-117489059D01*
X116853786Y-117495736D01*
X116864791Y-117500944D01*
X116865174Y-117501148D01*
X116877722Y-117507958D01*
X116877951Y-117507982D01*
X116881461Y-117509859D01*
X116883865Y-117510710D01*
X116883866Y-117510711D01*
X116897009Y-117515365D01*
X116909001Y-117520332D01*
X116921481Y-117526286D01*
X116921482Y-117526286D01*
X116924646Y-117527795D01*
X116927878Y-117528752D01*
X116927880Y-117528753D01*
X116941137Y-117532677D01*
X116953400Y-117537020D01*
X116966188Y-117542320D01*
X116966189Y-117542320D01*
X116968536Y-117543293D01*
X116972471Y-117544264D01*
X116972668Y-117544408D01*
X116986601Y-117547754D01*
X116986893Y-117547827D01*
X116987033Y-117547909D01*
X116998550Y-117551321D01*
X117011760Y-117556000D01*
X117014987Y-117557143D01*
X117018337Y-117557763D01*
X117018338Y-117557764D01*
X117032101Y-117560313D01*
X117043942Y-117563114D01*
X117044255Y-117563204D01*
X117057973Y-117567266D01*
X117058218Y-117567240D01*
X117062059Y-117568350D01*
X117064594Y-117568683D01*
X117064597Y-117568685D01*
X117078318Y-117570490D01*
X117091075Y-117572856D01*
X117104590Y-117576103D01*
X117104591Y-117576102D01*
X117107081Y-117576701D01*
X117111113Y-117577045D01*
X117111345Y-117577164D01*
X117125644Y-117578288D01*
X117126030Y-117578322D01*
X117126193Y-117578385D01*
X117138053Y-117579946D01*
X117151741Y-117582483D01*
X117151742Y-117582482D01*
X117155095Y-117583104D01*
X117158491Y-117583193D01*
X117158494Y-117583194D01*
X117172424Y-117583558D01*
X117185349Y-117584575D01*
X117199113Y-117586387D01*
X117199118Y-117586385D01*
X117206221Y-117585920D01*
X117224057Y-117586035D01*
X117246596Y-117587810D01*
X117246600Y-117587808D01*
X117253703Y-117586968D01*
X117266557Y-117586120D01*
X117269043Y-117586085D01*
X117294123Y-117586742D01*
X117296842Y-117585698D01*
X117310199Y-117585512D01*
X117310570Y-117585615D01*
X117311926Y-117585500D01*
X118388074Y-117585500D01*
X118403387Y-117586806D01*
X118405874Y-117586740D01*
X118405877Y-117586742D01*
X118428476Y-117586150D01*
X118446293Y-117586968D01*
X118453401Y-117587809D01*
X118453404Y-117587810D01*
X118475983Y-117586032D01*
X118479794Y-117585793D01*
X118485978Y-117585500D01*
X118497577Y-117585500D01*
X118500887Y-117586387D01*
X118519793Y-117583897D01*
X118524964Y-117583653D01*
X118525306Y-117583736D01*
X118527591Y-117583556D01*
X118541507Y-117583193D01*
X118541507Y-117583192D01*
X118544908Y-117583104D01*
X118548258Y-117582482D01*
X118548259Y-117582483D01*
X118561943Y-117579946D01*
X118573972Y-117578321D01*
X118574242Y-117578297D01*
X118588655Y-117577164D01*
X118588889Y-117577044D01*
X118592928Y-117576699D01*
X118595409Y-117576102D01*
X118595411Y-117576103D01*
X118608910Y-117572859D01*
X118621695Y-117570488D01*
X118635403Y-117568685D01*
X118635405Y-117568683D01*
X118637941Y-117568350D01*
X118641781Y-117567240D01*
X118642027Y-117567266D01*
X118655718Y-117563212D01*
X118656051Y-117563116D01*
X118656217Y-117563116D01*
X118667896Y-117560314D01*
X118681662Y-117557764D01*
X118681662Y-117557763D01*
X118685007Y-117557144D01*
X118688237Y-117555999D01*
X118688240Y-117556000D01*
X118701451Y-117551321D01*
X118713096Y-117547830D01*
X118713396Y-117547755D01*
X118727333Y-117544408D01*
X118727532Y-117544262D01*
X118731465Y-117543291D01*
X118733808Y-117542320D01*
X118733812Y-117542320D01*
X118746600Y-117537019D01*
X118758857Y-117532678D01*
X118772120Y-117528753D01*
X118772121Y-117528752D01*
X118774567Y-117528028D01*
X118778255Y-117526299D01*
X118778518Y-117526286D01*
X118791500Y-117520092D01*
X118791756Y-117519973D01*
X118791930Y-117519946D01*
X118802977Y-117515369D01*
X118816134Y-117510711D01*
X118816135Y-117510709D01*
X118819213Y-117509620D01*
X118822277Y-117507957D01*
X118822278Y-117507957D01*
X118834539Y-117501303D01*
X118846199Y-117495741D01*
X118859151Y-117490375D01*
X118859152Y-117490373D01*
X118862320Y-117489061D01*
X118865140Y-117487332D01*
X118865144Y-117487332D01*
X118877091Y-117480011D01*
X118887747Y-117474181D01*
X118887972Y-117474071D01*
X118900968Y-117467873D01*
X118901135Y-117467686D01*
X118904823Y-117465898D01*
X118906900Y-117464469D01*
X118906903Y-117464469D01*
X118918293Y-117456636D01*
X118929405Y-117449827D01*
X118941527Y-117443250D01*
X118941529Y-117443246D01*
X118943766Y-117442033D01*
X118947031Y-117439563D01*
X118947291Y-117439494D01*
X118958561Y-117430843D01*
X118958924Y-117430570D01*
X118959091Y-117430506D01*
X118968948Y-117423732D01*
X118980835Y-117416450D01*
X118980836Y-117416448D01*
X118983721Y-117414681D01*
X118986371Y-117412416D01*
X118986374Y-117412416D01*
X118996990Y-117403346D01*
X119006609Y-117395913D01*
X119006777Y-117395795D01*
X119018699Y-117387599D01*
X119018835Y-117387388D01*
X119021990Y-117385189D01*
X119023889Y-117383387D01*
X119023893Y-117383386D01*
X119033974Y-117373822D01*
X119043812Y-117365421D01*
X119054927Y-117356893D01*
X119054928Y-117356891D01*
X119057709Y-117354757D01*
X119060011Y-117352329D01*
X119060015Y-117352328D01*
X119069659Y-117342160D01*
X119078449Y-117333761D01*
X119078691Y-117333551D01*
X119089527Y-117324295D01*
X119089642Y-117324067D01*
X119092608Y-117321500D01*
X119094292Y-117319528D01*
X119094295Y-117319527D01*
X119103231Y-117309065D01*
X119112180Y-117299639D01*
X119122328Y-117290014D01*
X119122328Y-117290012D01*
X119124174Y-117288262D01*
X119126668Y-117285056D01*
X119126893Y-117284927D01*
X119135712Y-117273434D01*
X119135929Y-117273156D01*
X119136068Y-117273055D01*
X119143822Y-117263975D01*
X119153386Y-117253893D01*
X119153386Y-117253890D01*
X119155718Y-117251433D01*
X119157596Y-117248700D01*
X119157599Y-117248699D01*
X119165468Y-117237252D01*
X119173351Y-117226983D01*
X119182416Y-117216373D01*
X119182417Y-117216369D01*
X119184690Y-117213709D01*
X119186451Y-117210835D01*
X119193738Y-117198938D01*
X119200575Y-117188916D01*
X119200765Y-117188663D01*
X119209494Y-117177291D01*
X119209563Y-117177031D01*
X119212034Y-117173765D01*
X119213247Y-117171529D01*
X119213250Y-117171527D01*
X119219831Y-117159396D01*
X119226639Y-117148290D01*
X119235898Y-117134825D01*
X119237688Y-117131132D01*
X119237872Y-117130968D01*
X119243998Y-117118124D01*
X119244180Y-117117750D01*
X119244289Y-117117628D01*
X119250017Y-117107082D01*
X119257332Y-117095144D01*
X119257332Y-117095140D01*
X119259057Y-117092326D01*
X119260371Y-117089153D01*
X119260374Y-117089151D01*
X119265741Y-117076200D01*
X119270941Y-117065212D01*
X119271078Y-117064954D01*
X119277958Y-117052278D01*
X119277982Y-117052045D01*
X119279861Y-117048533D01*
X119285364Y-117032993D01*
X119290332Y-117020997D01*
X119296286Y-117008519D01*
X119296286Y-117008516D01*
X119297796Y-117005352D01*
X119298753Y-117002120D01*
X119302677Y-116988862D01*
X119307019Y-116976600D01*
X119312320Y-116963812D01*
X119312320Y-116963808D01*
X119313290Y-116961468D01*
X119314262Y-116957532D01*
X119314408Y-116957332D01*
X119317756Y-116943390D01*
X119317831Y-116943090D01*
X119317915Y-116942945D01*
X119321317Y-116931460D01*
X119326000Y-116918240D01*
X119325999Y-116918235D01*
X119327145Y-116915002D01*
X119330313Y-116897900D01*
X119330315Y-116897894D01*
X119330314Y-116897891D01*
X119333116Y-116886051D01*
X119333211Y-116885719D01*
X119337266Y-116872027D01*
X119337240Y-116871780D01*
X119338350Y-116867940D01*
X119338683Y-116865405D01*
X119338685Y-116865403D01*
X119340488Y-116851694D01*
X119342860Y-116838907D01*
X119346103Y-116825410D01*
X119346102Y-116825408D01*
X119346700Y-116822923D01*
X119347045Y-116818887D01*
X119347164Y-116818655D01*
X119348293Y-116804292D01*
X119348321Y-116803976D01*
X119348384Y-116803813D01*
X119349947Y-116791942D01*
X119353104Y-116774907D01*
X119353193Y-116771508D01*
X119353194Y-116771506D01*
X119353558Y-116757578D01*
X119354469Y-116745482D01*
X119354518Y-116745088D01*
X119356387Y-116730887D01*
X119356320Y-116730637D01*
X119356810Y-116726709D01*
X119356671Y-116721444D01*
X119356378Y-116710236D01*
X119356718Y-116697270D01*
X119357810Y-116683404D01*
X119357809Y-116683400D01*
X119358077Y-116679999D01*
X120291922Y-116679999D01*
X120293281Y-116697270D01*
X120293621Y-116710236D01*
X120293190Y-116726718D01*
X120293679Y-116730640D01*
X120293613Y-116730887D01*
X120295454Y-116744878D01*
X120295531Y-116745494D01*
X120295503Y-116745665D01*
X120296441Y-116757585D01*
X120296895Y-116774900D01*
X120300053Y-116791949D01*
X120301675Y-116803952D01*
X120301719Y-116804468D01*
X120302836Y-116818655D01*
X120302953Y-116818886D01*
X120303300Y-116822929D01*
X120307140Y-116838913D01*
X120309509Y-116851691D01*
X120311647Y-116867934D01*
X120312759Y-116871783D01*
X120312734Y-116872027D01*
X120316785Y-116885713D01*
X120316885Y-116886057D01*
X120316884Y-116886225D01*
X120319685Y-116897894D01*
X120322856Y-116915012D01*
X120328676Y-116931446D01*
X120332166Y-116943089D01*
X120332299Y-116943628D01*
X120335592Y-116957333D01*
X120335733Y-116957527D01*
X120336705Y-116961461D01*
X120340168Y-116969816D01*
X120342978Y-116976597D01*
X120347322Y-116988862D01*
X120351972Y-117004571D01*
X120353700Y-117008259D01*
X120353714Y-117008518D01*
X120359831Y-117021343D01*
X120360032Y-117021771D01*
X120360058Y-117021944D01*
X120364633Y-117032986D01*
X120370380Y-117049214D01*
X120378694Y-117064535D01*
X120384257Y-117076200D01*
X120390937Y-117092319D01*
X120399982Y-117107082D01*
X120405812Y-117117737D01*
X120406011Y-117118148D01*
X120412127Y-117130968D01*
X120412311Y-117131133D01*
X120414102Y-117134825D01*
X120423362Y-117148293D01*
X120430171Y-117159404D01*
X120437962Y-117173761D01*
X120440436Y-117177033D01*
X120440506Y-117177291D01*
X120449200Y-117188620D01*
X120449433Y-117188928D01*
X120449496Y-117189095D01*
X120456261Y-117198938D01*
X120462491Y-117209106D01*
X120465321Y-117213726D01*
X120476647Y-117226983D01*
X120484079Y-117236600D01*
X120484274Y-117236880D01*
X120492401Y-117248699D01*
X120492610Y-117248834D01*
X120494813Y-117251994D01*
X120506170Y-117263967D01*
X120514571Y-117273805D01*
X120521925Y-117283386D01*
X120525244Y-117287712D01*
X120527672Y-117290015D01*
X120537635Y-117299466D01*
X120537833Y-117299653D01*
X120546235Y-117308446D01*
X120546500Y-117308752D01*
X120555705Y-117319527D01*
X120555928Y-117319640D01*
X120558495Y-117322605D01*
X120560472Y-117324294D01*
X120560473Y-117324295D01*
X120570939Y-117333236D01*
X120580354Y-117342174D01*
X120591739Y-117354176D01*
X120594944Y-117356670D01*
X120595073Y-117356893D01*
X120606492Y-117365656D01*
X120606841Y-117365928D01*
X120606941Y-117366067D01*
X120616023Y-117373822D01*
X120628563Y-117385716D01*
X120631300Y-117387598D01*
X120631301Y-117387599D01*
X120640032Y-117393602D01*
X120642737Y-117395462D01*
X120653023Y-117403357D01*
X120663627Y-117412416D01*
X120663628Y-117412416D01*
X120666284Y-117414685D01*
X120669163Y-117416449D01*
X120669165Y-117416451D01*
X120681061Y-117423739D01*
X120691076Y-117430571D01*
X120691470Y-117430869D01*
X120702709Y-117439494D01*
X120702965Y-117439562D01*
X120706237Y-117442037D01*
X120720593Y-117449827D01*
X120731708Y-117456638D01*
X120745173Y-117465897D01*
X120748866Y-117467688D01*
X120749032Y-117467872D01*
X120761995Y-117474055D01*
X120762241Y-117474175D01*
X120762366Y-117474288D01*
X120772909Y-117480012D01*
X120787675Y-117489059D01*
X120803786Y-117495736D01*
X120814791Y-117500944D01*
X120815174Y-117501148D01*
X120827722Y-117507958D01*
X120827951Y-117507982D01*
X120831461Y-117509859D01*
X120833865Y-117510710D01*
X120833866Y-117510711D01*
X120847009Y-117515365D01*
X120859001Y-117520332D01*
X120871481Y-117526286D01*
X120871482Y-117526286D01*
X120874646Y-117527795D01*
X120877878Y-117528752D01*
X120877880Y-117528753D01*
X120891137Y-117532677D01*
X120903400Y-117537020D01*
X120916188Y-117542320D01*
X120916189Y-117542320D01*
X120918536Y-117543293D01*
X120922471Y-117544264D01*
X120922668Y-117544408D01*
X120936601Y-117547754D01*
X120936893Y-117547827D01*
X120937033Y-117547909D01*
X120948550Y-117551321D01*
X120961760Y-117556000D01*
X120964987Y-117557143D01*
X120968337Y-117557763D01*
X120968338Y-117557764D01*
X120982101Y-117560313D01*
X120993942Y-117563114D01*
X120994255Y-117563204D01*
X121007973Y-117567266D01*
X121008218Y-117567240D01*
X121012059Y-117568350D01*
X121014594Y-117568683D01*
X121014597Y-117568685D01*
X121028318Y-117570490D01*
X121041075Y-117572856D01*
X121054590Y-117576103D01*
X121054591Y-117576102D01*
X121057081Y-117576701D01*
X121061113Y-117577045D01*
X121061345Y-117577164D01*
X121075644Y-117578288D01*
X121076030Y-117578322D01*
X121076193Y-117578385D01*
X121088053Y-117579946D01*
X121101741Y-117582483D01*
X121101742Y-117582482D01*
X121105095Y-117583104D01*
X121108491Y-117583193D01*
X121108494Y-117583194D01*
X121122424Y-117583558D01*
X121135349Y-117584575D01*
X121149113Y-117586387D01*
X121149118Y-117586385D01*
X121156221Y-117585920D01*
X121174057Y-117586035D01*
X121196596Y-117587810D01*
X121196600Y-117587808D01*
X121203703Y-117586968D01*
X121216557Y-117586120D01*
X121219043Y-117586085D01*
X121244123Y-117586742D01*
X121246842Y-117585698D01*
X121260199Y-117585512D01*
X121260570Y-117585615D01*
X121261926Y-117585500D01*
X123038074Y-117585500D01*
X123053387Y-117586806D01*
X123055874Y-117586740D01*
X123055877Y-117586742D01*
X123078476Y-117586150D01*
X123096293Y-117586968D01*
X123103401Y-117587809D01*
X123103404Y-117587810D01*
X123125983Y-117586032D01*
X123129794Y-117585793D01*
X123135978Y-117585500D01*
X123147577Y-117585500D01*
X123150887Y-117586387D01*
X123169793Y-117583897D01*
X123174964Y-117583653D01*
X123175306Y-117583736D01*
X123177591Y-117583556D01*
X123191507Y-117583193D01*
X123191507Y-117583192D01*
X123194908Y-117583104D01*
X123198258Y-117582482D01*
X123198259Y-117582483D01*
X123211943Y-117579946D01*
X123223972Y-117578321D01*
X123224242Y-117578297D01*
X123238655Y-117577164D01*
X123238889Y-117577044D01*
X123242928Y-117576699D01*
X123245409Y-117576102D01*
X123245411Y-117576103D01*
X123258910Y-117572859D01*
X123271695Y-117570488D01*
X123285403Y-117568685D01*
X123285405Y-117568683D01*
X123287941Y-117568350D01*
X123291781Y-117567240D01*
X123292027Y-117567266D01*
X123305718Y-117563212D01*
X123306051Y-117563116D01*
X123306217Y-117563116D01*
X123317896Y-117560314D01*
X123331662Y-117557764D01*
X123331662Y-117557763D01*
X123335007Y-117557144D01*
X123338237Y-117555999D01*
X123338240Y-117556000D01*
X123351451Y-117551321D01*
X123363096Y-117547830D01*
X123363396Y-117547755D01*
X123377333Y-117544408D01*
X123377532Y-117544262D01*
X123381465Y-117543291D01*
X123383808Y-117542320D01*
X123383812Y-117542320D01*
X123396600Y-117537019D01*
X123408857Y-117532678D01*
X123422120Y-117528753D01*
X123422121Y-117528752D01*
X123424567Y-117528028D01*
X123428255Y-117526299D01*
X123428518Y-117526286D01*
X123441500Y-117520092D01*
X123441756Y-117519973D01*
X123441930Y-117519946D01*
X123452977Y-117515369D01*
X123466134Y-117510711D01*
X123466135Y-117510709D01*
X123469213Y-117509620D01*
X123472277Y-117507957D01*
X123472278Y-117507957D01*
X123484539Y-117501303D01*
X123496199Y-117495741D01*
X123509151Y-117490375D01*
X123509152Y-117490373D01*
X123512320Y-117489061D01*
X123515140Y-117487332D01*
X123515144Y-117487332D01*
X123527091Y-117480011D01*
X123537747Y-117474181D01*
X123537972Y-117474071D01*
X123550968Y-117467873D01*
X123551135Y-117467686D01*
X123554823Y-117465898D01*
X123556900Y-117464469D01*
X123556903Y-117464469D01*
X123568293Y-117456636D01*
X123579405Y-117449827D01*
X123591527Y-117443250D01*
X123591529Y-117443246D01*
X123593766Y-117442033D01*
X123597031Y-117439563D01*
X123597291Y-117439494D01*
X123608561Y-117430843D01*
X123608924Y-117430570D01*
X123609091Y-117430506D01*
X123618948Y-117423732D01*
X123630835Y-117416450D01*
X123630836Y-117416448D01*
X123633721Y-117414681D01*
X123636371Y-117412416D01*
X123636374Y-117412416D01*
X123646990Y-117403346D01*
X123656609Y-117395913D01*
X123656777Y-117395795D01*
X123668699Y-117387599D01*
X123668835Y-117387388D01*
X123671990Y-117385189D01*
X123673889Y-117383387D01*
X123673893Y-117383386D01*
X123683974Y-117373822D01*
X123693812Y-117365421D01*
X123704927Y-117356893D01*
X123704928Y-117356891D01*
X123707709Y-117354757D01*
X123710011Y-117352329D01*
X123710015Y-117352328D01*
X123719659Y-117342160D01*
X123728449Y-117333761D01*
X123728691Y-117333551D01*
X123739527Y-117324295D01*
X123739642Y-117324067D01*
X123742608Y-117321500D01*
X123744292Y-117319528D01*
X123744295Y-117319527D01*
X123753231Y-117309065D01*
X123762180Y-117299639D01*
X123772328Y-117290014D01*
X123772328Y-117290012D01*
X123774174Y-117288262D01*
X123776668Y-117285056D01*
X123776893Y-117284927D01*
X123785712Y-117273434D01*
X123785929Y-117273156D01*
X123786068Y-117273055D01*
X123793822Y-117263975D01*
X123803386Y-117253893D01*
X123803386Y-117253890D01*
X123805718Y-117251433D01*
X123807596Y-117248700D01*
X123807599Y-117248699D01*
X123815468Y-117237252D01*
X123823351Y-117226983D01*
X123832416Y-117216373D01*
X123832417Y-117216369D01*
X123834690Y-117213709D01*
X123836451Y-117210835D01*
X123843738Y-117198938D01*
X123850575Y-117188916D01*
X123850765Y-117188663D01*
X123859494Y-117177291D01*
X123859563Y-117177031D01*
X123862034Y-117173765D01*
X123863247Y-117171529D01*
X123863250Y-117171527D01*
X123869831Y-117159396D01*
X123876639Y-117148290D01*
X123885898Y-117134825D01*
X123887688Y-117131132D01*
X123887872Y-117130968D01*
X123893998Y-117118124D01*
X123894180Y-117117750D01*
X123894289Y-117117628D01*
X123900017Y-117107082D01*
X123907332Y-117095144D01*
X123907332Y-117095140D01*
X123909057Y-117092326D01*
X123910371Y-117089153D01*
X123910374Y-117089151D01*
X123915741Y-117076200D01*
X123920941Y-117065212D01*
X123921078Y-117064954D01*
X123927958Y-117052278D01*
X123927982Y-117052045D01*
X123929861Y-117048533D01*
X123935364Y-117032993D01*
X123940332Y-117020997D01*
X123946286Y-117008519D01*
X123946286Y-117008516D01*
X123947796Y-117005352D01*
X123948753Y-117002120D01*
X123952677Y-116988862D01*
X123957019Y-116976600D01*
X123962320Y-116963812D01*
X123962320Y-116963808D01*
X123963290Y-116961468D01*
X123964262Y-116957532D01*
X123964408Y-116957332D01*
X123967756Y-116943390D01*
X123967831Y-116943090D01*
X123967915Y-116942945D01*
X123971317Y-116931460D01*
X123976000Y-116918240D01*
X123975999Y-116918235D01*
X123977145Y-116915002D01*
X123980313Y-116897900D01*
X123980315Y-116897894D01*
X123980314Y-116897891D01*
X123983116Y-116886051D01*
X123983211Y-116885719D01*
X123987266Y-116872027D01*
X123987240Y-116871780D01*
X123988350Y-116867940D01*
X123988683Y-116865405D01*
X123988685Y-116865403D01*
X123990488Y-116851694D01*
X123992860Y-116838907D01*
X123996103Y-116825410D01*
X123996102Y-116825408D01*
X123996700Y-116822923D01*
X123997045Y-116818887D01*
X123997164Y-116818655D01*
X123998293Y-116804292D01*
X123998321Y-116803976D01*
X123998384Y-116803813D01*
X123999947Y-116791942D01*
X124003104Y-116774907D01*
X124003193Y-116771508D01*
X124003194Y-116771506D01*
X124003558Y-116757578D01*
X124004469Y-116745482D01*
X124004518Y-116745088D01*
X124006387Y-116730887D01*
X124006320Y-116730637D01*
X124006810Y-116726709D01*
X124006671Y-116721444D01*
X124006378Y-116710236D01*
X124006718Y-116697270D01*
X124007810Y-116683404D01*
X124007809Y-116683401D01*
X124008077Y-116679998D01*
X124007809Y-116676598D01*
X124007810Y-116676596D01*
X124006717Y-116662727D01*
X124006358Y-116650594D01*
X124006362Y-116650352D01*
X124006742Y-116635877D01*
X124006647Y-116635630D01*
X124006724Y-116631680D01*
X124006386Y-116629114D01*
X124006387Y-116629113D01*
X124004576Y-116615351D01*
X124003558Y-116602418D01*
X124003558Y-116602416D01*
X124003194Y-116588494D01*
X124003192Y-116588491D01*
X124003125Y-116585907D01*
X124002428Y-116581997D01*
X124002483Y-116581741D01*
X123999879Y-116567695D01*
X123999795Y-116567219D01*
X123999813Y-116567047D01*
X123998253Y-116555186D01*
X123996891Y-116537872D01*
X123996102Y-116534591D01*
X123996103Y-116534590D01*
X123992855Y-116521073D01*
X123990606Y-116509180D01*
X123990571Y-116508929D01*
X123988685Y-116494597D01*
X123988547Y-116494359D01*
X123988010Y-116490486D01*
X123983340Y-116474713D01*
X123980313Y-116462098D01*
X123977143Y-116444987D01*
X123975731Y-116441002D01*
X123971320Y-116428545D01*
X123967827Y-116416893D01*
X123967754Y-116416601D01*
X123964408Y-116402668D01*
X123964264Y-116402471D01*
X123963293Y-116398536D01*
X123962197Y-116395892D01*
X123957020Y-116383400D01*
X123952676Y-116371133D01*
X123948927Y-116358470D01*
X123948753Y-116357880D01*
X123948752Y-116357879D01*
X123948029Y-116355435D01*
X123946299Y-116351744D01*
X123946286Y-116351481D01*
X123940128Y-116338573D01*
X123939968Y-116338231D01*
X123939941Y-116338056D01*
X123935365Y-116327009D01*
X123929620Y-116310785D01*
X123921301Y-116295455D01*
X123915736Y-116283786D01*
X123909059Y-116267675D01*
X123907332Y-116264856D01*
X123900010Y-116252906D01*
X123894175Y-116242241D01*
X123894055Y-116241995D01*
X123887872Y-116229032D01*
X123887688Y-116228866D01*
X123885897Y-116225173D01*
X123876638Y-116211708D01*
X123869827Y-116200593D01*
X123862037Y-116186237D01*
X123859562Y-116182965D01*
X123859494Y-116182709D01*
X123850869Y-116171470D01*
X123850571Y-116171076D01*
X123850508Y-116170909D01*
X123843739Y-116161061D01*
X123843738Y-116161059D01*
X123836451Y-116149165D01*
X123836449Y-116149163D01*
X123834685Y-116146284D01*
X123832416Y-116143628D01*
X123832416Y-116143627D01*
X123823357Y-116133023D01*
X123815922Y-116123402D01*
X123815714Y-116123103D01*
X123807599Y-116111301D01*
X123807390Y-116111165D01*
X123805186Y-116108004D01*
X123793822Y-116096023D01*
X123785419Y-116086182D01*
X123774760Y-116072292D01*
X123762174Y-116060354D01*
X123753769Y-116051559D01*
X123753494Y-116051241D01*
X123744295Y-116040473D01*
X123744070Y-116040358D01*
X123741502Y-116037392D01*
X123729077Y-116026778D01*
X123719653Y-116017833D01*
X123710015Y-116007672D01*
X123710013Y-116007671D01*
X123708262Y-116005825D01*
X123705055Y-116003330D01*
X123704927Y-116003107D01*
X123693501Y-115994339D01*
X123693152Y-115994067D01*
X123693053Y-115993929D01*
X123683967Y-115986170D01*
X123671433Y-115974280D01*
X123657268Y-115964541D01*
X123646983Y-115956647D01*
X123633726Y-115945321D01*
X123629106Y-115942491D01*
X123618935Y-115936259D01*
X123608928Y-115929433D01*
X123608620Y-115929200D01*
X123597291Y-115920506D01*
X123597033Y-115920436D01*
X123593761Y-115917962D01*
X123579404Y-115910171D01*
X123568293Y-115903362D01*
X123554825Y-115894102D01*
X123551133Y-115892311D01*
X123550968Y-115892127D01*
X123538148Y-115886011D01*
X123537737Y-115885812D01*
X123537612Y-115885699D01*
X123527082Y-115879982D01*
X123512319Y-115870937D01*
X123496200Y-115864257D01*
X123485198Y-115859051D01*
X123484844Y-115858861D01*
X123472278Y-115852043D01*
X123472050Y-115852019D01*
X123468537Y-115850140D01*
X123465823Y-115849179D01*
X123452978Y-115844629D01*
X123440999Y-115839667D01*
X123425354Y-115832204D01*
X123416075Y-115829457D01*
X123408854Y-115827319D01*
X123397445Y-115823326D01*
X123397036Y-115823160D01*
X123383812Y-115817680D01*
X123383529Y-115817679D01*
X123379904Y-115816209D01*
X123363863Y-115812355D01*
X123351446Y-115808676D01*
X123335012Y-115802856D01*
X123321795Y-115800407D01*
X123317889Y-115799683D01*
X123306057Y-115796885D01*
X123305713Y-115796785D01*
X123292027Y-115792734D01*
X123291783Y-115792759D01*
X123287934Y-115791647D01*
X123271691Y-115789509D01*
X123258913Y-115787140D01*
X123242929Y-115783300D01*
X123238886Y-115782953D01*
X123238655Y-115782836D01*
X123224468Y-115781719D01*
X123223952Y-115781675D01*
X123223787Y-115781611D01*
X123211949Y-115780053D01*
X123201357Y-115778091D01*
X123198259Y-115777517D01*
X123198258Y-115777517D01*
X123194900Y-115776895D01*
X123177583Y-115776441D01*
X123164659Y-115775425D01*
X123150883Y-115773612D01*
X123143772Y-115774079D01*
X123125932Y-115773963D01*
X123103399Y-115772189D01*
X123096279Y-115773032D01*
X123083442Y-115773879D01*
X123080947Y-115773913D01*
X123055877Y-115773258D01*
X123053158Y-115774301D01*
X123039802Y-115774488D01*
X123039429Y-115774384D01*
X123038072Y-115774500D01*
X121261928Y-115774500D01*
X121246610Y-115773193D01*
X121244123Y-115773258D01*
X121240369Y-115773356D01*
X121221523Y-115773849D01*
X121203709Y-115773032D01*
X121196596Y-115772190D01*
X121196595Y-115772190D01*
X121174067Y-115773963D01*
X121170201Y-115774206D01*
X121163989Y-115774500D01*
X121152423Y-115774500D01*
X121149113Y-115773613D01*
X121130219Y-115776098D01*
X121125029Y-115776344D01*
X121124689Y-115776261D01*
X121122418Y-115776440D01*
X121105095Y-115776894D01*
X121088050Y-115780052D01*
X121076042Y-115781675D01*
X121075461Y-115781724D01*
X121061345Y-115782836D01*
X121061116Y-115782952D01*
X121057080Y-115783298D01*
X121041073Y-115787143D01*
X121028306Y-115789510D01*
X121022984Y-115790210D01*
X121014597Y-115791315D01*
X121014596Y-115791315D01*
X121012055Y-115791650D01*
X121008215Y-115792759D01*
X121007973Y-115792734D01*
X120994461Y-115796733D01*
X120993931Y-115796887D01*
X120993766Y-115796886D01*
X120982109Y-115799683D01*
X120964985Y-115802856D01*
X120948548Y-115808677D01*
X120936906Y-115812168D01*
X120936443Y-115812282D01*
X120922668Y-115815592D01*
X120922473Y-115815733D01*
X120918529Y-115816708D01*
X120903406Y-115822976D01*
X120891142Y-115827320D01*
X120875437Y-115831970D01*
X120871743Y-115833700D01*
X120871481Y-115833714D01*
X120858662Y-115839828D01*
X120858215Y-115840038D01*
X120858037Y-115840065D01*
X120847012Y-115844633D01*
X120830783Y-115850381D01*
X120815439Y-115858706D01*
X120803786Y-115864264D01*
X120787669Y-115870944D01*
X120772906Y-115879988D01*
X120762258Y-115885814D01*
X120761741Y-115886064D01*
X120749032Y-115892128D01*
X120748869Y-115892308D01*
X120745176Y-115894100D01*
X120731702Y-115903365D01*
X120720598Y-115910169D01*
X120706236Y-115917963D01*
X120702963Y-115920437D01*
X120702709Y-115920506D01*
X120691499Y-115929107D01*
X120691072Y-115929431D01*
X120690907Y-115929493D01*
X120681063Y-115936259D01*
X120666281Y-115945315D01*
X120653024Y-115956641D01*
X120643410Y-115964070D01*
X120642926Y-115964406D01*
X120631301Y-115972401D01*
X120631167Y-115972606D01*
X120628010Y-115974808D01*
X120616020Y-115986180D01*
X120606187Y-115994576D01*
X120592289Y-116005242D01*
X120580352Y-116017826D01*
X120571568Y-116026221D01*
X120571115Y-116026613D01*
X120560473Y-116035705D01*
X120560359Y-116035927D01*
X120557391Y-116038498D01*
X120546769Y-116050931D01*
X120537837Y-116060341D01*
X120525825Y-116071737D01*
X120523328Y-116074945D01*
X120523107Y-116075073D01*
X120514402Y-116086415D01*
X120514064Y-116086850D01*
X120513924Y-116086950D01*
X120506175Y-116096026D01*
X120494283Y-116108563D01*
X120484540Y-116122733D01*
X120476651Y-116133011D01*
X120465318Y-116146277D01*
X120456261Y-116161059D01*
X120449438Y-116171063D01*
X120449112Y-116171493D01*
X120440506Y-116182709D01*
X120440437Y-116182963D01*
X120437962Y-116186237D01*
X120430173Y-116200592D01*
X120423369Y-116211696D01*
X120414098Y-116225179D01*
X120412308Y-116228868D01*
X120412127Y-116229032D01*
X120406027Y-116241816D01*
X120405809Y-116242268D01*
X120405697Y-116242390D01*
X120399980Y-116252921D01*
X120390935Y-116267684D01*
X120384258Y-116283795D01*
X120379056Y-116294789D01*
X120378753Y-116295354D01*
X120372043Y-116307722D01*
X120372019Y-116307946D01*
X120370139Y-116311463D01*
X120364632Y-116327013D01*
X120359670Y-116338991D01*
X120352202Y-116354648D01*
X120347317Y-116371147D01*
X120343327Y-116382550D01*
X120343125Y-116383046D01*
X120337680Y-116396188D01*
X120337679Y-116396469D01*
X120336210Y-116400093D01*
X120332358Y-116416128D01*
X120328679Y-116428545D01*
X120323135Y-116444202D01*
X120322381Y-116448113D01*
X120322236Y-116448338D01*
X120319613Y-116462491D01*
X120319523Y-116462960D01*
X120319440Y-116463120D01*
X120316662Y-116474701D01*
X120311748Y-116491302D01*
X120309510Y-116508304D01*
X120307142Y-116521077D01*
X120303300Y-116537072D01*
X120302953Y-116541113D01*
X120302836Y-116541345D01*
X120301720Y-116555515D01*
X120301675Y-116556046D01*
X120301611Y-116556209D01*
X120300053Y-116568051D01*
X120296895Y-116585097D01*
X120296441Y-116602416D01*
X120295532Y-116614504D01*
X120295470Y-116614999D01*
X120293613Y-116629113D01*
X120293679Y-116629361D01*
X120293190Y-116633288D01*
X120293621Y-116649762D01*
X120293281Y-116662729D01*
X120291922Y-116679999D01*
X119358077Y-116679999D01*
X119358077Y-116679997D01*
X119357809Y-116676597D01*
X119357810Y-116676596D01*
X119356717Y-116662727D01*
X119356378Y-116649749D01*
X119356742Y-116635877D01*
X119356741Y-116635874D01*
X119356830Y-116632484D01*
X119354576Y-116615351D01*
X119353558Y-116602418D01*
X119353558Y-116602416D01*
X119353194Y-116588494D01*
X119353192Y-116588491D01*
X119353125Y-116585907D01*
X119352428Y-116581997D01*
X119352483Y-116581741D01*
X119349879Y-116567695D01*
X119349795Y-116567219D01*
X119349813Y-116567047D01*
X119348253Y-116555186D01*
X119346891Y-116537872D01*
X119346102Y-116534591D01*
X119346103Y-116534590D01*
X119342855Y-116521073D01*
X119340606Y-116509180D01*
X119340571Y-116508929D01*
X119338685Y-116494597D01*
X119338547Y-116494359D01*
X119338010Y-116490486D01*
X119333340Y-116474713D01*
X119330313Y-116462098D01*
X119327143Y-116444987D01*
X119325731Y-116441002D01*
X119321320Y-116428545D01*
X119317827Y-116416893D01*
X119317754Y-116416601D01*
X119314408Y-116402668D01*
X119314264Y-116402471D01*
X119313293Y-116398536D01*
X119312197Y-116395892D01*
X119307020Y-116383400D01*
X119302676Y-116371133D01*
X119298927Y-116358470D01*
X119298753Y-116357880D01*
X119298752Y-116357879D01*
X119298029Y-116355435D01*
X119296299Y-116351744D01*
X119296286Y-116351481D01*
X119290128Y-116338573D01*
X119289968Y-116338231D01*
X119289941Y-116338056D01*
X119285365Y-116327009D01*
X119279620Y-116310785D01*
X119271301Y-116295455D01*
X119265736Y-116283786D01*
X119259059Y-116267675D01*
X119257332Y-116264856D01*
X119250010Y-116252906D01*
X119244175Y-116242241D01*
X119244055Y-116241995D01*
X119237872Y-116229032D01*
X119237688Y-116228866D01*
X119235897Y-116225173D01*
X119226638Y-116211708D01*
X119219827Y-116200593D01*
X119212037Y-116186237D01*
X119209562Y-116182965D01*
X119209494Y-116182709D01*
X119200869Y-116171470D01*
X119200571Y-116171076D01*
X119200508Y-116170909D01*
X119193739Y-116161061D01*
X119193738Y-116161059D01*
X119186451Y-116149165D01*
X119186449Y-116149163D01*
X119184685Y-116146284D01*
X119182416Y-116143628D01*
X119182416Y-116143627D01*
X119173357Y-116133023D01*
X119165922Y-116123402D01*
X119165714Y-116123103D01*
X119157599Y-116111301D01*
X119157390Y-116111165D01*
X119155186Y-116108004D01*
X119143822Y-116096023D01*
X119135419Y-116086182D01*
X119124760Y-116072292D01*
X119112174Y-116060354D01*
X119103769Y-116051559D01*
X119103494Y-116051241D01*
X119094295Y-116040473D01*
X119094070Y-116040358D01*
X119091502Y-116037392D01*
X119079077Y-116026778D01*
X119069653Y-116017833D01*
X119060015Y-116007672D01*
X119060013Y-116007671D01*
X119058262Y-116005825D01*
X119055055Y-116003330D01*
X119054927Y-116003107D01*
X119043501Y-115994339D01*
X119043152Y-115994067D01*
X119043053Y-115993929D01*
X119033967Y-115986170D01*
X119021433Y-115974280D01*
X119007268Y-115964541D01*
X118996983Y-115956647D01*
X118983726Y-115945321D01*
X118979106Y-115942491D01*
X118968935Y-115936259D01*
X118958928Y-115929433D01*
X118958620Y-115929200D01*
X118947291Y-115920506D01*
X118947033Y-115920436D01*
X118943761Y-115917962D01*
X118929404Y-115910171D01*
X118918293Y-115903362D01*
X118904825Y-115894102D01*
X118901133Y-115892311D01*
X118900968Y-115892127D01*
X118888148Y-115886011D01*
X118887737Y-115885812D01*
X118887612Y-115885699D01*
X118877082Y-115879982D01*
X118862319Y-115870937D01*
X118846200Y-115864257D01*
X118835198Y-115859051D01*
X118834844Y-115858861D01*
X118822278Y-115852043D01*
X118822050Y-115852019D01*
X118818537Y-115850140D01*
X118815823Y-115849179D01*
X118802978Y-115844629D01*
X118790999Y-115839667D01*
X118775354Y-115832204D01*
X118766075Y-115829457D01*
X118758854Y-115827319D01*
X118747445Y-115823326D01*
X118747036Y-115823160D01*
X118733812Y-115817680D01*
X118733529Y-115817679D01*
X118729904Y-115816209D01*
X118713863Y-115812355D01*
X118701446Y-115808676D01*
X118685012Y-115802856D01*
X118671795Y-115800407D01*
X118667889Y-115799683D01*
X118656057Y-115796885D01*
X118655713Y-115796785D01*
X118642027Y-115792734D01*
X118641783Y-115792759D01*
X118637934Y-115791647D01*
X118621691Y-115789509D01*
X118608913Y-115787140D01*
X118592929Y-115783300D01*
X118588886Y-115782953D01*
X118588655Y-115782836D01*
X118574468Y-115781719D01*
X118573952Y-115781675D01*
X118573787Y-115781611D01*
X118561949Y-115780053D01*
X118551357Y-115778091D01*
X118548259Y-115777517D01*
X118548258Y-115777517D01*
X118544900Y-115776895D01*
X118527583Y-115776441D01*
X118514659Y-115775425D01*
X118500883Y-115773612D01*
X118493772Y-115774079D01*
X118475932Y-115773963D01*
X118453399Y-115772189D01*
X118446279Y-115773032D01*
X118433442Y-115773879D01*
X118430947Y-115773913D01*
X118405877Y-115773258D01*
X118403158Y-115774301D01*
X118389802Y-115774488D01*
X118389429Y-115774384D01*
X118388072Y-115774500D01*
X117311928Y-115774500D01*
X117296610Y-115773193D01*
X117294123Y-115773258D01*
X117290369Y-115773356D01*
X117271523Y-115773849D01*
X117253709Y-115773032D01*
X117246596Y-115772190D01*
X117246595Y-115772190D01*
X117224067Y-115773963D01*
X117220201Y-115774206D01*
X117213989Y-115774500D01*
X117202423Y-115774500D01*
X117199113Y-115773613D01*
X117180219Y-115776098D01*
X117175029Y-115776344D01*
X117174689Y-115776261D01*
X117172418Y-115776440D01*
X117155095Y-115776894D01*
X117138050Y-115780052D01*
X117126042Y-115781675D01*
X117125461Y-115781724D01*
X117111345Y-115782836D01*
X117111116Y-115782952D01*
X117107080Y-115783298D01*
X117091073Y-115787143D01*
X117078306Y-115789510D01*
X117072984Y-115790210D01*
X117064597Y-115791315D01*
X117064596Y-115791315D01*
X117062055Y-115791650D01*
X117058215Y-115792759D01*
X117057973Y-115792734D01*
X117044461Y-115796733D01*
X117043931Y-115796887D01*
X117043766Y-115796886D01*
X117032109Y-115799683D01*
X117014985Y-115802856D01*
X116998548Y-115808677D01*
X116986906Y-115812168D01*
X116986443Y-115812282D01*
X116972668Y-115815592D01*
X116972473Y-115815733D01*
X116968529Y-115816708D01*
X116953406Y-115822976D01*
X116941142Y-115827320D01*
X116925437Y-115831970D01*
X116921743Y-115833700D01*
X116921481Y-115833714D01*
X116908662Y-115839828D01*
X116908215Y-115840038D01*
X116908037Y-115840065D01*
X116897012Y-115844633D01*
X116880783Y-115850381D01*
X116865439Y-115858706D01*
X116853786Y-115864264D01*
X116837669Y-115870944D01*
X116822906Y-115879988D01*
X116812258Y-115885814D01*
X116811741Y-115886064D01*
X116799032Y-115892128D01*
X116798869Y-115892308D01*
X116795176Y-115894100D01*
X116781702Y-115903365D01*
X116770598Y-115910169D01*
X116756236Y-115917963D01*
X116752963Y-115920437D01*
X116752709Y-115920506D01*
X116741499Y-115929107D01*
X116741072Y-115929431D01*
X116740907Y-115929493D01*
X116731063Y-115936259D01*
X116716281Y-115945315D01*
X116703024Y-115956641D01*
X116693410Y-115964070D01*
X116692926Y-115964406D01*
X116681301Y-115972401D01*
X116681167Y-115972606D01*
X116678010Y-115974808D01*
X116666020Y-115986180D01*
X116656187Y-115994576D01*
X116642289Y-116005242D01*
X116630352Y-116017826D01*
X116621568Y-116026221D01*
X116621115Y-116026613D01*
X116610473Y-116035705D01*
X116610359Y-116035927D01*
X116607391Y-116038498D01*
X116596769Y-116050931D01*
X116587837Y-116060341D01*
X116575825Y-116071737D01*
X116573328Y-116074945D01*
X116573107Y-116075073D01*
X116564402Y-116086415D01*
X116564064Y-116086850D01*
X116563924Y-116086950D01*
X116556175Y-116096026D01*
X116544283Y-116108563D01*
X116534540Y-116122733D01*
X116526651Y-116133011D01*
X116515318Y-116146277D01*
X116506261Y-116161059D01*
X116499438Y-116171063D01*
X116499112Y-116171493D01*
X116490506Y-116182709D01*
X116490437Y-116182963D01*
X116487962Y-116186237D01*
X116480173Y-116200592D01*
X116473369Y-116211696D01*
X116464098Y-116225179D01*
X116462308Y-116228868D01*
X116462127Y-116229032D01*
X116456027Y-116241816D01*
X116455809Y-116242268D01*
X116455697Y-116242390D01*
X116449980Y-116252921D01*
X116440935Y-116267684D01*
X116434258Y-116283795D01*
X116429056Y-116294789D01*
X116428753Y-116295354D01*
X116422043Y-116307722D01*
X116422019Y-116307946D01*
X116420139Y-116311463D01*
X116414632Y-116327013D01*
X116409670Y-116338991D01*
X116402202Y-116354648D01*
X116397317Y-116371147D01*
X116393327Y-116382550D01*
X116393125Y-116383046D01*
X116387680Y-116396188D01*
X116387679Y-116396469D01*
X116386210Y-116400093D01*
X116382358Y-116416128D01*
X116378679Y-116428545D01*
X116373135Y-116444202D01*
X116372381Y-116448113D01*
X116372236Y-116448338D01*
X116369613Y-116462491D01*
X116369523Y-116462960D01*
X116369440Y-116463120D01*
X116366662Y-116474701D01*
X116361748Y-116491302D01*
X116359510Y-116508304D01*
X116357142Y-116521077D01*
X116353300Y-116537072D01*
X116352953Y-116541113D01*
X116352836Y-116541345D01*
X116351720Y-116555515D01*
X116351675Y-116556046D01*
X116351611Y-116556209D01*
X116350053Y-116568051D01*
X116346895Y-116585097D01*
X116346441Y-116602416D01*
X116345532Y-116614504D01*
X116345470Y-116614999D01*
X116343613Y-116629113D01*
X116343679Y-116629361D01*
X116343190Y-116633288D01*
X116343621Y-116649762D01*
X116343281Y-116662729D01*
X116341922Y-116679999D01*
X115500500Y-116679999D01*
X115500500Y-110271595D01*
X126880472Y-110271595D01*
X126882205Y-110317092D01*
X126882206Y-110317098D01*
X126913908Y-110411605D01*
X126913908Y-110411606D01*
X126913910Y-110411610D01*
X126913911Y-110411612D01*
X126948628Y-110472246D01*
X126954100Y-110479256D01*
X126993376Y-110529572D01*
X126993382Y-110529578D01*
X129290861Y-112736066D01*
X129325578Y-112796700D01*
X129322002Y-112866478D01*
X129281269Y-112923246D01*
X129220155Y-112947456D01*
X129220285Y-112948439D01*
X129216378Y-112948953D01*
X129216311Y-112948980D01*
X129216104Y-112948989D01*
X129212228Y-112949499D01*
X129072211Y-112987017D01*
X128946688Y-113059488D01*
X128946682Y-113059493D01*
X128844193Y-113161982D01*
X128844188Y-113161988D01*
X128771717Y-113287511D01*
X128771716Y-113287515D01*
X128734200Y-113427525D01*
X128734200Y-117322475D01*
X128770150Y-117456639D01*
X128771717Y-117462488D01*
X128844188Y-117588011D01*
X128844190Y-117588013D01*
X128844191Y-117588015D01*
X128946685Y-117690509D01*
X128946686Y-117690510D01*
X128946688Y-117690511D01*
X129072211Y-117762982D01*
X129072212Y-117762982D01*
X129072215Y-117762984D01*
X129212225Y-117800500D01*
X129212228Y-117800500D01*
X129357172Y-117800500D01*
X129357175Y-117800500D01*
X129384474Y-117793185D01*
X129454319Y-117794846D01*
X129512182Y-117834007D01*
X129539689Y-117898234D01*
X129540565Y-117913498D01*
X129539043Y-118263756D01*
X129542873Y-118300500D01*
X129544763Y-118318632D01*
X129555968Y-118370682D01*
X129555969Y-118370684D01*
X129555973Y-118370700D01*
X129563319Y-118397594D01*
X129563323Y-118397603D01*
X129612645Y-118484218D01*
X129612650Y-118484225D01*
X129612652Y-118484228D01*
X129631805Y-118506332D01*
X129658403Y-118537028D01*
X129658406Y-118537031D01*
X129658407Y-118537032D01*
X129691181Y-118568657D01*
X129779516Y-118614865D01*
X129779517Y-118614865D01*
X129779517Y-118614866D01*
X129829645Y-118629584D01*
X129846555Y-118634550D01*
X129846559Y-118634550D01*
X129846561Y-118634551D01*
X129852362Y-118635385D01*
X129918540Y-118644900D01*
X129918541Y-118644900D01*
X131904952Y-118644900D01*
X131926408Y-118643997D01*
X131932990Y-118643441D01*
X131947188Y-118642244D01*
X131947193Y-118642242D01*
X131947197Y-118642242D01*
X132004769Y-118626368D01*
X132037742Y-118617277D01*
X132100537Y-118586641D01*
X132100539Y-118586639D01*
X132100542Y-118586638D01*
X132145778Y-118555909D01*
X132160692Y-118545778D01*
X134831705Y-116109381D01*
X135843934Y-115186064D01*
X135843939Y-115186059D01*
X135843938Y-115186059D01*
X135843950Y-115186049D01*
X135866977Y-115162124D01*
X135887727Y-115137551D01*
X135891457Y-115133030D01*
X135937665Y-115044695D01*
X135957350Y-114977656D01*
X135967700Y-114905671D01*
X135967700Y-110677325D01*
X135961796Y-110634588D01*
X135958132Y-110608064D01*
X135958128Y-110608045D01*
X135939900Y-110543332D01*
X135914427Y-110485017D01*
X135911911Y-110479257D01*
X134620057Y-108367944D01*
X132608277Y-105080034D01*
X132602149Y-105070499D01*
X132596028Y-105061424D01*
X132585682Y-105050500D01*
X132538342Y-105000516D01*
X132538338Y-105000513D01*
X132538338Y-105000512D01*
X132482624Y-104958365D01*
X132482621Y-104958363D01*
X132443996Y-104934232D01*
X132404421Y-104923159D01*
X132347996Y-104907372D01*
X132347994Y-104907371D01*
X132347991Y-104907371D01*
X132278325Y-104902034D01*
X132278324Y-104902034D01*
X132232778Y-104902617D01*
X132232776Y-104902617D01*
X132137495Y-104931925D01*
X132076006Y-104965098D01*
X132017563Y-105008389D01*
X126989258Y-109986158D01*
X126953025Y-110031238D01*
X126953024Y-110031239D01*
X126923231Y-110078379D01*
X126908476Y-110105149D01*
X126884049Y-110201800D01*
X126880472Y-110271595D01*
X115500500Y-110271595D01*
X115500500Y-104546696D01*
X137759700Y-104559540D01*
G37*
%TD.AperFunction*%
%TA.AperFunction,Conductor*%
G36*
X137243503Y-112314231D02*
G01*
X137249981Y-112320263D01*
X139560988Y-114631270D01*
X139630285Y-114671278D01*
X139630287Y-114671280D01*
X139637542Y-114675468D01*
X139640912Y-114677414D01*
X139730056Y-114701300D01*
X140459456Y-114701300D01*
X140526495Y-114720985D01*
X140572250Y-114773789D01*
X140582194Y-114842947D01*
X140553169Y-114906503D01*
X140547137Y-114912981D01*
X137249981Y-118210136D01*
X137188658Y-118243621D01*
X137118966Y-118238637D01*
X137063033Y-118196765D01*
X137038616Y-118131301D01*
X137038300Y-118122455D01*
X137038300Y-112407944D01*
X137057985Y-112340905D01*
X137110789Y-112295150D01*
X137179947Y-112285206D01*
X137243503Y-112314231D01*
G37*
%TD.AperFunction*%
%TA.AperFunction,Conductor*%
G36*
X140049499Y-104560862D02*
G01*
X140049499Y-105032725D01*
X140049499Y-105914275D01*
X140086001Y-106050500D01*
X140087016Y-106054288D01*
X140159487Y-106179811D01*
X140159489Y-106179813D01*
X140159490Y-106179815D01*
X140261984Y-106282309D01*
X140261985Y-106282310D01*
X140261987Y-106282311D01*
X140387510Y-106354782D01*
X140387511Y-106354782D01*
X140387514Y-106354784D01*
X140527524Y-106392300D01*
X140527527Y-106392300D01*
X140672471Y-106392300D01*
X140672474Y-106392300D01*
X140812484Y-106354784D01*
X140938014Y-106282309D01*
X141040508Y-106179815D01*
X141112983Y-106054285D01*
X141150499Y-105914275D01*
X141150499Y-105032725D01*
X141150499Y-104561497D01*
X146931477Y-104564833D01*
X146929815Y-104570495D01*
X146913181Y-104591137D01*
X146531531Y-104972786D01*
X146510976Y-105008389D01*
X146486663Y-105050500D01*
X146486662Y-105050502D01*
X146486661Y-105050501D01*
X146485388Y-105052707D01*
X146485384Y-105052715D01*
X146461500Y-105141856D01*
X146461500Y-114890856D01*
X146441815Y-114957895D01*
X146425181Y-114978537D01*
X145583040Y-115820678D01*
X145521717Y-115854163D01*
X145452025Y-115849179D01*
X145396092Y-115807307D01*
X145371675Y-115741843D01*
X145371359Y-115732997D01*
X145371359Y-115687458D01*
X145371359Y-115687456D01*
X145333843Y-115547446D01*
X145263661Y-115425888D01*
X145261370Y-115421919D01*
X145261365Y-115421913D01*
X145214347Y-115374895D01*
X145180862Y-115313572D01*
X145185846Y-115243880D01*
X145214344Y-115199536D01*
X145822470Y-114591412D01*
X145868614Y-114511488D01*
X145871303Y-114501449D01*
X145877097Y-114479832D01*
X145884798Y-114451088D01*
X145892500Y-114422344D01*
X145892500Y-114398386D01*
X145912185Y-114331347D01*
X145928819Y-114310705D01*
X145982509Y-114257015D01*
X146054984Y-114131485D01*
X146092500Y-113991475D01*
X146092500Y-113846525D01*
X146054984Y-113706515D01*
X145982509Y-113580985D01*
X145880015Y-113478491D01*
X145880013Y-113478490D01*
X145880011Y-113478488D01*
X145754488Y-113406017D01*
X145754489Y-113406017D01*
X145743006Y-113402940D01*
X145614475Y-113368500D01*
X145469525Y-113368500D01*
X145340993Y-113402940D01*
X145329511Y-113406017D01*
X145203988Y-113478488D01*
X145203982Y-113478493D01*
X145101493Y-113580982D01*
X145101488Y-113580988D01*
X145029017Y-113706511D01*
X145029016Y-113706515D01*
X145014154Y-113761982D01*
X145011363Y-113772397D01*
X144974997Y-113832058D01*
X144912150Y-113862586D01*
X144842775Y-113854291D01*
X144829587Y-113847690D01*
X144827569Y-113846525D01*
X144812485Y-113837816D01*
X144672475Y-113800300D01*
X144527525Y-113800300D01*
X144409004Y-113832058D01*
X144387511Y-113837817D01*
X144261988Y-113910288D01*
X144261982Y-113910293D01*
X144208295Y-113963981D01*
X144146972Y-113997466D01*
X144120614Y-114000300D01*
X139972744Y-114000300D01*
X139905705Y-113980615D01*
X139885063Y-113963981D01*
X138104330Y-112183248D01*
X138070845Y-112121925D01*
X138075829Y-112052233D01*
X138117701Y-111996300D01*
X138183165Y-111971883D01*
X138224104Y-111975792D01*
X138240925Y-111980300D01*
X138240927Y-111980300D01*
X138385872Y-111980300D01*
X138385875Y-111980300D01*
X138525885Y-111942784D01*
X138651415Y-111870309D01*
X138753909Y-111767815D01*
X138826384Y-111642285D01*
X138833693Y-111615004D01*
X138870059Y-111555346D01*
X138932906Y-111524817D01*
X138953468Y-111523100D01*
X139071672Y-111523100D01*
X139071675Y-111523100D01*
X139211685Y-111485584D01*
X139337215Y-111413109D01*
X139439709Y-111310615D01*
X139512184Y-111185085D01*
X139549700Y-111045075D01*
X139549700Y-110900125D01*
X139512184Y-110760115D01*
X139478752Y-110702210D01*
X139439711Y-110634588D01*
X139439706Y-110634582D01*
X139337217Y-110532093D01*
X139337211Y-110532088D01*
X139211688Y-110459617D01*
X139211689Y-110459617D01*
X139200206Y-110456540D01*
X139071675Y-110422100D01*
X139071672Y-110422100D01*
X139036843Y-110422100D01*
X138969804Y-110402415D01*
X138924049Y-110349611D01*
X138912843Y-110298100D01*
X138912843Y-104560206D01*
X140049499Y-104560862D01*
G37*
%TD.AperFunction*%
%TD*%
%TA.AperFunction,Conductor*%
%TO.N,/BMS/PowerNodeBMS*%
G36*
X153670000Y-98435800D02*
G01*
X151765000Y-98435800D01*
X153670000Y-96672400D01*
X153670000Y-98435800D01*
G37*
%TD.AperFunction*%
%TD*%
%TA.AperFunction,Conductor*%
%TO.N,/BMS/PowerNodeBMS*%
G36*
X153670000Y-101196300D02*
G01*
X153666504Y-101196202D01*
X149497487Y-100960077D01*
X149431668Y-100936633D01*
X149388972Y-100881326D01*
X149380499Y-100836279D01*
X149380499Y-100377128D01*
X149379008Y-100363258D01*
X149379008Y-100336749D01*
X149380500Y-100322873D01*
X149380499Y-99727128D01*
X149379008Y-99713258D01*
X149379008Y-99686749D01*
X149380500Y-99672873D01*
X149380499Y-99077128D01*
X149379008Y-99063258D01*
X149379008Y-99036749D01*
X149380500Y-99022873D01*
X149380499Y-98559799D01*
X149400183Y-98492761D01*
X149452987Y-98447006D01*
X149504499Y-98435800D01*
X151764999Y-98435800D01*
X153670000Y-98435800D01*
X153670000Y-101196300D01*
G37*
%TD.AperFunction*%
%TD*%
%TA.AperFunction,Conductor*%
%TO.N,/PD_Control/VBUSC*%
G36*
X126456796Y-121947331D02*
G01*
X127299680Y-122509253D01*
X127304577Y-122516566D01*
X127304800Y-122518821D01*
X127304800Y-122973023D01*
X127301432Y-122981155D01*
X127299860Y-122982469D01*
X126455334Y-123568946D01*
X126448774Y-123571000D01*
X124054775Y-123571000D01*
X124052456Y-123570764D01*
X123190001Y-123393200D01*
X123190000Y-123393200D01*
X121042500Y-123393200D01*
X121034368Y-123389832D01*
X121031000Y-123381700D01*
X121031000Y-122871300D01*
X121034368Y-122863168D01*
X121042500Y-122859800D01*
X123189999Y-122859800D01*
X123190000Y-122859800D01*
X124050196Y-121949003D01*
X124058229Y-121945405D01*
X124058557Y-121945400D01*
X126450417Y-121945400D01*
X126456796Y-121947331D01*
G37*
%TD.AperFunction*%
%TD*%
%TA.AperFunction,Conductor*%
%TO.N,GND*%
G36*
X158442539Y-81520185D02*
G01*
X158488294Y-81572989D01*
X158499500Y-81624500D01*
X158499500Y-93708900D01*
X158479815Y-93775939D01*
X158427011Y-93821694D01*
X158375500Y-93832900D01*
X153794000Y-93832900D01*
X153793991Y-93832900D01*
X153793990Y-93832901D01*
X153686549Y-93844452D01*
X153686537Y-93844454D01*
X153635027Y-93855660D01*
X153532502Y-93889783D01*
X153532496Y-93889786D01*
X153411462Y-93967571D01*
X153411451Y-93967579D01*
X153358659Y-94013323D01*
X153268212Y-94117703D01*
X153209434Y-94155476D01*
X153139564Y-94155476D01*
X153080786Y-94117701D01*
X153051762Y-94054145D01*
X153050500Y-94036499D01*
X153050500Y-93625987D01*
X153070185Y-93558948D01*
X153086819Y-93538306D01*
X154038306Y-92586819D01*
X154099629Y-92553334D01*
X154125987Y-92550500D01*
X154512820Y-92550500D01*
X154579859Y-92570185D01*
X154612085Y-92600187D01*
X154692454Y-92707546D01*
X154738643Y-92742123D01*
X154807664Y-92793793D01*
X154807671Y-92793797D01*
X154942517Y-92844091D01*
X154942516Y-92844091D01*
X154949444Y-92844835D01*
X155002127Y-92850500D01*
X155997872Y-92850499D01*
X156057483Y-92844091D01*
X156192331Y-92793796D01*
X156307546Y-92707546D01*
X156393796Y-92592331D01*
X156444091Y-92457483D01*
X156450500Y-92397873D01*
X156450499Y-91602128D01*
X156444091Y-91542517D01*
X156437041Y-91523616D01*
X156393797Y-91407671D01*
X156393793Y-91407664D01*
X156307547Y-91292455D01*
X156307544Y-91292452D01*
X156192335Y-91206206D01*
X156192328Y-91206202D01*
X156057482Y-91155908D01*
X156057483Y-91155908D01*
X155997883Y-91149501D01*
X155997881Y-91149500D01*
X155997873Y-91149500D01*
X155997864Y-91149500D01*
X155002129Y-91149500D01*
X155002123Y-91149501D01*
X154942516Y-91155908D01*
X154807671Y-91206202D01*
X154807664Y-91206206D01*
X154692456Y-91292452D01*
X154692455Y-91292453D01*
X154692454Y-91292454D01*
X154612087Y-91399811D01*
X154556153Y-91441682D01*
X154512820Y-91449500D01*
X153774125Y-91449500D01*
X153647862Y-91483331D01*
X153647863Y-91483332D01*
X153634116Y-91487015D01*
X153634114Y-91487016D01*
X153508586Y-91559489D01*
X153508583Y-91559491D01*
X152059491Y-93008583D01*
X152059487Y-93008588D01*
X151999956Y-93111701D01*
X151987018Y-93134110D01*
X151987016Y-93134113D01*
X151980537Y-93158295D01*
X151949500Y-93274125D01*
X151949500Y-96572475D01*
X151968649Y-96643938D01*
X151987017Y-96712488D01*
X152059488Y-96838011D01*
X152059490Y-96838013D01*
X152059491Y-96838015D01*
X152161985Y-96940509D01*
X152161986Y-96940510D01*
X152161988Y-96940511D01*
X152287511Y-97012982D01*
X152287512Y-97012982D01*
X152287515Y-97012984D01*
X152287517Y-97012984D01*
X152295019Y-97016092D01*
X152293699Y-97019276D01*
X152339765Y-97047279D01*
X152370369Y-97110090D01*
X152362158Y-97179475D01*
X152332345Y-97221797D01*
X151602603Y-97897298D01*
X151540034Y-97928393D01*
X151518369Y-97930300D01*
X149746494Y-97930300D01*
X149679455Y-97910615D01*
X149633700Y-97857811D01*
X149623756Y-97788653D01*
X149624838Y-97782305D01*
X149626607Y-97773335D01*
X149626607Y-97773333D01*
X149626608Y-97773330D01*
X149630754Y-97741661D01*
X149632916Y-97708760D01*
X149634652Y-96032969D01*
X149654406Y-95965953D01*
X149670966Y-95945424D01*
X150235703Y-95380688D01*
X150235708Y-95380684D01*
X150245911Y-95370480D01*
X150245913Y-95370480D01*
X150320480Y-95295913D01*
X150373207Y-95204587D01*
X150394052Y-95126793D01*
X150400501Y-95102727D01*
X150400501Y-94997273D01*
X150400500Y-94997269D01*
X150400500Y-92824500D01*
X150420185Y-92757461D01*
X150472989Y-92711706D01*
X150524500Y-92700500D01*
X150607555Y-92700500D01*
X150623113Y-92698451D01*
X150654231Y-92694355D01*
X150756667Y-92646588D01*
X150836588Y-92566667D01*
X150884355Y-92464231D01*
X150890500Y-92417554D01*
X150890500Y-91632446D01*
X150884355Y-91585769D01*
X150845480Y-91502403D01*
X150845327Y-91501393D01*
X150844663Y-91500614D01*
X150840091Y-91466924D01*
X150834989Y-91433328D01*
X150835361Y-91432059D01*
X150835269Y-91431379D01*
X150845479Y-91397599D01*
X150869031Y-91347092D01*
X150915203Y-91294656D01*
X150981412Y-91275500D01*
X151443051Y-91275500D01*
X151510090Y-91295185D01*
X151555845Y-91347989D01*
X151559226Y-91356150D01*
X151574684Y-91397594D01*
X151579789Y-91411280D01*
X151602548Y-91441682D01*
X151663884Y-91523616D01*
X151776222Y-91607712D01*
X151842537Y-91632446D01*
X151907700Y-91656751D01*
X151965809Y-91662999D01*
X151965826Y-91663000D01*
X152534174Y-91663000D01*
X152534190Y-91662999D01*
X152592299Y-91656751D01*
X152723778Y-91607712D01*
X152836116Y-91523616D01*
X152920212Y-91411278D01*
X152969251Y-91279799D01*
X152969713Y-91275500D01*
X152975499Y-91221690D01*
X152975500Y-91221673D01*
X152975500Y-90628326D01*
X152975499Y-90628309D01*
X152969251Y-90570200D01*
X152949719Y-90517834D01*
X152944735Y-90448142D01*
X152978219Y-90386819D01*
X153039542Y-90353334D01*
X153065901Y-90350500D01*
X154433023Y-90350500D01*
X154500062Y-90370185D01*
X154545817Y-90422989D01*
X154553266Y-90450134D01*
X154554124Y-90449932D01*
X154555907Y-90457479D01*
X154606202Y-90592328D01*
X154606206Y-90592335D01*
X154692452Y-90707544D01*
X154692455Y-90707547D01*
X154807664Y-90793793D01*
X154807671Y-90793797D01*
X154942517Y-90844091D01*
X154942516Y-90844091D01*
X154949444Y-90844835D01*
X155002127Y-90850500D01*
X155997872Y-90850499D01*
X156057483Y-90844091D01*
X156192331Y-90793796D01*
X156307546Y-90707546D01*
X156393796Y-90592331D01*
X156444091Y-90457483D01*
X156450500Y-90397873D01*
X156450499Y-89602128D01*
X156444091Y-89542517D01*
X156429510Y-89503424D01*
X156393797Y-89407671D01*
X156393793Y-89407664D01*
X156307547Y-89292455D01*
X156307544Y-89292452D01*
X156192335Y-89206206D01*
X156192328Y-89206202D01*
X156057482Y-89155908D01*
X156057483Y-89155908D01*
X155997883Y-89149501D01*
X155997881Y-89149500D01*
X155997873Y-89149500D01*
X155997864Y-89149500D01*
X155002129Y-89149500D01*
X155002123Y-89149501D01*
X154942516Y-89155908D01*
X154807671Y-89206202D01*
X154807664Y-89206206D01*
X154692455Y-89292452D01*
X154692452Y-89292455D01*
X154606206Y-89407664D01*
X154606202Y-89407671D01*
X154555908Y-89542517D01*
X154554126Y-89550062D01*
X154551853Y-89549525D01*
X154529571Y-89603312D01*
X154472177Y-89643157D01*
X154433024Y-89649500D01*
X151696543Y-89649500D01*
X151629504Y-89629815D01*
X151608862Y-89613181D01*
X150874318Y-88878637D01*
X150840833Y-88817314D01*
X150837999Y-88790956D01*
X150837999Y-87977129D01*
X150837998Y-87977123D01*
X150837997Y-87977116D01*
X150831591Y-87917517D01*
X150781296Y-87782669D01*
X150781295Y-87782668D01*
X150781293Y-87782664D01*
X150695047Y-87667455D01*
X150695044Y-87667452D01*
X150579835Y-87581206D01*
X150579828Y-87581202D01*
X150444986Y-87530910D01*
X150444985Y-87530909D01*
X150444983Y-87530909D01*
X150385373Y-87524500D01*
X150385363Y-87524500D01*
X149614629Y-87524500D01*
X149614623Y-87524501D01*
X149555016Y-87530908D01*
X149420171Y-87581202D01*
X149420164Y-87581206D01*
X149304955Y-87667452D01*
X149304952Y-87667455D01*
X149218706Y-87782664D01*
X149218702Y-87782671D01*
X149168408Y-87917517D01*
X149162001Y-87977116D01*
X149162001Y-87977123D01*
X149162000Y-87977135D01*
X149162000Y-89022870D01*
X149162001Y-89022876D01*
X149168408Y-89082483D01*
X149218702Y-89217328D01*
X149218706Y-89217335D01*
X149304952Y-89332544D01*
X149304955Y-89332547D01*
X149420164Y-89418793D01*
X149420171Y-89418797D01*
X149562285Y-89471802D01*
X149561742Y-89473255D01*
X149614728Y-89503424D01*
X149647116Y-89565334D01*
X149649500Y-89589531D01*
X149649500Y-89951856D01*
X149629815Y-90018895D01*
X149577011Y-90064650D01*
X149507853Y-90074594D01*
X149444297Y-90045569D01*
X149437819Y-90039537D01*
X148738010Y-89339728D01*
X148704525Y-89278405D01*
X148709508Y-89208717D01*
X148756591Y-89082483D01*
X148763000Y-89022873D01*
X148762999Y-87977128D01*
X148756591Y-87917517D01*
X148706296Y-87782669D01*
X148706295Y-87782668D01*
X148706293Y-87782664D01*
X148682888Y-87751399D01*
X148658470Y-87685935D01*
X148673321Y-87617662D01*
X148694470Y-87589410D01*
X150223787Y-86060093D01*
X150285108Y-86026610D01*
X150343558Y-86028000D01*
X150427525Y-86050500D01*
X150427527Y-86050500D01*
X151572472Y-86050500D01*
X151572475Y-86050500D01*
X151712485Y-86012984D01*
X151838015Y-85940509D01*
X151940509Y-85838015D01*
X152012984Y-85712485D01*
X152050500Y-85572475D01*
X152050500Y-85427525D01*
X152012984Y-85287515D01*
X151940509Y-85161985D01*
X151838015Y-85059491D01*
X151838013Y-85059490D01*
X151838011Y-85059488D01*
X151712488Y-84987017D01*
X151712489Y-84987017D01*
X151701006Y-84983940D01*
X151572475Y-84949500D01*
X150427525Y-84949500D01*
X150298993Y-84983940D01*
X150287511Y-84987017D01*
X150161988Y-85059488D01*
X150161982Y-85059493D01*
X150059493Y-85161982D01*
X150059488Y-85161988D01*
X149987017Y-85287511D01*
X149983906Y-85295023D01*
X149981092Y-85293857D01*
X149956937Y-85335579D01*
X147804335Y-87488181D01*
X147743012Y-87521666D01*
X147716655Y-87524500D01*
X147539630Y-87524500D01*
X147539623Y-87524501D01*
X147480016Y-87530908D01*
X147345171Y-87581202D01*
X147345164Y-87581206D01*
X147229955Y-87667452D01*
X147229952Y-87667455D01*
X147143706Y-87782664D01*
X147143702Y-87782671D01*
X147093408Y-87917517D01*
X147087001Y-87977116D01*
X147087001Y-87977123D01*
X147087000Y-87977135D01*
X147087000Y-89022870D01*
X147087001Y-89022876D01*
X147093408Y-89082483D01*
X147143702Y-89217328D01*
X147143706Y-89217335D01*
X147229952Y-89332544D01*
X147229955Y-89332547D01*
X147345164Y-89418793D01*
X147345171Y-89418797D01*
X147390118Y-89435561D01*
X147480017Y-89469091D01*
X147539627Y-89475500D01*
X147831055Y-89475499D01*
X147898094Y-89495183D01*
X147918736Y-89511818D01*
X149073181Y-90666262D01*
X149106666Y-90727585D01*
X149109500Y-90753943D01*
X149109500Y-91267554D01*
X149115644Y-91314229D01*
X149115645Y-91314231D01*
X149163412Y-91416667D01*
X149163413Y-91416668D01*
X149169634Y-91425553D01*
X149167215Y-91427246D01*
X149192549Y-91473642D01*
X149187565Y-91543334D01*
X149168210Y-91573449D01*
X149169634Y-91574447D01*
X149163413Y-91583331D01*
X149115644Y-91685770D01*
X149109500Y-91732445D01*
X149109500Y-91968627D01*
X149105275Y-92000719D01*
X149099500Y-92022271D01*
X149099500Y-92293945D01*
X149079815Y-92360984D01*
X149063181Y-92381626D01*
X148979522Y-92465284D01*
X148979518Y-92465290D01*
X148926792Y-92556612D01*
X148926793Y-92556613D01*
X148899500Y-92658473D01*
X148899500Y-93070614D01*
X148879815Y-93137653D01*
X148863181Y-93158295D01*
X148859493Y-93161982D01*
X148859488Y-93161988D01*
X148787017Y-93287511D01*
X148787016Y-93287515D01*
X148749500Y-93427525D01*
X148749500Y-94572475D01*
X148787016Y-94712485D01*
X148787017Y-94712488D01*
X148859488Y-94838011D01*
X148859490Y-94838013D01*
X148859491Y-94838015D01*
X148961985Y-94940509D01*
X148961988Y-94940511D01*
X148962992Y-94941281D01*
X148963628Y-94942152D01*
X148967732Y-94946256D01*
X148967092Y-94946895D01*
X149004196Y-94997708D01*
X149008351Y-95067454D01*
X148974140Y-95128375D01*
X148912423Y-95161129D01*
X148887771Y-95163658D01*
X147802659Y-95165968D01*
X147748857Y-95171815D01*
X147748843Y-95171817D01*
X147697815Y-95182927D01*
X147697808Y-95182929D01*
X147671906Y-95190012D01*
X147585186Y-95239191D01*
X147532305Y-95284848D01*
X147532298Y-95284855D01*
X147500621Y-95317568D01*
X147454255Y-95405822D01*
X147434450Y-95472829D01*
X147423973Y-95544789D01*
X147423973Y-95544796D01*
X147420135Y-97704306D01*
X147423275Y-97744691D01*
X147423276Y-97744700D01*
X147429398Y-97783388D01*
X147438880Y-97822774D01*
X147570120Y-98224696D01*
X147800303Y-98929631D01*
X147800309Y-98929646D01*
X147800313Y-98929656D01*
X147815405Y-98966071D01*
X147815406Y-98966074D01*
X147832700Y-99000104D01*
X147838450Y-99010783D01*
X147838454Y-99010788D01*
X147903730Y-99086126D01*
X147903737Y-99086133D01*
X147958902Y-99128987D01*
X147958909Y-99128991D01*
X147958911Y-99128993D01*
X147997225Y-99153616D01*
X147997226Y-99153616D01*
X147997227Y-99153617D01*
X148098723Y-99183422D01*
X148098370Y-99184621D01*
X148135631Y-99199855D01*
X148152260Y-99210966D01*
X148170526Y-99214599D01*
X148225323Y-99225500D01*
X148225326Y-99225500D01*
X148750999Y-99225500D01*
X148818038Y-99245185D01*
X148863793Y-99297989D01*
X148874999Y-99349500D01*
X148874999Y-99658916D01*
X148873508Y-99686749D01*
X148873508Y-99713258D01*
X148874999Y-99741075D01*
X148874999Y-100305605D01*
X148874821Y-100312239D01*
X148873508Y-100336745D01*
X148873508Y-100363259D01*
X148874821Y-100387752D01*
X148874999Y-100394390D01*
X148874999Y-100836279D01*
X148881097Y-100901688D01*
X148883711Y-100929724D01*
X148892185Y-100974771D01*
X148892185Y-100974772D01*
X148918013Y-101064979D01*
X148988832Y-101190226D01*
X149031529Y-101245533D01*
X149031530Y-101245534D01*
X149134762Y-101345751D01*
X149134763Y-101345752D01*
X149262044Y-101412823D01*
X149262050Y-101412825D01*
X149262053Y-101412827D01*
X149327872Y-101436271D01*
X149356638Y-101442083D01*
X149468888Y-101464766D01*
X149468896Y-101464767D01*
X149468897Y-101464767D01*
X149468902Y-101464768D01*
X153637919Y-101700893D01*
X153652339Y-101701504D01*
X153655835Y-101701602D01*
X153655835Y-101701601D01*
X153656212Y-101701611D01*
X153659145Y-101701696D01*
X153659303Y-101701698D01*
X153660117Y-101701721D01*
X153660119Y-101701721D01*
X153660130Y-101701722D01*
X153677268Y-101702203D01*
X153678850Y-101701900D01*
X158375500Y-101701900D01*
X158442539Y-101721585D01*
X158488294Y-101774389D01*
X158499500Y-101825900D01*
X158499500Y-104571508D01*
X149912178Y-104566553D01*
X148565156Y-103219531D01*
X148565151Y-103219527D01*
X148485233Y-103173387D01*
X148485232Y-103173386D01*
X148485231Y-103173386D01*
X148396087Y-103149500D01*
X148396086Y-103149500D01*
X147979386Y-103149500D01*
X147912347Y-103129815D01*
X147891705Y-103113181D01*
X147838017Y-103059493D01*
X147838011Y-103059488D01*
X147712488Y-102987017D01*
X147712489Y-102987017D01*
X147701006Y-102983940D01*
X147572475Y-102949500D01*
X147427525Y-102949500D01*
X147298993Y-102983940D01*
X147287511Y-102987017D01*
X147161988Y-103059488D01*
X147161982Y-103059493D01*
X147059493Y-103161982D01*
X147059488Y-103161988D01*
X146987017Y-103287511D01*
X146987016Y-103287515D01*
X146949500Y-103427525D01*
X146949500Y-103572475D01*
X146987016Y-103712485D01*
X146987017Y-103712488D01*
X147059488Y-103838011D01*
X147059493Y-103838017D01*
X147133795Y-103912319D01*
X147167280Y-103973642D01*
X147162296Y-104043334D01*
X147133795Y-104087681D01*
X147059493Y-104161982D01*
X147059488Y-104161988D01*
X146987017Y-104287511D01*
X146987016Y-104287515D01*
X146949500Y-104427525D01*
X146949500Y-104427527D01*
X146949500Y-104503455D01*
X146931477Y-104564833D01*
X141150499Y-104561497D01*
X141150499Y-97982526D01*
X141150499Y-97982524D01*
X141112983Y-97842514D01*
X141040509Y-97716984D01*
X137396415Y-94072890D01*
X137270885Y-94000416D01*
X137270880Y-94000414D01*
X137220877Y-93987015D01*
X137220877Y-93987016D01*
X137175875Y-93974958D01*
X137130875Y-93962900D01*
X137130874Y-93962900D01*
X133426187Y-93962900D01*
X133359148Y-93943215D01*
X133338506Y-93926581D01*
X132895419Y-93483494D01*
X132861934Y-93422171D01*
X132859100Y-93395813D01*
X132859100Y-92612127D01*
X132859100Y-92612125D01*
X132821584Y-92472115D01*
X132778720Y-92397873D01*
X132749111Y-92346588D01*
X132749106Y-92346582D01*
X132646617Y-92244093D01*
X132646611Y-92244088D01*
X132521088Y-92171617D01*
X132521089Y-92171617D01*
X132509606Y-92168540D01*
X132381075Y-92134100D01*
X132236125Y-92134100D01*
X132107593Y-92168540D01*
X132096111Y-92171617D01*
X131970588Y-92244088D01*
X131970582Y-92244093D01*
X131868093Y-92346582D01*
X131868088Y-92346588D01*
X131795617Y-92472111D01*
X131795616Y-92472115D01*
X131758100Y-92612125D01*
X131758100Y-93348725D01*
X131758100Y-93602726D01*
X131758100Y-93747674D01*
X131795616Y-93887685D01*
X131868090Y-94013215D01*
X132808785Y-94953910D01*
X132934315Y-95026384D01*
X133074325Y-95063900D01*
X133074326Y-95063900D01*
X133219274Y-95063900D01*
X136779013Y-95063900D01*
X136846052Y-95083585D01*
X136866694Y-95100219D01*
X140013180Y-98246705D01*
X140046665Y-98308028D01*
X140049499Y-98334386D01*
X140049499Y-98943317D01*
X140029814Y-99010356D01*
X139977010Y-99056111D01*
X139907852Y-99066055D01*
X139844296Y-99037030D01*
X139837818Y-99030998D01*
X138801351Y-97994531D01*
X138801346Y-97994527D01*
X138721428Y-97948387D01*
X138721427Y-97948386D01*
X138721426Y-97948386D01*
X138632282Y-97924500D01*
X138632281Y-97924500D01*
X138321486Y-97924500D01*
X138254447Y-97904815D01*
X138233805Y-97888181D01*
X137964156Y-97618531D01*
X137964151Y-97618527D01*
X137884250Y-97572396D01*
X137884247Y-97572395D01*
X137884231Y-97572386D01*
X137875244Y-97569978D01*
X137795087Y-97548500D01*
X137669908Y-97548500D01*
X137663055Y-97547736D01*
X137636929Y-97536794D01*
X137609756Y-97528815D01*
X137600966Y-97521731D01*
X137598610Y-97520745D01*
X137597199Y-97518696D01*
X137589114Y-97512181D01*
X137346464Y-97269531D01*
X137346459Y-97269527D01*
X137266541Y-97223387D01*
X137266534Y-97223384D01*
X137261175Y-97221948D01*
X137261170Y-97221947D01*
X137252148Y-97219530D01*
X137177395Y-97199500D01*
X137060351Y-97199500D01*
X137053480Y-97198732D01*
X137027375Y-97187790D01*
X137000216Y-97179815D01*
X136991398Y-97172709D01*
X136989042Y-97171722D01*
X136987634Y-97169676D01*
X136979574Y-97163181D01*
X136888347Y-97071954D01*
X136888344Y-97071952D01*
X136888342Y-97071950D01*
X136811517Y-97032805D01*
X136775301Y-97014352D01*
X136681524Y-96999500D01*
X135593482Y-96999500D01*
X135512519Y-97012323D01*
X135499696Y-97014354D01*
X135386658Y-97071950D01*
X135386657Y-97071951D01*
X135386652Y-97071954D01*
X135296954Y-97161652D01*
X135296951Y-97161657D01*
X135296950Y-97161658D01*
X135287872Y-97179475D01*
X135239352Y-97274698D01*
X135224500Y-97368475D01*
X135224500Y-97731517D01*
X135235292Y-97799657D01*
X135239354Y-97825304D01*
X135296950Y-97938342D01*
X135296953Y-97938345D01*
X135302689Y-97946241D01*
X135301334Y-97947224D01*
X135329411Y-97998642D01*
X135324427Y-98068334D01*
X135301987Y-98103249D01*
X135302689Y-98103759D01*
X135296951Y-98111657D01*
X135296950Y-98111658D01*
X135239355Y-98224694D01*
X135239354Y-98224696D01*
X135239352Y-98224698D01*
X135224500Y-98318475D01*
X135224500Y-98681517D01*
X135234057Y-98741855D01*
X135239354Y-98775304D01*
X135296950Y-98888342D01*
X135296953Y-98888345D01*
X135302689Y-98896241D01*
X135301334Y-98897224D01*
X135329411Y-98948642D01*
X135324427Y-99018334D01*
X135301987Y-99053249D01*
X135302689Y-99053759D01*
X135296951Y-99061657D01*
X135296950Y-99061658D01*
X135284479Y-99086133D01*
X135239352Y-99174698D01*
X135224500Y-99268475D01*
X135224500Y-99631517D01*
X135228840Y-99658916D01*
X135239354Y-99725304D01*
X135296950Y-99838342D01*
X135296952Y-99838344D01*
X135296954Y-99838347D01*
X135386652Y-99928045D01*
X135386654Y-99928046D01*
X135386658Y-99928050D01*
X135499694Y-99985645D01*
X135499698Y-99985647D01*
X135593475Y-100000499D01*
X135593481Y-100000500D01*
X136681518Y-100000499D01*
X136775304Y-99985646D01*
X136888342Y-99928050D01*
X136888347Y-99928045D01*
X136979574Y-99836819D01*
X137040897Y-99803334D01*
X137067255Y-99800500D01*
X137177393Y-99800500D01*
X137177395Y-99800500D01*
X137266539Y-99776614D01*
X137346463Y-99730470D01*
X137589114Y-99487819D01*
X137650437Y-99454334D01*
X137676795Y-99451500D01*
X137795085Y-99451500D01*
X137795087Y-99451500D01*
X137884231Y-99427614D01*
X137925379Y-99403857D01*
X137964155Y-99381470D01*
X138174661Y-99170962D01*
X138235984Y-99137478D01*
X138305675Y-99142462D01*
X138350023Y-99170963D01*
X138808781Y-99629721D01*
X138842266Y-99691044D01*
X138845100Y-99717402D01*
X138845100Y-102224658D01*
X138825415Y-102291697D01*
X138808781Y-102312339D01*
X137829731Y-103291388D01*
X137829729Y-103291391D01*
X137798541Y-103345412D01*
X137798539Y-103345415D01*
X137783586Y-103371311D01*
X137759700Y-103460458D01*
X137759700Y-104559540D01*
X115500500Y-104546696D01*
X115500500Y-97404852D01*
X126034000Y-97404852D01*
X126034000Y-97595147D01*
X126071121Y-97781764D01*
X126071124Y-97781776D01*
X126143938Y-97957566D01*
X126143945Y-97957579D01*
X126249658Y-98115788D01*
X126249661Y-98115792D01*
X126384207Y-98250338D01*
X126384211Y-98250341D01*
X126542420Y-98356054D01*
X126542429Y-98356059D01*
X126613359Y-98385439D01*
X126667762Y-98429280D01*
X126689827Y-98495574D01*
X126672548Y-98563273D01*
X126621411Y-98610884D01*
X126613359Y-98614561D01*
X126542429Y-98643940D01*
X126542420Y-98643945D01*
X126384211Y-98749658D01*
X126384207Y-98749661D01*
X126249661Y-98884207D01*
X126249658Y-98884211D01*
X126143945Y-99042420D01*
X126143938Y-99042433D01*
X126071124Y-99218223D01*
X126071121Y-99218235D01*
X126034000Y-99404852D01*
X126034000Y-99595147D01*
X126071121Y-99781764D01*
X126071124Y-99781776D01*
X126143938Y-99957566D01*
X126143945Y-99957579D01*
X126249658Y-100115788D01*
X126249661Y-100115792D01*
X126384207Y-100250338D01*
X126384211Y-100250341D01*
X126542420Y-100356054D01*
X126542433Y-100356061D01*
X126718223Y-100428875D01*
X126718228Y-100428877D01*
X126904852Y-100465999D01*
X126904855Y-100466000D01*
X126904857Y-100466000D01*
X127095145Y-100466000D01*
X127095146Y-100465999D01*
X127281772Y-100428877D01*
X127457573Y-100356058D01*
X127615789Y-100250341D01*
X127750341Y-100115789D01*
X127856058Y-99957573D01*
X127928877Y-99781772D01*
X127966000Y-99595143D01*
X127966000Y-99404857D01*
X127966000Y-99404854D01*
X127929964Y-99223692D01*
X127936191Y-99154100D01*
X127979054Y-99098923D01*
X128044944Y-99075678D01*
X128051581Y-99075500D01*
X131678513Y-99075500D01*
X131745552Y-99095185D01*
X131766194Y-99111819D01*
X132035845Y-99381470D01*
X132035846Y-99381471D01*
X132035848Y-99381472D01*
X132074621Y-99403857D01*
X132115769Y-99427614D01*
X132204913Y-99451500D01*
X132297201Y-99451500D01*
X132323205Y-99451500D01*
X132390244Y-99471185D01*
X132410886Y-99487819D01*
X132653537Y-99730470D01*
X132733461Y-99776614D01*
X132822605Y-99800500D01*
X132822606Y-99800500D01*
X132914893Y-99800500D01*
X132932745Y-99800500D01*
X132999784Y-99820185D01*
X133020426Y-99836819D01*
X133111652Y-99928045D01*
X133111654Y-99928046D01*
X133111658Y-99928050D01*
X133224694Y-99985645D01*
X133224698Y-99985647D01*
X133318475Y-100000499D01*
X133318481Y-100000500D01*
X134406518Y-100000499D01*
X134500304Y-99985646D01*
X134613342Y-99928050D01*
X134703050Y-99838342D01*
X134760646Y-99725304D01*
X134760646Y-99725302D01*
X134760647Y-99725301D01*
X134775499Y-99631524D01*
X134775500Y-99631519D01*
X134775499Y-99268482D01*
X134760646Y-99174696D01*
X134703050Y-99061658D01*
X134703046Y-99061654D01*
X134703045Y-99061652D01*
X134613347Y-98971954D01*
X134613344Y-98971952D01*
X134613342Y-98971950D01*
X134530273Y-98929624D01*
X134500301Y-98914352D01*
X134406524Y-98899500D01*
X133318482Y-98899500D01*
X133237519Y-98912323D01*
X133224696Y-98914354D01*
X133111658Y-98971950D01*
X133111657Y-98971951D01*
X133111652Y-98971954D01*
X133086700Y-98996907D01*
X133025377Y-99030392D01*
X132955685Y-99025408D01*
X132911338Y-98996907D01*
X132734962Y-98820531D01*
X132734957Y-98820527D01*
X132655039Y-98774387D01*
X132655038Y-98774386D01*
X132655037Y-98774386D01*
X132565893Y-98750500D01*
X132565892Y-98750500D01*
X132447601Y-98750500D01*
X132418160Y-98741855D01*
X132388174Y-98735332D01*
X132383158Y-98731577D01*
X132380562Y-98730815D01*
X132359920Y-98714181D01*
X132233420Y-98587681D01*
X132199935Y-98526358D01*
X132204919Y-98456666D01*
X132233420Y-98412319D01*
X132359920Y-98285819D01*
X132421243Y-98252334D01*
X132447601Y-98249500D01*
X132565891Y-98249500D01*
X132565893Y-98249500D01*
X132655037Y-98225614D01*
X132656627Y-98224696D01*
X132734961Y-98179470D01*
X132911341Y-98003089D01*
X132972659Y-97969607D01*
X133042351Y-97974591D01*
X133086699Y-98003092D01*
X133111652Y-98028045D01*
X133111654Y-98028046D01*
X133111658Y-98028050D01*
X133224694Y-98085645D01*
X133224698Y-98085647D01*
X133318475Y-98100499D01*
X133318481Y-98100500D01*
X134406518Y-98100499D01*
X134500304Y-98085646D01*
X134613342Y-98028050D01*
X134703050Y-97938342D01*
X134760646Y-97825304D01*
X134760646Y-97825302D01*
X134760647Y-97825301D01*
X134775499Y-97731524D01*
X134775500Y-97731519D01*
X134775499Y-97368482D01*
X134760646Y-97274696D01*
X134703050Y-97161658D01*
X134703046Y-97161654D01*
X134703045Y-97161652D01*
X134613347Y-97071954D01*
X134613344Y-97071952D01*
X134613342Y-97071950D01*
X134536517Y-97032805D01*
X134500301Y-97014352D01*
X134406524Y-96999500D01*
X133318482Y-96999500D01*
X133237519Y-97012323D01*
X133224696Y-97014354D01*
X133111658Y-97071950D01*
X133111657Y-97071951D01*
X133111652Y-97071954D01*
X133020426Y-97163181D01*
X132959103Y-97196666D01*
X132932745Y-97199500D01*
X132822605Y-97199500D01*
X132752711Y-97218228D01*
X132752710Y-97218227D01*
X132733465Y-97223384D01*
X132733458Y-97223387D01*
X132653540Y-97269527D01*
X132653535Y-97269531D01*
X132410886Y-97512181D01*
X132349563Y-97545666D01*
X132323205Y-97548500D01*
X132204913Y-97548500D01*
X132115769Y-97572386D01*
X132115766Y-97572387D01*
X132035848Y-97618527D01*
X132035843Y-97618531D01*
X131766194Y-97888181D01*
X131704871Y-97921666D01*
X131678513Y-97924500D01*
X128051581Y-97924500D01*
X127984542Y-97904815D01*
X127938787Y-97852011D01*
X127928843Y-97782853D01*
X127929964Y-97776308D01*
X127966000Y-97595145D01*
X127966000Y-97404854D01*
X127965999Y-97404852D01*
X127928877Y-97218228D01*
X127912825Y-97179475D01*
X127856061Y-97042433D01*
X127856054Y-97042420D01*
X127750341Y-96884211D01*
X127750338Y-96884207D01*
X127615792Y-96749661D01*
X127615788Y-96749658D01*
X127457579Y-96643945D01*
X127457566Y-96643938D01*
X127281776Y-96571124D01*
X127281764Y-96571121D01*
X127095146Y-96534000D01*
X127095143Y-96534000D01*
X126904857Y-96534000D01*
X126904854Y-96534000D01*
X126718235Y-96571121D01*
X126718223Y-96571124D01*
X126542433Y-96643938D01*
X126542420Y-96643945D01*
X126384211Y-96749658D01*
X126384207Y-96749661D01*
X126249661Y-96884207D01*
X126249658Y-96884211D01*
X126143945Y-97042420D01*
X126143938Y-97042433D01*
X126071124Y-97218223D01*
X126071121Y-97218235D01*
X126034000Y-97404852D01*
X115500500Y-97404852D01*
X115500500Y-94259821D01*
X126034000Y-94259821D01*
X126034000Y-95740178D01*
X126048532Y-95813235D01*
X126048533Y-95813239D01*
X126048534Y-95813240D01*
X126103899Y-95896101D01*
X126177710Y-95945419D01*
X126186760Y-95951466D01*
X126186764Y-95951467D01*
X126259821Y-95965999D01*
X126259824Y-95966000D01*
X126259826Y-95966000D01*
X127740176Y-95966000D01*
X127740177Y-95965999D01*
X127813240Y-95951466D01*
X127896101Y-95896101D01*
X127951466Y-95813240D01*
X127966000Y-95740174D01*
X127966000Y-94259826D01*
X127966000Y-94259823D01*
X127965999Y-94259821D01*
X127951467Y-94186764D01*
X127951466Y-94186760D01*
X127930563Y-94155476D01*
X127896101Y-94103899D01*
X127813240Y-94048534D01*
X127813239Y-94048533D01*
X127813235Y-94048532D01*
X127740177Y-94034000D01*
X127740174Y-94034000D01*
X126259826Y-94034000D01*
X126259823Y-94034000D01*
X126186764Y-94048532D01*
X126186760Y-94048533D01*
X126103899Y-94103899D01*
X126048533Y-94186760D01*
X126048532Y-94186764D01*
X126034000Y-94259821D01*
X115500500Y-94259821D01*
X115500500Y-81624500D01*
X115520185Y-81557461D01*
X115572989Y-81511706D01*
X115624500Y-81500500D01*
X158375500Y-81500500D01*
X158442539Y-81520185D01*
G37*
%TD.AperFunction*%
%TA.AperFunction,Conductor*%
G36*
X139968833Y-102882561D02*
G01*
X140024766Y-102924433D01*
X140049183Y-102989897D01*
X140049499Y-102998743D01*
X140049499Y-104560862D01*
X138912843Y-104560206D01*
X138912843Y-103887399D01*
X138932528Y-103820360D01*
X138949162Y-103799718D01*
X139837818Y-102911062D01*
X139899141Y-102877577D01*
X139968833Y-102882561D01*
G37*
%TD.AperFunction*%
%TD*%
%TA.AperFunction,Conductor*%
%TO.N,/BMS/PowerNodeBMS*%
G36*
X158442539Y-94358085D02*
G01*
X158488294Y-94410889D01*
X158499500Y-94462400D01*
X158499500Y-101072400D01*
X158479815Y-101139439D01*
X158427011Y-101185194D01*
X158375500Y-101196400D01*
X153673516Y-101196400D01*
X153670000Y-101196300D01*
X153670000Y-94462400D01*
X153689685Y-94395361D01*
X153742489Y-94349606D01*
X153794000Y-94338400D01*
X158375500Y-94338400D01*
X158442539Y-94358085D01*
G37*
%TD.AperFunction*%
%TD*%
%TA.AperFunction,Conductor*%
%TO.N,/PD_Control/VCC*%
G36*
X149261913Y-112412618D02*
G01*
X149262401Y-112412924D01*
X149453810Y-112539917D01*
X149500334Y-112570784D01*
X149503615Y-112574065D01*
X149661444Y-112811951D01*
X149663163Y-112820739D01*
X149658163Y-112828168D01*
X149657628Y-112828503D01*
X149594059Y-112865906D01*
X149592741Y-112866573D01*
X149529205Y-112893847D01*
X149527496Y-112894429D01*
X149418024Y-112922497D01*
X149417554Y-112922608D01*
X149387303Y-112929046D01*
X149371020Y-112932512D01*
X149371017Y-112932512D01*
X149371017Y-112932513D01*
X149269793Y-112971005D01*
X149214305Y-113008174D01*
X149160370Y-113056333D01*
X149151916Y-113059287D01*
X149144304Y-113055879D01*
X149018405Y-112929980D01*
X149014978Y-112921707D01*
X149017835Y-112914046D01*
X149076894Y-112845902D01*
X149116397Y-112779054D01*
X149138336Y-112717403D01*
X149151804Y-112656774D01*
X149151886Y-112656438D01*
X149181857Y-112541654D01*
X149182457Y-112539925D01*
X149209361Y-112478619D01*
X149210005Y-112477367D01*
X149245887Y-112416728D01*
X149253048Y-112411354D01*
X149261913Y-112412618D01*
G37*
%TD.AperFunction*%
%TD*%
M02*
