%TF.GenerationSoftware,KiCad,Pcbnew,9.0.0*%
%TF.CreationDate,2026-01-14T01:15:15+05:30*%
%TF.ProjectId,PortablePower,506f7274-6162-46c6-9550-6f7765722e6b,rev?*%
%TF.SameCoordinates,Original*%
%TF.FileFunction,Soldermask,Top*%
%TF.FilePolarity,Negative*%
%FSLAX46Y46*%
G04 Gerber Fmt 4.6, Leading zero omitted, Abs format (unit mm)*
G04 Created by KiCad (PCBNEW 9.0.0) date 2026-01-14 01:15:15*
%MOMM*%
%LPD*%
G01*
G04 APERTURE LIST*
G04 Aperture macros list*
%AMRoundRect*
0 Rectangle with rounded corners*
0 $1 Rounding radius*
0 $2 $3 $4 $5 $6 $7 $8 $9 X,Y pos of 4 corners*
0 Add a 4 corners polygon primitive as box body*
4,1,4,$2,$3,$4,$5,$6,$7,$8,$9,$2,$3,0*
0 Add four circle primitives for the rounded corners*
1,1,$1+$1,$2,$3*
1,1,$1+$1,$4,$5*
1,1,$1+$1,$6,$7*
1,1,$1+$1,$8,$9*
0 Add four rect primitives between the rounded corners*
20,1,$1+$1,$2,$3,$4,$5,0*
20,1,$1+$1,$4,$5,$6,$7,0*
20,1,$1+$1,$6,$7,$8,$9,0*
20,1,$1+$1,$8,$9,$2,$3,0*%
G04 Aperture macros list end*
%ADD10C,0.387500*%
%ADD11C,0.010000*%
%ADD12RoundRect,0.250000X0.412500X0.650000X-0.412500X0.650000X-0.412500X-0.650000X0.412500X-0.650000X0*%
%ADD13R,0.500000X0.630000*%
%ADD14R,0.500000X0.410000*%
%ADD15R,2.450000X1.900000*%
%ADD16R,1.431000X1.431000*%
%ADD17C,1.431000*%
%ADD18C,3.390000*%
%ADD19RoundRect,0.050100X-0.099900X0.174900X-0.099900X-0.174900X0.099900X-0.174900X0.099900X0.174900X0*%
%ADD20RoundRect,0.050100X-0.099900X0.324900X-0.099900X-0.324900X0.099900X-0.324900X0.099900X0.324900X0*%
%ADD21RoundRect,0.050350X-0.424650X0.449650X-0.424650X-0.449650X0.424650X-0.449650X0.424650X0.449650X0*%
%ADD22R,4.000000X4.000000*%
%ADD23RoundRect,0.237500X-0.250000X-0.237500X0.250000X-0.237500X0.250000X0.237500X-0.250000X0.237500X0*%
%ADD24RoundRect,0.250000X-1.100000X0.412500X-1.100000X-0.412500X1.100000X-0.412500X1.100000X0.412500X0*%
%ADD25RoundRect,0.250000X0.625000X-0.400000X0.625000X0.400000X-0.625000X0.400000X-0.625000X-0.400000X0*%
%ADD26R,3.300000X3.175000*%
%ADD27RoundRect,0.237500X-0.300000X-0.237500X0.300000X-0.237500X0.300000X0.237500X-0.300000X0.237500X0*%
%ADD28RoundRect,0.250000X-0.412500X-1.100000X0.412500X-1.100000X0.412500X1.100000X-0.412500X1.100000X0*%
%ADD29C,4.000000*%
%ADD30C,2.200000*%
%ADD31R,0.200000X0.850000*%
%ADD32R,0.850000X0.200000*%
%ADD33R,3.900000X3.900000*%
%ADD34RoundRect,0.250000X-0.625000X0.400000X-0.625000X-0.400000X0.625000X-0.400000X0.625000X0.400000X0*%
%ADD35RoundRect,0.237500X0.237500X-0.300000X0.237500X0.300000X-0.237500X0.300000X-0.237500X-0.300000X0*%
%ADD36RoundRect,0.250000X0.475000X-0.337500X0.475000X0.337500X-0.475000X0.337500X-0.475000X-0.337500X0*%
%ADD37R,1.350000X1.350000*%
%ADD38O,1.350000X1.350000*%
G04 APERTURE END LIST*
D10*
%TO.C,J2*%
X121493750Y-119725000D02*
G75*
G02*
X121106250Y-119725000I-193750J0D01*
G01*
X121106250Y-119725000D02*
G75*
G02*
X121493750Y-119725000I193750J0D01*
G01*
X121493750Y-120575000D02*
G75*
G02*
X121106250Y-120575000I-193750J0D01*
G01*
X121106250Y-120575000D02*
G75*
G02*
X121493750Y-120575000I193750J0D01*
G01*
X121493750Y-121425000D02*
G75*
G02*
X121106250Y-121425000I-193750J0D01*
G01*
X121106250Y-121425000D02*
G75*
G02*
X121493750Y-121425000I193750J0D01*
G01*
X121493750Y-122275000D02*
G75*
G02*
X121106250Y-122275000I-193750J0D01*
G01*
X121106250Y-122275000D02*
G75*
G02*
X121493750Y-122275000I193750J0D01*
G01*
X122843750Y-119725000D02*
G75*
G02*
X122456250Y-119725000I-193750J0D01*
G01*
X122456250Y-119725000D02*
G75*
G02*
X122843750Y-119725000I193750J0D01*
G01*
X122843750Y-120575000D02*
G75*
G02*
X122456250Y-120575000I-193750J0D01*
G01*
X122456250Y-120575000D02*
G75*
G02*
X122843750Y-120575000I193750J0D01*
G01*
X122843750Y-121425000D02*
G75*
G02*
X122456250Y-121425000I-193750J0D01*
G01*
X122456250Y-121425000D02*
G75*
G02*
X122843750Y-121425000I193750J0D01*
G01*
X122843750Y-122275000D02*
G75*
G02*
X122456250Y-122275000I-193750J0D01*
G01*
X122456250Y-122275000D02*
G75*
G02*
X122843750Y-122275000I193750J0D01*
G01*
D11*
X122727920Y-118495410D02*
X122791400Y-118514210D01*
X122850740Y-118543540D01*
X122904230Y-118582550D01*
X122950300Y-118630090D01*
X122987600Y-118684770D01*
X123015060Y-118745010D01*
X123031850Y-118809040D01*
X123037510Y-118875000D01*
X123031850Y-118940960D01*
X123015060Y-119004990D01*
X122987600Y-119065230D01*
X122950300Y-119119910D01*
X122904230Y-119167450D01*
X122850740Y-119206460D01*
X122791400Y-119235790D01*
X122727920Y-119254590D01*
X122662180Y-119262310D01*
X122596070Y-119258730D01*
X122531550Y-119243950D01*
X122470480Y-119218410D01*
X122414640Y-119182840D01*
X122365680Y-119138290D01*
X122326620Y-119088500D01*
X121623380Y-119088500D01*
X121584320Y-119138290D01*
X121535360Y-119182840D01*
X121479520Y-119218410D01*
X121418450Y-119243950D01*
X121353930Y-119258730D01*
X121287820Y-119262310D01*
X121222080Y-119254590D01*
X121158600Y-119235790D01*
X121099260Y-119206460D01*
X121045770Y-119167450D01*
X120999700Y-119119910D01*
X120962400Y-119065230D01*
X120934940Y-119004990D01*
X120918150Y-118940960D01*
X120912490Y-118875000D01*
X120918150Y-118809040D01*
X120934940Y-118745010D01*
X120962400Y-118684770D01*
X120999700Y-118630090D01*
X121045770Y-118582550D01*
X121099260Y-118543540D01*
X121158600Y-118514210D01*
X121222080Y-118495410D01*
X121287820Y-118487690D01*
X121353930Y-118491270D01*
X121418450Y-118506050D01*
X121479520Y-118531590D01*
X121535360Y-118567160D01*
X121584320Y-118611710D01*
X121623380Y-118661500D01*
X122326620Y-118661500D01*
X122365680Y-118611710D01*
X122414640Y-118567160D01*
X122470480Y-118531590D01*
X122531550Y-118506050D01*
X122596070Y-118491270D01*
X122662180Y-118487690D01*
X122727920Y-118495410D01*
X122727920Y-122745410D02*
X122791400Y-122764210D01*
X122850740Y-122793540D01*
X122904230Y-122832550D01*
X122950300Y-122880090D01*
X122987600Y-122934770D01*
X123015060Y-122995010D01*
X123031850Y-123059040D01*
X123037510Y-123125000D01*
X123031850Y-123190960D01*
X123015060Y-123254990D01*
X122987600Y-123315230D01*
X122950300Y-123369910D01*
X122904230Y-123417450D01*
X122850740Y-123456460D01*
X122791400Y-123485790D01*
X122727920Y-123504590D01*
X122662180Y-123512310D01*
X122596070Y-123508730D01*
X122531550Y-123493950D01*
X122470480Y-123468410D01*
X122414640Y-123432840D01*
X122365680Y-123388290D01*
X122326620Y-123338500D01*
X121623380Y-123338500D01*
X121584320Y-123388290D01*
X121535360Y-123432840D01*
X121479520Y-123468410D01*
X121418450Y-123493950D01*
X121353930Y-123508730D01*
X121287820Y-123512310D01*
X121222080Y-123504590D01*
X121158600Y-123485790D01*
X121099260Y-123456460D01*
X121045770Y-123417450D01*
X120999700Y-123369910D01*
X120962400Y-123315230D01*
X120934940Y-123254990D01*
X120918150Y-123190960D01*
X120912490Y-123125000D01*
X120918150Y-123059040D01*
X120934940Y-122995010D01*
X120962400Y-122934770D01*
X120999700Y-122880090D01*
X121045770Y-122832550D01*
X121099260Y-122793540D01*
X121158600Y-122764210D01*
X121222080Y-122745410D01*
X121287820Y-122737690D01*
X121353930Y-122741270D01*
X121418450Y-122756050D01*
X121479520Y-122781590D01*
X121535360Y-122817160D01*
X121584320Y-122861710D01*
X121623380Y-122911500D01*
X122326620Y-122911500D01*
X122365680Y-122861710D01*
X122414640Y-122817160D01*
X122470480Y-122781590D01*
X122531550Y-122756050D01*
X122596070Y-122741270D01*
X122662180Y-122737690D01*
X122727920Y-122745410D01*
X122727920Y-117645410D02*
X122791400Y-117664210D01*
X122850740Y-117693540D01*
X122904230Y-117732550D01*
X122950300Y-117780090D01*
X122987600Y-117834770D01*
X123015060Y-117895010D01*
X123031850Y-117959040D01*
X123037510Y-118025000D01*
X123031850Y-118090960D01*
X123015060Y-118154990D01*
X122987600Y-118215230D01*
X122950300Y-118269910D01*
X122904230Y-118317450D01*
X122850740Y-118356460D01*
X122791400Y-118385790D01*
X122727920Y-118404590D01*
X122662180Y-118412310D01*
X122596070Y-118408730D01*
X122531550Y-118393950D01*
X122470480Y-118368410D01*
X122414640Y-118332840D01*
X122365680Y-118288290D01*
X122326620Y-118238500D01*
X121623380Y-118238500D01*
X121584320Y-118288290D01*
X121535360Y-118332840D01*
X121479520Y-118368410D01*
X121418450Y-118393950D01*
X121353930Y-118408730D01*
X121287820Y-118412310D01*
X121222080Y-118404590D01*
X121158600Y-118385790D01*
X121099260Y-118356460D01*
X121045770Y-118317450D01*
X120999700Y-118269910D01*
X120962400Y-118215230D01*
X120934940Y-118154990D01*
X120918150Y-118090960D01*
X120912490Y-118025000D01*
X120918150Y-117959040D01*
X120934940Y-117895010D01*
X120962400Y-117834770D01*
X120999700Y-117780090D01*
X121045770Y-117732550D01*
X121099260Y-117693540D01*
X121158600Y-117664210D01*
X121222080Y-117645410D01*
X121287820Y-117637690D01*
X121353930Y-117641270D01*
X121418450Y-117656050D01*
X121479520Y-117681590D01*
X121535360Y-117717160D01*
X121584320Y-117761710D01*
X121623380Y-117811500D01*
X122326620Y-117811500D01*
X122365680Y-117761710D01*
X122414640Y-117717160D01*
X122470480Y-117681590D01*
X122531550Y-117656050D01*
X122596070Y-117641270D01*
X122662180Y-117637690D01*
X122727920Y-117645410D01*
X122727920Y-123595410D02*
X122791400Y-123614210D01*
X122850740Y-123643540D01*
X122904230Y-123682550D01*
X122950300Y-123730090D01*
X122987600Y-123784770D01*
X123015060Y-123845010D01*
X123031850Y-123909040D01*
X123037510Y-123975000D01*
X123031850Y-124040960D01*
X123015060Y-124104990D01*
X122987600Y-124165230D01*
X122950300Y-124219910D01*
X122904230Y-124267450D01*
X122850740Y-124306460D01*
X122791400Y-124335790D01*
X122727920Y-124354590D01*
X122662180Y-124362310D01*
X122596070Y-124358730D01*
X122531550Y-124343950D01*
X122470480Y-124318410D01*
X122414640Y-124282840D01*
X122365680Y-124238290D01*
X122326620Y-124188500D01*
X121623380Y-124188500D01*
X121584320Y-124238290D01*
X121535360Y-124282840D01*
X121479520Y-124318410D01*
X121418450Y-124343950D01*
X121353930Y-124358730D01*
X121287820Y-124362310D01*
X121222080Y-124354590D01*
X121158600Y-124335790D01*
X121099260Y-124306460D01*
X121045770Y-124267450D01*
X120999700Y-124219910D01*
X120962400Y-124165230D01*
X120934940Y-124104990D01*
X120918150Y-124040960D01*
X120912490Y-123975000D01*
X120918150Y-123909040D01*
X120934940Y-123845010D01*
X120962400Y-123784770D01*
X120999700Y-123730090D01*
X121045770Y-123682550D01*
X121099260Y-123643540D01*
X121158600Y-123614210D01*
X121222080Y-123595410D01*
X121287820Y-123587690D01*
X121353930Y-123591270D01*
X121418450Y-123606050D01*
X121479520Y-123631590D01*
X121535360Y-123667160D01*
X121584320Y-123711710D01*
X121623380Y-123761500D01*
X122326620Y-123761500D01*
X122365680Y-123711710D01*
X122414640Y-123667160D01*
X122470480Y-123631590D01*
X122531550Y-123606050D01*
X122596070Y-123591270D01*
X122662180Y-123587690D01*
X122727920Y-123595410D01*
X118487340Y-115967480D02*
X118524580Y-115970410D01*
X118561620Y-115975280D01*
X118598340Y-115982090D01*
X118634670Y-115990810D01*
X118670480Y-116001420D01*
X118705700Y-116013890D01*
X118740210Y-116028190D01*
X118773920Y-116044270D01*
X118806750Y-116062090D01*
X118838600Y-116081610D01*
X118869380Y-116102770D01*
X118899020Y-116125510D01*
X118927420Y-116149770D01*
X118954520Y-116175480D01*
X118980230Y-116202580D01*
X119004490Y-116230980D01*
X119027230Y-116260620D01*
X119048390Y-116291400D01*
X119067910Y-116323250D01*
X119085730Y-116356080D01*
X119101810Y-116389790D01*
X119116110Y-116424300D01*
X119128580Y-116459520D01*
X119139190Y-116495330D01*
X119147910Y-116531660D01*
X119154720Y-116568380D01*
X119159590Y-116605420D01*
X119162520Y-116642660D01*
X119163500Y-116680000D01*
X119162520Y-116717340D01*
X119159590Y-116754580D01*
X119154720Y-116791620D01*
X119147910Y-116828340D01*
X119139190Y-116864670D01*
X119128580Y-116900480D01*
X119116110Y-116935700D01*
X119101810Y-116970210D01*
X119085730Y-117003920D01*
X119067910Y-117036750D01*
X119048390Y-117068600D01*
X119027230Y-117099380D01*
X119004490Y-117129020D01*
X118980230Y-117157420D01*
X118954520Y-117184520D01*
X118927420Y-117210230D01*
X118899020Y-117234490D01*
X118869380Y-117257230D01*
X118838600Y-117278390D01*
X118806750Y-117297910D01*
X118773920Y-117315730D01*
X118740210Y-117331810D01*
X118705700Y-117346110D01*
X118670480Y-117358580D01*
X118634670Y-117369190D01*
X118598340Y-117377910D01*
X118561620Y-117384720D01*
X118524580Y-117389590D01*
X118487340Y-117392520D01*
X118450000Y-117393500D01*
X117250000Y-117393500D01*
X117212660Y-117392520D01*
X117175420Y-117389590D01*
X117138380Y-117384720D01*
X117101660Y-117377910D01*
X117065330Y-117369190D01*
X117029520Y-117358580D01*
X116994300Y-117346110D01*
X116959790Y-117331810D01*
X116926080Y-117315730D01*
X116893250Y-117297910D01*
X116861400Y-117278390D01*
X116830620Y-117257230D01*
X116800980Y-117234490D01*
X116772580Y-117210230D01*
X116745480Y-117184520D01*
X116719770Y-117157420D01*
X116695510Y-117129020D01*
X116672770Y-117099380D01*
X116651610Y-117068600D01*
X116632090Y-117036750D01*
X116614270Y-117003920D01*
X116598190Y-116970210D01*
X116583890Y-116935700D01*
X116571420Y-116900480D01*
X116560810Y-116864670D01*
X116552090Y-116828340D01*
X116545280Y-116791620D01*
X116540410Y-116754580D01*
X116537480Y-116717340D01*
X116536500Y-116680000D01*
X116537480Y-116642660D01*
X116540410Y-116605420D01*
X116545280Y-116568380D01*
X116552090Y-116531660D01*
X116560810Y-116495330D01*
X116571420Y-116459520D01*
X116583890Y-116424300D01*
X116598190Y-116389790D01*
X116614270Y-116356080D01*
X116632090Y-116323250D01*
X116651610Y-116291400D01*
X116672770Y-116260620D01*
X116695510Y-116230980D01*
X116719770Y-116202580D01*
X116745480Y-116175480D01*
X116772580Y-116149770D01*
X116800980Y-116125510D01*
X116830620Y-116102770D01*
X116861400Y-116081610D01*
X116893250Y-116062090D01*
X116926080Y-116044270D01*
X116959790Y-116028190D01*
X116994300Y-116013890D01*
X117029520Y-116001420D01*
X117065330Y-115990810D01*
X117101660Y-115982090D01*
X117138380Y-115975280D01*
X117175420Y-115970410D01*
X117212660Y-115967480D01*
X117250000Y-115966500D01*
X118450000Y-115966500D01*
X118487340Y-115967480D01*
X118487340Y-124607480D02*
X118524580Y-124610410D01*
X118561620Y-124615280D01*
X118598340Y-124622090D01*
X118634670Y-124630810D01*
X118670480Y-124641420D01*
X118705700Y-124653890D01*
X118740210Y-124668190D01*
X118773920Y-124684270D01*
X118806750Y-124702090D01*
X118838600Y-124721610D01*
X118869380Y-124742770D01*
X118899020Y-124765510D01*
X118927420Y-124789770D01*
X118954520Y-124815480D01*
X118980230Y-124842580D01*
X119004490Y-124870980D01*
X119027230Y-124900620D01*
X119048390Y-124931400D01*
X119067910Y-124963250D01*
X119085730Y-124996080D01*
X119101810Y-125029790D01*
X119116110Y-125064300D01*
X119128580Y-125099520D01*
X119139190Y-125135330D01*
X119147910Y-125171660D01*
X119154720Y-125208380D01*
X119159590Y-125245420D01*
X119162520Y-125282660D01*
X119163500Y-125320000D01*
X119162520Y-125357340D01*
X119159590Y-125394580D01*
X119154720Y-125431620D01*
X119147910Y-125468340D01*
X119139190Y-125504670D01*
X119128580Y-125540480D01*
X119116110Y-125575700D01*
X119101810Y-125610210D01*
X119085730Y-125643920D01*
X119067910Y-125676750D01*
X119048390Y-125708600D01*
X119027230Y-125739380D01*
X119004490Y-125769020D01*
X118980230Y-125797420D01*
X118954520Y-125824520D01*
X118927420Y-125850230D01*
X118899020Y-125874490D01*
X118869380Y-125897230D01*
X118838600Y-125918390D01*
X118806750Y-125937910D01*
X118773920Y-125955730D01*
X118740210Y-125971810D01*
X118705700Y-125986110D01*
X118670480Y-125998580D01*
X118634670Y-126009190D01*
X118598340Y-126017910D01*
X118561620Y-126024720D01*
X118524580Y-126029590D01*
X118487340Y-126032520D01*
X118450000Y-126033500D01*
X117250000Y-126033500D01*
X117212660Y-126032520D01*
X117175420Y-126029590D01*
X117138380Y-126024720D01*
X117101660Y-126017910D01*
X117065330Y-126009190D01*
X117029520Y-125998580D01*
X116994300Y-125986110D01*
X116959790Y-125971810D01*
X116926080Y-125955730D01*
X116893250Y-125937910D01*
X116861400Y-125918390D01*
X116830620Y-125897230D01*
X116800980Y-125874490D01*
X116772580Y-125850230D01*
X116745480Y-125824520D01*
X116719770Y-125797420D01*
X116695510Y-125769020D01*
X116672770Y-125739380D01*
X116651610Y-125708600D01*
X116632090Y-125676750D01*
X116614270Y-125643920D01*
X116598190Y-125610210D01*
X116583890Y-125575700D01*
X116571420Y-125540480D01*
X116560810Y-125504670D01*
X116552090Y-125468340D01*
X116545280Y-125431620D01*
X116540410Y-125394580D01*
X116537480Y-125357340D01*
X116536500Y-125320000D01*
X116537480Y-125282660D01*
X116540410Y-125245420D01*
X116545280Y-125208380D01*
X116552090Y-125171660D01*
X116560810Y-125135330D01*
X116571420Y-125099520D01*
X116583890Y-125064300D01*
X116598190Y-125029790D01*
X116614270Y-124996080D01*
X116632090Y-124963250D01*
X116651610Y-124931400D01*
X116672770Y-124900620D01*
X116695510Y-124870980D01*
X116719770Y-124842580D01*
X116745480Y-124815480D01*
X116772580Y-124789770D01*
X116800980Y-124765510D01*
X116830620Y-124742770D01*
X116861400Y-124721610D01*
X116893250Y-124702090D01*
X116926080Y-124684270D01*
X116959790Y-124668190D01*
X116994300Y-124653890D01*
X117029520Y-124641420D01*
X117065330Y-124630810D01*
X117101660Y-124622090D01*
X117138380Y-124615280D01*
X117175420Y-124610410D01*
X117212660Y-124607480D01*
X117250000Y-124606500D01*
X118450000Y-124606500D01*
X118487340Y-124607480D01*
X123137340Y-115967480D02*
X123174580Y-115970410D01*
X123211620Y-115975280D01*
X123248340Y-115982090D01*
X123284670Y-115990810D01*
X123320480Y-116001420D01*
X123355700Y-116013890D01*
X123390210Y-116028190D01*
X123423920Y-116044270D01*
X123456750Y-116062090D01*
X123488600Y-116081610D01*
X123519380Y-116102770D01*
X123549020Y-116125510D01*
X123577420Y-116149770D01*
X123604520Y-116175480D01*
X123630230Y-116202580D01*
X123654490Y-116230980D01*
X123677230Y-116260620D01*
X123698390Y-116291400D01*
X123717910Y-116323250D01*
X123735730Y-116356080D01*
X123751810Y-116389790D01*
X123766110Y-116424300D01*
X123778580Y-116459520D01*
X123789190Y-116495330D01*
X123797910Y-116531660D01*
X123804720Y-116568380D01*
X123809590Y-116605420D01*
X123812520Y-116642660D01*
X123813500Y-116680000D01*
X123812520Y-116717340D01*
X123809590Y-116754580D01*
X123804720Y-116791620D01*
X123797910Y-116828340D01*
X123789190Y-116864670D01*
X123778580Y-116900480D01*
X123766110Y-116935700D01*
X123751810Y-116970210D01*
X123735730Y-117003920D01*
X123717910Y-117036750D01*
X123698390Y-117068600D01*
X123677230Y-117099380D01*
X123654490Y-117129020D01*
X123630230Y-117157420D01*
X123604520Y-117184520D01*
X123577420Y-117210230D01*
X123549020Y-117234490D01*
X123519380Y-117257230D01*
X123488600Y-117278390D01*
X123456750Y-117297910D01*
X123423920Y-117315730D01*
X123390210Y-117331810D01*
X123355700Y-117346110D01*
X123320480Y-117358580D01*
X123284670Y-117369190D01*
X123248340Y-117377910D01*
X123211620Y-117384720D01*
X123174580Y-117389590D01*
X123137340Y-117392520D01*
X123100000Y-117393500D01*
X121200000Y-117393500D01*
X121162660Y-117392520D01*
X121125420Y-117389590D01*
X121088380Y-117384720D01*
X121051660Y-117377910D01*
X121015330Y-117369190D01*
X120979520Y-117358580D01*
X120944300Y-117346110D01*
X120909790Y-117331810D01*
X120876080Y-117315730D01*
X120843250Y-117297910D01*
X120811400Y-117278390D01*
X120780620Y-117257230D01*
X120750980Y-117234490D01*
X120722580Y-117210230D01*
X120695480Y-117184520D01*
X120669770Y-117157420D01*
X120645510Y-117129020D01*
X120622770Y-117099380D01*
X120601610Y-117068600D01*
X120582090Y-117036750D01*
X120564270Y-117003920D01*
X120548190Y-116970210D01*
X120533890Y-116935700D01*
X120521420Y-116900480D01*
X120510810Y-116864670D01*
X120502090Y-116828340D01*
X120495280Y-116791620D01*
X120490410Y-116754580D01*
X120487480Y-116717340D01*
X120486500Y-116680000D01*
X120487480Y-116642660D01*
X120490410Y-116605420D01*
X120495280Y-116568380D01*
X120502090Y-116531660D01*
X120510810Y-116495330D01*
X120521420Y-116459520D01*
X120533890Y-116424300D01*
X120548190Y-116389790D01*
X120564270Y-116356080D01*
X120582090Y-116323250D01*
X120601610Y-116291400D01*
X120622770Y-116260620D01*
X120645510Y-116230980D01*
X120669770Y-116202580D01*
X120695480Y-116175480D01*
X120722580Y-116149770D01*
X120750980Y-116125510D01*
X120780620Y-116102770D01*
X120811400Y-116081610D01*
X120843250Y-116062090D01*
X120876080Y-116044270D01*
X120909790Y-116028190D01*
X120944300Y-116013890D01*
X120979520Y-116001420D01*
X121015330Y-115990810D01*
X121051660Y-115982090D01*
X121088380Y-115975280D01*
X121125420Y-115970410D01*
X121162660Y-115967480D01*
X121200000Y-115966500D01*
X123100000Y-115966500D01*
X123137340Y-115967480D01*
X123137340Y-124607480D02*
X123174580Y-124610410D01*
X123211620Y-124615280D01*
X123248340Y-124622090D01*
X123284670Y-124630810D01*
X123320480Y-124641420D01*
X123355700Y-124653890D01*
X123390210Y-124668190D01*
X123423920Y-124684270D01*
X123456750Y-124702090D01*
X123488600Y-124721610D01*
X123519380Y-124742770D01*
X123549020Y-124765510D01*
X123577420Y-124789770D01*
X123604520Y-124815480D01*
X123630230Y-124842580D01*
X123654490Y-124870980D01*
X123677230Y-124900620D01*
X123698390Y-124931400D01*
X123717910Y-124963250D01*
X123735730Y-124996080D01*
X123751810Y-125029790D01*
X123766110Y-125064300D01*
X123778580Y-125099520D01*
X123789190Y-125135330D01*
X123797910Y-125171660D01*
X123804720Y-125208380D01*
X123809590Y-125245420D01*
X123812520Y-125282660D01*
X123813500Y-125320000D01*
X123812520Y-125357340D01*
X123809590Y-125394580D01*
X123804720Y-125431620D01*
X123797910Y-125468340D01*
X123789190Y-125504670D01*
X123778580Y-125540480D01*
X123766110Y-125575700D01*
X123751810Y-125610210D01*
X123735730Y-125643920D01*
X123717910Y-125676750D01*
X123698390Y-125708600D01*
X123677230Y-125739380D01*
X123654490Y-125769020D01*
X123630230Y-125797420D01*
X123604520Y-125824520D01*
X123577420Y-125850230D01*
X123549020Y-125874490D01*
X123519380Y-125897230D01*
X123488600Y-125918390D01*
X123456750Y-125937910D01*
X123423920Y-125955730D01*
X123390210Y-125971810D01*
X123355700Y-125986110D01*
X123320480Y-125998580D01*
X123284670Y-126009190D01*
X123248340Y-126017910D01*
X123211620Y-126024720D01*
X123174580Y-126029590D01*
X123137340Y-126032520D01*
X123100000Y-126033500D01*
X121200000Y-126033500D01*
X121162660Y-126032520D01*
X121125420Y-126029590D01*
X121088380Y-126024720D01*
X121051660Y-126017910D01*
X121015330Y-126009190D01*
X120979520Y-125998580D01*
X120944300Y-125986110D01*
X120909790Y-125971810D01*
X120876080Y-125955730D01*
X120843250Y-125937910D01*
X120811400Y-125918390D01*
X120780620Y-125897230D01*
X120750980Y-125874490D01*
X120722580Y-125850230D01*
X120695480Y-125824520D01*
X120669770Y-125797420D01*
X120645510Y-125769020D01*
X120622770Y-125739380D01*
X120601610Y-125708600D01*
X120582090Y-125676750D01*
X120564270Y-125643920D01*
X120548190Y-125610210D01*
X120533890Y-125575700D01*
X120521420Y-125540480D01*
X120510810Y-125504670D01*
X120502090Y-125468340D01*
X120495280Y-125431620D01*
X120490410Y-125394580D01*
X120487480Y-125357340D01*
X120486500Y-125320000D01*
X120487480Y-125282660D01*
X120490410Y-125245420D01*
X120495280Y-125208380D01*
X120502090Y-125171660D01*
X120510810Y-125135330D01*
X120521420Y-125099520D01*
X120533890Y-125064300D01*
X120548190Y-125029790D01*
X120564270Y-124996080D01*
X120582090Y-124963250D01*
X120601610Y-124931400D01*
X120622770Y-124900620D01*
X120645510Y-124870980D01*
X120669770Y-124842580D01*
X120695480Y-124815480D01*
X120722580Y-124789770D01*
X120750980Y-124765510D01*
X120780620Y-124742770D01*
X120811400Y-124721610D01*
X120843250Y-124702090D01*
X120876080Y-124684270D01*
X120909790Y-124668190D01*
X120944300Y-124653890D01*
X120979520Y-124641420D01*
X121015330Y-124630810D01*
X121051660Y-124622090D01*
X121088380Y-124615280D01*
X121125420Y-124610410D01*
X121162660Y-124607480D01*
X121200000Y-124606500D01*
X123100000Y-124606500D01*
X123137340Y-124607480D01*
%TD*%
D12*
%TO.C,C2*%
X151562500Y-121250000D03*
X148437500Y-121250000D03*
%TD*%
D13*
%TO.C,Q4*%
X155975000Y-93565000D03*
X155325000Y-93565000D03*
X154675000Y-93565000D03*
X154025000Y-93565000D03*
D14*
X154025000Y-96545000D03*
X154675000Y-96545000D03*
X155325000Y-96545000D03*
X155975000Y-96545000D03*
D15*
X155000000Y-95390000D03*
%TD*%
D16*
%TO.C,J1*%
X127000000Y-95000000D03*
D17*
X127000000Y-97500000D03*
X127000000Y-99500000D03*
X127000000Y-102000000D03*
D18*
X124290000Y-91930000D03*
X124290000Y-105070000D03*
%TD*%
D19*
%TO.C,Q2*%
X134569200Y-93503200D03*
X133919200Y-93503200D03*
X133269200Y-93503200D03*
X133269200Y-95453200D03*
X133919200Y-95453200D03*
X134569200Y-95453200D03*
D20*
X133269200Y-94573200D03*
D21*
X134244200Y-94478200D03*
%TD*%
D22*
%TO.C,TP13*%
X150000000Y-129000000D03*
%TD*%
D23*
%TO.C,R2*%
X150587500Y-111000000D03*
X152412500Y-111000000D03*
%TD*%
D24*
%TO.C,C5*%
X135534400Y-98538900D03*
X135534400Y-101663900D03*
%TD*%
D25*
%TO.C,R8*%
X151300000Y-94050000D03*
X151300000Y-90950000D03*
%TD*%
D26*
%TO.C,L1*%
X140000000Y-130715000D03*
X140000000Y-119285000D03*
%TD*%
D23*
%TO.C,R5*%
X150587500Y-107800000D03*
X152412500Y-107800000D03*
%TD*%
D27*
%TO.C,C11*%
X150637500Y-112600000D03*
X152362500Y-112600000D03*
%TD*%
D28*
%TO.C,C10*%
X142562500Y-93250000D03*
X145687500Y-93250000D03*
%TD*%
D29*
%TO.C,TP12*%
X154000000Y-88000000D03*
%TD*%
D30*
%TO.C,H1*%
X120500000Y-130000000D03*
%TD*%
D31*
%TO.C,IC1*%
X140800000Y-112950000D03*
X141200000Y-112950000D03*
X141600000Y-112950000D03*
X142000000Y-112950000D03*
X142400000Y-112950000D03*
X142800000Y-112950000D03*
X143200000Y-112950000D03*
X143600000Y-112950000D03*
X144000000Y-112950000D03*
X144400000Y-112950000D03*
X144800000Y-112950000D03*
X145200000Y-112950000D03*
D32*
X145950000Y-112200000D03*
X145950000Y-111800000D03*
X145950000Y-111400000D03*
X145950000Y-111000000D03*
X145950000Y-110600000D03*
X145950000Y-110200000D03*
X145950000Y-109800000D03*
X145950000Y-109400000D03*
X145950000Y-109000000D03*
X145950000Y-108600000D03*
X145950000Y-108200000D03*
X145950000Y-107800000D03*
D31*
X145200000Y-107050000D03*
X144800000Y-107050000D03*
X144400000Y-107050000D03*
X144000000Y-107050000D03*
X143600000Y-107050000D03*
X143200000Y-107050000D03*
X142800000Y-107050000D03*
X142400000Y-107050000D03*
X142000000Y-107050000D03*
X141600000Y-107050000D03*
X141200000Y-107050000D03*
X140800000Y-107050000D03*
D32*
X140050000Y-107800000D03*
X140050000Y-108200000D03*
X140050000Y-108600000D03*
X140050000Y-109000000D03*
X140050000Y-109400000D03*
X140050000Y-109800000D03*
X140050000Y-110200000D03*
X140050000Y-110600000D03*
X140050000Y-111000000D03*
X140050000Y-111400000D03*
X140050000Y-111800000D03*
X140050000Y-112200000D03*
D33*
X143000000Y-110000000D03*
%TD*%
D28*
%TO.C,C9*%
X142562500Y-100250000D03*
X145687500Y-100250000D03*
%TD*%
%TO.C,C8*%
X142562500Y-96750000D03*
X145687500Y-96750000D03*
%TD*%
D34*
%TO.C,R1*%
X142342200Y-87281000D03*
X142342200Y-90381000D03*
%TD*%
D19*
%TO.C,Q1*%
X130584700Y-118201800D03*
X129934700Y-118201800D03*
X129284700Y-118201800D03*
X129284700Y-120151800D03*
X129934700Y-120151800D03*
X130584700Y-120151800D03*
D20*
X129284700Y-119271800D03*
D21*
X130259700Y-119176800D03*
%TD*%
D24*
%TO.C,C4*%
X128139464Y-123937500D03*
X128139464Y-127062500D03*
%TD*%
%TO.C,C6*%
X138750000Y-87602500D03*
X138750000Y-90727500D03*
%TD*%
D35*
%TO.C,C3*%
X143200000Y-116432500D03*
X143200000Y-114707500D03*
%TD*%
D36*
%TO.C,C7*%
X146038300Y-89868500D03*
X146038300Y-87793500D03*
%TD*%
D12*
%TO.C,C1*%
X151562500Y-124250000D03*
X148437500Y-124250000D03*
%TD*%
D23*
%TO.C,R3*%
X150587500Y-109400000D03*
X152412500Y-109400000D03*
%TD*%
D37*
%TO.C,TP1*%
X149750000Y-117300000D03*
D38*
X149750000Y-115300000D03*
%TD*%
M02*
